<?xml version="1.0" encoding="UTF-8" standalone="no"?>
<!-- Created with Inkscape (http://www.inkscape.org/) -->

<svg
   xmlns:dc="http://purl.org/dc/elements/1.1/"
   xmlns:cc="http://creativecommons.org/ns#"
   xmlns:rdf="http://www.w3.org/1999/02/22-rdf-syntax-ns#"
   xmlns:svg="http://www.w3.org/2000/svg"
   xmlns="http://www.w3.org/2000/svg"
   xmlns:sodipodi="http://sodipodi.sourceforge.net/DTD/sodipodi-0.dtd"
   xmlns:inkscape="http://www.inkscape.org/namespaces/inkscape"
   width="254.00728mm"
   height="168.03757mm"
   viewBox="0 0 254.00728 168.03757"
   version="1.1"
   id="svg1029"
   inkscape:version="0.92.4 (33fec40, 2019-01-16)"
   sodipodi:docname="iot1.svg">
  <defs
     id="defs1023">
    <marker
       inkscape:isstock="true"
       style="overflow:visible"
       id="Arrow1Mend"
       refX="0"
       refY="0"
       orient="auto"
       inkscape:stockid="Arrow1Mend">
      <path
         inkscape:connector-curvature="0"
         transform="matrix(-0.4,0,0,-0.4,-4,0)"
         style="fill:#000000;fill-opacity:1;fill-rule:evenodd;stroke:#000000;stroke-width:1.00000003pt;stroke-opacity:1"
         d="M 0,0 5,-5 -12.5,0 5,5 Z"
         id="path956" />
    </marker>
    <marker
       inkscape:isstock="true"
       style="overflow:visible"
       id="Arrow2Lend"
       refX="0"
       refY="0"
       orient="auto"
       inkscape:stockid="Arrow2Lend">
      <path
         inkscape:connector-curvature="0"
         transform="matrix(-1.1,0,0,-1.1,-1.1,0)"
         d="M 8.7185878,4.0337352 -2.2072895,0.01601326 8.7185884,-4.0017078 c -1.7454984,2.3720609 -1.7354408,5.6174519 -6e-7,8.035443 z"
         style="fill:#000000;fill-opacity:1;fill-rule:evenodd;stroke:#000000;stroke-width:0.625;stroke-linejoin:round;stroke-opacity:1"
         id="path968" />
    </marker>
    <marker
       inkscape:isstock="true"
       style="overflow:visible"
       id="Tail"
       refX="0"
       refY="0"
       orient="auto"
       inkscape:stockid="Tail">
      <g
         style="fill:#000000;fill-opacity:1;stroke:#000000;stroke-opacity:1"
         transform="scale(-1.2)"
         id="g995">
        <path
           inkscape:connector-curvature="0"
           style="fill:#000000;fill-opacity:1;fill-rule:evenodd;stroke:#000000;stroke-width:0.80000001;stroke-linecap:round;stroke-opacity:1"
           d="M -3.8048674,-3.9585227 0.54352094,0"
           id="path983" />
        <path
           inkscape:connector-curvature="0"
           style="fill:#000000;fill-opacity:1;fill-rule:evenodd;stroke:#000000;stroke-width:0.80000001;stroke-linecap:round;stroke-opacity:1"
           d="M -1.2866832,-3.9585227 3.0617053,0"
           id="path985" />
        <path
           inkscape:connector-curvature="0"
           style="fill:#000000;fill-opacity:1;fill-rule:evenodd;stroke:#000000;stroke-width:0.80000001;stroke-linecap:round;stroke-opacity:1"
           d="M 1.3053582,-3.9585227 5.6537466,0"
           id="path987" />
        <path
           inkscape:connector-curvature="0"
           style="fill:#000000;fill-opacity:1;fill-rule:evenodd;stroke:#000000;stroke-width:0.80000001;stroke-linecap:round;stroke-opacity:1"
           d="M -3.8048674,4.1775838 0.54352094,0.21974226"
           id="path989" />
        <path
           inkscape:connector-curvature="0"
           style="fill:#000000;fill-opacity:1;fill-rule:evenodd;stroke:#000000;stroke-width:0.80000001;stroke-linecap:round;stroke-opacity:1"
           d="M -1.2866832,4.1775838 3.0617053,0.21974226"
           id="path991" />
        <path
           inkscape:connector-curvature="0"
           style="fill:#000000;fill-opacity:1;fill-rule:evenodd;stroke:#000000;stroke-width:0.80000001;stroke-linecap:round;stroke-opacity:1"
           d="M 1.3053582,4.1775838 5.6537466,0.21974226"
           id="path993" />
      </g>
    </marker>
    <marker
       inkscape:isstock="true"
       style="overflow:visible"
       id="Arrow1Lend"
       refX="0"
       refY="0"
       orient="auto"
       inkscape:stockid="Arrow1Lend">
      <path
         inkscape:connector-curvature="0"
         transform="matrix(-0.8,0,0,-0.8,-10,0)"
         style="fill:#000000;fill-opacity:1;fill-rule:evenodd;stroke:#000000;stroke-width:1.00000003pt;stroke-opacity:1"
         d="M 0,0 5,-5 -12.5,0 5,5 Z"
         id="path950" />
    </marker>
  </defs>
  <sodipodi:namedview
     id="base"
     pagecolor="#ffffff"
     bordercolor="#666666"
     borderopacity="1.0"
     inkscape:pageopacity="0.0"
     inkscape:pageshadow="2"
     inkscape:zoom="0.175"
     inkscape:cx="406.33775"
     inkscape:cy="220.61335"
     inkscape:document-units="mm"
     inkscape:current-layer="layer1"
     showgrid="false"
     fit-margin-top="0"
     fit-margin-left="0"
     fit-margin-right="0"
     fit-margin-bottom="0"
     inkscape:window-width="1366"
     inkscape:window-height="713"
     inkscape:window-x="0"
     inkscape:window-y="27"
     inkscape:window-maximized="1" />
  <metadata
     id="metadata1026">
    <rdf:RDF>
      <cc:Work
         rdf:about="">
        <dc:format>image/svg+xml</dc:format>
        <dc:type
           rdf:resource="http://purl.org/dc/dcmitype/StillImage" />
        <dc:title></dc:title>
      </cc:Work>
    </rdf:RDF>
  </metadata>
  <g
     inkscape:label="Capa 1"
     inkscape:groupmode="layer"
     id="layer1"
     transform="translate(103.09655,-188.14273)">
    <path
       sodipodi:nodetypes="ccsccsccsccsccccccsccccsccscscssscccssscccssssccccccccscccsccccccsccsscsscssscccccccccccccssssccccccccccccccccccsccccccscscccsccscccscccccccccccccccssscccsccsscccscscscccssccssssssscscsscccsss"
       inkscape:connector-curvature="0"
       id="path1618"
       d="m 1.393523,355.79637 c -1.080284,-0.4848 -1.605516,-1.01897 -2.125163,-2.16133 -0.457771,-1.00633 -0.481711,-2.80392 -0.487235,-36.58714 -0.0048,-29.25163 0.05734,-35.67997 0.351652,-36.38434 0.481608,-1.15265 2.047722,-2.48186 3.331488,-2.82754 0.709999,-0.19119 6.944765,-0.25906 19.251911,-0.20958 20.692645,0.0832 19.537143,-0.0426 21.015656,2.28873 l 0.758066,1.19535 v 35.78201 c 0,24.70253 -0.08738,36.01265 -0.282208,36.52685 -0.155215,0.40966 -0.542168,1.02312 -0.859895,1.36325 -1.300412,1.39209 -0.912239,1.3676 -21.313646,1.34447 -13.84831,-0.0157 -19.137098,-0.10476 -19.640626,-0.33073 z m 22.674005,-1.37101 c 0.309648,-1.23375 -0.223371,-1.47821 -3.041017,-1.39473 l -2.539738,0.0753 -0.08212,0.99218 -0.08212,0.99219 h 2.789055 c 2.758178,0 2.790904,-0.007 2.955935,-0.66489 z m 14.65987,-37.30282 v -34.52812 h -1.670034 c -1.547789,0 -1.712876,0.0579 -2.255293,0.7916 -0.321892,0.43538 -1.088424,1.06046 -1.703403,1.38906 -1.110382,0.59331 -1.196208,0.59746 -12.362937,0.59746 -12.492908,0 -11.911153,0.0774 -13.744091,-1.82951 -0.798023,-0.83024 -1.070396,-0.94861 -2.182812,-0.94861 H 3.537814 v 34.35173 c 0,18.89346 0.07937,34.43112 0.17639,34.52813 0.09701,0.097 8.014668,0.17639 17.594792,0.17639 H 38.727398 Z M 120.48365,307.0544 c -9.58666,-2.05572 -17.25677,-9.50302 -19.62193,-19.05192 -0.82639,-3.3364 -0.82639,-8.53806 0,-11.87446 0.63145,-2.54937 2.37361,-6.48651 3.76526,-8.50921 2.36535,-3.43791 6.5274,-6.92547 10.40036,-8.71488 3.82774,-1.76853 5.57336,-2.10817 10.74797,-2.09123 4.25626,0.0139 4.81818,0.0729 6.95764,0.73002 4.39435,1.3497 7.95765,3.50978 11.06362,6.70681 4.89583,5.03936 7.11416,10.59464 7.11416,17.81572 0,7.51167 -2.52006,13.47256 -7.81448,18.48417 -3.52764,3.3392 -7.71186,5.54014 -12.34884,6.49561 -2.51653,0.51854 -7.8665,0.52342 -10.26376,0.009 z m 15.1492,-10.72048 c 1.26931,-0.57833 1.27631,-0.64633 1.26998,-12.33706 -0.003,-6.05362 -0.0741,-11.07472 -0.15739,-11.15801 -0.0833,-0.0833 -5.13967,-0.19866 -11.23641,-0.25639 l -11.08497,-0.10495 -0.17599,0.7012 c -0.0968,0.38566 -0.12965,5.47213 -0.073,11.30327 l 0.10298,10.60207 0.85802,0.76664 0.85802,0.76664 h 9.50837 c 6.19653,0 9.72504,-0.0987 10.1304,-0.28341 z m -11.68416,-7.94593 c -3.62265,-1.10033 -5.49532,-5.07926 -3.97198,-8.43941 0.72544,-1.60013 1.44401,-2.33171 3.02048,-3.07514 2.5917,-1.22218 5.99114,-0.43537 7.45163,1.7247 2.0827,3.08034 2.3529,3.85429 1.57188,4.50247 -0.20306,0.16853 -0.44294,0.69951 -0.53308,1.17997 -0.21104,1.12494 -1.77253,2.94538 -3.113,3.62924 -1.261,0.64332 -3.19447,0.85221 -4.42593,0.47817 z m -2.539,-6.32274 c 0,-0.64672 -0.13042,-0.94391 -0.44042,-1.00361 -0.52201,-0.10053 -0.86306,0.76041 -0.61314,1.54782 0.29017,0.91425 1.05356,0.51993 1.05356,-0.54421 z m -203.592629,24.72946 c -10.49747,-1.89895 -18.895451,-10.11067 -20.493001,-20.03848 -1.75988,-10.93668 2.0522,-20.42986 10.510291,-26.17364 15.86386,-10.77294 37.53324,-0.70895 39.67138,18.42472 1.85454,16.59588 -13.27504,30.75656 -29.68867,27.7874 z m 17.32516,-26.11852 c 0.10471,-3.23784 0.14773,-6.18464 0.0956,-6.54844 l -0.0948,-0.66146 h -13.09687 -13.09688 l -0.0708,6.54844 -0.0708,6.54844 h 13.07204 13.07204 z m 35.71955,3.14786 c -1.57875,-0.75235 -2.29638,-1.48453 -3.02047,-3.08172 -1.25292,-2.76365 -0.32604,-6.11174 2.16775,-7.83029 1.35754,-0.93552 3.46362,-1.4386 3.95702,-0.9452 0.41279,0.41279 -0.23194,1.10258 -1.03057,1.10258 -1.72393,0 -3.75679,1.82853 -4.29885,3.86677 -0.70062,2.63446 1.02898,5.49448 3.743,6.18932 1.71643,0.43944 1.84185,0.50184 1.72482,0.85811 -0.192,0.58445 -1.85296,0.50272 -3.2427,-0.15957 z m 8.212,0.085 c -2.39911,-1.21189 -3.58323,-3.14055 -3.57931,-5.82991 0.003,-2.2133 1.03627,-4.14417 2.82362,-5.27768 1.38282,-0.87696 3.39241,-1.29478 3.87452,-0.80556 0.42929,0.43562 -0.31608,0.95808 -1.67741,1.17577 -1.44789,0.23152 -3.27371,1.99904 -3.69597,3.57793 -0.73389,2.74418 0.99044,5.66623 3.76252,6.37594 1.71644,0.43945 1.84185,0.50185 1.7247,0.85811 -0.18032,0.54833 -2.08657,0.50435 -3.23267,-0.0746 z m 8.32446,0.11628 c -2.26894,-0.98126 -3.79626,-3.31701 -3.79028,-5.79651 0.007,-2.69271 1.29426,-4.7604 3.64717,-5.85606 1.56294,-0.72779 2.73585,-0.80788 2.96809,-0.20265 0.20095,0.52366 -0.21444,0.79504 -1.54183,1.0073 -1.33918,0.21414 -2.96993,1.69047 -3.55261,3.21618 -1.15794,3.03202 0.80515,6.25347 4.18769,6.87205 0.73226,0.13392 0.99219,0.31236 0.99219,0.68117 0,0.40291 -0.19223,0.49771 -0.99219,0.48936 -0.5457,-0.006 -1.40891,-0.19057 -1.91823,-0.41084 z m 65.714806,0.0307 c -0.211918,-0.55225 0.175966,-0.82403 1.471774,-1.03124 1.328563,-0.21244 3.042052,-1.7383 3.603773,-3.20915 1.143421,-2.994 -0.911323,-6.39686 -4.178025,-6.91923 -0.739923,-0.11831 -0.995661,-0.28644 -0.995661,-0.65456 0,-0.66407 1.586428,-0.66497 3.042708,-0.002 3.664379,1.66888 4.795038,6.40168 2.329998,9.75308 -1.255864,1.70744 -4.868741,3.1204 -5.274567,2.06283 z m 8.120957,0.142 c -0.542505,-0.34328 0.105309,-1.07445 0.951965,-1.07445 1.039313,0 2.687021,-0.99642 3.497236,-2.11489 1.404469,-1.93881 1.291881,-4.44245 -0.280299,-6.23307 -0.96447,-1.09847 -1.518571,-1.42346 -3.126076,-1.83354 -1.720594,-0.43893 -1.607484,-1.06657 0.189656,-1.05238 1.65627,0.0131 3.179463,0.9496 4.423653,2.71986 0.654857,0.93175 0.811289,1.44979 0.897266,2.97136 0.08939,1.58191 0.0053,2.04487 -0.593842,3.26947 -0.769329,1.57245 -1.951437,2.61924 -3.624371,3.20949 -1.260054,0.44457 -1.80042,0.47654 -2.335188,0.13815 z m 8.005921,-0.17511 c -0.191013,-0.49777 0.327361,-0.88958 1.184476,-0.89529 0.679881,-0.005 2.045639,-0.63663 2.79314,-1.29272 1.365629,-1.19865 1.914983,-4.06885 1.135737,-5.93385 -0.495339,-1.18551 -2.063795,-2.48908 -3.409376,-2.83357 -1.716426,-0.43944 -1.841849,-0.50184 -1.724816,-0.85811 0.335048,-1.01992 3.745929,-0.0724 5.144503,1.42916 1.456703,1.56393 2.007227,4.13672 1.37853,6.44234 -0.379633,1.39222 -2.619463,3.59694 -4.104783,4.04044 -1.470486,0.43908 -2.202696,0.40902 -2.397411,-0.0984 z M 13.44908,270.93558 c -0.249667,-0.40396 0.1036,-2.04354 0.68648,-3.18608 1.083304,-2.12346 4.088579,-3.65572 6.411483,-3.26895 3.011234,0.50139 5.480355,3.11553 5.480355,5.80224 0,0.71635 -0.108932,0.93454 -0.466553,0.93454 -0.343183,0 -0.551855,-0.3591 -0.789149,-1.35805 -0.778219,-3.27612 -3.943205,-5.01646 -6.888734,-3.78791 -1.875772,0.78236 -2.816082,2.02395 -3.346217,4.41836 -0.161394,0.72894 -0.760839,0.97467 -1.087665,0.44585 z m 0.153204,-8.04021 c -0.494578,-0.59593 -0.08627,-2.35584 0.873961,-3.76705 2.305865,-3.38879 7.279756,-3.75969 9.930606,-0.74051 1.088403,1.23964 1.620547,2.45229 1.620547,3.6929 0,0.7398 -0.104135,0.93454 -0.499722,0.93454 -0.3683,0 -0.54819,-0.26093 -0.684027,-0.99219 -0.874665,-4.7086 -6.39269,-6.10742 -9.260496,-2.34753 -0.393774,0.51626 -0.780193,1.4176 -0.858708,2.00298 -0.170727,1.27286 -0.647028,1.78936 -1.122161,1.21686 z m -0.164621,-8.47264 c -0.210913,-0.84034 0.449273,-2.77739 1.348327,-3.95611 1.606624,-2.10639 5.152483,-2.89424 7.67965,-1.70633 2.13908,1.00548 3.739198,3.45911 3.519107,5.3962 -0.1377,1.21194 -0.799989,0.98035 -1.152927,-0.40316 -0.410078,-1.60751 -0.735076,-2.16161 -1.833547,-3.12608 -1.825223,-1.60256 -4.440933,-1.66132 -6.432172,-0.14448 -0.962226,0.73298 -1.915787,2.39587 -1.915787,3.3409 0,0.60759 -0.433861,1.25408 -0.841626,1.25408 -0.113644,0 -0.280604,-0.29476 -0.371025,-0.65502 z m 3.417726,-15.85819 C 6.171318,236.52369 -1.753416,228.83935 -3.90007,218.43869 c -0.548915,-2.65952 -0.64179,-6.49886 -0.220946,-9.13386 0.422291,-2.64408 1.89597,-6.6546 3.325032,-9.04887 1.401048,-2.34733 5.199454,-6.43338 7.290689,-7.8428 4.392239,-2.96022 8.88429,-4.27988 14.536116,-4.27038 6.558539,0.011 11.399726,1.67105 16.176535,5.54685 7.709918,6.25566 11.058324,16.64542 8.485878,26.33083 -0.586438,2.20797 -2.499569,6.22229 -3.890193,8.1628 -2.528228,3.52793 -6.814023,6.98191 -10.732296,8.64928 -4.170069,1.77452 -10.167387,2.50524 -14.215356,1.732 z m 7.29035,-25.30698 c 2.034141,-0.46894 4.019013,-1.59561 5.819947,-3.30355 0.962639,-0.91293 1.679401,-1.73152 1.592805,-1.81909 -0.0866,-0.0876 -4.849098,-0.12806 -10.583333,-0.09 l -10.425885,0.0693 1.396153,1.48827 c 1.468393,1.56527 3.818678,2.99132 5.856557,3.55349 1.487856,0.41044 4.775692,0.46309 6.343756,0.10159 z"
       style="fill:#a7dbf1;stroke-width:0.26458335" />
    <path
       sodipodi:nodetypes="ccsccccccccccccccccccccsccscccccscscccsscssssccccscccccscccccsccsccccccccccsscscccsccsccsssssscccccccccccssssscscssssssss"
       inkscape:connector-curvature="0"
       id="path1616"
       d="m 1.540321,355.77642 c -0.962646,-0.4193 -2.158547,-1.77374 -2.434354,-2.75708 -0.109099,-0.38897 -0.198361,-16.72973 -0.198361,-36.31281 v -35.60559 l 0.745104,-1.12612 c 0.468913,-0.70869 1.155432,-1.31241 1.852083,-1.6287 1.053428,-0.47827 2.006674,-0.50286 19.7045,-0.50839 17.733536,-0.006 18.643124,0.0175 19.579167,0.4952 1.212513,0.61884 1.769326,1.21988 2.294471,2.47673 0.359299,0.85993 0.406795,5.07348 0.40549,35.97365 -0.0011,23.25926 -0.09314,35.32971 -0.274751,35.98362 -0.325424,1.17174 -1.351449,2.45827 -2.387984,2.99428 -1.061627,0.54899 -38.027041,0.5633 -39.285365,0.0152 z m 22.323891,-0.65182 c 0.210706,-0.13359 0.316169,-0.58019 0.264583,-1.12043 l -0.08577,-0.89829 -2.756485,-0.0759 c -2.899804,-0.0798 -3.184184,0.0224 -3.19259,1.14746 -0.0073,0.97661 0.510937,1.1776 3.025429,1.17334 1.316963,-0.002 2.552139,-0.10401 2.744835,-0.22618 z m 14.795847,-3.54008 c 0.17186,-0.21691 0.205774,-12.16783 0.09854,-34.72656 l -0.163497,-34.39583 -1.50341,-0.0788 c -1.438505,-0.0754 -1.541307,-0.0367 -2.38125,0.89661 -1.766369,1.96272 -1.6613,1.948 -13.957327,1.95452 C 10.14689,285.24046 9.75292,285.22216 8.641237,284.68402 8.00925,284.37808 7.179223,283.71747 6.796731,283.216 6.15882,282.37965 6.000727,282.31076 4.885696,282.38318 l -1.215594,0.079 -0.06804,34.39583 c -0.03742,18.91771 -0.0114,34.54466 0.05784,34.72656 0.09894,0.25993 3.830633,0.33073 17.431999,0.33073 13.528749,0 17.363311,-0.0722 17.568154,-0.33073 z m 83.675671,-44.65463 c -12.36382,-1.71897 -21.68888,-12.40944 -21.68888,-24.86464 0,-12.7539 9.46469,-23.33431 22.26604,-24.8908 4.52175,-0.54979 9.27816,0.28534 13.57805,2.38405 6.96758,3.40076 11.37839,8.80361 13.51414,16.55363 0.61579,2.23455 0.72914,3.15993 0.72914,5.95312 0,2.79094 -0.11338,3.71809 -0.72622,5.93849 -2.12818,7.71077 -6.63374,13.23933 -13.48056,16.54136 -1.47528,0.71149 -3.69437,1.53933 -4.93129,1.83966 -2.62912,0.63834 -6.81686,0.88486 -9.26042,0.54513 z m 14.34883,-10.78036 0.86471,-0.86469 0.0857,-10.11552 c 0.0472,-5.56354 0.005,-11.34777 -0.0934,-12.85384 -0.16368,-2.50184 -0.24345,-2.81029 -0.92368,-3.57187 l -0.74453,-0.83357 -9.48082,-0.0818 c -10.17483,-0.0878 -11.04899,-0.002 -11.98016,1.18223 -0.53104,0.6751 -0.54337,0.98028 -0.54337,13.4517 0,12.63507 0.006,12.76802 0.56571,13.48011 0.31114,0.39555 0.81716,0.82294 1.12448,0.94975 0.30733,0.12681 4.99168,0.20618 10.40968,0.17639 l 9.85091,-0.0542 z m -5.61758,-13.93637 c 0,-1.08076 0.32874,-1.36887 0.90471,-0.7929 0.4945,0.4945 0.49872,0.52934 0.14432,1.19155 -0.45747,0.85477 -1.04903,0.62997 -1.04903,-0.39865 z m -14.6928,-11.28696 c -0.30944,-0.97497 0.2607,-1.23858 2.59544,-1.20001 l 2.17549,0.0359 v 0.79375 0.79375 l -2.30167,0.0523 c -2.09214,0.0475 -2.31693,0.004 -2.46926,-0.47572 z m 8.25461,0.37933 c -0.33683,-0.33683 -0.17405,-1.3554 0.24212,-1.5151 0.23019,-0.0883 1.65475,-0.1606 3.16569,-0.1606 2.36079,0 2.78255,0.0661 2.99864,0.46986 0.15952,0.29806 0.15811,0.63664 -0.004,0.92604 -0.21816,0.38982 -0.6896,0.45619 -3.24076,0.45619 -1.64201,0 -3.06484,-0.0794 -3.16186,-0.17639 z m -206.641419,35.08879 c -3.174,-0.53273 -7.20214,-2.16596 -9.96414,-4.04 -1.75131,-1.18828 -4.9207,-4.31594 -6.21569,-6.13386 -1.65806,-2.32759 -2.932921,-5.03558 -3.888681,-8.26016 -0.76123,-2.56824 -0.84544,-3.19493 -0.84544,-6.29192 0,-3.097 0.0842,-3.72369 0.84544,-6.29193 1.47552,-4.97813 3.508111,-8.39666 6.966641,-11.71692 2.36143,-2.26701 3.77784,-3.25267 6.64097,-4.62134 5.94444,-2.84164 13.38743,-3.13564 19.509,-0.77061 5.9579,2.3018 10.86711,6.81931 13.64131,12.55288 1.84285,3.8087 2.35031,6.15091 2.35031,10.84792 0,3.28454 -0.10328,4.35646 -0.59907,6.2177 -2.49044,9.34934 -10.20974,16.58913 -19.58246,18.36605 -2.31739,0.43934 -6.67133,0.50923 -8.85819,0.14219 z m 17.22635,-26.38204 0.0707,-6.68318 -13.29986,0.0686 -13.29986,0.0686 -0.071,6.31703 c -0.0502,4.46212 0.0182,6.42455 0.23288,6.6832 0.25271,0.30449 2.49332,0.35462 13.30018,0.29756 l 12.99628,-0.0686 z m 81.191527,-42.01405 c -9.620401,-1.91169 -17.038786,-8.9079 -19.647387,-18.52929 -0.770218,-2.84081 -0.709488,-9.80115 0.110614,-12.67765 2.146748,-7.5297 7.794088,-13.84541 14.875336,-16.63585 7.057882,-2.78124 13.49257,-2.5449 20.236712,0.74327 11.73947,5.72368 17.154072,19.52587 12.397142,31.60115 -1.918613,4.87031 -5.996017,9.71798 -10.350188,12.30544 -2.408047,1.43097 -6.420101,2.90366 -9.058413,3.32503 -2.32111,0.37071 -6.345896,0.30863 -8.563816,-0.1321 z m 10.478833,-25.18901 c 1.632493,-0.80893 2.632253,-1.53742 3.849286,-2.80483 0.904216,-0.94165 1.644031,-1.84146 1.644031,-1.99957 0,-0.20242 -3.327488,-0.28749 -11.244792,-0.28749 -8.022939,0 -11.244792,0.0837 -11.244792,0.29196 0,0.52086 3.537853,3.84589 4.7625,4.47601 2.523549,1.29845 3.902094,1.59137 7.064775,1.50118 2.864697,-0.0817 3.037427,-0.12103 5.168992,-1.17726 z"
       style="fill:#f96a90;stroke-width:0.26458335" />
    <path
       sodipodi:nodetypes="ccsccccccccccccccccccccsccscccccscscccsscssssccccscccccscccccsccsccccccccccsscscccsccsccsssssscccccccccccssssscscssssssss"
       inkscape:connector-curvature="0"
       id="path1614"
       d="m 1.540321,355.77642 c -0.962646,-0.4193 -2.158547,-1.77374 -2.434354,-2.75708 -0.109099,-0.38897 -0.198361,-16.72973 -0.198361,-36.31281 v -35.60559 l 0.745104,-1.12612 c 0.468913,-0.70869 1.155432,-1.31241 1.852083,-1.6287 1.053428,-0.47827 2.006674,-0.50286 19.7045,-0.50839 17.733536,-0.006 18.643124,0.0175 19.579167,0.4952 1.212513,0.61884 1.769326,1.21988 2.294471,2.47673 0.359299,0.85993 0.406795,5.07348 0.40549,35.97365 -0.0011,23.25926 -0.09314,35.32971 -0.274751,35.98362 -0.325424,1.17174 -1.351449,2.45827 -2.387984,2.99428 -1.061627,0.54899 -38.027041,0.5633 -39.285365,0.0152 z m 22.323891,-0.65182 c 0.210706,-0.13359 0.316169,-0.58019 0.264583,-1.12043 l -0.08577,-0.89829 -2.756485,-0.0759 c -2.899804,-0.0798 -3.184184,0.0224 -3.19259,1.14746 -0.0073,0.97661 0.510937,1.1776 3.025429,1.17334 1.316963,-0.002 2.552139,-0.10401 2.744835,-0.22618 z m 14.795847,-3.54008 c 0.17186,-0.21691 0.205774,-12.16783 0.09854,-34.72656 l -0.163497,-34.39583 -1.50341,-0.0788 c -1.438505,-0.0754 -1.541307,-0.0367 -2.38125,0.89661 -1.766369,1.96272 -1.6613,1.948 -13.957327,1.95452 C 10.14689,285.24046 9.75292,285.22216 8.641237,284.68402 8.00925,284.37808 7.179223,283.71747 6.796731,283.216 6.15882,282.37965 6.000727,282.31076 4.885696,282.38318 l -1.215594,0.079 -0.06804,34.39583 c -0.03742,18.91771 -0.0114,34.54466 0.05784,34.72656 0.09894,0.25993 3.830633,0.33073 17.431999,0.33073 13.528749,0 17.363311,-0.0722 17.568154,-0.33073 z m 83.675671,-44.65463 c -12.36382,-1.71897 -21.68888,-12.40944 -21.68888,-24.86464 0,-12.7539 9.46469,-23.33431 22.26604,-24.8908 4.52175,-0.54979 9.27816,0.28534 13.57805,2.38405 6.96758,3.40076 11.37839,8.80361 13.51414,16.55363 0.61579,2.23455 0.72914,3.15993 0.72914,5.95312 0,2.79094 -0.11338,3.71809 -0.72622,5.93849 -2.12818,7.71077 -6.63374,13.23933 -13.48056,16.54136 -1.47528,0.71149 -3.69437,1.53933 -4.93129,1.83966 -2.62912,0.63834 -6.81686,0.88486 -9.26042,0.54513 z m 14.34883,-10.78036 0.86471,-0.86469 0.0857,-10.11552 c 0.0472,-5.56354 0.005,-11.34777 -0.0934,-12.85384 -0.16368,-2.50184 -0.24345,-2.81029 -0.92368,-3.57187 l -0.74453,-0.83357 -9.48082,-0.0818 c -10.17483,-0.0878 -11.04899,-0.002 -11.98016,1.18223 -0.53104,0.6751 -0.54337,0.98028 -0.54337,13.4517 0,12.63507 0.006,12.76802 0.56571,13.48011 0.31114,0.39555 0.81716,0.82294 1.12448,0.94975 0.30733,0.12681 4.99168,0.20618 10.40968,0.17639 l 9.85091,-0.0542 z m -5.61758,-13.93637 c 0,-1.08076 0.32874,-1.36887 0.90471,-0.7929 0.4945,0.4945 0.49872,0.52934 0.14432,1.19155 -0.45747,0.85477 -1.04903,0.62997 -1.04903,-0.39865 z m -14.6928,-11.28696 c -0.30944,-0.97497 0.2607,-1.23858 2.59544,-1.20001 l 2.17549,0.0359 v 0.79375 0.79375 l -2.30167,0.0523 c -2.09214,0.0475 -2.31693,0.004 -2.46926,-0.47572 z m 8.25461,0.37933 c -0.33683,-0.33683 -0.17405,-1.3554 0.24212,-1.5151 0.23019,-0.0883 1.65475,-0.1606 3.16569,-0.1606 2.36079,0 2.78255,0.0661 2.99864,0.46986 0.15952,0.29806 0.15811,0.63664 -0.004,0.92604 -0.21816,0.38982 -0.6896,0.45619 -3.24076,0.45619 -1.64201,0 -3.06484,-0.0794 -3.16186,-0.17639 z m -206.641419,35.08879 c -3.174,-0.53273 -7.20214,-2.16596 -9.96414,-4.04 -1.75131,-1.18828 -4.9207,-4.31594 -6.21569,-6.13386 -1.65806,-2.32759 -2.932921,-5.03558 -3.888681,-8.26016 -0.76123,-2.56824 -0.84544,-3.19493 -0.84544,-6.29192 0,-3.097 0.0842,-3.72369 0.84544,-6.29193 1.47552,-4.97813 3.508111,-8.39666 6.966641,-11.71692 2.36143,-2.26701 3.77784,-3.25267 6.64097,-4.62134 5.94444,-2.84164 13.38743,-3.13564 19.509,-0.77061 5.9579,2.3018 10.86711,6.81931 13.64131,12.55288 1.84285,3.8087 2.35031,6.15091 2.35031,10.84792 0,3.28454 -0.10328,4.35646 -0.59907,6.2177 -2.49044,9.34934 -10.20974,16.58913 -19.58246,18.36605 -2.31739,0.43934 -6.67133,0.50923 -8.85819,0.14219 z m 17.22635,-26.38204 0.0707,-6.68318 -13.29986,0.0686 -13.29986,0.0686 -0.071,6.31703 c -0.0502,4.46212 0.0182,6.42455 0.23288,6.6832 0.25271,0.30449 2.49332,0.35462 13.30018,0.29756 l 12.99628,-0.0686 z m 81.191527,-42.01405 c -9.620401,-1.91169 -17.038786,-8.9079 -19.647387,-18.52929 -0.770218,-2.84081 -0.709488,-9.80115 0.110614,-12.67765 2.146748,-7.5297 7.794088,-13.84541 14.875336,-16.63585 7.057882,-2.78124 13.49257,-2.5449 20.236712,0.74327 11.73947,5.72368 17.154072,19.52587 12.397142,31.60115 -1.918613,4.87031 -5.996017,9.71798 -10.350188,12.30544 -2.408047,1.43097 -6.420101,2.90366 -9.058413,3.32503 -2.32111,0.37071 -6.345896,0.30863 -8.563816,-0.1321 z m 10.478833,-25.18901 c 1.632493,-0.80893 2.632253,-1.53742 3.849286,-2.80483 0.904216,-0.94165 1.644031,-1.84146 1.644031,-1.99957 0,-0.20242 -3.327488,-0.28749 -11.244792,-0.28749 -8.022939,0 -11.244792,0.0837 -11.244792,0.29196 0,0.52086 3.537853,3.84589 4.7625,4.47601 2.523549,1.29845 3.902094,1.59137 7.064775,1.50118 2.864697,-0.0817 3.037427,-0.12103 5.168992,-1.17726 z"
       style="fill:#f9ac25;fill-opacity:0.85074618;stroke-width:0.26458335" />
    <path
       sodipodi:nodetypes="ccscccscsccccccccssscccccccccsccccsscssssccccscccccscccccsscsssscssccccccsccsccsssssscccccsccccssssscscccscccssccscccccsccc"
       inkscape:connector-curvature="0"
       id="path1612"
       d="m 2.176755,355.92849 c -0.74717,-0.29996 -2.21150615,-1.81027 -2.56619615,-2.64678 -0.298956,-0.70506 -0.361003,-6.98519 -0.361003,-36.53952 v -35.68812 l 0.595312,-0.87469 c 0.327422,-0.48109 0.931392,-1.12377 1.34215215,-1.42819 0.738585,-0.54738 0.952148,-0.55439 19.314584,-0.63385 12.594915,-0.0545 18.879015,0.0104 19.535394,0.2017 1.217522,0.3549 2.488226,1.78148 2.893658,3.24862 0.486172,1.75931 0.118282,70.52491 -0.383636,71.70874 -0.199773,0.47119 -0.825574,1.27343 -1.390671,1.78275 l -1.027448,0.92604 -18.786028,0.0479 c -10.332313,0.0264 -18.957068,-0.0207 -19.166118,-0.10464 z m 22.057027,-0.75595 c 0.572802,-0.5728 0.520779,-1.59588 -0.113393,-2.23006 -0.451339,-0.45133 -0.881943,-0.52916 -2.92781,-0.52916 -2.952279,0 -3.42219,0.21199 -3.42219,1.54389 0,1.49043 0.288179,1.63111 3.341309,1.63111 2.107505,0 2.798305,-0.092 3.122084,-0.41578 z m 14.650357,-3.34131 c 0.421728,-0.42172 0.464574,-68.49872 0.04361,-69.28531 -0.225729,-0.42178 -0.563044,-0.51169 -1.918229,-0.51134 -1.581896,5.3e-4 -1.683012,0.0415 -2.662777,1.08281 -1.745594,1.85516 -1.54181,1.82785 -13.591292,1.82137 -12.103383,-0.007 -12.021148,0.005 -13.785249,-1.95505 -0.824812,-0.91649 -0.961803,-0.9711 -2.248958,-0.8966 l -1.370645,0.0793 -0.132292,34.66042 c -0.07461,19.54642 -0.03163,34.80463 0.09854,34.99115 0.329012,0.47139 35.096199,0.48432 35.567292,0.0132 z m 83.396681,-44.93244 c -12.36382,-1.71897 -21.68888,-12.40944 -21.68888,-24.86464 0,-12.7539 9.46469,-23.33431 22.26604,-24.8908 4.52175,-0.54979 9.27816,0.28534 13.57805,2.38405 6.96758,3.40076 11.37839,8.80361 13.51414,16.55363 0.61579,2.23455 0.72914,3.15993 0.72914,5.95312 0,2.79094 -0.11338,3.71809 -0.72622,5.93849 -2.12818,7.71077 -6.63374,13.23933 -13.48056,16.54136 -1.47528,0.71149 -3.69437,1.53933 -4.93129,1.83966 -2.62912,0.63834 -6.81686,0.88486 -9.26042,0.54513 z m 14.34883,-10.78036 0.86471,-0.86469 0.0857,-10.11552 c 0.0472,-5.56354 0.005,-11.34777 -0.0934,-12.85384 -0.16368,-2.50184 -0.24345,-2.81029 -0.92368,-3.57187 l -0.74453,-0.83357 -9.48082,-0.0818 c -10.17483,-0.0878 -11.04899,-0.002 -11.98016,1.18223 -0.53104,0.6751 -0.54337,0.98028 -0.54337,13.4517 0,12.63507 0.006,12.76802 0.56571,13.48011 0.31114,0.39555 0.81716,0.82294 1.12448,0.94975 0.30733,0.12681 4.99168,0.20618 10.40968,0.17639 l 9.85091,-0.0542 z m -19.6405,-25.46136 c 0,-0.14552 0.12609,-0.26459 0.2802,-0.26459 0.15411,0 0.20662,0.11907 0.11668,0.26459 -0.0899,0.14552 -0.21603,0.26458 -0.2802,0.26458 -0.0642,0 -0.11668,-0.11906 -0.11668,-0.26458 z m 1.5875,0 c 0,-0.14552 0.12609,-0.26459 0.2802,-0.26459 0.15411,0 0.20662,0.11907 0.11668,0.26459 -0.0899,0.14552 -0.21603,0.26458 -0.2802,0.26458 -0.0642,0 -0.11668,-0.11906 -0.11668,-0.26458 z m 6.48114,-0.002 c -0.27045,-0.4376 0.44389,-0.55345 2.91116,-0.47211 1.57841,0.052 2.37458,0.18465 2.4485,0.40784 0.13746,0.41499 -5.10405,0.47785 -5.35966,0.0643 z m -207.125344,35.70801 c -3.174,-0.53273 -7.20214,-2.16596 -9.96414,-4.04 -1.75131,-1.18828 -4.9207,-4.31594 -6.21569,-6.13386 -1.658058,-2.32759 -2.932906,-5.03558 -3.888666,-8.26016 -0.76123,-2.56824 -0.84544,-3.19493 -0.84544,-6.29192 0,-3.097 0.0842,-3.72369 0.84544,-6.29193 1.47552,-4.97813 3.508096,-8.39666 6.966626,-11.71692 2.36143,-2.26701 3.77784,-3.25267 6.64097,-4.62134 5.94444,-2.84164 13.38743,-3.13564 19.509,-0.77061 5.9579,2.3018 10.86711,6.81931 13.64131,12.55288 1.84285,3.8087 2.35031,6.15091 2.35031,10.84792 0,3.28454 -0.10328,4.35646 -0.59907,6.2177 -2.49044,9.34934 -10.20974,16.58913 -19.58246,18.36605 -2.31739,0.43934 -6.67133,0.50923 -8.85819,0.14219 z m 17.42024,-26.31344 v -6.87917 l -13.34432,-0.0686 c -10.50007,-0.054 -13.3894,0.002 -13.55584,0.26458 -0.3619,0.57007 -0.26866,13.01064 0.10028,13.37958 0.2435,0.2435 3.48233,0.30354 13.5599,0.25135 l 13.23998,-0.0686 z m 80.997637,-42.08265 c -9.620401,-1.91169 -17.03878615,-8.9079 -19.647387,-18.52929 -0.770218,-2.84081 -0.709488,-9.80115 0.110614,-12.67765 2.1467479,-7.5297 7.794088,-13.84541 14.875336,-16.63585 7.057882,-2.78124 13.49257,-2.5449 20.236712,0.74326 11.73947,5.72369 17.154072,19.52588 12.397142,31.60116 -1.918613,4.87031 -5.996017,9.71798 -10.350188,12.30544 -2.408047,1.43097 -6.420101,2.90366 -9.058413,3.32503 -2.32111,0.37071 -6.345896,0.30863 -8.563816,-0.1321 z m 4.277566,-19.4859 c 0.368607,-0.36861 0.417415,-2.02545 0.07557,-2.56532 -0.443378,-0.70022 -1.080984,-0.10991 -1.080984,1.0008 0,1.69937 0.340582,2.22936 1.005416,1.56452 z m 7.90143,-2.74265 c 0.154778,-0.40334 -1.338959,-2.23151 -1.823302,-2.23151 -0.64067,0 -0.46209,0.90793 0.341691,1.73723 0.980831,1.01196 1.248672,1.10131 1.481611,0.49428 z m -16.658506,-0.69592 c 0.883135,-0.85596 1.159823,-1.80018 0.527521,-1.80018 -0.577387,0 -2.123643,1.77195 -1.947291,2.23152 0.225637,0.588 0.433118,0.52496 1.41977,-0.43134 z m 14.729786,-2.13881 c 2.765975,-1.31355 6.486551,-4.89391 5.799516,-5.58095 -0.259014,-0.25901 -22.518257,-0.19454 -22.679089,0.0657 -0.386487,0.62535 2.99833,4.09474 5.006655,5.13175 2.369616,1.22356 3.812887,1.52398 6.900093,1.43628 2.742414,-0.0779 3.062917,-0.14576 4.972825,-1.05277 z"
       style="fill:#2aaae0;stroke-width:0.26458335" />
    <path
       sodipodi:nodetypes="ccscccscsccccccccssscccccccccsccccsccccscscccccsccsccccccscccsscsssscssccccccscccccscc"
       inkscape:connector-curvature="0"
       id="path1610"
       d="m 2.23168,355.95959 c -0.74717,-0.29996 -2.211506,-1.81027 -2.566196,-2.64678 -0.298956,-0.70506 -0.361003,-6.98519 -0.361003,-36.53952 v -35.68812 l 0.595312,-0.87469 c 0.327422,-0.48109 0.931392,-1.12377 1.342152,-1.42819 0.738585,-0.54738 0.952148,-0.55439 19.314584,-0.63385 12.594915,-0.0545 18.879015,0.0104 19.535394,0.2017 1.217522,0.3549 2.488226,1.78148 2.893658,3.24862 0.486172,1.75931 0.118282,70.52491 -0.383636,71.70874 -0.199773,0.47119 -0.825574,1.27343 -1.390671,1.78275 l -1.027448,0.92604 -18.786028,0.0479 C 11.065485,356.09059 2.44073,356.04349 2.23168,355.95955 Z m 22.057027,-0.75595 c 0.572802,-0.5728 0.520779,-1.59588 -0.113393,-2.23006 -0.451339,-0.45133 -0.881943,-0.52916 -2.92781,-0.52916 -2.952279,0 -3.42219,0.21199 -3.42219,1.54389 0,1.49043 0.288179,1.63111 3.341309,1.63111 2.107505,0 2.798305,-0.092 3.122084,-0.41578 z m 14.650357,-3.34131 c 0.421728,-0.42172 0.464574,-68.49872 0.04361,-69.28531 -0.225729,-0.42178 -0.563044,-0.51169 -1.918229,-0.51134 -1.581896,5.3e-4 -1.683012,0.0415 -2.662777,1.08281 -1.745594,1.85516 -1.54181,1.82785 -13.591292,1.82137 -12.103383,-0.007 -12.021148,0.005 -13.785249,-1.95505 -0.824812,-0.91649 -0.961803,-0.9711 -2.248958,-0.8966 l -1.370645,0.0793 -0.132292,34.66042 c -0.07461,19.54642 -0.03163,34.80463 0.09854,34.99115 0.329012,0.47139 35.096199,0.48432 35.567292,0.0132 z M -85.267799,291.45459 c -0.23056,-0.60083 0.40014,-1.18726 1.2769,-1.18726 0.73645,0 0.77301,-0.0522 0.69521,-0.99218 l -0.0821,-0.99219 -4.36563,-0.07 c -3.72415,-0.0597 -4.41422,-0.13517 -4.69635,-0.51359 -0.24597,-0.32992 -0.33073,-2.32435 -0.33073,-7.78247 0,-6.31891 0.0578,-7.39665 0.41577,-7.75464 0.36758,-0.36757 2.05073,-0.41577 14.51969,-0.41577 12.8368,0 14.13654,0.0396 14.46704,0.44058 0.29375,0.3564 0.34554,1.8603 0.2711,7.87135 -0.055,4.44294 -0.19894,7.56124 -0.35792,7.75523 -0.18595,0.22691 -1.59017,0.34623 -4.67047,0.39688 l -4.40459,0.0724 v 0.92604 c 0,0.80732 0.0908,0.93654 0.70825,1.00789 0.84067,0.0972 1.39616,0.67895 1.18174,1.2377 -0.13186,0.34363 -1.16647,0.40024 -7.31394,0.40024 -6.14748,0 -7.18209,-0.0566 -7.31395,-0.40024 z m 20.67541,-11.37371 v -6.87917 l -13.34432,-0.0686 c -10.50007,-0.054 -13.3894,0.002 -13.55584,0.26458 -0.3619,0.57007 -0.26866,13.01064 0.10028,13.37958 0.2435,0.2435 3.48233,0.30354 13.5599,0.25135 l 13.23998,-0.0686 z m 181.636449,-9.39271 c 0,-0.14552 0.12609,-0.26459 0.2802,-0.26459 0.15411,0 0.20662,0.11907 0.11668,0.26459 -0.0899,0.14552 -0.21603,0.26458 -0.2802,0.26458 -0.0642,0 -0.11668,-0.11906 -0.11668,-0.26458 z m 1.5875,0 c 0,-0.14552 0.12609,-0.26459 0.2802,-0.26459 0.15411,0 0.20662,0.11907 0.11668,0.26459 -0.0899,0.14552 -0.21603,0.26458 -0.2802,0.26458 -0.0642,0 -0.11668,-0.11906 -0.11668,-0.26458 z m 6.48114,-0.002 c -0.27045,-0.4376 0.44389,-0.55345 2.91116,-0.47211 1.57841,0.052 2.37458,0.18465 2.4485,0.40784 0.13746,0.41499 -5.10405,0.47785 -5.35966,0.0643 z M 5.23555,207.21021 c -0.06063,-0.0606 -0.110236,-0.8643 -0.110236,-1.78593 v -1.6757 h 16.019381 16.01938 l -0.07823,1.75847 -0.07824,1.75848 -15.83091,0.0275 c -8.706998,0.0151 -15.880514,-0.0222 -15.941146,-0.0828 z"
       style="fill:#f03a4b;stroke-width:0.26458335" />
    <path
       sodipodi:nodetypes="ccscccscsccccccccssscccccccccsccccsccccscscccccsccsccccccscccsscsssscssccccccscccccscc"
       inkscape:connector-curvature="0"
       id="path1608"
       d="m 2.23168,355.95959 c -0.74717,-0.29996 -2.211506,-1.81027 -2.566196,-2.64678 -0.298956,-0.70506 -0.361003,-6.98519 -0.361003,-36.53952 v -35.68812 l 0.595312,-0.87469 c 0.327422,-0.48109 0.931392,-1.12377 1.342152,-1.42819 0.738585,-0.54738 0.952148,-0.55439 19.314584,-0.63385 12.594915,-0.0545 18.879015,0.0104 19.535394,0.2017 1.217522,0.3549 2.488226,1.78148 2.893658,3.24862 0.486172,1.75931 0.118282,70.52491 -0.383636,71.70874 -0.199773,0.47119 -0.825574,1.27343 -1.390671,1.78275 l -1.027448,0.92604 -18.786028,0.0479 C 11.065485,356.09059 2.44073,356.04349 2.23168,355.95955 Z m 22.057027,-0.75595 c 0.572802,-0.5728 0.520779,-1.59588 -0.113393,-2.23006 -0.451339,-0.45133 -0.881943,-0.52916 -2.92781,-0.52916 -2.952279,0 -3.42219,0.21199 -3.42219,1.54389 0,1.49043 0.288179,1.63111 3.341309,1.63111 2.107505,0 2.798305,-0.092 3.122084,-0.41578 z m 14.650357,-3.34131 c 0.421728,-0.42172 0.464574,-68.49872 0.04361,-69.28531 -0.225729,-0.42178 -0.563044,-0.51169 -1.918229,-0.51134 -1.581896,5.3e-4 -1.683012,0.0415 -2.662777,1.08281 -1.745594,1.85516 -1.54181,1.82785 -13.591292,1.82137 -12.103383,-0.007 -12.021148,0.005 -13.785249,-1.95505 -0.824812,-0.91649 -0.961803,-0.9711 -2.248958,-0.8966 l -1.370645,0.0793 -0.132292,34.66042 c -0.07461,19.54642 -0.03163,34.80463 0.09854,34.99115 0.329012,0.47139 35.096199,0.48432 35.567292,0.0132 z M -85.267799,291.45459 c -0.23056,-0.60083 0.40014,-1.18726 1.2769,-1.18726 0.73645,0 0.77301,-0.0522 0.69521,-0.99218 l -0.0821,-0.99219 -4.36563,-0.07 c -3.72415,-0.0597 -4.41422,-0.13517 -4.69635,-0.51359 -0.24597,-0.32992 -0.33073,-2.32435 -0.33073,-7.78247 0,-6.31891 0.0578,-7.39665 0.41577,-7.75464 0.36758,-0.36757 2.05073,-0.41577 14.51969,-0.41577 12.8368,0 14.13654,0.0396 14.46704,0.44058 0.29375,0.3564 0.34554,1.8603 0.2711,7.87135 -0.055,4.44294 -0.19894,7.56124 -0.35792,7.75523 -0.18595,0.22691 -1.59017,0.34623 -4.67047,0.39688 l -4.40459,0.0724 v 0.92604 c 0,0.80732 0.0908,0.93654 0.70825,1.00789 0.84067,0.0972 1.39616,0.67895 1.18174,1.2377 -0.13186,0.34363 -1.16647,0.40024 -7.31394,0.40024 -6.14748,0 -7.18209,-0.0566 -7.31395,-0.40024 z m 20.67541,-11.37371 v -6.87917 l -13.34432,-0.0686 c -10.50007,-0.054 -13.3894,0.002 -13.55584,0.26458 -0.3619,0.57007 -0.26866,13.01064 0.10028,13.37958 0.2435,0.2435 3.48233,0.30354 13.5599,0.25135 l 13.23998,-0.0686 z m 181.636449,-9.39271 c 0,-0.14552 0.12609,-0.26459 0.2802,-0.26459 0.15411,0 0.20662,0.11907 0.11668,0.26459 -0.0899,0.14552 -0.21603,0.26458 -0.2802,0.26458 -0.0642,0 -0.11668,-0.11906 -0.11668,-0.26458 z m 1.5875,0 c 0,-0.14552 0.12609,-0.26459 0.2802,-0.26459 0.15411,0 0.20662,0.11907 0.11668,0.26459 -0.0899,0.14552 -0.21603,0.26458 -0.2802,0.26458 -0.0642,0 -0.11668,-0.11906 -0.11668,-0.26458 z m 6.48114,-0.002 c -0.27045,-0.4376 0.44389,-0.55345 2.91116,-0.47211 1.57841,0.052 2.37458,0.18465 2.4485,0.40784 0.13746,0.41499 -5.10405,0.47785 -5.35966,0.0643 z M 5.23555,207.21021 c -0.06063,-0.0606 -0.110236,-0.8643 -0.110236,-1.78593 v -1.6757 h 16.019381 16.01938 l -0.07823,1.75847 -0.07824,1.75848 -15.83091,0.0275 c -8.706998,0.0151 -15.880514,-0.0222 -15.941146,-0.0828 z"
       style="fill:#575858;stroke-width:0.26458335" />
    <path
       sodipodi:nodetypes="sccsccsccccsccccscscccsccccccsccsccssscccccccccsccccccccscccc"
       inkscape:connector-curvature="0"
       id="path1606"
       d="m -0.367803,314.52656 c 0.06889,-33.34916 0.0713,-33.48381 0.614674,-34.21154 0.300032,-0.40184 0.874292,-0.9761 1.276133,-1.27613 0.721905,-0.53901 0.955122,-0.54551 19.562818,-0.54551 17.800664,0 18.87568,0.0266 19.625951,0.48535 0.436562,0.26694 1.031875,0.80272 1.322916,1.19062 0.519272,0.69209 0.530477,1.17298 0.599234,25.71955 l 0.07007,25.01427 -1.166765,2.3701 c -2.195015,4.45884 -1.998207,6.76354 -2.007664,-23.51031 -0.0056,-18.04774 -0.09881,-27.10766 -0.282305,-27.45052 -0.232632,-0.43468 -0.566703,-0.51177 -2.217555,-0.51177 -1.921568,0 -1.951942,0.0108 -2.671955,0.95484 -1.465223,1.921 -1.618914,1.94342 -13.357432,1.94829 -6.247183,0.003 -10.838476,-0.10328 -11.414228,-0.26321 -0.558559,-0.15514 -1.446109,-0.76584 -2.112759,-1.45373 -1.098433,-1.13342 -1.217012,-1.18619 -2.665526,-1.18619 -1.227987,0 -1.567979,0.0972 -1.789845,0.51177 -0.184505,0.34475 -0.273892,11.04268 -0.273892,32.78003 0,27.10256 -0.05812,32.29055 -0.363048,32.40757 -0.199675,0.0766 -0.915408,0.22214 -1.590513,0.32338 l -1.227466,0.18407 z m 13.435967,-31.41297 c 0.368652,-0.68884 0.11212,-1.50456 -0.538056,-1.71092 -1.164175,-0.3695 -2.116032,1.08301 -1.26646,1.93258 0.495869,0.49587 1.485569,0.3743 1.804516,-0.22166 z m 17.169302,-0.35885 c 0.236345,-0.28478 0.20927,-0.46569 -0.118792,-0.79375 -0.364221,-0.36422 -1.250458,-0.42491 -6.205202,-0.42491 -3.179162,0 -5.968627,0.0723 -6.198809,0.1606 -0.421719,0.16183 -0.569185,0.92345 -0.242126,1.25051 0.09701,0.097 2.939934,0.17639 6.317602,0.17639 4.928648,0 6.201656,-0.0728 6.447327,-0.36884 z m -115.156385,8.66142 c -0.32185,-0.32185 0.4085,-0.88424 1.14832,-0.88424 0.76241,0 1.05425,-0.39418 1.05425,-1.42393 0,-1.12252 -0.3998,-1.22191 -4.91531,-1.22191 -3.3037,0 -4.34903,-0.0828 -4.58147,-0.36287 -0.21334,-0.25705 -0.28065,-2.55255 -0.23084,-7.87135 l 0.0703,-7.50849 14.2576,-0.0685 c 10.74913,-0.0516 14.3513,0.009 14.63838,0.24756 0.32286,0.26795 0.35251,1.42522 0.19494,7.60908 -0.10291,4.0385 -0.30114,7.43787 -0.44421,7.61753 -0.181,0.22729 -1.57744,0.34614 -4.66296,0.39688 l -4.40458,0.0724 v 1.19062 c 0,1.06921 0.0675,1.19995 0.66146,1.28212 0.79087,0.1094 1.37329,0.53899 1.1721,0.86453 -0.16554,0.26784 -13.69202,0.32648 -13.958,0.0605 z m 20.66158,-11.10086 c 0.0573,-5.61639 0.002,-6.96604 -0.29467,-7.21237 -0.26612,-0.22086 -3.9802,-0.28443 -13.69651,-0.23442 l -13.33137,0.0686 -0.21057,6.83744 c -0.15763,5.11851 -0.13236,6.93168 0.10052,7.21228 0.26235,0.31611 2.43004,0.3641 13.83661,0.30631 l 13.52552,-0.0685 z"
       style="fill:#2d2d2e;stroke-width:0.26458335" />
    <g
       transform="matrix(0.16216113,0,0,0.16216113,4.9202863,298.14501)"
       id="layer1-9"
       inkscape:label="Capa 1">
      <path
         inkscape:export-ydpi="96"
         inkscape:export-xdpi="96"
         inkscape:export-filename="C:\Users\usuario\Desktop\Tarjeta\path1589-0.png"
         inkscape:transform-center-y="-2.3910688e-06"
         d="M 78.976746,43.031847 79.110256,72.861906 53.343422,87.89256 27.443077,73.093153 27.309567,43.263094 53.076401,28.23244 Z"
         inkscape:randomized="0"
         inkscape:rounded="0"
         inkscape:flatsided="true"
         sodipodi:arg2="-0.0044756728"
         sodipodi:arg1="-0.52807445"
         sodipodi:r2="25.833855"
         sodipodi:r1="29.830359"
         sodipodi:cy="58.0625"
         sodipodi:cx="53.209911"
         sodipodi:sides="6"
         id="path3703-40-6-6-2"
         style="fill:none;stroke:#be6179;stroke-width:5;stroke-miterlimit:4;stroke-dasharray:none;stroke-opacity:1"
         sodipodi:type="star" />
      <path
         inkscape:export-ydpi="96"
         inkscape:export-xdpi="96"
         inkscape:export-filename="C:\Users\usuario\Desktop\Tarjeta\path1589-0.png"
         inkscape:transform-center-y="-2.3910688e-06"
         d="m 130.64392,42.800584 0.13352,29.83006 L 105.0106,87.661298 79.110256,72.861891 78.976746,43.031831 104.74358,28.001178 Z"
         inkscape:randomized="0"
         inkscape:rounded="0"
         inkscape:flatsided="true"
         sodipodi:arg2="-0.0044756728"
         sodipodi:arg1="-0.52807445"
         sodipodi:r2="25.833857"
         sodipodi:r1="29.830359"
         sodipodi:cy="57.831238"
         sodipodi:cx="104.87709"
         sodipodi:sides="6"
         id="path3703-1-9-2-1-7"
         style="fill:none;stroke:#be6179;stroke-width:5;stroke-miterlimit:4;stroke-dasharray:none;stroke-opacity:1"
         sodipodi:type="star" />
      <path
         inkscape:export-ydpi="96"
         inkscape:export-xdpi="96"
         inkscape:export-filename="C:\Users\usuario\Desktop\Tarjeta\path1589-0.png"
         inkscape:transform-center-y="-2.3910688e-06"
         d="m 156.67777,87.43004 0.13351,29.83006 -25.76684,15.03065 -25.90034,-14.7994 -0.13351,-29.830063 25.76683,-15.030653 z"
         inkscape:randomized="0"
         inkscape:rounded="0"
         inkscape:flatsided="true"
         sodipodi:arg2="-0.0044756728"
         sodipodi:arg1="-0.52807445"
         sodipodi:r2="25.833857"
         sodipodi:r1="29.830359"
         sodipodi:cy="102.46069"
         sodipodi:cx="130.91093"
         sodipodi:sides="6"
         id="path3703-4-0-8-9-4"
         style="fill:none;stroke:#be6179;stroke-width:5;stroke-miterlimit:4;stroke-dasharray:none;stroke-opacity:1"
         sodipodi:type="star" />
      <path
         inkscape:export-ydpi="96"
         inkscape:export-xdpi="96"
         inkscape:export-filename="C:\Users\usuario\Desktop\Tarjeta\path1589-0.png"
         inkscape:transform-center-y="-2.3910688e-06"
         d="m 131.04444,132.29079 0.13351,29.83006 -25.76684,15.03065 -25.900341,-14.7994 -0.133511,-29.83006 25.766832,-15.03066 z"
         inkscape:randomized="0"
         inkscape:rounded="0"
         inkscape:flatsided="true"
         sodipodi:arg2="-0.0044756728"
         sodipodi:arg1="-0.52807445"
         sodipodi:r2="25.833857"
         sodipodi:r1="29.830359"
         sodipodi:cy="147.32144"
         sodipodi:cx="105.2776"
         sodipodi:sides="6"
         id="path3703-3-3-0-9-8"
         style="fill:none;stroke:#be6179;stroke-width:5;stroke-miterlimit:4;stroke-dasharray:none;stroke-opacity:1"
         sodipodi:type="star" />
      <path
         inkscape:export-ydpi="96"
         inkscape:export-xdpi="96"
         inkscape:export-filename="C:\Users\usuario\Desktop\Tarjeta\path1589-0.png"
         d="M 96.807407,92.446486 96.898413,112.77978 79.334765,123.02524 61.680111,112.93741 61.589105,92.604113 79.152753,82.358652 Z"
         inkscape:randomized="0"
         inkscape:rounded="0"
         inkscape:flatsided="true"
         sodipodi:arg2="-0.0044756728"
         sodipodi:arg1="-0.52807445"
         sodipodi:r2="17.609325"
         sodipodi:r1="20.3335"
         sodipodi:cy="102.69195"
         sodipodi:cx="79.243759"
         sodipodi:sides="6"
         id="path3703-3-7-5-5-5-3"
         style="fill:none;stroke:#be6179;stroke-width:5;stroke-miterlimit:4;stroke-dasharray:none;stroke-opacity:1"
         sodipodi:type="star" />
      <path
         inkscape:export-ydpi="96"
         inkscape:export-xdpi="96"
         inkscape:export-filename="C:\Users\usuario\Desktop\Tarjeta\path1589-0.png"
         inkscape:transform-center-y="-2.3910688e-06"
         d="m 208.34501,87.198808 0.13351,29.830062 -25.76684,15.03065 -25.90034,-14.7994 -0.13351,-29.830065 25.76683,-15.030653 z"
         inkscape:randomized="0"
         inkscape:rounded="0"
         inkscape:flatsided="true"
         sodipodi:arg2="-0.0044756728"
         sodipodi:arg1="-0.52807445"
         sodipodi:r2="25.833857"
         sodipodi:r1="29.830359"
         sodipodi:cy="102.22946"
         sodipodi:cx="182.57817"
         sodipodi:sides="6"
         id="path3703-4-8-0-3-6-5"
         style="fill:none;stroke:#be6179;stroke-width:5;stroke-miterlimit:4;stroke-dasharray:none;stroke-opacity:1"
         sodipodi:type="star" />
      <path
         inkscape:export-ydpi="96"
         inkscape:export-xdpi="96"
         inkscape:export-filename="C:\Users\usuario\Desktop\Tarjeta\path1589-0.png"
         inkscape:transform-center-y="-2.3910688e-06"
         d="m 157.0783,176.92021 0.13351,29.83006 -25.76684,15.03066 -25.90034,-14.79941 -0.13351,-29.83006 25.76683,-15.03065 z"
         inkscape:randomized="0"
         inkscape:rounded="0"
         inkscape:flatsided="true"
         sodipodi:arg2="-0.0044756728"
         sodipodi:arg1="-0.52807445"
         sodipodi:r2="25.833857"
         sodipodi:r1="29.830359"
         sodipodi:cy="191.95087"
         sodipodi:cx="131.31146"
         sodipodi:sides="6"
         id="path3703-4-5-3-4-5-8"
         style="fill:none;stroke:#be6179;stroke-width:5;stroke-miterlimit:4;stroke-dasharray:none;stroke-opacity:1"
         sodipodi:type="star" />
      <path
         inkscape:export-ydpi="96"
         inkscape:export-xdpi="96"
         inkscape:export-filename="C:\Users\usuario\Desktop\Tarjeta\path1589-0.png"
         inkscape:transform-center-y="-2.3910688e-06"
         d="M 79.377258,132.52199 79.510769,162.35205 53.743935,177.3827 27.84359,162.5833 27.710079,132.75324 53.476914,117.72258 Z"
         inkscape:randomized="0"
         inkscape:rounded="0"
         inkscape:flatsided="true"
         sodipodi:arg2="-0.0044756728"
         sodipodi:arg1="-0.52807445"
         sodipodi:r2="25.833857"
         sodipodi:r1="29.830359"
         sodipodi:cy="147.55264"
         sodipodi:cx="53.610424"
         sodipodi:sides="6"
         id="path3703-4-83-5-0-2-1"
         style="fill:none;stroke:#be6179;stroke-width:5;stroke-miterlimit:4;stroke-dasharray:none;stroke-opacity:1"
         sodipodi:type="star" />
      <path
         inkscape:export-ydpi="96"
         inkscape:export-xdpi="96"
         inkscape:export-filename="C:\Users\usuario\Desktop\Tarjeta\path1589-0.png"
         inkscape:transform-center-y="-2.3910688e-06"
         d="M 53.343414,87.892488 53.476925,117.72255 27.710091,132.7532 1.8097458,117.95379 1.6762353,88.123735 27.44307,73.093082 Z"
         inkscape:randomized="0"
         inkscape:rounded="0"
         inkscape:flatsided="true"
         sodipodi:arg2="-0.0044756728"
         sodipodi:arg1="-0.52807445"
         sodipodi:r2="25.833857"
         sodipodi:r1="29.830359"
         sodipodi:cy="102.92314"
         sodipodi:cx="27.57658"
         sodipodi:sides="6"
         id="path3703-4-37-7-8-3-7"
         style="fill:none;stroke:#be6179;stroke-width:5;stroke-miterlimit:4;stroke-dasharray:none;stroke-opacity:1"
         sodipodi:type="star" />
      <path
         inkscape:export-ydpi="96"
         inkscape:export-xdpi="96"
         inkscape:export-filename="C:\Users\usuario\Desktop\Tarjeta\path1589-0.png"
         inkscape:transform-center-y="-2.3910688e-06"
         d="m 131.44497,221.78096 0.13351,29.83006 -25.76683,15.03065 -25.900346,-14.7994 -0.13351,-29.83006 25.766836,-15.03065 z"
         inkscape:randomized="0"
         inkscape:rounded="0"
         inkscape:flatsided="true"
         sodipodi:arg2="-0.0044756728"
         sodipodi:arg1="-0.52807445"
         sodipodi:r2="25.833857"
         sodipodi:r1="29.830359"
         sodipodi:cy="236.81161"
         sodipodi:cx="105.67814"
         sodipodi:sides="6"
         id="path3703-4-50-0-1-9-7"
         style="fill:none;stroke:#be6179;stroke-width:5;stroke-miterlimit:4;stroke-dasharray:none;stroke-opacity:1"
         sodipodi:type="star" />
      <path
         inkscape:export-ydpi="96"
         inkscape:export-xdpi="96"
         inkscape:export-filename="C:\Users\usuario\Desktop\Tarjeta\path1589-0.png"
         d="m 174.50838,136.84472 0.091,20.33329 -17.56365,10.24547 -17.65466,-10.08784 -0.091,-20.3333 17.56365,-10.24546 z"
         inkscape:randomized="0"
         inkscape:rounded="0"
         inkscape:flatsided="true"
         sodipodi:arg2="-0.0044756728"
         sodipodi:arg1="-0.52807445"
         sodipodi:r2="17.609325"
         sodipodi:r1="20.3335"
         sodipodi:cy="147.09018"
         sodipodi:cx="156.94473"
         sodipodi:sides="6"
         id="path3703-3-7-5-0-3-0-5"
         style="fill:none;stroke:#be6179;stroke-width:5;stroke-miterlimit:4;stroke-dasharray:none;stroke-opacity:1"
         sodipodi:type="star" />
      <path
         inkscape:export-ydpi="96"
         inkscape:export-xdpi="96"
         inkscape:export-filename="C:\Users\usuario\Desktop\Tarjeta\path1589-0.png"
         d="m 97.207912,181.93667 0.09101,20.33329 -17.563648,10.24547 -17.654654,-10.08784 -0.09101,-20.3333 17.563648,-10.24546 z"
         inkscape:randomized="0"
         inkscape:rounded="0"
         inkscape:flatsided="true"
         sodipodi:arg2="-0.0044756728"
         sodipodi:arg1="-0.52807445"
         sodipodi:r2="17.609325"
         sodipodi:r1="20.3335"
         sodipodi:cy="192.18213"
         sodipodi:cx="79.644264"
         sodipodi:sides="6"
         id="path3703-3-7-5-3-3-5-7"
         style="fill:none;stroke:#be6179;stroke-width:5;stroke-miterlimit:4;stroke-dasharray:none;stroke-opacity:1"
         sodipodi:type="star" />
      <path
         inkscape:export-ydpi="96"
         inkscape:export-xdpi="96"
         inkscape:export-filename="C:\Users\usuario\Desktop\Tarjeta\path1589-0.png"
         d="m 174.10794,47.354514 0.091,20.333296 -17.56365,10.245462 -17.65465,-10.087835 -0.091,-20.333296 17.56365,-10.245462 z"
         inkscape:randomized="0"
         inkscape:rounded="0"
         inkscape:flatsided="true"
         sodipodi:arg2="-0.0044756728"
         sodipodi:arg1="-0.52807445"
         sodipodi:r2="17.609325"
         sodipodi:r1="20.3335"
         sodipodi:cy="57.599976"
         sodipodi:cx="156.5443"
         sodipodi:sides="6"
         id="path3703-3-7-5-0-3-0-2-1"
         style="fill:none;stroke:#be6179;stroke-width:5;stroke-miterlimit:4;stroke-dasharray:none;stroke-opacity:1"
         sodipodi:type="star" />
      <path
         inkscape:export-ydpi="96"
         inkscape:export-xdpi="96"
         inkscape:export-filename="C:\Users\usuario\Desktop\Tarjeta\path1589-0.png"
         inkscape:connector-curvature="0"
         id="path945"
         d="m 80.886905,102.72024 c 0,0 55.897705,35.56159 53.294645,92.22619"
         style="fill:none;fill-rule:evenodd;stroke:#929396;stroke-width:5;stroke-linecap:butt;stroke-linejoin:miter;stroke-miterlimit:4;stroke-dasharray:none;stroke-opacity:1" />
      <path
         inkscape:export-ydpi="96"
         inkscape:export-xdpi="96"
         inkscape:export-filename="C:\Users\usuario\Desktop\Tarjeta\path1589-0.png"
         transform="matrix(0.73748251,0.1217476,-0.09045964,0.99256109,-26.580864,-11.2431)"
         inkscape:transform-center-y="2.7378095"
         inkscape:transform-center-x="-0.094749549"
         d="m 240.77085,186.25298 -11.52101,-16.02692 19.64022,-1.96402 z"
         inkscape:randomized="0"
         inkscape:rounded="0"
         inkscape:flatsided="true"
         sodipodi:arg2="2.5183252"
         sodipodi:arg1="1.4711277"
         sodipodi:r2="5.6979208"
         sodipodi:r1="11.395841"
         sodipodi:cy="174.9137"
         sodipodi:cx="239.63692"
         sodipodi:sides="3"
         id="path1589"
         style="fill:#929396;fill-opacity:1;stroke:#929396;stroke-width:5.80059814;stroke-miterlimit:4;stroke-dasharray:none;stroke-opacity:1"
         sodipodi:type="star" />
      <path
         inkscape:export-ydpi="96"
         inkscape:export-xdpi="96"
         inkscape:export-filename="C:\Users\usuario\Desktop\Tarjeta\path1589-0.png"
         inkscape:connector-curvature="0"
         id="path945-1"
         d="m 77.159919,196.71541 c 0,0 31.958181,-83.72966 106.444241,-95.14514"
         style="fill:none;fill-rule:evenodd;stroke:#929396;stroke-width:5;stroke-linecap:butt;stroke-linejoin:miter;stroke-miterlimit:4;stroke-dasharray:none;stroke-opacity:1" />
      <path
         inkscape:export-ydpi="96"
         inkscape:export-xdpi="96"
         inkscape:export-filename="C:\Users\usuario\Desktop\Tarjeta\path1589-0.png"
         transform="matrix(-0.05216498,-0.74564184,0.98656264,-0.14161431,22.380142,305.73909)"
         inkscape:transform-center-y="1.2256544"
         inkscape:transform-center-x="-2.0413979"
         d="m 240.77085,186.25298 -11.52101,-16.02692 19.64022,-1.96402 z"
         inkscape:randomized="0"
         inkscape:rounded="0"
         inkscape:flatsided="true"
         sodipodi:arg2="2.5183252"
         sodipodi:arg1="1.4711277"
         sodipodi:r2="5.6979208"
         sodipodi:r1="11.395841"
         sodipodi:cy="174.9137"
         sodipodi:cx="239.63692"
         sodipodi:sides="3"
         id="path1589-0"
         style="fill:#929396;fill-opacity:1;stroke:#929396;stroke-width:5.80059814;stroke-miterlimit:4;stroke-dasharray:none;stroke-opacity:1"
         sodipodi:type="star" />
      <g
         style="fill:#929396;fill-opacity:1;stroke:#929396;stroke-opacity:1"
         transform="matrix(0.06805823,0,0,0.07048526,84.852721,215.24351)"
         id="g1721">
        <g
           style="fill:#929396;fill-opacity:1;stroke:#929396;stroke-opacity:1"
           id="Wi-Fi">
          <g
             style="fill:#929396;fill-opacity:1;stroke:#929396;stroke-opacity:1"
             id="g1718">
            <path
               style="fill:#929396;fill-opacity:1;stroke:#929396;stroke-opacity:1"
               id="path1716"
               d="m 305.994,417.769 c -30.85,0 -55.887,25.037 -55.887,55.887 0,30.85 25.038,55.887 55.887,55.887 30.849,0 55.887,-25.037 55.887,-55.887 0,-30.85 -25.038,-55.887 -55.887,-55.887 z m 299.442,-195.4 C 530.697,133.434 421.549,82.446 305.994,82.446 c -115.555,0 -224.685,50.988 -299.443,139.923 -9.93,11.811 -8.402,29.434 3.428,39.363 5.234,4.396 11.587,6.558 17.939,6.558 7.973,0 15.891,-3.391 21.423,-9.967 64.084,-76.248 157.639,-119.989 256.652,-119.989 99.013,0 192.568,43.741 256.651,119.971 5.533,6.576 13.45,9.967 21.424,9.967 6.353,0 12.724,-2.143 17.958,-6.558 11.811,-9.912 13.34,-27.553 3.41,-39.345 z M 305.994,194.22 c -82.545,0 -160.489,36.419 -213.879,99.926 -9.929,11.811 -8.402,29.434 3.428,39.363 5.234,4.396 11.605,6.558 17.958,6.558 7.973,0 15.891,-3.391 21.405,-9.967 42.716,-50.838 105.086,-79.993 171.089,-79.993 66.003,0 128.372,29.155 171.107,79.993 5.533,6.595 13.45,9.967 21.404,9.967 6.353,0 12.724,-2.143 17.959,-6.558 11.829,-9.929 13.356,-27.57 3.428,-39.363 C 466.483,230.64 388.539,194.22 305.994,194.22 Z m 0,111.774 c -49.553,0 -96.331,21.852 -128.335,59.948 -9.93,11.811 -8.402,29.434 3.428,39.363 5.234,4.396 11.605,6.557 17.958,6.557 7.973,0 15.891,-3.39 21.405,-9.966 21.368,-25.429 52.552,-40.016 85.544,-40.016 32.992,0 64.177,14.587 85.544,40.016 5.533,6.595 13.45,9.966 21.405,9.966 6.353,0 12.724,-2.142 17.958,-6.557 11.83,-9.93 13.357,-27.553 3.428,-39.363 -32.005,-38.096 -78.783,-59.948 -128.335,-59.948 z"
               inkscape:connector-curvature="0" />
          </g>
        </g>
      </g>
      <g
         transform="matrix(0.26458333,0,0,0.26458333,-188.68415,30.452647)"
         id="g1723" />
      <g
         transform="matrix(0.26458333,0,0,0.26458333,-188.68415,30.452647)"
         id="g1725" />
      <g
         transform="matrix(0.26458333,0,0,0.26458333,-188.68415,30.452647)"
         id="g1727" />
      <g
         transform="matrix(0.26458333,0,0,0.26458333,-188.68415,30.452647)"
         id="g1729" />
      <g
         transform="matrix(0.26458333,0,0,0.26458333,-188.68415,30.452647)"
         id="g1731" />
      <g
         transform="matrix(0.26458333,0,0,0.26458333,-188.68415,30.452647)"
         id="g1733" />
      <g
         transform="matrix(0.26458333,0,0,0.26458333,-188.68415,30.452647)"
         id="g1735" />
      <g
         transform="matrix(0.26458333,0,0,0.26458333,-188.68415,30.452647)"
         id="g1737" />
      <g
         transform="matrix(0.26458333,0,0,0.26458333,-188.68415,30.452647)"
         id="g1739" />
      <g
         transform="matrix(0.26458333,0,0,0.26458333,-188.68415,30.452647)"
         id="g1741" />
      <g
         transform="matrix(0.26458333,0,0,0.26458333,-188.68415,30.452647)"
         id="g1743" />
      <g
         transform="matrix(0.26458333,0,0,0.26458333,-188.68415,30.452647)"
         id="g1745" />
      <g
         transform="matrix(0.26458333,0,0,0.26458333,-188.68415,30.452647)"
         id="g1747" />
      <g
         transform="matrix(0.26458333,0,0,0.26458333,-188.68415,30.452647)"
         id="g1749" />
      <g
         transform="matrix(0.26458333,0,0,0.26458333,-188.68415,30.452647)"
         id="g1751" />
    </g>
  </g>
</svg>
