<?xml version="1.0" encoding="UTF-8" standalone="no"?>
<!-- Created with Inkscape (http://www.inkscape.org/) -->

<svg
   xmlns:dc="http://purl.org/dc/elements/1.1/"
   xmlns:cc="http://creativecommons.org/ns#"
   xmlns:rdf="http://www.w3.org/1999/02/22-rdf-syntax-ns#"
   xmlns:svg="http://www.w3.org/2000/svg"
   xmlns="http://www.w3.org/2000/svg"
   xmlns:sodipodi="http://sodipodi.sourceforge.net/DTD/sodipodi-0.dtd"
   xmlns:inkscape="http://www.inkscape.org/namespaces/inkscape"
   width="95.34375"
   height="64.477287"
   id="svg2"
   version="1.1"
   inkscape:version="0.48.1 r9760"
   sodipodi:docname="favicon.svg"
   inkscape:export-filename="/home/carol/Escritorio/EMPRESA/gauss_scout/gauss_scout_sistemas_gestión_aumentada.png"
   inkscape:export-xdpi="299.95062"
   inkscape:export-ydpi="299.95062">
  <defs
     id="defs4" />
  <sodipodi:namedview
     id="base"
     pagecolor="#ffffff"
     bordercolor="#666666"
     borderopacity="1.0"
     inkscape:pageopacity="0.0"
     inkscape:pageshadow="2"
     inkscape:zoom="3.3888504"
     inkscape:cx="146.03155"
     inkscape:cy="12.974792"
     inkscape:document-units="px"
     inkscape:current-layer="layer1"
     showgrid="false"
     fit-margin-top="0"
     fit-margin-left="0"
     fit-margin-right="0"
     fit-margin-bottom="0"
     inkscape:window-width="1280"
     inkscape:window-height="725"
     inkscape:window-x="0"
     inkscape:window-y="24"
     inkscape:window-maximized="1"
     inkscape:snap-nodes="false"
     inkscape:object-nodes="true" />
  <metadata
     id="metadata7">
    <rdf:RDF>
      <cc:Work
         rdf:about="">
        <dc:format>image/svg+xml</dc:format>
        <dc:type
           rdf:resource="http://purl.org/dc/dcmitype/StillImage" />
        <dc:title></dc:title>
      </cc:Work>
    </rdf:RDF>
  </metadata>
  <g
     inkscape:label="Capa 1"
     inkscape:groupmode="layer"
     id="layer1"
     transform="translate(-386.76836,-607.11434)">
    <path
       style="fill:#672296;fill-opacity:1"
       d="m 38.125,0 c -1.523782,0 -2.979222,0.08560863 -4.40625,0.28125 -0.924892,0.7530659 -1.759196,1.5882219 -2.5,2.5 -1.78235,2.28775 -3.07223,4.97641 -3.875,8.1875 -0.56194,2.29888 -0.91753,4.8301 -1.09375,7.46875 l -0.09375,1.40625 -0.03125,0 0,2.15625 0,4.53125 0,1.9375 c 0,3.99202 0.40333,7.66421 1.21875,11 0.8052,3.22084 2.08426,5.92666 3.875,8.21875 1.8492,2.276 4.23914,4.07125 7.28125,5.375 C 41.56836,54.34695 45.49099,55 50.21875,55 c 5.10412,0 9.78778,-0.34159 14,-1.09375 L 64.25,53.875 c 3.82172,-0.61421 6.737,-1.23073 9.25,-1.84375 l 0,-30.90625 -11,4.5625 0,17.84375 0,1.1875 L 61.34375,45 c -1.07518,0.26879 -2.55313,0.46693 -4.53125,0.625 -1.90671,0.15895 -3.68217,0.21875 -5.40625,0.21875 -5.00319,0 -8.95922,-1.55875 -11.21875,-4.8125 l 0,-0.03125 -0.03125,0 c -2.1505,-3.22576 -3,-8.09178 -3,-14.71875 l 0,-2.125 c 0,-6.62698 0.8495,-11.46174 3,-14.6875 L 40.1875,9.4375 C 42.44703,6.18376 46.40306,4.625 51.40625,4.625 c 0.861031,0 1.749205,0.021387 2.625,0.0625 C 53.495122,4.3286196 52.953707,3.9874803 52.375,3.65625 48.12098,1.22141 43.355633,0 38.125,0 z m -9.75,1.5625 c -2.996023,1.037575 -5.735857,2.5811 -8.21875,4.65625 -4.965793,4.1503 -7.4375,9.165497 -7.4375,15.03125 0,0.415033 0.02755,1.00653 0.09375,1.78125 C 8.9722933,24.525357 5.8817233,26.78278 3.53125,29.8125 1.1807767,32.84222 0,36.19149 0,39.84375 c 0,5.1187 2.17791,9.486567 6.53125,13.125 4.35334,3.638427 9.594277,5.46875 15.71875,5.46875 l 54.03125,0 c 5.263733,0 9.74441,-1.543523 13.46875,-4.65625 3.72434,-3.11272 5.59375,-6.88193 5.59375,-11.28125 0,-3.735267 -1.40666,-7.046127 -4.1875,-9.9375 -2.78084,-2.89138 -6.29192,-4.76369 -10.5625,-5.59375 1.35732,-1.74312 2.03125,-3.643597 2.03125,-5.71875 0,-2.93288 -1.235857,-5.424853 -3.71875,-7.5 -2.482893,-2.075147 -5.49084,-3.125 -9,-3.125 -3.1781,0 -5.901377,0.847047 -8.21875,2.5625 -0.963603,-1.938322 -2.226405,-3.6753242 -3.75,-5.25 -0.427078,-0.024575 -1.067148,-0.037912 -1.375,-0.0625 -1.83415,-0.1529 -3.52269,-0.25 -5.15625,-0.25 -4.40257,0 -7.1479,1.20799 -8.75,3.5 -0.005,0.0069 0.005,0.02425 0,0.03125 -1.54682,2.33758 -2.5,6.67675 -2.5,13 l 0,2.125 c 0,6.32341 0.95311,10.69372 2.5,13.03125 0.005,0.0069 -0.005,0.02425 0,0.03125 1.60211,2.29202 4.34743,3.5 8.75,3.5 1.67252,0 3.35742,-0.06884 5.15625,-0.21875 1.36,-0.10867 2.13585,-0.23237 2.9375,-0.375 l 0,-17.5625 0,-1 0.90625,-0.375 L 74.4375,17.5 76.5,16.625 l 0,2.25 0,34.375 0,1.15625 -1.125,0.3125 c -2.75149,0.70752 -6.28217,1.4261 -10.625,2.125 -0.0122,0.002 -0.01895,-0.002 -0.03125,0 C 60.29272,57.63182 55.44734,58 50.21875,58 c -4.99902,0 -9.3045,-0.69285 -12.875,-2.1875 l -0.03125,0 C 33.87009,54.33719 31.03994,52.2271 28.875,49.5625 26.80582,46.91401 25.33062,43.76004 24.4375,40.1875 23.5546,36.57561 23.125,32.65961 23.125,28.46875 l 0,-1.9375 0,-4.53125 0,-3.65625 0,-1.5 0.34375,0 C 23.67474,14.58339 23.93054,12.32397 24.4375,10.25 25.258406,6.9663392 26.561341,4.0671942 28.375,1.5625 z"
       transform="translate(386.76836,613.15413)"
       id="path4231"
       inkscape:connector-curvature="0" />
    <path
       style="font-size:40px;font-style:normal;font-variant:normal;font-weight:500;font-stretch:normal;text-align:start;line-height:125%;letter-spacing:0px;word-spacing:0px;writing-mode:lr-tb;text-anchor:start;fill:#000000;fill-opacity:1;stroke:none;font-family:Ubuntu;-inkscape-font-specification:Ubuntu Medium"
       d="m 436.99097,607.11445 c -4.86339,0 -8.97565,0.72573 -12.29508,2.11528 -3.24226,1.38953 -5.85914,3.28063 -7.86621,5.75092 -1.92996,2.4703 -3.3153,5.39497 -4.16446,8.79164 -0.58858,2.40786 -0.94312,5.02945 -1.12374,7.73401 l -0.13221,0 0,3.63564 0,4.56109 0,1.91697 c 0,4.09144 0.40679,7.8958 1.25595,11.36964 0.84916,3.39669 2.2345,6.32136 4.16446,8.79165 2.00707,2.4703 4.62395,4.4275 7.86621,5.81703 3.31943,1.38955 7.43169,2.04918 12.29508,2.04918 5.17214,0 9.9551,-0.35179 14.27816,-1.12374 4.32295,-0.69477 7.80838,-1.4205 10.51032,-2.11528 l 0,-34.37336 -14.01375,5.81703 0,18.83924 c -0.92639,0.23159 -2.36681,0.44072 -4.29667,0.59493 -1.85277,0.15441 -3.58991,0.1982 -5.28821,0.1982 -4.70899,0 -8.05159,-1.38539 -9.98149,-4.16447 -1.85271,-2.77908 -2.77631,-7.397 -2.77631,-13.88154 l 0,-2.11528 c 0,-6.48455 0.9236,-11.10247 2.77631,-13.88155 1.9299,-2.77907 5.2725,-4.16446 9.98149,-4.16446 1.6983,0 3.43544,0.10995 5.28821,0.2644 1.92986,0.15421 7.52531,0.29725 8.4517,0.52883 1.87357,-0.39966 0,0 9.85872,-9.71708 -2.70194,-0.69479 -6.18737,-1.35442 -10.51032,-2.04919 -4.32306,-0.77195 -9.10602,-1.18984 -14.27816,-1.18984 z"
       id="path3034-4-1-6"
       inkscape:connector-curvature="0"
       sodipodi:nodetypes="ccccccccscccsccccccscsscscccccc" />
  </g>
</svg>
