<?xml version="1.0" encoding="UTF-8" standalone="no"?>
<!-- Created with Inkscape (http://www.inkscape.org/) -->

<svg
   xmlns:dc="http://purl.org/dc/elements/1.1/"
   xmlns:cc="http://creativecommons.org/ns#"
   xmlns:rdf="http://www.w3.org/1999/02/22-rdf-syntax-ns#"
   xmlns:svg="http://www.w3.org/2000/svg"
   xmlns="http://www.w3.org/2000/svg"
   xmlns:sodipodi="http://sodipodi.sourceforge.net/DTD/sodipodi-0.dtd"
   xmlns:inkscape="http://www.inkscape.org/namespaces/inkscape"
   width="96"
   height="96"
   id="svg2"
   version="1.1"
   inkscape:version="0.48.1 r9760"
   sodipodi:docname="favicon2.svg"
   inkscape:export-filename="/home/carol/Escritorio/EMPRESA/gauss_scout/gauss_scout_sistemas_gestión_aumentada.png"
   inkscape:export-xdpi="299.95062"
   inkscape:export-ydpi="299.95062">
  <defs
     id="defs4" />
  <sodipodi:namedview
     id="base"
     pagecolor="#ffffff"
     bordercolor="#666666"
     borderopacity="1.0"
     inkscape:pageopacity="0.0"
     inkscape:pageshadow="2"
     inkscape:zoom="4.2087946"
     inkscape:cx="48.000007"
     inkscape:cy="42.688851"
     inkscape:document-units="px"
     inkscape:current-layer="layer1"
     showgrid="false"
     fit-margin-top="0"
     fit-margin-left="0"
     fit-margin-right="0"
     fit-margin-bottom="0"
     inkscape:window-width="1280"
     inkscape:window-height="725"
     inkscape:window-x="0"
     inkscape:window-y="24"
     inkscape:window-maximized="1"
     inkscape:snap-nodes="false"
     inkscape:object-nodes="true" />
  <metadata
     id="metadata7">
    <rdf:RDF>
      <cc:Work
         rdf:about="">
        <dc:format>image/svg+xml</dc:format>
        <dc:type
           rdf:resource="http://purl.org/dc/dcmitype/StillImage" />
        <dc:title />
      </cc:Work>
    </rdf:RDF>
  </metadata>
  <g
     inkscape:label="Capa 1"
     inkscape:groupmode="layer"
     id="layer1"
     transform="translate(-497.22153,-609.60297)">
    <rect
       style="fill:#ffffff;fill-opacity:1;stroke:none"
       id="rect2984"
       width="96"
       height="96"
       x="497.22153"
       y="609.60297" />
    <g
       id="g3754">
      <path
         transform="translate(386.76836,607.11434)"
         sodipodi:nodetypes="csscssssccccccsccccccsccccssscccccsccccccccccccccccccsssscssscccss"
         inkscape:connector-curvature="0"
         id="path4231-1"
         d="m 138.375,31.71875 c -2.68799,1.027466 -5.17547,2.48444 -7.4375,4.375 -4.96579,4.1503 -7.4375,9.1655 -7.4375,15.03125 0,0.41503 0.0276,1.00653 0.0937,1.78125 -3.84021,1.49411 -6.93078,3.75153 -9.28125,6.78125 -2.35047,3.02972 -3.53125,6.37899 -3.53125,10.03125 0,5.1187 2.17791,9.48657 6.53125,13.125 4.35334,3.63843 9.59428,5.46875 15.71875,5.46875 l 18.65625,0 c -1.52047,-0.341643 -2.94826,-0.785747 -4.28125,-1.34375 l -0.0312,0 c -3.50912,-1.5039 -6.40744,-3.67688 -8.625,-6.40625 l -0.0312,-0.03125 C 136.60316,77.82336 135.09528,74.63116 134.1875,71 133.29335,67.3421 132.875,63.38026 132.875,59.15625 l 0,-1.9375 0,-4.5625 0,-3.625 c -0.0404,-1.21429 -0.0448,-0.443805 0.0202,-2 0.21041,-2.11794 0.81293,-4.25764 1.29231,-6.21875 0.85899,-3.435972 2.24741,-6.482256 4.18749,-9.09375 z m 23.28125,7.09375 c -4.29194,0 -6.81875,1.12742 -8.3125,3.25 -0.009,0.0122 -0.0223,0.01895 -0.0312,0.03125 -1.12794,1.708945 -1.96955,4.701221 -2.28125,8.90625 -10e-4,0.02102 0.001,0.04142 0,0.0625 -0.0126,0.232266 -0.0217,0.448553 -0.0312,0.6875 -0.0291,0.72837 -0.0625,1.490844 -0.0625,2.28125 l 0,2.125 c 0,1.474351 0.0572,2.83276 0.15625,4.09375 -0.0421,-0.148836 -0.0871,-0.289894 -0.125,-0.4375 0.24899,4.723082 1.13022,8.067628 2.34375,9.90625 0.006,0.0085 0.0252,0.02325 0.0312,0.03125 1.67374,2.255391 5.18754,2.667752 5.40625,2.65625 1.01739,0.203787 2.14915,0.3125 3.4375,0.3125 1.67252,0 3.35742,-0.0688 5.15625,-0.21875 0.79835,-0.06379 1.38711,-0.112561 1.90625,-0.1875 l 0,-16.9375 0,-1.34375 1.03125,-0.4375 0,-0.03125 0.90625,-0.375 14.03125,-5.8125 2.0625,-0.875 0,2.25 0,34.375 0,1.15625 -0.0312,0 0,1.21875 -1.5,0.375 c -2.77057,0.71243 -6.30109,1.45537 -10.65625,2.15625 -0.0122,0.002 -0.0189,-0.002 -0.0312,0 -0.62884,0.11197 -1.29224,0.186276 -1.9375,0.28125 l 13.9375,0 c 5.26373,0 9.74441,-1.54352 13.46875,-4.65625 3.72434,-3.11272 5.59375,-6.88193 5.59375,-11.28125 0,-3.73527 -1.40666,-7.04613 -4.1875,-9.9375 -2.78084,-2.89138 -6.29192,-4.76369 -10.5625,-5.59375 1.35732,-1.74312 2.03125,-3.6436 2.03125,-5.71875 0,-2.93288 -1.23586,-5.42485 -3.71875,-7.5 -2.48289,-2.07515 -5.49084,-3.125 -9,-3.125 -3.1781,0 -5.90138,0.84705 -8.21875,2.5625 -0.68654,-1.381008 -1.52358,-2.653026 -2.5,-3.84375 -1.17692,-0.05656 -2.4559,-0.0978 -3.1875,-0.15625 -1.82794,-0.1524 -3.51302,-0.25 -5.125,-0.25 z"
         style="fill:#672296;fill-opacity:1" />
      <path
         sodipodi:nodetypes="ccccccccscccsccccccscsscscccccc"
         inkscape:connector-curvature="0"
         id="path3034-4-1-6-7"
         d="m 547.1012,631.91523 c -4.86339,0 -8.97565,0.72573 -12.29508,2.11528 -3.24226,1.38953 -5.85914,3.28063 -7.86621,5.75092 -1.92996,2.4703 -3.3153,5.39497 -4.16446,8.79164 -0.58858,2.40786 -0.94312,5.02945 -1.12374,7.73401 l -0.13221,0 0,3.63564 0,4.56109 0,1.91697 c 0,4.09144 0.40679,7.8958 1.25595,11.36964 0.84916,3.39669 2.2345,6.32136 4.16446,8.79165 2.00707,2.4703 4.62395,4.4275 7.86621,5.81703 3.31943,1.38955 7.43169,2.04918 12.29508,2.04918 5.17214,0 9.9551,-0.35179 14.27816,-1.12374 4.32295,-0.69477 7.80838,-1.4205 10.51032,-2.11528 l 0,-34.37336 -14.01375,5.81703 0,18.83924 c -0.92639,0.23159 -2.36681,0.44072 -4.29667,0.59493 -1.85277,0.15441 -3.58991,0.1982 -5.28821,0.1982 -4.70899,0 -8.05159,-1.38539 -9.98149,-4.16447 -1.85271,-2.77908 -2.77631,-7.397 -2.77631,-13.88154 l 0,-2.11528 c 0,-6.48455 0.9236,-11.10247 2.77631,-13.88155 1.9299,-2.77907 5.2725,-4.16446 9.98149,-4.16446 1.6983,0 3.43544,0.10995 5.28821,0.2644 1.92986,0.15421 7.52531,0.29725 8.4517,0.52883 1.87357,-0.39966 0,0 9.85872,-9.71708 -2.70194,-0.69479 -6.18737,-1.35442 -10.51032,-2.04919 -4.32306,-0.77195 -9.10602,-1.18984 -14.27816,-1.18984 z"
         style="font-size:40px;font-style:normal;font-variant:normal;font-weight:500;font-stretch:normal;text-align:start;line-height:125%;letter-spacing:0px;word-spacing:0px;writing-mode:lr-tb;text-anchor:start;fill:#000000;fill-opacity:1;stroke:none;font-family:Ubuntu;-inkscape-font-specification:Ubuntu Medium" />
    </g>
  </g>
</svg>
