<?xml version="1.0" encoding="UTF-8" standalone="no"?>
<!-- Created with Inkscape (http://www.inkscape.org/) -->

<svg
   xmlns:dc="http://purl.org/dc/elements/1.1/"
   xmlns:cc="http://creativecommons.org/ns#"
   xmlns:rdf="http://www.w3.org/1999/02/22-rdf-syntax-ns#"
   xmlns:svg="http://www.w3.org/2000/svg"
   xmlns="http://www.w3.org/2000/svg"
   xmlns:sodipodi="http://sodipodi.sourceforge.net/DTD/sodipodi-0.dtd"
   xmlns:inkscape="http://www.inkscape.org/namespaces/inkscape"
   width="1000"
   height="300"
   id="svg3032"
   version="1.1"
   inkscape:version="0.48.1 r9760"
   sodipodi:docname="scout5.svg">
  <defs
     id="defs3034">
    <marker
       inkscape:stockid="Arrow1Lend"
       orient="auto"
       refY="0.0"
       refX="0.0"
       id="Arrow1Lend"
       style="overflow:visible;">
      <path
         id="path4236"
         d="M 0.0,0.0 L 5.0,-5.0 L -12.5,0.0 L 5.0,5.0 L 0.0,0.0 z "
         style="fill-rule:evenodd;stroke:#000000;stroke-width:1.0pt;marker-start:none;"
         transform="scale(0.8) rotate(180) translate(12.5,0)" />
    </marker>
    <marker
       inkscape:stockid="Arrow1Lend"
       orient="auto"
       refY="0"
       refX="0"
       id="Arrow1Lend-9"
       style="overflow:visible">
      <path
         inkscape:connector-curvature="0"
         id="path4236-2"
         d="M 0,0 5,-5 -12.5,0 5,5 0,0 z"
         style="fill-rule:evenodd;stroke:#000000;stroke-width:1pt;marker-start:none"
         transform="matrix(-0.8,0,0,-0.8,-10,0)" />
    </marker>
    <marker
       inkscape:stockid="Arrow1Lend"
       orient="auto"
       refY="0"
       refX="0"
       id="Arrow1Lend-3"
       style="overflow:visible">
      <path
         inkscape:connector-curvature="0"
         id="path4236-3"
         d="M 0,0 5,-5 -12.5,0 5,5 0,0 z"
         style="fill-rule:evenodd;stroke:#000000;stroke-width:1pt;marker-start:none"
         transform="matrix(-0.8,0,0,-0.8,-10,0)" />
    </marker>
  </defs>
  <sodipodi:namedview
     id="base"
     pagecolor="#ffffff"
     bordercolor="#666666"
     borderopacity="1.0"
     inkscape:pageopacity="0.0"
     inkscape:pageshadow="2"
     inkscape:zoom="0.7"
     inkscape:cx="368.22722"
     inkscape:cy="55.924552"
     inkscape:document-units="px"
     inkscape:current-layer="layer1"
     showgrid="false"
     inkscape:window-width="1280"
     inkscape:window-height="725"
     inkscape:window-x="0"
     inkscape:window-y="24"
     inkscape:window-maximized="1" />
  <metadata
     id="metadata3037">
    <rdf:RDF>
      <cc:Work
         rdf:about="">
        <dc:format>image/svg+xml</dc:format>
        <dc:type
           rdf:resource="http://purl.org/dc/dcmitype/StillImage" />
        <dc:title />
      </cc:Work>
    </rdf:RDF>
  </metadata>
  <g
     inkscape:label="Capa 1"
     inkscape:groupmode="layer"
     id="layer1"
     transform="translate(0,-752.36218)">
    <rect
       style="fill:#2ba6cb;fill-opacity:1;stroke:none"
       id="rect6699"
       width="1000"
       height="300"
       x="0"
       y="752.36218" />
    <text
       xml:space="preserve"
       style="font-size:20px;font-style:normal;font-variant:normal;font-weight:normal;font-stretch:normal;text-align:start;line-height:125%;letter-spacing:0px;word-spacing:0px;writing-mode:lr-tb;text-anchor:start;fill:#ffffff;fill-opacity:1;stroke:none;font-family:Arial;-inkscape-font-specification:Arial"
       x="439.63028"
       y="956.90704"
       id="text3410-9-3-18"
       sodipodi:linespacing="125%"><tspan
         sodipodi:role="line"
         id="tspan12275"
         x="439.63028"
         y="956.90704">- Contenidos: conceptos, habilidades, actitudes</tspan></text>
    <text
       xml:space="preserve"
       style="font-size:20px;font-style:normal;font-variant:normal;font-weight:normal;font-stretch:normal;text-align:start;line-height:125%;letter-spacing:0px;word-spacing:0px;writing-mode:lr;text-anchor:start;fill:#ffffff;fill-opacity:1;stroke:none;font-family:Arial;-inkscape-font-specification:Arial"
       x="439.63028"
       y="906.90704"
       id="text3410-9-3-32"
       sodipodi:linespacing="125%"><tspan
         sodipodi:role="line"
         id="tspan12271">- Edad de los educandos y duración de la actividad</tspan></text>
    <text
       xml:space="preserve"
       style="font-size:50px;font-style:normal;font-variant:normal;font-weight:normal;font-stretch:normal;text-align:start;line-height:125%;letter-spacing:0px;word-spacing:0px;writing-mode:lr-tb;text-anchor:start;fill:#ffffff;fill-opacity:1;stroke:none;font-family:Arial;-inkscape-font-specification:Arial"
       x="289.81436"
       y="844.23163"
       id="text3404"
       sodipodi:linespacing="125%"><tspan
         sodipodi:role="line"
         id="tspan5985"
         x="289.81436"
         y="844.23163">Creación de actividades scout</tspan></text>
    <path
       style="fill:none;stroke:#000000;stroke-width:1.70000005;stroke-linecap:butt;stroke-linejoin:miter;stroke-miterlimit:4;stroke-opacity:1;stroke-dasharray:none;marker-end:url(#Arrow1Lend)"
       d="M 583.89579,1011.4777 C 456.69669,1084.7098 311.29461,955.80159 311.29461,955.80159"
       id="path4228-9"
       inkscape:connector-curvature="0"
       sodipodi:nodetypes="cc" />
    <g
       id="g5280"
       transform="matrix(1.25,0,0,-1.25,1.3269913,1149.7816)" />
    <g
       id="g5296"
       transform="matrix(1.25,0,0,-1.25,1.3269913,1170.4191)" />
    <g
       id="g5312"
       transform="matrix(1.25,0,0,-1.25,1.3269913,1192.6066)" />
    <g
       id="g5324"
       transform="matrix(1.25,0,0,-1.25,1.3269913,1214.8566)" />
    <g
       id="g5336"
       transform="matrix(1.25,0,0,-1.25,1.3269913,1235.1066)" />
    <g
       id="g5348"
       transform="matrix(1.25,0,0,-1.25,1.3269913,1257.3566)" />
    <g
       id="g5364"
       transform="matrix(1.25,0,0,-1.25,1.3269913,1278.1066)" />
    <g
       id="g5941"
       transform="translate(19.86158,-311.71429)"
       style="fill:#f8fc3d;fill-opacity:1">
      <g
         id="g5272"
         transform="matrix(1.25,0,0,-1.25,-112.56587,1116.7459)"
         style="fill:#f8fc3d;fill-opacity:1">
        <g
           id="g5274"
           style="fill:#f8fc3d;fill-opacity:1">
          <text
             transform="matrix(1,0,0,-1,164.023,11.62642)"
             id="text5276"
             style="fill:#f8fc3d;fill-opacity:1">
            <tspan
               style="font-size:12.31000042px;font-variant:normal;font-weight:bold;writing-mode:lr-tb;fill:#f8fc3d;fill-opacity:1;fill-rule:nonzero;stroke:none;font-family:Helvetica;-inkscape-font-specification:Helvetica-Bold"
               x="0 8.8878202 19.14205 22.56423 32.141411 41.71859 45.14077 48.56295 57.450771 65.661537 69.083717 77.294487 80.716667 89.604492 97.1259 105.33667 108.75885 116.96962 125.85744 135.43462 144.32243"
               y="0"
               sodipodi:role="line"
               id="tspan5278">AMIGO INVISIBLE SCOUT</tspan>
          </text>
        </g>
      </g>
      <g
         id="g5284"
         transform="matrix(1.25,0,0,-1.25,-4.5658658,1137.3834)"
         style="fill:#f8fc3d;fill-opacity:1">
        <g
           id="g5286"
           style="fill:#f8fc3d;fill-opacity:1">
          <text
             transform="matrix(1,0,0,-1,0,9.82)"
             id="text5288"
             style="fill:#f8fc3d;fill-opacity:1">
            <tspan
               style="font-size:10px;font-variant:normal;font-weight:bold;writing-mode:lr-tb;fill:#f8fc3d;fill-opacity:1;fill-rule:nonzero;stroke:none;font-family:Helvetica;-inkscape-font-specification:Helvetica-Bold"
               x="0 7.2199998 12.78 18.34 21.67 24.450001 30.559999 36.119999 39.450001 45.009998 48.900002 51.68 57.790001 63.349998 66.129997 71.690002 77.25"
               y="0"
               sodipodi:role="line"
               id="tspan5290">Destinatarios/as:</tspan>
          </text>
          <text
             transform="matrix(1,0,0,-1,83.36,9.82)"
             id="text5292"
             style="fill:#f8fc3d;fill-opacity:1">
            <tspan
               style="font-size:10px;font-variant:normal;font-weight:normal;writing-mode:lr-tb;fill:#f8fc3d;fill-opacity:1;fill-rule:nonzero;stroke:none;font-family:Helvetica;-inkscape-font-specification:Helvetica"
               x="0 6.6700001 12.23 17.790001 22.790001 28.35 33.91 39.470001 45.029999 50.029999 52.810001 58.369999 63.93 66.709999 70.040001 75.599998 78.379997 83.940002 86.720001 91.720001 94.5 100.06 105.62 108.4 113.96 119.52 125.08"
               y="0"
               sodipodi:role="line"
               id="tspan5294">Educandos entre 8 y 11 años</tspan>
          </text>
        </g>
      </g>
      <g
         id="g5300"
         transform="matrix(1.25,0,0,-1.25,-4.5658658,1159.5709)"
         style="fill:#f8fc3d;fill-opacity:1">
        <g
           id="g5302"
           style="fill:#f8fc3d;fill-opacity:1">
          <text
             transform="matrix(1,0,0,-1,0,9.82)"
             id="text5304"
             style="fill:#f8fc3d;fill-opacity:1">
            <tspan
               style="font-size:10px;font-variant:normal;font-weight:bold;writing-mode:lr-tb;fill:#f8fc3d;fill-opacity:1;fill-rule:nonzero;stroke:none;font-family:Helvetica;-inkscape-font-specification:Helvetica-Bold"
               x="0 7.2199998 13.33 17.219999 22.780001 28.34 31.120001 37.23 43.34"
               y="0"
               sodipodi:role="line"
               id="tspan5306">Duración:</tspan>
          </text>
          <text
             transform="matrix(1,0,0,-1,49.45,9.82)"
             id="text5308"
             style="fill:#f8fc3d;fill-opacity:1">
            <tspan
               style="font-size:10px;font-variant:normal;font-weight:normal;writing-mode:lr-tb;fill:#f8fc3d;fill-opacity:1;fill-rule:nonzero;stroke:none;font-family:Helvetica;-inkscape-font-specification:Helvetica"
               x="0 5.5599999 11.12 13.9 19.459999 22.24 27.799999"
               y="0"
               sodipodi:role="line"
               id="tspan5310">15 días</tspan>
          </text>
        </g>
      </g>
      <g
         id="g5316"
         transform="matrix(1.25,0,0,-1.25,-4.5658658,1181.8209)"
         style="fill:#f8fc3d;fill-opacity:1">
        <g
           id="g5318"
           style="fill:#f8fc3d;fill-opacity:1">
          <text
             transform="matrix(1,0,0,-1,0,10.4456)"
             id="text5320"
             style="fill:#f8fc3d;fill-opacity:1">
            <tspan
               style="font-size:10.80000019px;font-variant:normal;font-weight:bold;writing-mode:lr-tb;fill:#f8fc3d;fill-opacity:1;fill-rule:nonzero;stroke:none;font-family:Helvetica;-inkscape-font-specification:Helvetica-Bold"
               x="0 6.0047998 9.0072002 12.0096 19.807199 25.812 31.816799 37.821602 42.0228 45.0252 51.624001 57.628799 60.631199 67.230003"
               y="0"
               sodipodi:role="line"
               id="tspan5322">1. Descripción</tspan>
          </text>
        </g>
      </g>
      <g
         id="g5328"
         transform="matrix(1.25,0,0,-1.25,-4.5658658,1202.0709)"
         style="fill:#f8fc3d;fill-opacity:1">
        <g
           id="g5330"
           style="fill:#f8fc3d;fill-opacity:1">
          <text
             transform="matrix(1,0,0,-1,0,11.02)"
             id="text5332"
             style="fill:#f8fc3d;fill-opacity:1">
            <tspan
               style="font-size:10px;font-variant:normal;font-weight:normal;writing-mode:lr-tb;fill:#f8fc3d;fill-opacity:1;fill-rule:nonzero;stroke:none;font-family:Helvetica;-inkscape-font-specification:Helvetica"
               x="0 6.6700001 11.67 14.45 16.67 21.67 23.889999 29.450001 35.009998 40.57 43.349998 46.130001 49.459999 55.02 60.580002 65.580002 70.580002 76.139999 79.470001 84.470001 90.029999 92.25 95.029999 100.59 106.15 111.71 114.49 119.49 125.05 127.83 133.39 138.95 143.95 149.50999 152.84 156.17 161.73 163.95 166.17 171.73 175.06 180.62 183.39999 188.96001 194.52 197.85001 203.41 208.97 211.75 217.31 220.09 222.87 228.42999 233.99001 239.55 242.33 247.89 250.11 252.89 257.89001 263.45001 271.78 277.34 282.89999 291.23001 296.79001 302.35001 305.13 310.69"
               y="0"
               sodipodi:role="line"
               id="tspan5334">Actividad transversal que se desarrollará durante todo el campamento.</tspan>
          </text>
        </g>
      </g>
      <g
         id="g5340"
         transform="matrix(1.25,0,0,-1.25,-4.5658658,1224.3209)"
         style="fill:#f8fc3d;fill-opacity:1">
        <g
           id="g5342"
           style="fill:#f8fc3d;fill-opacity:1">
          <text
             transform="matrix(1,0,0,-1,0,10.4456)"
             id="text5344"
             style="fill:#f8fc3d;fill-opacity:1">
            <tspan
               style="font-size:10.80000019px;font-variant:normal;font-weight:bold;writing-mode:lr-tb;fill:#f8fc3d;fill-opacity:1;fill-rule:nonzero;stroke:none;font-family:Helvetica;-inkscape-font-specification:Helvetica-Bold"
               x="0 6.0047998 9.0072002 12.0096 20.412001 27.010799 30.013201 36.018002 39.614399 42.616798 48.621601 55.220402"
               y="0"
               sodipodi:role="line"
               id="tspan5346">2. Objetivos</tspan>
          </text>
        </g>
      </g>
      <g
         id="g5352"
         transform="matrix(1.25,0,0,-1.25,-4.5658658,1245.0709)"
         style="fill:#f8fc3d;fill-opacity:1">
        <g
           id="g5354"
           style="fill:#f8fc3d;fill-opacity:1">
          <text
             transform="matrix(1,0,0,-1,15,9.82)"
             id="text5356"
             style="fill:#f8fc3d;fill-opacity:1">
            <tspan
               style="font-size:10px;font-variant:normal;font-weight:normal;writing-mode:lr-tb;fill:#f8fc3d;fill-opacity:1;fill-rule:nonzero;stroke:none;font-family:Helvetica;-inkscape-font-specification:Helvetica"
               x="0"
               y="0"
               id="tspan5358">•</tspan>
          </text>
          <text
             transform="matrix(1,0,0,-1,25.5,9.82)"
             id="text5360"
             style="fill:#f8fc3d;fill-opacity:1">
            <tspan
               style="font-size:10px;font-variant:normal;font-weight:normal;writing-mode:lr-tb;fill:#f8fc3d;fill-opacity:1;fill-rule:nonzero;stroke:none;font-family:Helvetica;-inkscape-font-specification:Helvetica"
               x="0 6.1100001 9.4399996 15 20.559999 26.120001 28.34 33.900002 37.23 40.009998 45.57 47.790001 50.57 55.57 61.130001 69.459999 75.019997 80.580002 86.139999 91.699997 95.029999 97.25 102.25 110.58 116.14 118.92 123.92 126.7 128.92 134.48 137.25999 142.25999 147.82001 150.03999 152.25999 157.82001 163.38 166.71001 168.92999 174.49001 180.05 185.61 188.39 193.95 199.50999 202.28999 204.50999 210.07001 215.07001 217.85001 220.07001 225.63 231.19 236.75 239.53 245.09 250.09"
               y="0"
               sodipodi:role="line"
               id="tspan5362">Trabajar el compañerismo y la solidaridad de los lobatos.</tspan>
          </text>
        </g>
      </g>
      <g
         id="g5368"
         transform="matrix(1.25,0,0,-1.25,-4.5658658,1266.3209)"
         style="fill:#f8fc3d;fill-opacity:1">
        <g
           id="g5370"
           style="fill:#f8fc3d;fill-opacity:1">
          <text
             transform="matrix(1,0,0,-1,15,9.82)"
             id="text5372"
             style="fill:#f8fc3d;fill-opacity:1">
            <tspan
               style="font-size:10px;font-variant:normal;font-weight:normal;writing-mode:lr-tb;fill:#f8fc3d;fill-opacity:1;fill-rule:nonzero;stroke:none;font-family:Helvetica;-inkscape-font-specification:Helvetica"
               x="0"
               y="0"
               id="tspan5374">•</tspan>
          </text>
          <text
             transform="matrix(1,0,0,-1,25.5,9.82)"
             id="text5376"
             style="fill:#f8fc3d;fill-opacity:1">
            <tspan
               style="font-size:10px;font-variant:normal;font-weight:normal;writing-mode:lr-tb;fill:#f8fc3d;fill-opacity:1;fill-rule:nonzero;stroke:none;font-family:Helvetica;-inkscape-font-specification:Helvetica"
               x="0 8.3299999 13.89 16.110001 21.67 25 30.559999 33.889999 36.669998 38.889999 44.450001 47.23 50.560001 56.119999 58.34 63.900002 68.900002 71.120003 76.68 82.239998 85.019997 90.580002 96.139999 98.919998 101.14 106.7 111.7 114.48 116.7 122.26 127.82 133.38 136.16 141.72 146.72 149.5 155.06 160.62 163.39999 166.73 172.28999 175.07001 180.07001 182.85001"
               y="0"
               sodipodi:role="line"
               id="tspan5378">Mejorar la relación de los lobatos entre sí.</tspan>
          </text>
        </g>
      </g>
    </g>
    <g
       id="g5380"
       transform="matrix(1.25,0,0,-1.25,1.3269913,1299.3566)" />
    <g
       transform="matrix(1.25,0,0,-1.25,-56.999423,1589.1924)"
       id="g5987"
       style="fill:#f8fc3d;fill-opacity:1">
      <g
         transform="translate(56.69291,486.0057)"
         id="g5384"
         style="fill:#f8fc3d;fill-opacity:1">
        <g
           transform="translate(1,-1)"
           id="g5386"
           style="fill:#f8fc3d;fill-opacity:1">
          <g
             id="g5388"
             style="fill:#f8fc3d;fill-opacity:1">
            <text
               id="text5390"
               transform="matrix(1,0,0,-1,0,10.4456)"
               style="fill:#f8fc3d;fill-opacity:1">
              <tspan
                 id="tspan5392"
                 sodipodi:role="line"
                 y="0"
                 x="0 6.0047998 9.0072002 12.0096 19.807199 26.406 33.004799 36.6012 42.605999 49.2048 52.207199 58.806 65.4048"
                 style="font-size:10.80000019px;font-variant:normal;font-weight:bold;writing-mode:lr-tb;fill:#f8fc3d;fill-opacity:1;fill-rule:nonzero;stroke:none;font-family:Helvetica;-inkscape-font-specification:Helvetica-Bold">3. Contenidos</tspan>
            </text>
          </g>
        </g>
        <g
           id="g5394"
           style="fill:#f8fc3d;fill-opacity:1" />
      </g>
      <g
         transform="translate(56.69291,469.4057)"
         id="g5396"
         style="fill:#f8fc3d;fill-opacity:1">
        <g
           transform="translate(1,-1)"
           id="g5398"
           style="fill:#f8fc3d;fill-opacity:1">
          <g
             id="g5400"
             style="fill:#f8fc3d;fill-opacity:1">
            <text
               id="text5402"
               transform="matrix(1,0,0,-1,6,9.82)"
               style="fill:#f8fc3d;fill-opacity:1">
              <tspan
                 id="tspan5404"
                 sodipodi:role="line"
                 y="0"
                 x="0 7.2199998 13.33 19.440001 25 30.559999 36.669998 40 46.110001 51.669998"
                 style="font-size:10px;font-variant:normal;font-weight:bold;writing-mode:lr-tb;fill:#f8fc3d;fill-opacity:1;fill-rule:nonzero;stroke:none;font-family:Helvetica;-inkscape-font-specification:Helvetica-Bold">Conceptos:</tspan>
            </text>
          </g>
        </g>
        <g
           id="g5406"
           style="fill:#f8fc3d;fill-opacity:1" />
      </g>
      <g
         transform="translate(56.69291,454.8557)"
         id="g5408"
         style="fill:#f8fc3d;fill-opacity:1">
        <g
           transform="translate(1,-1)"
           id="g5410"
           style="fill:#f8fc3d;fill-opacity:1">
          <g
             id="g5412"
             style="fill:#f8fc3d;fill-opacity:1">
            <text
               id="text5414"
               transform="matrix(1,0,0,-1,15,9.82)"
               style="fill:#f8fc3d;fill-opacity:1">
              <tspan
                 id="tspan5416"
                 y="0"
                 x="0"
                 style="font-size:10px;font-variant:normal;font-weight:normal;writing-mode:lr-tb;fill:#f8fc3d;fill-opacity:1;fill-rule:nonzero;stroke:none;font-family:Helvetica;-inkscape-font-specification:Helvetica">•</tspan>
            </text>
            <text
               id="text5418"
               transform="matrix(1,0,0,-1,25.5,9.82)"
               style="fill:#f8fc3d;fill-opacity:1">
              <tspan
                 id="tspan5420"
                 sodipodi:role="line"
                 y="0"
                 x="0 7.2199998 12.78 21.110001 26.67 32.23 37.790001 43.349998 46.68 48.900002 53.900002 62.23 67.790001"
                 style="font-size:10px;font-variant:normal;font-weight:normal;writing-mode:lr-tb;fill:#f8fc3d;fill-opacity:1;fill-rule:nonzero;stroke:none;font-family:Helvetica;-inkscape-font-specification:Helvetica">Compañerismo.</tspan>
            </text>
          </g>
        </g>
        <g
           id="g5422"
           style="fill:#f8fc3d;fill-opacity:1" />
      </g>
      <g
         transform="translate(56.69291,441.0557)"
         id="g5424"
         style="fill:#f8fc3d;fill-opacity:1">
        <g
           transform="translate(1,-1)"
           id="g5426"
           style="fill:#f8fc3d;fill-opacity:1">
          <g
             id="g5428"
             style="fill:#f8fc3d;fill-opacity:1">
            <text
               id="text5430"
               transform="matrix(1,0,0,-1,15,9.82)"
               style="fill:#f8fc3d;fill-opacity:1">
              <tspan
                 id="tspan5432"
                 y="0"
                 x="0"
                 style="font-size:10px;font-variant:normal;font-weight:normal;writing-mode:lr-tb;fill:#f8fc3d;fill-opacity:1;fill-rule:nonzero;stroke:none;font-family:Helvetica;-inkscape-font-specification:Helvetica">•</tspan>
            </text>
            <text
               id="text5434"
               transform="matrix(1,0,0,-1,25.5,9.82)"
               style="fill:#f8fc3d;fill-opacity:1">
              <tspan
                 id="tspan5436"
                 sodipodi:role="line"
                 y="0"
                 x="0 6.6700001 12.23 14.45 16.67 22.23 27.790001 31.120001 33.34 38.900002 44.459999 50.02"
                 style="font-size:10px;font-variant:normal;font-weight:normal;writing-mode:lr-tb;fill:#f8fc3d;fill-opacity:1;fill-rule:nonzero;stroke:none;font-family:Helvetica;-inkscape-font-specification:Helvetica">Solidaridad.</tspan>
            </text>
          </g>
        </g>
        <g
           id="g5438"
           style="fill:#f8fc3d;fill-opacity:1" />
      </g>
      <g
         transform="translate(161.81639,469.5257)"
         id="g5442"
         style="fill:#f8fc3d;fill-opacity:1">
        <g
           transform="translate(1,-1)"
           id="g5444"
           style="fill:#f8fc3d;fill-opacity:1">
          <g
             id="g5446"
             style="fill:#f8fc3d;fill-opacity:1">
            <text
               id="text5448"
               transform="matrix(1,0,0,-1,6,9.82)"
               style="fill:#f8fc3d;fill-opacity:1">
              <tspan
                 id="tspan5450"
                 sodipodi:role="line"
                 y="0"
                 x="0 7.2199998 12.78 18.889999 21.67 24.450001 27.23 33.34 38.900002 45.009998 50.57 56.130001"
                 style="font-size:10px;font-variant:normal;font-weight:bold;writing-mode:lr-tb;fill:#f8fc3d;fill-opacity:1;fill-rule:nonzero;stroke:none;font-family:Helvetica;-inkscape-font-specification:Helvetica-Bold">Habilidades:</tspan>
            </text>
          </g>
        </g>
        <g
           id="g5452"
           style="fill:#f8fc3d;fill-opacity:1" />
      </g>
      <g
         transform="translate(161.81639,454.8657)"
         id="g5454"
         style="fill:#f8fc3d;fill-opacity:1">
        <g
           transform="translate(1,-1)"
           id="g5456"
           style="fill:#f8fc3d;fill-opacity:1">
          <g
             id="g5458"
             style="fill:#f8fc3d;fill-opacity:1">
            <text
               id="text5460"
               transform="matrix(1,0,0,-1,15,9.82)"
               style="fill:#f8fc3d;fill-opacity:1">
              <tspan
                 id="tspan5462"
                 y="0"
                 x="0"
                 style="font-size:10px;font-variant:normal;font-weight:normal;writing-mode:lr-tb;fill:#f8fc3d;fill-opacity:1;fill-rule:nonzero;stroke:none;font-family:Helvetica;-inkscape-font-specification:Helvetica">•</tspan>
            </text>
            <text
               id="text5464"
               transform="matrix(1,0,0,-1,25.5,9.82)"
               style="fill:#f8fc3d;fill-opacity:1">
              <tspan
                 id="tspan5466"
                 sodipodi:role="line"
                 y="0"
                 x="0 6.6700001 15 20.559999 26.120001 28.9 31.68"
                 style="font-size:10px;font-variant:normal;font-weight:normal;writing-mode:lr-tb;fill:#f8fc3d;fill-opacity:1;fill-rule:nonzero;stroke:none;font-family:Helvetica;-inkscape-font-specification:Helvetica">Empatía</tspan>
            </text>
          </g>
        </g>
        <g
           id="g5468"
           style="fill:#f8fc3d;fill-opacity:1" />
      </g>
      <g
         transform="translate(246.86011,469.5257)"
         id="g5472"
         style="fill:#f8fc3d;fill-opacity:1">
        <g
           transform="translate(1,-1)"
           id="g5474"
           style="fill:#f8fc3d;fill-opacity:1">
          <g
             id="g5476"
             style="fill:#f8fc3d;fill-opacity:1">
            <text
               id="text5478"
               transform="matrix(1,0,0,-1,6,9.82)"
               style="fill:#f8fc3d;fill-opacity:1">
              <tspan
                 id="tspan5480"
                 sodipodi:role="line"
                 y="0"
                 x="0 7.2199998 12.78 16.110001 18.889999 22.219999 28.33 34.439999 40 45.560001"
                 style="font-size:10px;font-variant:normal;font-weight:bold;writing-mode:lr-tb;fill:#f8fc3d;fill-opacity:1;fill-rule:nonzero;stroke:none;font-family:Helvetica;-inkscape-font-specification:Helvetica-Bold">Actitudes:</tspan>
            </text>
          </g>
        </g>
        <g
           id="g5482"
           style="fill:#f8fc3d;fill-opacity:1" />
      </g>
      <g
         transform="translate(246.86011,454.8557)"
         id="g5484"
         style="fill:#f8fc3d;fill-opacity:1">
        <g
           transform="translate(1,-1)"
           id="g5486"
           style="fill:#f8fc3d;fill-opacity:1">
          <g
             id="g5488"
             style="fill:#f8fc3d;fill-opacity:1">
            <text
               id="text5490"
               transform="matrix(1,0,0,-1,15,9.82)"
               style="fill:#f8fc3d;fill-opacity:1">
              <tspan
                 id="tspan5492"
                 y="0"
                 x="0"
                 style="font-size:10px;font-variant:normal;font-weight:normal;writing-mode:lr-tb;fill:#f8fc3d;fill-opacity:1;fill-rule:nonzero;stroke:none;font-family:Helvetica;-inkscape-font-specification:Helvetica">•</tspan>
            </text>
            <text
               id="text5494"
               transform="matrix(1,0,0,-1,25.5,9.82)"
               style="fill:#f8fc3d;fill-opacity:1">
              <tspan
                 id="tspan5496"
                 sodipodi:role="line"
                 y="0"
                 x="0 6.6700001 12.23 14.45 16.67 22.23 27.790001 31.120001 33.34"
                 style="font-size:10px;font-variant:normal;font-weight:normal;writing-mode:lr-tb;fill:#f8fc3d;fill-opacity:1;fill-rule:nonzero;stroke:none;font-family:Helvetica;-inkscape-font-specification:Helvetica">Solidaria</tspan>
            </text>
          </g>
        </g>
        <g
           id="g5498"
           style="fill:#f8fc3d;fill-opacity:1" />
      </g>
    </g>
    <text
       xml:space="preserve"
       style="font-size:20px;font-style:normal;font-variant:normal;font-weight:normal;font-stretch:normal;text-align:start;line-height:125%;letter-spacing:0px;word-spacing:0px;writing-mode:lr-tb;text-anchor:start;fill:#ffffff;fill-opacity:1;stroke:none;font-family:Arial;-inkscape-font-specification:Arial"
       x="439.63028"
       y="1006.907"
       id="text3410-9-3-1"
       sodipodi:linespacing="125%"><tspan
         sodipodi:role="line"
         id="tspan12279"
         x="439.63028"
         y="1006.907">- ...</tspan></text>
    <text
       xml:space="preserve"
       style="font-size:20px;font-style:normal;font-variant:normal;font-weight:normal;font-stretch:normal;text-align:start;line-height:125%;letter-spacing:0px;word-spacing:0px;writing-mode:lr-tb;text-anchor:start;fill:#ffffff;fill-opacity:1;stroke:none;font-family:Arial;-inkscape-font-specification:Arial"
       x="439.63028"
       y="982.90704"
       id="text3410-9-3-3"
       sodipodi:linespacing="125%"><tspan
         sodipodi:role="line"
         id="tspan12277"
         x="439.63028"
         y="982.90704">- Indicadores y procesos de evaluación</tspan></text>
    <text
       xml:space="preserve"
       style="font-size:20px;font-style:normal;font-variant:normal;font-weight:normal;font-stretch:normal;text-align:start;line-height:125%;letter-spacing:0px;word-spacing:0px;writing-mode:lr-tb;text-anchor:start;fill:#ffffff;fill-opacity:1;stroke:none;font-family:Arial;-inkscape-font-specification:Arial"
       x="439.63028"
       y="931.47845"
       id="text3410-9-3-8"
       sodipodi:linespacing="125%"><tspan
         sodipodi:role="line"
         id="tspan12273"
         x="439.63028"
         y="931.47845">- Descripción, objetivos</tspan></text>
  </g>
</svg>
