<?xml version="1.0" encoding="UTF-8"?>
<svg xmlns:rdf="http://www.w3.org/1999/02/22-rdf-syntax-ns#" xmlns="http://www.w3.org/2000/svg" xmlns:cc="http://web.resource.org/cc/" xmlns:xlink="http://www.w3.org/1999/xlink" xmlns:dc="http://purl.org/dc/elements/1.1/" xmlns:svg="http://www.w3.org/2000/svg" id="svg1" height="128pt" width="128pt">
  <defs id="defs3">
    <linearGradient id="linearGradient1290">
      <stop id="stop1291" stop-color="#6c708f" offset="0"/>
      <stop id="stop1546" stop-color="#afbfea" offset=".19092"/>
      <stop id="stop1292" stop-color="#485877" offset="1"/>
    </linearGradient>
    <linearGradient id="linearGradient853">
      <stop id="stop854" stop-opacity=".29752" offset="0"/>
      <stop id="stop855" stop-opacity="0" offset="1"/>
    </linearGradient>
    <linearGradient id="linearGradient1492">
      <stop id="stop1493" stop-color="#dadada" offset="0"/>
      <stop id="stop1496" stop-color="#f1f1f1" offset=".34923"/>
      <stop id="stop1494" stop-color="#f0f0f0" offset="1"/>
    </linearGradient>
    <linearGradient id="linearGradient1495" y2="1.1797" xlink:href="#linearGradient1492" y1=".21094" x2=".08547" x1=".88034"/>
    <linearGradient id="linearGradient1497" y2="1.3281" xlink:href="#linearGradient1492" y1=".32812" x2="-.37607" x1=".63248"/>
    <linearGradient id="linearGradient1499" y1=".14062" x2=".062992" x1=".85827" y2=".54688">
      <stop id="stop1502" stop-color="#fff" offset="0"/>
      <stop id="stop1504" stop-color="#fff" stop-opacity="0" offset="1"/>
    </linearGradient>
    <linearGradient id="linearGradient1506" y1=".97656" x2=".78261" x1=".052174" y2=".0078125">
      <stop id="stop1508" stop-opacity=".095506" offset="0"/>
      <stop id="stop1510" stop-opacity="0" offset="1"/>
    </linearGradient>
    <linearGradient id="linearGradient852" y1=".5" x1="3.5237e-18" xlink:href="#linearGradient1290" y2=".5"/>
    <linearGradient id="linearGradient844" y1="-.78" x2=".58824" x1="-.07451" y2="1.1">
      <stop id="stop842" stop-color="#fff" offset="0"/>
      <stop id="stop843" stop-color="#fff" stop-opacity="0" offset="1"/>
    </linearGradient>
    <linearGradient id="linearGradient845" y2="13.118" xlink:href="#linearGradient1290" y1="-.14706" x2="1.0314" x1=".4902"/>
    <linearGradient id="linearGradient840" y2=".8805" xlink:href="#linearGradient853" y1=".30818" x2=".38813" x1=".81279"/>
    <linearGradient id="linearGradient849" y2=".91667" xlink:href="#linearGradient853" y1=".060606" x2=".56284" x1=".78142"/>
  </defs>
  <path id="path930" d="m17.159 6.3293v146.96h134.11v-110.22l-33.53-36.74-33.525 0.0003h-67.056z" stroke-opacity=".36478" fill-rule="evenodd" stroke-width=".42649" fill="#fff"/>
  <g id="g1552" fill-opacity=".75" fill-rule="evenodd" transform="matrix(.30417 0 0 .29757 -36.704 -112.49)" stroke-width=".95407pt" fill="url(#linearGradient1506)">
    <path id="path1505" d="m173.36 408.81v489.05h435.05v-366.79l-108.76-122.26h-326.29z"/>
    <path id="path1538" d="m170.12 407.19v493.9h441.54v-371.28c-36.85-41.42-73.68-82.86-110.57-124.25h-330.97v1.63z"/>
    <path id="path1543" d="m166.88 403.94v500.4h448.03v-375.78c-37.45-42.09-74.89-84.19-112.38-126.25h-335.65v1.63z"/>
  </g>
  <path id="rect900" d="m297.99 136.74v495.32h452.02v-371.49l-113-123.83h-339.02z" stroke-opacity=".36478" fill-rule="evenodd" transform="matrix(.29669 0 0 .29669 -71.196 -34.058)" stroke="#000" stroke-width="1.4375" fill="url(#linearGradient1495)"/>
  <path id="path1582" d="m31.963 53.701v79.859h109.77v-79.859h-109.76zm2.027 2.192h33.894v10.756h-33.894v-10.756zm35.921 0h33.869v10.756h-33.869v-10.756zm35.899 0h33.89v10.756h-33.89v-10.756zm-71.82 12.949h33.894v10.756h-33.894v-10.756zm35.921 0h33.869v10.756h-33.869v-10.756zm35.899 0h33.89v10.756h-33.89v-10.756zm-71.82 12.948h33.894v10.756h-33.894v-10.756zm35.921 0h33.869v10.756h-33.869v-10.756zm35.899 0h33.89v10.756h-33.89v-10.756zm-71.82 12.948h33.894v10.752h-33.894v-10.752zm35.921 0h33.869v10.752h-33.869v-10.752zm35.899 0h33.89v10.752h-33.89v-10.752zm-71.82 12.952h33.894v10.73h-33.894v-10.73zm35.921 0h33.869v10.73h-33.869v-10.73zm35.899 0h33.89v10.73h-33.89v-10.73zm-71.82 12.92h33.894v10.76h-33.894v-10.76zm35.921 0h33.869v10.76h-33.869v-10.76zm35.899 0h33.89v10.76h-33.89v-10.76z" stroke-opacity=".44654" fill-rule="evenodd" stroke="url(#linearGradient840)" stroke-width=".5" fill="url(#linearGradient849)"/>
  <path id="path1500" d="m301.31 174.91l-2.04 453.99h443.82l0.25-112.22c-9.92 3.82-110.19-138.19-236.41-132.08-126.34 6.11-93.65-191.37-205.62-209.69z" fill-rule="evenodd" transform="matrix(.29669 0 0 .29669 -71.196 -34.058)" stroke-width="1pt" fill="url(#linearGradient1499)"/>
  <path id="path906" d="m750.01 260.57c-34.07-10.08-78.21-8.65-111.56-2.9 5.76-36.95 6.48-83.26-1.44-120.93l113 123.83z" fill-rule="evenodd" transform="matrix(.29669 0 0 .29669 -71.196 -34.058)" stroke-width=".95407pt" fill="url(#linearGradient1497)"/>
  <rect id="rect1534" fill-rule="evenodd" fill-opacity=".43396" height="20.954" width="74.377" y="18.268" x="31.922" stroke-width="1pt" fill="#7b7b7b"/>
  <g id="g1559" fill-rule="evenodd" transform="translate(-36.527 149.44)">
    <path id="path951" d="m141.11-40.911c0 11.075-34.71 16.103-52.527 16.103-17.819 0-52.532-5.028-52.532-16.103v-11.062h105.06v11.062z" stroke-width=".99417pt" fill="url(#linearGradient852)" transform="matrix(1 0 0 1.4566 53.696 36.686)"/>
    <path id="path952" d="m141.73-34.882c0 9.78-106.3 9.78-106.3 0 0.003-9.779 23.814-17.716 53.153-17.716 29.337 0 53.147 7.937 53.147 17.716z" stroke-width="1pt" fill="#ba3100" transform="matrix(.98966 0 0 1.1504 54.613 .20044)"/>
    <path id="path957" d="m141.73-34.882c0 9.78-23.81 17.717-53.147 17.717-29.339 0-53.15-7.937-53.15-17.717h106.3z" stroke-width="1pt" fill="url(#linearGradient845)" transform="matrix(.98966 0 0 1.1504 54.61 .20044)"/>
    <path id="path955" d="m141.73-34.882c0 9.78-23.81 17.717-53.147 17.717l-0.003-17.717 37.58-12.525c9.62 3.206 15.57 7.635 15.57 12.525z" stroke-width="1pt" fill="#55a734" transform="matrix(.98966 0 0 1.1504 54.615 .20044)"/>
    <path id="path1545" d="m141.73-34.882a53.15 17.717 0 1 0 -106.3 0 53.15 17.717 0 1 0 106.3 0z" stroke-width="1pt" fill="url(#linearGradient844)" transform="matrix(.83333 0 0 .84426 68.46 -10.479)"/>
  </g>
  <metadata>
    <rdf:RDF>
      <cc:Work>
        <dc:format>image/svg+xml</dc:format>
        <dc:type rdf:resource="http://purl.org/dc/dcmitype/StillImage"/>
        <cc:license rdf:resource="http://creativecommons.org/licenses/publicdomain/"/>
        <dc:publisher>
          <cc:Agent rdf:about="http://openclipart.org/">
            <dc:title>Openclipart</dc:title>
          </cc:Agent>
        </dc:publisher>
        <dc:title>Spreadsheet</dc:title>
        <dc:date>2009-04-30T09:47:01</dc:date>
        <dc:description>An icon representing a spreadsheet file by Andrew Fitzsimon. Etiquette Icon set. From 0.18 OCAL database.</dc:description>
        <dc:source>http://openclipart.org/detail/25524/spreadsheet-by-anonymous-25524</dc:source>
        <dc:creator>
          <cc:Agent>
            <dc:title>Anonymous</dc:title>
          </cc:Agent>
        </dc:creator>
        <dc:subject>
          <rdf:Bag>
            <rdf:li>clip art</rdf:li>
            <rdf:li>clipart</rdf:li>
            <rdf:li>computer</rdf:li>
            <rdf:li>diagram</rdf:li>
            <rdf:li>etiquette</rdf:li>
            <rdf:li>file</rdf:li>
            <rdf:li>file type</rdf:li>
            <rdf:li>gnome</rdf:li>
            <rdf:li>icon</rdf:li>
            <rdf:li>image</rdf:li>
            <rdf:li>media</rdf:li>
            <rdf:li>paper</rdf:li>
            <rdf:li>png</rdf:li>
            <rdf:li>public domain</rdf:li>
            <rdf:li>spreadsheet</rdf:li>
            <rdf:li>svg</rdf:li>
          </rdf:Bag>
        </dc:subject>
      </cc:Work>
      <cc:License rdf:about="http://creativecommons.org/licenses/publicdomain/">
        <cc:permits rdf:resource="http://creativecommons.org/ns#Reproduction"/>
        <cc:permits rdf:resource="http://creativecommons.org/ns#Distribution"/>
        <cc:permits rdf:resource="http://creativecommons.org/ns#DerivativeWorks"/>
      </cc:License>
    </rdf:RDF>
  </metadata>
</svg>