<?xml version="1.0" encoding="UTF-8" standalone="no"?>
<!-- Created with Inkscape (http://www.inkscape.org/) -->
<svg xmlns:dc="http://purl.org/dc/elements/1.1/" xmlns:cc="http://creativecommons.org/ns#" xmlns:rdf="http://www.w3.org/1999/02/22-rdf-syntax-ns#" xmlns:svg="http://www.w3.org/2000/svg" xmlns="http://www.w3.org/2000/svg" xmlns:xlink="http://www.w3.org/1999/xlink" xmlns:sodipodi="http://sodipodi.sourceforge.net/DTD/sodipodi-0.dtd" xmlns:inkscape="http://www.inkscape.org/namespaces/inkscape" id="svg2" version="1.1" inkscape:version="0.48.2 r9819" width="1407.6875" height="926.25" sodipodi:docname="Vignette Mobilisation.jpg">
  <metadata id="metadata8">
    <rdf:RDF>
      <cc:Work rdf:about="">
        <dc:format>image/svg+xml</dc:format>
        <dc:type rdf:resource="http://purl.org/dc/dcmitype/StillImage"/>
        <dc:title/>
      </cc:Work>
    </rdf:RDF>
  </metadata>
  <defs id="defs6">
    <linearGradient id="linearGradient4091">
      <stop id="stop4093" offset="0" style="stop-color:#023000;stop-opacity:1"/>
      <stop style="stop-color:#024500;stop-opacity:1" offset="0.0374595" id="stop4095"/>
      <stop style="stop-color:#086300;stop-opacity:1" offset="0.28767055" id="stop4097"/>
      <stop style="stop-color:#007300;stop-opacity:1" offset="0.37440085" id="stop4099"/>
      <stop id="stop4101" offset="0.51785314" style="stop-color:#005306;stop-opacity:1"/>
      <stop style="stop-color:#035300;stop-opacity:1" offset="0.88910484" id="stop4103"/>
      <stop id="stop4105" offset="1" style="stop-color:#086100;stop-opacity:1"/>
    </linearGradient>
    <linearGradient inkscape:collect="always" id="linearGradient3806">
      <stop style="stop-color:#ffffff;stop-opacity:1" offset="0" id="stop3808"/>
      <stop style="stop-color:#dfdfdf;stop-opacity:1" offset="1" id="stop3810"/>
    </linearGradient>
    <linearGradient inkscape:collect="always" id="linearGradient3772">
      <stop style="stop-color:#e6e6e6;stop-opacity:1" offset="0" id="stop3774"/>
      <stop id="stop3804" offset="0.0374595" style="stop-color:#8f8f8f;stop-opacity:1;"/>
      <stop id="stop3790" offset="0.28767055" style="stop-color:#999999;stop-opacity:1"/>
      <stop id="stop3780" offset="0.37440085" style="stop-color:#f2f2f2;stop-opacity:1"/>
      <stop style="stop-color:#b3b3b3;stop-opacity:1" offset="0.45299327" id="stop3800"/>
      <stop id="stop3802" offset="0.88910484" style="stop-color:#9a9a9a;stop-opacity:1"/>
      <stop style="stop-color:#b3b3b3;stop-opacity:1" offset="1" id="stop3776"/>
    </linearGradient>
    <linearGradient inkscape:collect="always" xlink:href="#linearGradient4091" id="linearGradient4107" gradientUnits="userSpaceOnUse" gradientTransform="translate(106.2011,91.7128)" x1="146.63379" y1="389.6008" x2="613.64172" y2="449.26855"/>
    <radialGradient inkscape:collect="always" xlink:href="#linearGradient3806" id="radialGradient4338" gradientUnits="userSpaceOnUse" gradientTransform="matrix(0.33680838,1.0448491,-0.93910625,0.30272202,429.5407,352.7994)" cx="245.28273" cy="259.05777" fx="245.28273" fy="259.05777" r="222.98174"/>
    <radialGradient inkscape:collect="always" xlink:href="#linearGradient3806" id="radialGradient4348" gradientUnits="userSpaceOnUse" gradientTransform="matrix(0.33680838,1.0448491,-0.93910625,0.30272202,801.99493,285.8037)" cx="245.28273" cy="259.05777" fx="245.28273" fy="259.05777" r="222.98174"/>
    <linearGradient inkscape:collect="always" xlink:href="#linearGradient3772" id="linearGradient4424" gradientUnits="userSpaceOnUse" gradientTransform="translate(902.9144,-381.5936)" x1="146.63379" y1="389.6008" x2="613.64172" y2="449.26855"/>
    <linearGradient inkscape:collect="always" xlink:href="#linearGradient3772" id="linearGradient4426" gradientUnits="userSpaceOnUse" gradientTransform="translate(1220.3986,-122.4206)" x1="146.63379" y1="389.6008" x2="613.64172" y2="449.26855"/>
    <radialGradient inkscape:collect="always" xlink:href="#linearGradient3806" id="radialGradient4428" gradientUnits="userSpaceOnUse" gradientTransform="matrix(0.33680838,1.0448491,-0.93910625,0.30272202,1620.1664,-205.8541)" cx="245.28273" cy="259.05777" fx="245.28273" fy="259.05777" r="222.98174"/>
    <radialGradient inkscape:collect="always" xlink:href="#linearGradient3806" id="radialGradient4430" gradientUnits="userSpaceOnUse" gradientTransform="matrix(0.33680838,1.0448491,-0.93910625,0.30272202,1302.6822,-465.0271)" cx="245.28273" cy="259.05777" fx="245.28273" fy="259.05777" r="222.98174"/>
    <linearGradient inkscape:collect="always" xlink:href="#linearGradient3772" id="linearGradient4432" gradientUnits="userSpaceOnUse" gradientTransform="translate(530.4602,-306.3811)" x1="146.63379" y1="389.6008" x2="613.64172" y2="449.26855"/>
    <radialGradient inkscape:collect="always" xlink:href="#linearGradient3806" id="radialGradient4434" gradientUnits="userSpaceOnUse" gradientTransform="matrix(0.33680838,1.0448491,-0.93910625,0.30272202,930.22803,-389.8146)" cx="245.28273" cy="259.05777" fx="245.28273" fy="259.05777" r="222.98174"/>
    <linearGradient inkscape:collect="always" xlink:href="#linearGradient3772" id="linearGradient4436" gradientUnits="userSpaceOnUse" gradientTransform="translate(851.1099,-46.7141)" x1="146.63379" y1="389.6008" x2="613.64172" y2="449.26855"/>
    <radialGradient inkscape:collect="always" xlink:href="#linearGradient3806" id="radialGradient4438" gradientUnits="userSpaceOnUse" gradientTransform="matrix(0.33680838,1.0448491,-0.93910625,0.30272202,1250.8777,-130.1476)" cx="245.28273" cy="259.05777" fx="245.28273" fy="259.05777" r="222.98174"/>
    <linearGradient inkscape:collect="always" xlink:href="#linearGradient3772" id="linearGradient4440" gradientUnits="userSpaceOnUse" gradientTransform="translate(158.0056,-243.1667)" x1="146.63379" y1="389.6008" x2="613.64172" y2="449.26855"/>
    <radialGradient inkscape:collect="always" xlink:href="#linearGradient3806" id="radialGradient4442" gradientUnits="userSpaceOnUse" gradientTransform="matrix(0.33680838,1.0448491,-0.93910625,0.30272202,557.7734,-326.6002)" cx="245.28273" cy="259.05777" fx="245.28273" fy="259.05777" r="222.98174"/>
    <linearGradient inkscape:collect="always" xlink:href="#linearGradient3772" id="linearGradient4444" gradientUnits="userSpaceOnUse" gradientTransform="translate(1147.1359,230.8103)" x1="146.63379" y1="389.6008" x2="613.64172" y2="449.26855"/>
    <radialGradient inkscape:collect="always" xlink:href="#linearGradient3806" id="radialGradient4446" gradientUnits="userSpaceOnUse" gradientTransform="matrix(0.33680838,1.0448491,-0.93910625,0.30272202,1546.9037,147.3768)" cx="245.28273" cy="259.05777" fx="245.28273" fy="259.05777" r="222.98174"/>
    <linearGradient inkscape:collect="always" xlink:href="#linearGradient3772" id="linearGradient4448" gradientUnits="userSpaceOnUse" gradientTransform="translate(-214.4486,-176.171)" x1="146.63379" y1="389.6008" x2="613.64172" y2="449.26855"/>
    <radialGradient inkscape:collect="always" xlink:href="#linearGradient3806" id="radialGradient4450" gradientUnits="userSpaceOnUse" gradientTransform="matrix(0.33680838,1.0448491,-0.93910625,0.30272202,185.3192,-259.6045)" cx="245.28273" cy="259.05777" fx="245.28273" fy="259.05777" r="222.98174"/>
    <linearGradient inkscape:collect="always" xlink:href="#linearGradient3772" id="linearGradient4452" gradientUnits="userSpaceOnUse" gradientTransform="translate(-790.0058,1964.8978)" x1="146.63379" y1="389.6008" x2="613.64172" y2="449.26855"/>
    <radialGradient inkscape:collect="always" xlink:href="#linearGradient3806" id="radialGradient4454" gradientUnits="userSpaceOnUse" gradientTransform="matrix(0.33680838,1.0448491,-0.93910625,0.30272202,-390.23797,1881.4643)" cx="245.28273" cy="259.05777" fx="245.28273" fy="259.05777" r="222.98174"/>
    <linearGradient inkscape:collect="always" xlink:href="#linearGradient3772" id="linearGradient4456" gradientUnits="userSpaceOnUse" gradientTransform="translate(402.2271,369.2372)" x1="146.63379" y1="389.6008" x2="613.64172" y2="449.26855"/>
    <linearGradient inkscape:collect="always" xlink:href="#linearGradient3772" id="linearGradient4458" gradientUnits="userSpaceOnUse" gradientTransform="translate(-580.7622,-89.8257)" x1="146.63379" y1="389.6008" x2="613.64172" y2="449.26855"/>
    <linearGradient inkscape:collect="always" xlink:href="#linearGradient3772" id="linearGradient4460" gradientUnits="userSpaceOnUse" gradientTransform="translate(-266.2531,158.7085)" x1="146.63379" y1="389.6008" x2="613.64172" y2="449.26855"/>
    <radialGradient inkscape:collect="always" xlink:href="#linearGradient3806" id="radialGradient4462" gradientUnits="userSpaceOnUse" gradientTransform="matrix(0.33680838,1.0448491,-0.93910625,0.30272202,-180.9944,-173.2592)" cx="245.28273" cy="259.05777" fx="245.28273" fy="259.05777" r="222.98174"/>
    <radialGradient inkscape:collect="always" xlink:href="#linearGradient3806" id="radialGradient4464" gradientUnits="userSpaceOnUse" gradientTransform="matrix(0.33680838,1.0448491,-0.93910625,0.30272202,133.5147,75.275)" cx="245.28273" cy="259.05777" fx="245.28273" fy="259.05777" r="222.98174"/>
    <linearGradient inkscape:collect="always" xlink:href="#linearGradient3772" id="linearGradient4466" gradientUnits="userSpaceOnUse" gradientTransform="translate(29.7729,436.2329)" x1="146.63379" y1="389.6008" x2="613.64172" y2="449.26855"/>
    <linearGradient inkscape:collect="always" xlink:href="#linearGradient3772" id="linearGradient4468" gradientUnits="userSpaceOnUse" gradientTransform="translate(-328.6911,540.8939)" x1="146.63379" y1="389.6008" x2="613.64172" y2="449.26855"/>
    <radialGradient inkscape:collect="always" xlink:href="#linearGradient3806" id="radialGradient4470" gradientUnits="userSpaceOnUse" gradientTransform="matrix(0.33680838,1.0448491,-0.93910625,0.30272202,71.0767,457.4604)" cx="245.28273" cy="259.05777" fx="245.28273" fy="259.05777" r="222.98174"/>
  </defs>
  <sodipodi:namedview pagecolor="#ffffff" bordercolor="#666666" borderopacity="1" objecttolerance="10" gridtolerance="10" guidetolerance="10" inkscape:pageopacity="0" inkscape:pageshadow="2" inkscape:window-width="1680" inkscape:window-height="966" id="namedview4" showgrid="false" fit-margin-top="0" fit-margin-left="0" fit-margin-right="0" fit-margin-bottom="0" inkscape:zoom="0.19109312" inkscape:cx="693.42702" inkscape:cy="975.63327" inkscape:window-x="-8" inkscape:window-y="-8" inkscape:window-maximized="1" inkscape:current-layer="svg2"/>
  <path style="color:#000000;fill:url(#linearGradient4424);fill-opacity:1;fill-rule:nonzero;stroke:none;stroke-width:0.14;marker:none;visibility:visible;display:inline;overflow:visible;enable-background:accumulate" d="m 1068.125,0 107.2188,188.2812 c 14.9897,26.5631 48.8663,39.4482 77.7187,34.4688 l 154.625,-35.125 0,-132.5625 C 1407.6875,24.562 1383.1568,0 1352.6563,0 L 1068.125,0 z" id="path3946" inkscape:connector-curvature="0"/>
  <path style="color:#000000;fill:url(#linearGradient4426);fill-opacity:1;fill-rule:nonzero;stroke:none;stroke-width:0.14;marker:none;visibility:visible;display:inline;overflow:visible;enable-background:accumulate" d="m 1407.6875,101.25 c -10.4166,5.7698 -21.5179,14.4044 -21.3437,26.0938 l -13.3125,109.7812 34.6562,60.8438 0,-196.7188 z" id="path4283" inkscape:connector-curvature="0"/>
  <path style="color:#000000;fill:url(#radialGradient4428);fill-opacity:1;fill-rule:nonzero;stroke:none;stroke-width:0.14;marker:none;visibility:visible;display:inline;overflow:visible;enable-background:accumulate" d="m 1407.6875,98.8125 c -20.1837,8.8913 -26.924,28.3916 -18.4687,43.375 l 18.4687,32.7187 0,-76.0937 z" id="path4285" inkscape:connector-curvature="0"/>
  <path style="color:#000000;fill:url(#radialGradient4430);fill-opacity:1;fill-rule:nonzero;stroke:none;stroke-width:0.14;marker:none;visibility:visible;display:inline;overflow:visible;enable-background:accumulate" d="m 1137.75,0 37.5938,66.625 c 14.9897,26.5629 48.8663,39.4482 77.7187,34.4688 l 154.625,-26.6876 0,-19.3437 C 1407.6875,24.562 1383.1568,0 1352.6563,0 L 1137.75,0 z" id="path3948" inkscape:connector-curvature="0"/>
  <path style="color:#000000;fill:url(#linearGradient4432);fill-opacity:1;fill-rule:nonzero;stroke:none;stroke-width:0.14;marker:none;visibility:visible;display:inline;overflow:visible;enable-background:accumulate" d="m 689.53125,0 -6.4375,53.1562 119.8125,210.3438 c 14.98975,26.563 48.86635,39.4481 77.71875,34.4688 l 215.75,-49 c 44.1833,-10.0333 44.9375,-20.9233 44.9375,-40.9376 l 0,-109.875 L 1086.2188,0 689.53125,0 z" id="path3952" inkscape:connector-curvature="0"/>
  <path style="color:#000000;fill:url(#radialGradient4434);fill-opacity:1;fill-rule:nonzero;stroke:none;stroke-width:0.14;marker:none;visibility:visible;display:inline;overflow:visible;enable-background:accumulate" d="m 722.875,0 80.03125,141.8125 c 14.98975,26.5629 48.86635,39.4482 77.71875,34.4687 l 215.75,-37.2187 c 44.6482,-7.7055 50.157,-32.5279 42.3125,-50.9063 L 1087.7813,0 722.875,0 z" id="path3954" inkscape:connector-curvature="0"/>
  <path style="color:#000000;fill:url(#linearGradient4436);fill-opacity:1;fill-rule:nonzero;stroke:none;stroke-width:0.14;marker:none;visibility:visible;display:inline;overflow:visible;enable-background:accumulate" d="m 1289.0938,131.7188 c -6.1893,0.069 -12.5234,0.6636 -18.9063,1.75 l -218.7812,37.2187 c -10.4442,4.6272 -34.631,15.1566 -34.3751,32.3437 l -13.2812,109.8126 119.8125,210.3124 c 14.9898,26.5631 48.8664,39.4483 77.7188,34.4688 l 206.4062,-46.875 0,-249.6562 -55.4062,-98.7188 c -12.3915,-21.4613 -36.3675,-30.9544 -63.1875,-30.6562 z" id="path3958" inkscape:connector-curvature="0"/>
  <path style="color:#000000;fill:url(#radialGradient4438);fill-opacity:1;fill-rule:nonzero;stroke:none;stroke-width:0.14;marker:none;visibility:visible;display:inline;overflow:visible;enable-background:accumulate" d="m 1289.0625,131.7188 c -6.1892,0.069 -12.5234,0.6635 -18.9062,1.75 l -218.75,37.2187 c -30.0681,5.1179 -41.5368,29.3463 -31.4688,47.1875 L 1123.5313,401.5 c 14.9897,26.5629 48.8976,39.4482 77.75,34.4688 l 206.4062,-35.625 0,-142 -55.4062,-95.9688 c -12.3915,-21.4612 -36.3987,-30.9544 -63.2188,-30.6562 z" id="path3960" inkscape:connector-curvature="0"/>
  <path style="color:#000000;fill:url(#linearGradient4440);fill-opacity:1;fill-rule:nonzero;stroke:none;stroke-width:0.14;marker:none;visibility:visible;display:inline;overflow:visible;enable-background:accumulate" d="m 325.0937,0 c -0.7638,2.0827 -1.1908,4.2697 -1.1562,6.5938 L 310.6563,116.375 430.4375,326.7188 c 14.9897,26.563 48.8664,39.4481 77.7188,34.4687 l 215.74995,-49 C 768.08956,302.1543 768.875,291.2643 768.875,271.25 l 0,-109.875 L 678.28125,0 325.0937,0 z" id="path3964" inkscape:connector-curvature="0"/>
  <path style="color:#000000;fill:url(#radialGradient4442);fill-opacity:1;fill-rule:nonzero;stroke:none;stroke-width:0.14;marker:none;visibility:visible;display:inline;overflow:visible;enable-background:accumulate" d="m 324.4375,0 c -2.1262,7.143 -1.3692,14.747 2.4062,21.4375 l 103.5938,183.5937 c 14.9897,26.5629 48.8664,39.4483 77.7188,34.4688 L 723.90625,202.2812 C 768.5544,194.5757 774.09446,169.7533 766.25,151.375 L 678.8125,0 324.4375,0 z" id="path3966" inkscape:connector-curvature="0"/>
  <path style="color:#000000;fill:url(#linearGradient4444);fill-opacity:1;fill-rule:nonzero;stroke:none;stroke-width:0.14;marker:none;visibility:visible;display:inline;overflow:visible;enable-background:accumulate" d="m 1407.6875,437.9688 -60.2812,10.25 c -10.4442,4.6271 -34.5998,15.1566 -34.3438,32.3437 l -13.2812,109.7813 107.9062,189.5 0,-341.875 z" id="path3976" inkscape:connector-curvature="0"/>
  <path style="color:#000000;fill:url(#radialGradient4446);fill-opacity:1;fill-rule:nonzero;stroke:none;stroke-width:0.14;marker:none;visibility:visible;display:inline;overflow:visible;enable-background:accumulate" d="m 1407.6875,437.9688 -60.25,10.25 c -30.0681,5.1179 -41.5367,29.3463 -31.4687,47.1874 l 91.7187,162.5626 0,-220 z" id="path3978" inkscape:connector-curvature="0"/>
  <path style="color:#000000;fill:url(#linearGradient4448);fill-opacity:1;fill-rule:nonzero;stroke:none;stroke-width:0.14;marker:none;visibility:visible;display:inline;overflow:visible;enable-background:accumulate" d="m 223.5313,2.2812 c -6.1893,0.069 -12.5234,0.6637 -18.9063,1.75 L 2.5625,38.4062 C 0.9076,43.6583 0,49.2497 0,55.0625 l 0,236.8437 58,101.8126 c 14.9897,26.563 48.8664,39.4482 77.7187,34.4687 l 215.75,-49 c 44.1834,-10.0332 44.9376,-20.9232 44.9376,-40.9375 l 0,-109.875 L 286.7187,32.9375 C 274.3274,11.4762 250.3513,1.9831 223.5313,2.2812 z" id="path3982" inkscape:connector-curvature="0"/>
  <path style="color:#000000;fill:url(#radialGradient4450);fill-opacity:1;fill-rule:nonzero;stroke:none;stroke-width:0.14;marker:none;visibility:visible;display:inline;overflow:visible;enable-background:accumulate" d="M 223.5,2.25 C 217.3108,2.319 210.9766,2.9136 204.5937,4 L 2.5625,38.4062 C 0.9076,43.6583 0,49.2497 0,55.0625 l 0,114.2187 58,102.75 c 14.9897,26.5629 48.8664,39.4483 77.7187,34.4688 l 215.75,-37.2188 c 44.6481,-7.7055 50.1569,-32.5279 42.3126,-50.9062 L 286.7187,32.9375 C 274.3273,11.4762 250.3201,1.9518 223.5,2.25 z" id="path3984" inkscape:connector-curvature="0"/>
  <path id="path3994" style="color:#000000;fill:url(#linearGradient4107);fill-opacity:1;fill-rule:nonzero;stroke:none;stroke-width:0.14;marker:none;visibility:visible;display:inline;overflow:visible;enable-background:accumulate" d="m 544.1699,270.1503 c -6.1893,0.069 -12.5234,0.6636 -18.9063,1.75 l -218.7813,37.2188 c -10.4441,4.6272 -34.6005,15.1634 -34.3446,32.3505 l -13.2898,109.7901 119.7907,210.3281 c 14.9897,26.563 48.8663,39.4482 77.7187,34.4688 l 215.75005,-48.9932 c 44.18331,-10.0332 44.96028,-20.9164 44.96028,-40.9307 L 893.6831,582.5961 607.35735,300.8066 C 594.96592,279.3453 570.9899,269.8521 544.1699,270.1503 z m 372.45455,-63.2144 c -6.18924,0.069 -12.52337,0.6636 -18.90625,1.75 l -218.78125,37.2188 c -10.44415,4.6272 -34.60059,15.1634 -34.3446,32.3505 L 631.30252,388.0453 751.0932,598.3734 c 14.98975,26.563 48.86635,39.4482 77.71875,34.4688 L 1044.5619,583.849 c 44.1834,-10.0332 44.9603,-20.9164 44.9603,-40.9307 l 0,-109.8819 -109.71025,-195.4442 c -12.39143,-21.4613 -36.36745,-30.9545 -63.1875,-30.6563 z" inkscape:connector-curvature="0" sodipodi:nodetypes="cccccccssccccccccccssccc"/>
  <g id="g4241" transform="translate(1564.6875,-1658.875)">
    <path sodipodi:nodetypes="sccccccssccs" inkscape:connector-curvature="0" id="path3988" d="m -352.03705,2143.3353 c -6.18924,0.069 -12.52337,0.6636 -18.90625,1.75 l -218.78125,37.2187 c -10.44415,4.6273 -34.60059,15.1635 -34.3446,32.3506 l -13.28983,109.7901 119.79068,210.3281 c 14.98975,26.563 48.86635,39.4482 77.71875,34.4687 l 215.75,-48.9931 c 44.18331,-10.0332 44.96028,-20.9164 44.96028,-40.9307 l 0,-109.8819 -109.71028,-195.4443 c -12.39143,-21.4612 -36.36745,-30.9544 -63.1875,-30.6562 z" style="color:#000000;fill:url(#linearGradient4452);fill-opacity:1;fill-rule:nonzero;stroke:none;stroke-width:0.14;marker:none;visibility:visible;display:inline;overflow:visible;enable-background:accumulate"/>
    <path sodipodi:nodetypes="ssscsssss" inkscape:connector-curvature="0" id="path3990" d="m -589.71289,2182.3082 218.7562,-37.2345 c 34.04201,-5.7943 66.86278,2.5078 82.11377,28.9216 l 107.07818,185.4532 c 7.84446,18.3783 2.31288,43.1868 -42.33527,50.8923 l -215.74968,37.2345 c -28.8524,4.9794 -62.72987,-7.9091 -77.71962,-34.472 l -103.60913,-183.6031 c -10.06796,-17.8412 1.39746,-42.0741 31.46555,-47.192 z" style="color:#000000;fill:url(#radialGradient4454);fill-opacity:1;fill-rule:nonzero;stroke:none;stroke-width:0.14;marker:none;visibility:visible;display:inline;overflow:visible;enable-background:accumulate"/>
  </g>
  <path id="path3996" style="color:#000000;fill:#1ea12d;fill-opacity:1;fill-rule:nonzero;stroke:none;stroke-width:0.14;marker:none;visibility:visible;display:inline;overflow:visible;enable-background:accumulate" d="m 306.494,309.1232 218.7562,-37.2345 c 34.042,-5.7943 66.86279,2.5078 82.11378,28.9216 l 107.07818,185.4532 c 7.84446,18.3783 2.31288,43.1868 -42.33527,50.8923 L 456.3572,574.3903 c -28.8524,4.9794 -62.7299,-7.9091 -77.7196,-34.472 L 275.0285,356.3152 c -10.068,-17.8412 1.3974,-42.0741 31.4655,-47.192 z m 372.45461,-63.2144 218.7562,-37.2345 c 34.04201,-5.7943 66.86278,2.5077 82.11377,28.9216 l 107.07822,185.4532 c 7.8444,18.3783 2.3128,43.1868 -42.3353,50.8923 L 828.81181,511.1759 C 799.95941,516.1554 486.1328,572.591 484.8607,542.117 L 474.1383,285.2512 c -0.3182,-7.6227 174.74222,-34.2245 204.81031,-39.3424 z" inkscape:connector-curvature="0" sodipodi:nodetypes="ssscsssssssscsssss"/>
  <path style="color:#000000;fill:url(#linearGradient4456);fill-opacity:1;fill-rule:nonzero;stroke:none;stroke-width:0.14;marker:none;visibility:visible;display:inline;overflow:visible;enable-background:accumulate" d="m 840.1875,547.6875 c -6.18924,0.069 -12.52337,0.6636 -18.90625,1.75 L 602.5,586.6562 C 592.05585,591.2834 567.90026,601.8129 568.15625,619 L 554.875,728.7812 667.3125,926.25 l 293.53125,0 7.28125,-1.6562 c 44.1833,-10.0332 44.9687,-20.9233 44.9687,-40.9376 l 0,-109.875 L 903.375,578.3438 c -12.39143,-21.4613 -36.36745,-30.9545 -63.1875,-30.6563 z" id="path4000" inkscape:connector-curvature="0"/>
  <path sodipodi:nodetypes="ssscsssss" inkscape:connector-curvature="0" id="path4002" d="m 602.52001,586.6476 218.7562,-37.2345 c 34.04201,-5.7943 66.86278,2.5078 82.11377,28.9216 l 107.07822,185.4532 c 7.8444,18.3783 2.3128,43.1868 -42.33531,50.8923 l -215.74968,37.2345 c -28.8524,4.9795 -62.72987,-7.9091 -77.71962,-34.472 L 571.05446,633.8396 c -10.06796,-17.8412 1.39746,-42.0741 31.46555,-47.192 z" style="color:#000000;fill:url(#radialGradient4348);fill-opacity:1;fill-rule:nonzero;stroke:none;stroke-width:0.14;marker:none;visibility:visible;display:inline;overflow:visible;enable-background:accumulate"/>
  <path style="color:#000000;fill:url(#linearGradient4458);fill-opacity:1;fill-rule:nonzero;stroke:none;stroke-width:0.14;marker:none;visibility:visible;display:inline;overflow:visible;enable-background:accumulate" d="M 0,261.0938 0,461.625 c 29.4909,-9.0601 30.0937,-19.57 30.0937,-37.0312 l 0,-109.875 L 0,261.0938 z" id="path4249" inkscape:connector-curvature="0"/>
  <path style="color:#000000;fill:url(#linearGradient4460);fill-opacity:1;fill-rule:nonzero;stroke:none;stroke-width:0.14;marker:none;visibility:visible;display:inline;overflow:visible;enable-background:accumulate" d="m 171.7187,337.1562 c -6.1892,0.069 -12.5233,0.6637 -18.9062,1.75 l -152.8125,26 0,352.8126 6.1875,10.875 c 14.9897,26.563 48.8664,39.4482 77.7188,34.4687 l 215.75,-49 c 44.1833,-10.0332 44.9687,-20.9232 44.9687,-40.9375 l 0,-109.875 -109.7187,-195.4375 c -12.3914,-21.4613 -36.3675,-30.9544 -63.1876,-30.6563 z" id="path4010" inkscape:connector-curvature="0"/>
  <path style="color:#000000;fill:url(#radialGradient4462);fill-opacity:1;fill-rule:nonzero;stroke:none;stroke-width:0.14;marker:none;visibility:visible;display:inline;overflow:visible;enable-background:accumulate" d="M 0,257.1562 0,352 C 30.9472,341.8496 34.3394,320.8157 27.4687,304.7188 L 0,257.1562 z" id="path4251" inkscape:connector-curvature="0"/>
  <path style="color:#000000;fill:url(#radialGradient4464);fill-opacity:1;fill-rule:nonzero;stroke:none;stroke-width:0.14;marker:none;visibility:visible;display:inline;overflow:visible;enable-background:accumulate" d="m 171.7187,337.125 c -6.1892,0.069 -12.5546,0.6636 -18.9374,1.75 L 0,364.9062 0,595.9375 6.1875,606.9062 c 14.9897,26.563 48.8664,39.4482 77.7188,34.4688 l 215.75,-37.2188 C 344.3043,596.4507 349.8444,571.6283 342,553.25 L 234.9063,367.8125 C 222.5148,346.3513 198.5388,336.8268 171.7187,337.125 z" id="path4012" inkscape:connector-curvature="0"/>
  <path style="color:#000000;fill:url(#linearGradient4466);fill-opacity:1;fill-rule:nonzero;stroke:none;stroke-width:0.14;marker:none;visibility:visible;display:inline;overflow:visible;enable-background:accumulate" d="m 467.75,614.6562 c -6.1892,0.069 -12.5234,0.6636 -18.9063,1.75 L 230.0625,653.625 c -10.4441,4.6272 -34.5997,15.1879 -34.3438,32.375 l -13.3124,109.7812 74.3124,130.4688 383.9063,0 0,-85.4688 L 530.9375,645.3125 C 518.5461,623.8512 494.5701,614.3581 467.75,614.6562 z" id="path4016" inkscape:connector-curvature="0"/>
  <path style="color:#000000;fill:url(#radialGradient4338);fill-opacity:1;fill-rule:nonzero;stroke:none;stroke-width:0.14;marker:none;visibility:visible;display:inline;overflow:visible;enable-background:accumulate" d="M 230.0658,653.6433 448.822,616.4088 c 34.042,-5.7943 66.8628,2.5078 82.1138,28.9216 l 107.07816,185.4532 c 7.84446,18.3783 2.31288,43.1868 -42.33527,50.8923 L 379.929,918.9104 c -28.8524,4.9795 -62.7299,-7.9091 -77.7196,-34.472 L 198.6003,700.8353 c -10.068,-17.8412 1.3974,-42.0741 31.4655,-47.192 z" id="path4018" inkscape:connector-curvature="0" sodipodi:nodetypes="ssscsssss"/>
  <g transform="matrix(0.92615799,-0.17088853,0.48709559,0.98985374,0,0)" style="font-size:124.52345276px;font-style:normal;font-variant:normal;font-weight:normal;font-stretch:normal;line-height:125%;letter-spacing:0px;word-spacing:0px;fill:#ffffff;fill-opacity:1;stroke:none;font-family:Arial;-inkscape-font-specification:Arial" id="text4109">
    <path d="m 214.81377,487.50845 17.51112,-1.70247 c 1.05388,5.8776 3.1921,10.19457 6.41466,12.95093 3.22249,2.75639 7.56987,4.13458 13.04212,4.13457 5.79646,10e-6 10.1641,-1.22617 13.10294,-3.67855 2.93872,-2.45235 4.40812,-5.32019 4.40818,-8.60355 -6e-5,-2.10779 -0.61822,-3.90146 -1.85448,-5.38102 -1.23637,-1.47949 -3.39486,-2.76648 -6.47546,-3.86096 -2.10787,-0.72959 -6.91126,-2.02671 -14.41019,-3.89135 -9.64735,-2.39153 -16.41668,-5.33031 -20.30802,-8.81636 -5.47223,-4.90468 -8.20834,-10.88358 -8.20833,-17.93673 -10e-6,-4.53985 1.28697,-8.78588 3.86095,-12.73812 2.57396,-3.95207 6.28291,-6.96179 11.12685,-9.02916 4.84391,-2.0672 10.69107,-3.10084 17.54152,-3.10093 11.1876,9e-5 19.60873,2.45246 25.26342,7.3571 5.65456,4.90481 8.62374,11.4512 8.90756,19.6392 l -17.99753,0.79043 c -0.77022,-4.58039 -2.42202,-7.87385 -4.9554,-9.8804 -2.53348,-2.00641 -6.33363,-3.00965 -11.40046,-3.00972 -5.22905,7e-5 -9.32308,1.07425 -12.2821,3.22253 -1.90517,1.37826 -2.85774,3.2226 -2.85772,5.53302 -2e-5,2.10789 0.89175,3.91169 2.67531,5.41142 2.26993,1.9052 7.78268,3.89142 16.53827,5.95864 8.75551,2.06734 15.23096,4.20556 19.42639,6.41466 4.1953,2.20921 7.47863,5.22906 9.85,9.05957 2.37122,3.83059 3.55687,8.56305 3.55695,14.19738 -8e-5,5.10743 -1.4188,9.89055 -4.25618,14.34938 -2.83752,4.45885 -6.85047,7.77259 -12.03889,9.9412 -5.18853,2.16862 -11.65385,3.25293 -19.39598,3.25293 -11.26876,0 -19.92297,-2.60437 -25.96266,-7.81311 -6.03972,-5.20874 -9.64733,-12.7989 -10.82284,-22.77053 z" style="font-weight:bold;fill:#ffffff;-inkscape-font-specification:Arial Bold" id="path4494"/>
    <path d="m 298.47797,483.31308 c -1e-5,-5.67485 1.39845,-11.16734 4.19537,-16.47747 2.7969,-5.31002 6.75919,-9.36352 11.88688,-12.16049 5.12765,-2.79685 10.85321,-4.1953 17.1767,-4.19537 9.76888,7e-5 17.77453,3.17193 24.01697,9.51559 6.24232,6.34377 9.36351,14.35956 9.36358,24.04737 -7e-5,9.76896 -3.15166,17.86581 -9.45478,24.29059 -6.30325,6.42479 -14.23796,9.63719 -23.80417,9.63719 -5.91814,0 -11.56263,-1.33765 -16.93349,-4.01296 -5.3709,-2.67531 -9.45479,-6.59706 -12.25169,-11.76528 -2.79692,-5.16819 -4.19538,-11.46124 -4.19537,-18.87917 z m 17.51111,0.91204 c -3e-5,6.40455 1.52004,11.30928 4.56018,14.7142 3.0401,3.40495 6.78958,5.10742 11.24846,5.1074 4.4588,2e-5 8.19815,-1.70245 11.21805,-5.1074 3.01981,-3.40492 4.52973,-8.35018 4.52979,-14.8358 -6e-5,-6.32342 -1.50998,-11.18761 -4.52979,-14.5926 -3.0199,-3.40488 -6.75925,-5.10735 -11.21805,-5.1074 -4.45888,5e-5 -8.20836,1.70252 -11.24846,5.1074 -3.04014,3.40499 -4.56021,8.30971 -4.56018,14.7142 z" style="font-weight:bold;fill:#ffffff;-inkscape-font-specification:Arial Bold" id="path4496"/>
    <path d="m 378.55481,516.51123 0,-89.13642 17.0855,0 0,89.13642 z" style="font-weight:bold;fill:#ffffff;-inkscape-font-specification:Arial Bold" id="path4498"/>
    <path d="m 455.59154,516.51123 0,-9.66759 c -2.35108,3.44548 -5.44187,6.16132 -9.27238,8.14753 -3.83059,1.98621 -7.87395,2.97932 -12.13009,2.97932 -4.33727,0 -8.22862,-0.95257 -11.67408,-2.85772 -3.44548,-1.90514 -5.93838,-4.58044 -7.4787,-8.02592 -1.54034,-3.44546 -2.3105,-8.20832 -2.31049,-14.28858 l 0,-40.85926 17.08549,0 0,29.6716 c -3e-5,9.07987 0.31412,14.64329 0.94244,16.69028 0.62826,2.04703 1.77338,3.66843 3.43534,4.8642 1.6619,1.19579 3.76972,1.79368 6.32345,1.79367 2.91848,1e-5 5.53299,-0.80055 7.84352,-2.4017 2.31045,-1.60111 3.89131,-3.58732 4.74259,-5.95864 0.85119,-2.37127 1.27681,-8.1779 1.27686,-17.4199 l 0,-27.23951 17.08549,0 0,64.57222 z" style="font-weight:bold;fill:#ffffff;-inkscape-font-specification:Arial Bold" id="path4500"/>
    <path d="m 518.82611,451.93901 0,13.61975 -11.67408,0 0,26.02346 c -2e-5,5.26957 0.11145,8.34009 0.33442,9.21157 0.22291,0.87152 0.7296,1.59101 1.52006,2.15849 0.7904,0.5675 1.75311,0.85125 2.88812,0.85123 1.58083,2e-5 3.87105,-0.5472 6.87068,-1.64166 l 1.45925,13.25494 c -3.97246,1.70246 -8.47184,2.5537 -13.49814,2.5537 -3.08068,0 -5.85733,-0.51682 -8.32994,-1.55046 -2.47265,-1.03364 -4.28659,-2.3713 -5.44182,-4.01297 -1.15526,-1.64166 -1.95583,-3.86094 -2.4017,-6.65787 -0.36482,-1.9862 -0.54723,-5.99916 -0.54722,-12.03888 l 0,-28.15155 -7.84352,0 0,-13.61975 7.84352,0 0,-12.82932 17.14629,-9.9716 0,22.80092 z" style="font-weight:bold;fill:#ffffff;-inkscape-font-specification:Arial Bold" id="path4502"/>
    <path d="m 530.80417,443.18346 0,-15.80865 17.0855,0 0,15.80865 z m 0,73.32777 0,-64.57222 17.0855,0 0,64.57222 z" style="font-weight:bold;fill:#ffffff;-inkscape-font-specification:Arial Bold" id="path4504"/>
    <path d="m 561.38784,483.31308 c 0,-5.67485 1.39845,-11.16734 4.19537,-16.47747 2.7969,-5.31002 6.75919,-9.36352 11.88688,-12.16049 5.12765,-2.79685 10.85321,-4.1953 17.1767,-4.19537 9.76888,7e-5 17.77453,3.17193 24.01697,9.51559 6.24232,6.34377 9.36351,14.35956 9.36358,24.04737 -7e-5,9.76896 -3.15166,17.86581 -9.45478,24.29059 -6.30324,6.42479 -14.23796,9.63719 -23.80416,9.63719 -5.91814,0 -11.56263,-1.33765 -16.93349,-4.01296 -5.3709,-2.67531 -9.4548,-6.59706 -12.2517,-11.76528 -2.79692,-5.16819 -4.19537,-11.46124 -4.19537,-18.87917 z m 17.51111,0.91204 c -2e-5,6.40455 1.52004,11.30928 4.56019,14.7142 3.04009,3.40495 6.78957,5.10742 11.24845,5.1074 4.45881,2e-5 8.19816,-1.70245 11.21806,-5.1074 3.0198,-3.40492 4.52973,-8.35018 4.52978,-14.8358 -5e-5,-6.32342 -1.50998,-11.18761 -4.52978,-14.5926 -3.0199,-3.40488 -6.75925,-5.10735 -11.21806,-5.1074 -4.45888,5e-5 -8.20836,1.70252 -11.24845,5.1074 -3.04015,3.40499 -4.56021,8.30971 -4.56019,14.7142 z" style="font-weight:bold;fill:#ffffff;-inkscape-font-specification:Arial Bold" id="path4506"/>
    <path d="m 700.19985,516.51123 -17.08549,0 0,-32.95494 c -6e-5,-6.97197 -0.36487,-11.48148 -1.09445,-13.52855 -0.72968,-2.04696 -1.91532,-3.63796 -3.55694,-4.77299 -1.64171,-1.13493 -3.61779,-1.70242 -5.92824,-1.70247 -2.95909,5e-5 -5.61413,0.81075 -7.96513,2.4321 -2.35106,1.62145 -3.96232,3.7698 -4.83379,6.44506 -0.87153,2.67535 -1.30728,7.62061 -1.30726,14.8358 l 0,29.24599 -17.08549,0 0,-64.57222 15.86944,0 0,9.48519 c 5.63434,-7.29624 12.72795,-10.94438 21.28087,-10.94445 3.7697,7e-5 7.21517,0.67903 10.33642,2.03688 3.12113,1.35799 5.48229,3.09086 7.08348,5.19861 1.60107,2.10788 2.71578,4.49944 3.34414,7.1747 0.62823,2.67535 0.94237,6.5059 0.94244,11.49166 z" style="font-weight:bold;fill:#ffffff;-inkscape-font-specification:Arial Bold" id="path4508"/>
    <path d="m 711.56992,498.08808 17.14629,-2.6145 c 0.72961,3.32388 2.20914,5.84718 4.43858,7.5699 2.2294,1.72275 5.35059,2.58412 9.36358,2.58411 4.41828,10e-6 7.74214,-0.81069 9.97161,-2.4321 1.49975,-1.13496 2.24964,-2.65502 2.24969,-4.56018 -5e-5,-1.29711 -0.4054,-2.37128 -1.21605,-3.22254 -0.85128,-0.81067 -2.75642,-1.56057 -5.71543,-2.24969 -13.78192,-3.04009 -22.5172,-5.81674 -26.20587,-8.32993 -5.10741,-3.48598 -7.66111,-8.3299 -7.66111,-14.53179 0,-5.59378 2.20915,-10.29583 6.62747,-14.10618 4.4183,-3.81022 11.2687,-5.71536 20.55124,-5.71543 8.83658,7e-5 15.40324,1.43906 19.69999,4.31698 4.29666,2.87804 7.25571,7.13421 8.87716,12.76851 l -16.11265,2.97933 c -0.68914,-2.51312 -1.99639,-4.43853 -3.92176,-5.77624 -1.92545,-1.3376 -4.67169,-2.00643 -8.23873,-2.00648 -4.49941,5e-5 -7.72194,0.62834 -9.66759,1.88488 -1.29715,0.89182 -1.9457,2.04706 -1.94568,3.46574 -2e-5,1.21609 0.56746,2.24973 1.70247,3.10092 1.5403,1.13503 6.86051,2.73616 15.96064,4.8034 9.10006,2.06732 15.45391,4.60075 19.06158,7.60031 3.56701,3.04015 5.35055,7.27605 5.35061,12.70771 -6e-5,5.91812 -2.47269,11.00526 -7.4179,15.26142 -4.94532,4.25617 -12.26187,6.38426 -21.94969,6.38426 -8.79611,0 -15.75799,-1.78354 -20.88565,-5.35062 -5.12768,-3.56707 -8.48194,-8.41099 -10.0628,-14.53179 z" style="font-weight:bold;fill:#ffffff;-inkscape-font-specification:Arial Bold" id="path4510"/>
  </g>
  <g transform="matrix(1.0207558,-0.22596538,0.46120949,0.877568,0,0)" style="font-size:194.88414001px;font-style:normal;font-variant:normal;font-weight:normal;font-stretch:normal;line-height:125%;letter-spacing:0px;word-spacing:0px;fill:#000000;fill-opacity:1;stroke:none;font-family:Arial;-inkscape-font-specification:Arial" id="text4113">
    <path d="m 71.744687,267.14261 0,-123.03965 -45.961445,0 0,-16.46238 110.573908,0 0,16.46238 -46.151758,0 0,123.03965 z" style="" id="path4491"/>
  </g>
  <path style="font-size:194.88414001px;font-style:normal;font-variant:normal;font-weight:normal;font-stretch:normal;line-height:125%;letter-spacing:0px;word-spacing:0px;fill:#000000;fill-opacity:1;stroke:none;font-family:Arial;-inkscape-font-specification:Arial" d="m 843.21875,0 23.9375,45.5625 c 6.81726,12.9716 14.0009,22.8149 21.5625,29.5 7.56158,6.6851 16.62713,11.0502 27.1875,13.125 10.56029,2.0748 22.50404,1.6405 35.84375,-1.3125 13.72809,-3.039 23.62138,-7.7483 29.6875,-14.1562 6.06592,-6.408 8.81573,-13.6084 8.25,-21.5626 -0.56595,-7.954 -4.06521,-18.0714 -10.53125,-30.375 L 968.21875,0 947.1875,0 960.25,24.875 c 8.07528,15.3655 10.58583,26.3891 7.53125,33.0938 -3.05476,6.7046 -11.48614,11.5885 -25.34375,14.6562 -8.0945,1.7919 -15.68377,1.9567 -22.71875,0.4688 -7.03506,-1.488 -13.02205,-4.5019 -17.96875,-9.0313 -4.94674,-4.5294 -10.19287,-12.1166 -15.78125,-22.75 L 864.25,0 843.21875,0 z" id="text4119" inkscape:connector-curvature="0"/>
  <g transform="matrix(1.0207558,-0.22596538,0.46120949,0.877568,0,0)" style="font-size:194.88414001px;font-style:normal;font-variant:normal;font-weight:normal;font-stretch:normal;line-height:125%;letter-spacing:0px;word-spacing:0px;fill:#000000;fill-opacity:1;stroke:none;font-family:Arial;-inkscape-font-specification:Arial" id="text4131">
    <path d="m 428.6411,282.91812 0,-59.09329 -53.76443,-80.40873 22.45736,0 27.50074,42.05995 c 5.07505,7.86651 9.80124,15.73292 14.17858,23.59925 4.18689,-7.29538 9.262,-15.51071 15.22532,-24.64599 l 27.02495,-41.01321 21.50577,0 -55.66759,80.40873 0,59.09329 z" style="" id="path4488"/>
  </g>
  <g transform="matrix(1.0207558,-0.22596538,0.46120949,0.877568,0,0)" style="font-size:194.88414001px;font-style:normal;font-variant:normal;font-weight:normal;font-stretch:normal;line-height:125%;letter-spacing:0px;word-spacing:0px;fill:#000000;fill-opacity:1;stroke:none;font-family:Arial;-inkscape-font-specification:Arial" id="text4137">
    <path d="m -165.89712,597.26672 0,-139.50202 94.111527,0 0,16.46238 -75.650827,0 0,43.20185 65.468892,0 0,16.46238 -65.468892,0 0,63.37541 z" style="" id="path4485"/>
  </g>
  <g transform="matrix(1.0207558,-0.22596538,0.46120949,0.877568,0,0)" style="font-size:194.88414001px;font-style:normal;font-variant:normal;font-weight:normal;font-stretch:normal;line-height:125%;letter-spacing:0px;word-spacing:0px;fill:#000000;fill-opacity:1;stroke:none;font-family:Arial;-inkscape-font-specification:Arial" id="text4143">
    <path d="m 918.30495,599.29038 16.6527,-2.2838 c 0.44405,10.65776 2.44237,17.95322 5.99497,21.8864 3.55254,3.93323 8.46905,5.89983 14.74953,5.89982 4.63099,10e-6 8.62763,-1.06259 11.98994,-3.18781 3.3622,-2.12518 5.67772,-5.01164 6.94656,-8.6594 1.26871,-3.6477 1.9031,-9.46821 1.90316,-17.46154 l 0,-96.10986 18.46071,0 0,95.06312 c -8e-5,11.67278 -1.4116,20.71281 -4.23455,27.12011 -2.8231,6.40733 -7.29553,11.29212 -13.41731,14.65437 -6.12191,3.36226 -13.30635,5.04339 -21.55335,5.04339 -12.24373,0 -21.61681,-3.52086 -28.11927,-10.56257 -6.50249,-7.0417 -9.62685,-17.5091 -9.37309,-31.40223 z" style="" id="path4482"/>
  </g>
  <g transform="matrix(1.0207558,-0.22596538,0.46120949,0.877568,0,0)" style="font-size:194.88414001px;font-style:normal;font-variant:normal;font-weight:normal;font-stretch:normal;line-height:125%;letter-spacing:0px;word-spacing:0px;fill:#000000;fill-opacity:1;stroke:none;font-family:Arial;-inkscape-font-specification:Arial" id="text4155">
    <path d="m 674.03674,982.85388 0,-139.50202 52.33705,0 c 10.65765,1.4e-4 19.20603,1.41165 25.64515,4.23454 6.43895,2.82316 11.48233,7.16872 15.13017,13.03668 3.64762,5.86821 5.47149,12.00591 5.4716,18.41313 -1.1e-4,5.96335 -1.6178,11.57768 -4.85307,16.84301 -3.23549,5.26551 -8.12027,9.51591 -14.65438,12.75121 8.43727,2.47419 14.92389,6.69287 19.45987,12.65605 4.53576,5.96331 6.8037,13.00501 6.80382,21.12514 -1.2e-4,6.53423 -1.37992,12.6085 -4.13939,18.22281 -2.7597,5.61435 -6.16953,9.94405 -10.22951,12.9891 -4.06019,3.04507 -9.15115,5.34473 -15.2729,6.89897 -6.12194,1.55426 -13.62357,2.33138 -22.50494,2.33138 z m 18.46071,-80.88453 30.16517,0 c 8.18354,8e-5 14.05163,-0.53915 17.60428,-1.61769 4.69439,-1.39557 8.2311,-3.71109 10.61015,-6.94655 2.37886,-3.23529 3.56834,-7.29537 3.56843,-12.18026 -9e-5,-4.63093 -1.11027,-8.70687 -3.33054,-12.22784 -2.22045,-3.52074 -5.39239,-5.93141 -9.51583,-7.23203 -4.1236,-1.30037 -11.19702,-1.95062 -21.22029,-1.95074 l -27.88137,0 z m 0,64.42215 34.73276,0 c 5.96318,2e-5 10.15014,-0.22202 12.5609,-0.66611 4.25032,-0.76125 7.80289,-2.03002 10.65772,-3.80633 2.85466,-1.77626 5.20189,-4.36139 7.04172,-7.7554 1.83962,-3.39394 2.75948,-7.31129 2.75959,-11.75204 -1.1e-4,-5.20194 -1.33232,-9.72196 -3.99665,-13.56006 -2.66453,-3.83799 -6.35984,-6.53414 -11.08594,-8.08845 -4.72628,-1.55419 -11.53009,-2.33131 -20.41145,-2.33138 l -32.25865,0 z" style="" id="path4479"/>
  </g>
  <g transform="matrix(1.0207558,-0.22596538,0.46120949,0.877568,0,0)" style="font-size:194.88414001px;font-style:normal;font-variant:normal;font-weight:normal;font-stretch:normal;line-height:125%;letter-spacing:0px;word-spacing:0px;fill:#000000;fill-opacity:1;stroke:none;font-family:Arial;-inkscape-font-specification:Arial" id="text4161">
    <path d="m 360.94374,963.21838 -54.0499,-139.50202 19.98324,0 36.2553,101.34356 c 2.91812,8.1202 5.36052,15.73285 7.32718,22.83798 2.15686,-7.61264 4.66269,-15.22529 7.51751,-22.83798 l 37.68267,-101.34356 18.84134,0 -54.62085,139.50202 z" style="" id="path4476"/>
  </g>
  <g transform="matrix(1.0207558,-0.22596538,0.46120949,0.877568,0,0)" style="font-size:194.88414001px;font-style:normal;font-variant:normal;font-weight:normal;font-stretch:normal;line-height:125%;letter-spacing:0px;word-spacing:0px;fill:#000000;fill-opacity:1;stroke:none;font-family:Arial;-inkscape-font-specification:Arial" id="text4167">
    <path d="m 56.146555,898.53164 18.460705,4.66276 c -3.869899,15.16191 -10.832305,26.72363 -20.887241,34.68519 -10.055159,7.96157 -22.346424,11.94236 -36.87383,11.94236 -15.035067,0 -27.262893,-3.06092 -36.683514,-9.18277 -9.420698,-6.12184 -16.58928,-14.98741 -21.505769,-26.59674 -4.916523,-11.60926 -7.374776,-24.07499 -7.374766,-37.3972 -10e-6,-14.52741 2.775437,-27.19931 8.326349,-38.01573 5.550875,-10.8162 13.449004,-19.03153 23.694409,-24.64599 10.2453224,-5.6142 21.5215663,-8.42137 33.828766,-8.42151 13.956457,1.4e-4 25.692632,3.55271 35.20856,10.65773 9.515707,7.10527 16.14506,17.09688 19.888079,29.97485 l -18.17523,4.28212 c -3.23549,-10.1501 -7.92996,-17.54072 -14.083424,-22.17187 -6.15366,-4.63091 -13.893192,-6.94643 -23.218618,-6.94656 -10.7212298,1.3e-4 -19.6819581,2.5694 -26.882212,7.70782 -7.20035,5.13866 -12.259593,12.03763 -15.177744,20.69693 -2.918217,8.65949 -4.377309,17.5885 -4.377281,26.78705 -2.8e-5,11.86312 1.728679,22.21951 5.186126,31.06918 3.45738,8.84975 8.833817,15.46324 16.1293272,19.8405 7.2954101,4.37729 15.1935388,6.56593 23.6944098,6.56592 10.340448,1e-5 19.095,-2.98161 26.263683,-8.94488 7.168482,-5.96322 12.021549,-14.81293 14.559215,-26.54916 z" style="" id="path4473"/>
  </g>
  <path style="color:#000000;fill:url(#linearGradient4468);fill-opacity:1;fill-rule:nonzero;stroke:none;stroke-width:0.14;marker:none;visibility:visible;display:inline;overflow:visible;enable-background:accumulate" d="m 109.2813,719.3438 c -6.1893,0.069 -12.5234,0.6635 -18.9063,1.75 L 0,736.4688 0,871.1875 C 0,901.688 24.562,926.25 55.0625,926.25 l 216.3438,0 L 172.4687,750 c -12.3913,-21.4613 -36.3674,-30.9544 -63.1874,-30.6562 z" id="path4267" inkscape:connector-curvature="0"/>
  <path style="color:#000000;fill:url(#radialGradient4470);fill-opacity:1;fill-rule:nonzero;stroke:none;stroke-width:0.14;marker:none;visibility:visible;display:inline;overflow:visible;enable-background:accumulate" d="m 109.2813,719.3125 c -6.1893,0.069 -12.5547,0.6636 -18.9376,1.75 L 0,736.4375 0,871.1875 C 0,901.688 24.562,926.25 55.0625,926.25 l 219.1875,0 L 172.4687,750 c -12.3914,-21.4612 -36.3674,-30.9857 -63.1874,-30.6875 z" id="path4269" inkscape:connector-curvature="0"/>
  <path style="font-size:194.88414001px;font-style:normal;font-variant:normal;font-weight:normal;font-stretch:normal;line-height:125%;letter-spacing:0px;word-spacing:0px;fill:#000000;fill-opacity:1;stroke:none;font-family:Arial;-inkscape-font-specification:Arial" d="m 82.0625,798.6562 -20.5,4.5313 L 50,842.0312 c -1.7932,5.8041 -3.1052,11.2815 -3.9375,16.4376 -4.1098,-3.0056 -10.577,-7.1761 -19.375,-12.5 L 0,829.7812 0,848.2188 41.2813,873.125 28.1875,919.2812 c 5.7777,3.2252 12.1941,5.4389 19.0312,6.4063 l 8.4688,-32.1563 c 0.4821,-1.9711 1.1364,-5.5312 1.9688,-10.6874 3.6875,2.4776 7.2071,4.7204 10.5312,6.7812 l 58.7812,35.75 23.3126,-5.1562 -87.9063,-52.7813 19.6875,-68.7813 z" id="text4271" inkscape:connector-curvature="0"/>
</svg>