<?xml version="1.0" encoding="UTF-8" standalone="no"?>
<!-- Created with Inkscape (http://www.inkscape.org/) -->

<svg
   xmlns:dc="http://purl.org/dc/elements/1.1/"
   xmlns:cc="http://creativecommons.org/ns#"
   xmlns:rdf="http://www.w3.org/1999/02/22-rdf-syntax-ns#"
   xmlns:svg="http://www.w3.org/2000/svg"
   xmlns="http://www.w3.org/2000/svg"
   xmlns:sodipodi="http://sodipodi.sourceforge.net/DTD/sodipodi-0.dtd"
   xmlns:inkscape="http://www.inkscape.org/namespaces/inkscape"
   width="200.50919"
   height="29.562555"
   id="svg2"
   version="1.1"
   inkscape:version="0.48.1 r9760"
   sodipodi:docname="gauss_scout.svg"
   inkscape:export-filename="/home/carol/Escritorio/EMPRESA/gauss_scout/gauss_scout.png"
   inkscape:export-xdpi="299.95062"
   inkscape:export-ydpi="299.95062">
  <defs
     id="defs4" />
  <sodipodi:namedview
     id="base"
     pagecolor="#ffffff"
     bordercolor="#666666"
     borderopacity="1.0"
     inkscape:pageopacity="0.0"
     inkscape:pageshadow="2"
     inkscape:zoom="3.3888504"
     inkscape:cx="123.75132"
     inkscape:cy="-9.251267"
     inkscape:document-units="px"
     inkscape:current-layer="layer1"
     showgrid="false"
     fit-margin-top="0"
     fit-margin-left="0"
     fit-margin-right="0"
     fit-margin-bottom="0"
     inkscape:window-width="1280"
     inkscape:window-height="725"
     inkscape:window-x="0"
     inkscape:window-y="24"
     inkscape:window-maximized="1"
     inkscape:snap-nodes="false"
     inkscape:object-nodes="true" />
  <metadata
     id="metadata7">
    <rdf:RDF>
      <cc:Work
         rdf:about="">
        <dc:format>image/svg+xml</dc:format>
        <dc:type
           rdf:resource="http://purl.org/dc/dcmitype/StillImage" />
        <dc:title />
      </cc:Work>
    </rdf:RDF>
  </metadata>
  <g
     inkscape:label="Capa 1"
     inkscape:groupmode="layer"
     id="layer1"
     transform="translate(-409.04859,-631.60643)">
    <path
       inkscape:connector-curvature="0"
       id="path3034-4-39-6"
       style="font-size:40px;font-style:normal;font-variant:normal;font-weight:500;font-stretch:normal;text-align:start;line-height:125%;letter-spacing:0px;word-spacing:0px;writing-mode:lr-tb;text-anchor:start;fill:#000000;fill-opacity:1;stroke:none;font-family:Ubuntu;-inkscape-font-specification:Ubuntu Medium"
       d="m 488.54351,659.6362 c -1.27734,0.32846 -2.93784,0.65691 -4.98151,0.98536 -2.04373,0.36494 -4.28816,0.54742 -6.73329,0.54742 -2.29917,0 -4.2334,-0.32845 -5.80266,-0.98536 -1.53278,-0.6569 -2.77361,-1.56927 -3.72245,-2.7371 -0.91239,-1.16783 -1.56929,-2.55462 -1.97073,-4.1604 -0.40144,-1.64226 -0.60216,-3.43049 -0.60216,-5.36472 l 0,-16.03943 6.62379,0 0,14.99933 c 0,3.06557 0.43794,5.25524 1.31381,6.56905 0.91236,1.31381 2.48164,1.97071 4.70782,1.97071 0.80287,0 1.64225,-0.0365 2.51815,-0.10948 0.91234,-0.0729 1.58749,-0.16423 2.02544,-0.27371 l 0,-23.1559 6.62379,0 0,27.75423" />
    <g
       transform="translate(129.6643,75.560555)"
       id="g3121-5-1-3">
      <path
         d="m 331.038,557.8542 c -1.27734,-0.32846 -2.93785,-0.65691 -4.98152,-0.98536 -2.04373,-0.36494 -4.28815,-0.54742 -6.73329,-0.54742 -2.29916,0 -4.23339,0.32845 -5.80266,0.98535 -1.53278,0.65691 -2.7736,1.56928 -3.72244,2.73711 -0.91239,1.16782 -1.5693,2.55462 -1.97073,4.1604 -0.40144,1.64226 -0.60217,3.43049 -0.60217,5.36472 l 0,16.03943 6.62379,0 0,-14.99933 c 0,-3.06557 0.43794,-5.25524 1.31381,-6.56905 0.91236,-1.31381 2.48164,-1.97071 4.70782,-1.97071 0.80288,0 1.64225,0.0365 2.51815,0.10948 0.91235,0.0729 1.58749,0.16423 2.02544,0.27371 l 0,23.1559 6.6238,0 0,-27.75423"
         style="font-size:40px;font-style:normal;font-variant:normal;font-weight:500;font-stretch:normal;text-align:start;line-height:125%;letter-spacing:0px;word-spacing:0px;writing-mode:lr-tb;text-anchor:start;fill:#000000;fill-opacity:1;stroke:none;font-family:Ubuntu;-inkscape-font-specification:Ubuntu Medium"
         id="path3034-3-8-1-0"
         inkscape:connector-curvature="0" />
      <path
         sodipodi:nodetypes="ccccc"
         d="m 309.70984,576.71569 0,-6.62379 20.33542,0 0,6.62379 -20.33542,0"
         style="font-size:40px;font-style:normal;font-variant:normal;font-weight:500;font-stretch:normal;text-align:start;line-height:125%;letter-spacing:0px;word-spacing:0px;writing-mode:lr-tb;text-anchor:start;fill:#000000;fill-opacity:1;stroke:none;font-family:Ubuntu;-inkscape-font-specification:Ubuntu Medium"
         id="path3030-2-6-6-8"
         inkscape:connector-curvature="0" />
    </g>
    <path
       style="font-size:40px;font-style:normal;font-variant:normal;font-weight:500;font-stretch:normal;text-align:start;line-height:125%;letter-spacing:0px;word-spacing:0px;writing-mode:lr-tb;text-anchor:start;fill:#000000;fill-opacity:1;stroke:none;font-family:Ubuntu;-inkscape-font-specification:Ubuntu Medium"
       d="m 421.14234,631.60648 c -2.29917,0 -4.24324,0.34309 -5.8125,1 -1.53278,0.6569 -2.76991,1.55092 -3.71875,2.71875 -0.91239,1.16783 -1.56731,2.55047 -1.96875,4.15625 -0.27825,1.13831 -0.44586,2.37767 -0.53125,3.65625 l -0.0625,0 0,1.71875 0,2.15625 0,0.90625 c 0,1.93423 0.19231,3.73274 0.59375,5.375 0.40144,1.60578 1.05636,2.98842 1.96875,4.15625 0.94884,1.16783 2.18597,2.0931 3.71875,2.75 1.56926,0.65691 3.51333,0.96875 5.8125,0.96875 2.44513,0 4.70627,-0.16631 6.75,-0.53125 2.04367,-0.32845 3.69141,-0.67154 4.96875,-1 l 0,-16.25 -6.625,2.75 0,8.90625 c -0.43795,0.10948 -1.11891,0.20835 -2.03125,0.28125 -0.8759,0.073 -1.69713,0.0937 -2.5,0.0937 -2.22618,0 -3.80639,-0.65494 -4.71875,-1.96875 -0.87587,-1.31381 -1.3125,-3.49693 -1.3125,-6.5625 l 0,-1 c 0,-3.06557 0.43663,-5.24869 1.3125,-6.5625 0.91236,-1.31381 2.49257,-1.96875 4.71875,-1.96875 0.80287,0 1.6241,0.052 2.5,0.125 0.91234,0.0729 3.55759,0.14052 3.99554,0.25 0.88573,-0.18894 0,0 4.66071,-4.59375 -1.27734,-0.32846 -2.92508,-0.6403 -4.96875,-0.96875 -2.04373,-0.36494 -4.30487,-0.5625 -6.75,-0.5625 z"
       id="path3034-4-1-6"
       inkscape:connector-curvature="0"
       sodipodi:nodetypes="ccccccccscccsccccccscsscscccccc" />
    <path
       inkscape:connector-curvature="0"
       id="path3155-2"
       style="font-size:55.90831757px;font-style:normal;font-variant:normal;font-weight:500;font-stretch:normal;text-align:start;line-height:125%;letter-spacing:0px;word-spacing:0px;writing-mode:lr-tb;text-anchor:start;fill:#000000;fill-opacity:1;stroke:none;font-family:Ubuntu;-inkscape-font-specification:Ubuntu Medium"
       d="m 503.17615,655.83437 c 1.98441,0 3.43139,-0.1956 4.34092,-0.58681 0.9095,-0.42676 1.36428,-1.13804 1.36429,-2.13384 -10e-6,-0.92466 -0.49613,-1.68928 -1.48832,-2.29389 -0.95087,-0.60457 -2.54254,-1.26251 -4.775,-1.97379 -1.3643,-0.42677 -2.62523,-0.87131 -3.78279,-1.33366 -1.11625,-0.49788 -2.08779,-1.0669 -2.91461,-1.70707 -0.82685,-0.64014 -1.48832,-1.40476 -1.98442,-2.29389 -0.45477,-0.92465 -0.68214,-2.04491 -0.68214,-3.3608 0,-2.56059 1.09556,-4.56995 3.28668,-6.0281 2.19113,-1.49366 5.16774,-2.24051 8.92988,-2.24054 1.90171,3e-5 3.72077,0.16007 5.45715,0.48012 1.73633,0.28453 3.0386,0.56905 3.90682,0.85353 l -1.36429,5.22791 c -0.82687,-0.32004 -1.88109,-0.60456 -3.16265,-0.85353 -1.28163,-0.28449 -2.76995,-0.42674 -4.46495,-0.42677 -1.52966,3e-5 -2.76993,0.23119 -3.72078,0.6935 -0.95088,0.42679 -1.42631,1.1025 -1.4263,2.02715 -1e-5,0.46236 0.0827,0.87134 0.24805,1.22696 0.2067,0.35566 0.53743,0.69352 0.9922,1.01358 0.45476,0.28452 1.05421,0.58682 1.79838,0.90688 0.74416,0.28453 1.65367,0.58683 2.72858,0.90688 1.77768,0.56904 3.28667,1.13807 4.52696,1.70708 1.24022,0.53347 2.25311,1.15585 3.03863,1.86711 0.82683,0.67573 1.42628,1.45814 1.79838,2.34722 0.37205,0.88912 0.55809,1.95604 0.55811,3.20077 -2e-5,2.66731 -1.15759,4.69446 -3.47273,6.08146 -2.27383,1.35143 -5.53985,2.02715 -9.79806,2.02715 -2.8526,0 -5.1471,-0.21339 -6.88344,-0.64015 -1.73637,-0.39121 -2.95596,-0.71129 -3.65877,-0.96023 l 1.30228,-5.38796 c 1.11623,0.39121 2.43917,0.76464 3.96882,1.12027 1.571,0.35564 3.3487,0.53346 5.33312,0.53346" />
    <text
       xml:space="preserve"
       style="font-size:30.75025749px;font-style:normal;font-variant:normal;font-weight:500;font-stretch:normal;text-align:start;line-height:125%;letter-spacing:0px;word-spacing:0px;writing-mode:lr-tb;text-anchor:start;fill:#672296;fill-opacity:1;stroke:none;font-family:Ubuntu;-inkscape-font-specification:Ubuntu Medium"
       x="518.93732"
       y="660.73846"
       id="text4062-3"
       sodipodi:linespacing="125%"><tspan
         sodipodi:role="line"
         id="tspan4064-5"
         x="518.93732"
         y="660.73846">cout</tspan></text>
    <path
       inkscape:connector-curvature="0"
       id="path3155-3-1"
       style="font-size:55.90831757px;font-style:normal;font-variant:normal;font-weight:500;font-stretch:normal;text-align:start;line-height:125%;letter-spacing:0px;word-spacing:0px;writing-mode:lr-tb;text-anchor:start;fill:#000000;fill-opacity:1;stroke:none;font-family:Ubuntu;-inkscape-font-specification:Ubuntu Medium"
       d="m 596.349,655.83437 c 1.98441,0 3.43139,-0.1956 4.34092,-0.58681 0.9095,-0.42676 1.36428,-1.13804 1.36429,-2.13384 -10e-6,-0.92466 -0.49613,-1.68928 -1.48832,-2.29389 -0.95087,-0.60457 -2.54254,-1.26251 -4.775,-1.97379 -1.3643,-0.42677 -2.62523,-0.87131 -3.78279,-1.33366 -1.11625,-0.49788 -2.08779,-1.0669 -2.91461,-1.70707 -0.82685,-0.64014 -1.48832,-1.40476 -1.98442,-2.29389 -0.45477,-0.92465 -0.68214,-2.04491 -0.68214,-3.3608 0,-2.56059 1.09556,-4.56995 3.28668,-6.0281 2.19113,-1.49366 5.16774,-2.24051 8.92988,-2.24054 1.90171,3e-5 3.72077,0.16007 5.45715,0.48012 1.73633,0.28453 3.0386,0.56905 3.90682,0.85353 l -1.36429,5.22791 c -0.82687,-0.32004 -1.88109,-0.60456 -3.16265,-0.85353 -1.28163,-0.28449 -2.76995,-0.42674 -4.46495,-0.42677 -1.52966,3e-5 -2.76993,0.23119 -3.72078,0.6935 -0.95088,0.42679 -1.42631,1.1025 -1.4263,2.02715 -10e-6,0.46236 0.0827,0.87134 0.24805,1.22696 0.2067,0.35566 0.53743,0.69352 0.9922,1.01358 0.45476,0.28452 1.05421,0.58682 1.79838,0.90688 0.74416,0.28453 1.65367,0.58683 2.72858,0.90688 1.77768,0.56904 3.28667,1.13807 4.52696,1.70708 1.24022,0.53347 2.25311,1.15585 3.03863,1.86711 0.82683,0.67573 1.42628,1.45814 1.79838,2.34722 0.37205,0.88912 0.55809,1.95604 0.55811,3.20077 -2e-5,2.66731 -1.15759,4.69446 -3.47273,6.08146 -2.27383,1.35143 -5.53985,2.02715 -9.79806,2.02715 -2.8526,0 -5.1471,-0.21339 -6.88344,-0.64015 -1.73637,-0.39121 -2.95596,-0.71129 -3.65877,-0.96023 l 1.30228,-5.38796 c 1.11623,0.39121 2.43917,0.76464 3.96882,1.12027 1.571,0.35564 3.3487,0.53346 5.33312,0.53346" />
  </g>
</svg>
