<?xml version="1.0" encoding="UTF-8"?>
<svg xmlns:rdf="http://www.w3.org/1999/02/22-rdf-syntax-ns#" xmlns="http://www.w3.org/2000/svg" xmlns:cc="http://creativecommons.org/ns#" xmlns:xlink="http://www.w3.org/1999/xlink" xmlns:dc="http://purl.org/dc/elements/1.1/" xmlns:svg="http://www.w3.org/2000/svg" id="svg2" viewBox="0 0 600 450" version="1.0">
  <defs id="defs4">
    <linearGradient id="linearGradient4420">
      <stop id="stop4422" stop-color="#fff" stop-opacity="0" offset="0"/>
      <stop id="stop4424" stop-color="#fff" stop-opacity="0" offset=".7"/>
      <stop id="stop4426" stop-color="#fff" stop-opacity=".60526" offset="1"/>
    </linearGradient>
    <linearGradient id="linearGradient4345">
      <stop id="stop4347" stop-color="#004c00" stop-opacity="0" offset="0"/>
      <stop id="stop4349" stop-color="#004c00" stop-opacity="0" offset=".7"/>
      <stop id="stop4351" stop-color="#004c00" stop-opacity=".6" offset="1"/>
    </linearGradient>
    <linearGradient id="linearGradient4298">
      <stop id="stop4300" stop-color="#004c00" offset="0"/>
      <stop id="stop4304" stop-color="#004c00" offset=".5"/>
      <stop id="stop4302" stop-color="#004c00" stop-opacity="0" offset="1"/>
    </linearGradient>
    <linearGradient id="linearGradient4278">
      <stop id="stop4280" stop-color="#fff" stop-opacity="0" offset="0"/>
      <stop id="stop4282" stop-color="#fff" stop-opacity="0" offset=".59468"/>
      <stop id="stop4284" stop-color="#fff" offset="1"/>
    </linearGradient>
    <linearGradient id="linearGradient3692">
      <stop id="stop3694" stop-color="#008000" offset="0"/>
      <stop id="stop3696" stop-color="#fff" stop-opacity="0" offset="1"/>
    </linearGradient>
    <linearGradient id="linearGradient3660">
      <stop id="stop3662" stop-color="#fff" offset="0"/>
      <stop id="stop3664" stop-color="#fff" stop-opacity="0" offset="1"/>
    </linearGradient>
    <filter id="filter3348" y="-.068545" width="1.2036" x="-.1018" height="1.1371">
      <feGaussianBlur id="feGaussianBlur3350" stdDeviation="0.64006026"/>
    </filter>
    <filter id="filter3603" y="-.26208" width="1.7785" x="-.38925" height="1.5242">
      <feGaussianBlur id="feGaussianBlur3605" stdDeviation="2.4472892"/>
    </filter>
    <clipPath id="clipPath3608" clipPathUnits="userSpaceOnUse">
      <path id="path3610" transform="matrix(1.0784 0 0 1.0784 -64.249 -25.963)" fill="#786721" d="m503.57 359.73a7.5446 11.205 0 1 1 -15.09 0 7.5446 11.205 0 1 1 15.09 0z"/>
    </clipPath>
    <filter id="filter3654">
      <feGaussianBlur id="feGaussianBlur3656" stdDeviation="0.9944665"/>
    </filter>
    <filter id="filter3684">
      <feGaussianBlur id="feGaussianBlur3686" stdDeviation="0.64503293"/>
    </filter>
    <clipPath id="clipPath4055" clipPathUnits="userSpaceOnUse">
      <path id="path4057" d="m559.95 313.57c10.37 1.31 19.27 6.99 25.57 15.29-26.02 27.23-31.39 55.49-24.61 79.45-4.18 1.01-8.56 1.32-12.98 0.76-22.66-2.85-38.36-26.56-35.04-52.91 3.32-26.36 24.4-45.44 47.06-42.59z"/>
    </clipPath>
    <filter id="filter4061">
      <feGaussianBlur id="feGaussianBlur4063" stdDeviation="0.56620168"/>
    </filter>
    <filter id="filter4140">
      <feGaussianBlur id="feGaussianBlur4142" stdDeviation="1.4900512"/>
    </filter>
    <filter id="filter4168" y="-.10662" width="1.2754" x="-.1377" height="1.2132">
      <feGaussianBlur id="feGaussianBlur4170" stdDeviation="5.7411262"/>
    </filter>
    <filter id="filter4237">
      <feGaussianBlur id="feGaussianBlur4239" stdDeviation="0.49389947"/>
    </filter>
    <filter id="filter4272">
      <feGaussianBlur id="feGaussianBlur4274" stdDeviation="0.78469437"/>
    </filter>
    <filter id="filter4309">
      <feGaussianBlur id="feGaussianBlur4311" stdDeviation="0.54608799"/>
    </filter>
    <filter id="filter4362">
      <feGaussianBlur id="feGaussianBlur4364" stdDeviation="1.6404489"/>
    </filter>
    <filter id="filter4449">
      <feGaussianBlur id="feGaussianBlur4451" stdDeviation="2.1611539"/>
    </filter>
    <filter id="filter4463">
      <feGaussianBlur id="feGaussianBlur4465" stdDeviation="1.5712336"/>
    </filter>
    <filter id="filter4521">
      <feGaussianBlur id="feGaussianBlur4523" stdDeviation="0.39293974"/>
    </filter>
    <filter id="filter4550">
      <feGaussianBlur id="feGaussianBlur4552" stdDeviation="1.5509377"/>
    </filter>
    <filter id="filter4646">
      <feGaussianBlur id="feGaussianBlur4648" stdDeviation="1.0507684"/>
    </filter>
    <filter id="filter4666">
      <feGaussianBlur id="feGaussianBlur4668" stdDeviation="0.78807626"/>
    </filter>
    <filter id="filter4881">
      <feGaussianBlur id="feGaussianBlur4883" stdDeviation="1.4891308"/>
    </filter>
    <filter id="filter4919">
      <feGaussianBlur id="feGaussianBlur4921" stdDeviation="1.8971094"/>
    </filter>
    <filter id="filter5007">
      <feGaussianBlur id="feGaussianBlur5009" stdDeviation="1.4541166"/>
    </filter>
    <filter id="filter5026">
      <feGaussianBlur id="feGaussianBlur5028" stdDeviation="1.4753811"/>
    </filter>
    <filter id="filter5092">
      <feGaussianBlur id="feGaussianBlur5094" stdDeviation="1.3638715"/>
    </filter>
    <radialGradient id="radialGradient6248" gradientUnits="userSpaceOnUse" cy="698.52" cx="300" gradientTransform="matrix(.69124 0 0 .31403 92.627 218.77)" r="300">
      <stop id="stop5931" stop-color="#004c00" stop-opacity=".53365" offset="0"/>
      <stop id="stop5933" stop-color="#004c00" stop-opacity="0" offset=".90333"/>
      <stop id="stop5935" stop-color="#004c00" stop-opacity="0" offset="1"/>
    </radialGradient>
    <radialGradient id="radialGradient6250" xlink:href="#linearGradient4278" gradientUnits="userSpaceOnUse" cy="487.53" cx="641.94" gradientTransform="matrix(1.3499 0 0 3.587 -222.82 -1258)" r="34.295"/>
    <radialGradient id="radialGradient6252" xlink:href="#linearGradient4345" gradientUnits="userSpaceOnUse" cy="793.94" cx="454.24" gradientTransform="matrix(.71267 0 0 .44728 137.63 415.35)" r="125.67"/>
    <radialGradient id="radialGradient6254" xlink:href="#linearGradient4420" gradientUnits="userSpaceOnUse" cy="791.42" cx="455.61" gradientTransform="matrix(1.0866 0 0 .48794 -38.319 385.29)" r="127.09"/>
    <linearGradient id="linearGradient6256" x1="650.94" xlink:href="#linearGradient4278" gradientUnits="userSpaceOnUse" y1="507.96" gradientTransform="matrix(.93901 0 0 1 35.503 0)" x2="545.29" y2="507.96"/>
    <radialGradient id="radialGradient6258" xlink:href="#linearGradient4345" gradientUnits="userSpaceOnUse" cy="639.9" cx="609.43" gradientTransform="matrix(0 -3.1934 1.983 -.0000017842 -717.62 2473.1)" r="30.793"/>
    <radialGradient id="radialGradient6260" xlink:href="#linearGradient4420" gradientUnits="userSpaceOnUse" cy="513.96" cx="842.31" gradientTransform="matrix(1.0132 0 0 2.6877 -14.943 -830.9)" r="91.748"/>
    <radialGradient id="radialGradient6262" xlink:href="#linearGradient4345" gradientUnits="userSpaceOnUse" cy="336.19" cx="1018.1" gradientTransform="matrix(2.3257e-8 -.96091 .91697 -1.6814e-8 535.85 1433.6)" r="87.154"/>
    <radialGradient id="radialGradient6264" xlink:href="#linearGradient4298" gradientUnits="userSpaceOnUse" cy="530.14" cx="760.75" gradientTransform="matrix(1.703 0 0 1.8344 -814.06 -441.02)" r="10.067"/>
    <linearGradient id="linearGradient6266" x1="749.64" gradientUnits="userSpaceOnUse" y1="528.04" gradientTransform="translate(-280)" x2="740.41" y2="522.7">
      <stop id="stop4189" stop-color="#fff" stop-opacity="0" offset="0"/>
      <stop id="stop4245" stop-color="#fff" stop-opacity="0" offset=".5"/>
      <stop id="stop4191" stop-color="#fff" offset="1"/>
    </linearGradient>
    <radialGradient id="radialGradient6268" xlink:href="#linearGradient4298" gradientUnits="userSpaceOnUse" cy="521.31" cx="709.25" gradientTransform="matrix(.96820 -.80333 1.3626 1.6423 -968.3 254.71)" r="33.301"/>
    <radialGradient id="radialGradient6270" xlink:href="#linearGradient3660" gradientUnits="userSpaceOnUse" cy="502.44" cx="761.64" gradientTransform="matrix(.71701 -.71701 1.2162 1.2162 -701.19 400.83)" r="33.301"/>
    <radialGradient id="radialGradient6272" xlink:href="#linearGradient4345" gradientUnits="userSpaceOnUse" cy="474.25" cx="700.6" gradientTransform="matrix(1.555 -.92247 1.323 2.2915 -1012.2 29.319)" r="16.709"/>
    <radialGradient id="radialGradient6274" xlink:href="#linearGradient4420" gradientUnits="userSpaceOnUse" cy="472.17" cx="684.61" gradientTransform="matrix(1.674 -.99943 1.5172 2.6279 -1185.6 -76.935)" r="16.709"/>
    <radialGradient id="radialGradient6280" xlink:href="#linearGradient4345" gradientUnits="userSpaceOnUse" cy="410.14" cx="340.33" gradientTransform="matrix(0 -1.5261 1.5121 -.0000035023 -207.67 866.24)" r="87.65"/>
    <linearGradient id="linearGradient6282" x1="500.67" gradientUnits="userSpaceOnUse" x2="494.17" y1="347.06" y2="363.32">
      <stop id="stop3262" stop-color="#f4eed7" offset="0"/>
      <stop id="stop3264" stop-color="#f4eed7" stop-opacity="0" offset="1"/>
    </linearGradient>
    <linearGradient id="linearGradient6284" x1="561.25" xlink:href="#linearGradient3660" gradientUnits="userSpaceOnUse" y1="341.95" gradientTransform="matrix(.96183 .00079388 .00079388 .95562 22.543 14.618)" x2="569.88" y2="348.61"/>
    <radialGradient id="radialGradient6286" xlink:href="#linearGradient4278" gradientUnits="userSpaceOnUse" cy="303.82" cx="191.4" gradientTransform="matrix(2.1212 .22345 -.48816 4.634 95.114 -1139.7)" r="12.969"/>
    <linearGradient id="linearGradient6288" x1="501.52" xlink:href="#linearGradient3692" gradientUnits="userSpaceOnUse" x2="506.62" y1="310.39" y2="335.6"/>
    <linearGradient id="linearGradient6290" x1="286.26" xlink:href="#linearGradient4298" gradientUnits="userSpaceOnUse" y1="302.24" gradientTransform="matrix(.91377 0 0 .91377 177.59 22.075)" x2="197.18" y2="250.81"/>
    <linearGradient id="linearGradient6294" y2="370.61" gradientUnits="userSpaceOnUse" y1="377.49" x2="369.75" x1="379.12">
      <stop id="stop3624" stop-color="#fff" offset="0"/>
      <stop id="stop3626" stop-color="#fff" stop-opacity="0" offset="1"/>
    </linearGradient>
    <linearGradient id="linearGradient6296" x1="188.56" xlink:href="#linearGradient3660" gradientUnits="userSpaceOnUse" y1="240.39" gradientTransform="matrix(.91377 0 0 .91377 177.59 22.075)" x2="206.62" y2="250.81"/>
    <radialGradient id="radialGradient6298" xlink:href="#linearGradient4298" gradientUnits="userSpaceOnUse" cy="300.44" cx="193.93" gradientTransform="matrix(1.0677 .28608 -.51206 1.911 306.78 -346.83)" r="12.969"/>
    <linearGradient id="linearGradient6300" x1="347.75" xlink:href="#linearGradient3660" gradientUnits="userSpaceOnUse" x2="368.62" y1="343.36" y2="348.86"/>
    <linearGradient id="linearGradient6302" x1="397.18" xlink:href="#linearGradient3692" gradientUnits="userSpaceOnUse" x2="364.42" y1="347.74" y2="347.74"/>
    <linearGradient id="linearGradient6304" x1="455.32" xlink:href="#linearGradient3660" gradientUnits="userSpaceOnUse" y1="413.69" gradientTransform="matrix(.93462 0 0 .92037 25.438 30.789)" x2="379.04" y2="369.98"/>
    <radialGradient id="radialGradient6314" xlink:href="#linearGradient4278" gradientUnits="userSpaceOnUse" cy="642.36" cx="670.55" gradientTransform="matrix(1.2874 0 0 2.2976 -530.69 -1062.2)" r="56.376"/>
    <radialGradient id="radialGradient6316" xlink:href="#linearGradient4345" gradientUnits="userSpaceOnUse" cy="623.33" cx="640.63" gradientTransform="matrix(1.5433 0 0 2.8128 -695.36 -1377.2)" r="56.376"/>
    <radialGradient id="radialGradient6318" gradientUnits="userSpaceOnUse" cy="698.52" cx="300" gradientTransform="matrix(.94832 0 0 .065368 15.503 392.46)" r="300">
      <stop id="stop6332" offset="0"/>
      <stop id="stop6334" stop-opacity="0" offset=".98384"/>
      <stop id="stop6336" stop-opacity="0" offset="1"/>
    </radialGradient>
    <radialGradient id="radialGradient6320" gradientUnits="userSpaceOnUse" cy="698.52" cx="300" gradientTransform="matrix(.94832 0 0 .024967 15.503 -455.56)" r="300">
      <stop id="stop5943" offset="0"/>
      <stop id="stop5945" stop-opacity="0" offset=".90333"/>
      <stop id="stop5947" stop-opacity="0" offset="1"/>
    </radialGradient>
  </defs>
  <g id="layer1">
    <g id="g6138" transform="translate(0 4.3864)">
      <rect id="rect5601" height="94.208" width="414.75" y="343.92" x="92.627" fill="url(#radialGradient6248)"/>
      <g id="g5096" transform="matrix(.97406 0 0 .97406 -320.59 -226.3)" fill-rule="evenodd">
        <path id="path5071" d="m628.25 426.94c-23.99 0.42-29.49 14.44-28.53 26.25 5.28 64.98 0.67 86.96-0.1 101.37l3.19-4.44c1.25-14.2 4.46-37.08 0-93.84-0.93-11.81 4.84-25.94 30.07-25.47 13.72 0.26 31.26 19.99 36.5 26.25l0.68-0.97s-22.64-28.84-39.44-29.15c-0.81-0.02-1.6-0.02-2.37 0z"/>
        <path id="path5069" fill="#71c837" d="m602.45 554.56c0.78-13.97 5.31-35.28 0.36-98.29-0.93-11.81 4.82-25.92 30.05-25.45 16.3 0.3 38.18 28.28 38.18 28.28l-68.59 95.46z"/>
        <path id="path5080" filter="url(#filter5092)" fill="url(#radialGradient6250)" d="m632.84 432.31c-12.33-0.23-19.55 3.06-23.68 7.63-4.13 4.56-5.29 10.6-4.85 16.22 4.42 56.17 1.4 78.96 0.13 93.09l64.68-90.06c-0.92-1.16-5.41-6.77-12.09-13.03-7.4-6.95-16.88-13.71-24.19-13.85z"/>
      </g>
      <g id="g5030" transform="matrix(.97406 0 0 .97406 -320.59 -421.11)" fill-rule="evenodd">
        <path id="path4952" fill="#71c837" d="m434.44 677.28c-3.72-0.18-6.97 4.15-6.28 10.1 1.75 15.07 20.04 28.53 25.09 33.59 7.32 7.32 5.51 13.75 1.81 20.15-10.75 18.62-16.16 27.67-27.62 33.6-20.73 10.71-36.55 12.78-48.63 18.47 7.73 1.51 15.69 2.96 23.81 4.03h0.04c7.94-1.7 15.97-3.91 23.84-7.1-6.93 3.13-13.89 5.5-20.75 7.47 7.31 0.88 14.72 1.44 22.16 1.47-8.33 0.25-16.55-0.1-24.57-0.78h-0.03c-0.02 0.01-0.04 0.03-0.06 0.03-1.32-0.11-2.63-0.27-3.94-0.4-0.02-0.01-0.04 0-0.06 0-6.13-0.61-12.06-1.39-17.87-2.22-0.13-0.02-0.25-0.05-0.38-0.07-5.39-0.78-10.67-1.59-15.75-2.37-20.8-3.21-10.12 4.65-7.75 5.87 6.39 3.31 13.77 5.92 21.59 7.85 0.45 0.11 0.9 0.24 1.35 0.34 0.27 0.07 0.54 0.13 0.81 0.19 0.1 0.02 0.21 0.04 0.31 0.06 0.12 0.03 0.23 0.04 0.35 0.06 1.01 0.23 2.03 0.46 3.06 0.66 11.77 2.34 24.22 3.18 35.65 2.47 8.95-0.57 24.11-8.97 31.04-12.25h0.03c5.08-5.7 9.55-13.67 19.93-27.28 14.08-18.44 18.48-19.58 31.85-19.66 36.39-0.2 43.42 13.57 99.06 23.06 7.58 1.3 11.84-23.96 4.16-23.96-28.64 0-53.04-0.71-88.38-6.72-28.63-4.88-60.29-12.33-76.72-59.03-1.85-5.27-4.61-7.51-7.15-7.63zm38.47 59.69c5.95 0.06 13.29 4.87 21.37 4.87-10.72 2.88-18.52-6.81-24.69-0.65-8.67 8.67-4.16 19.2-17.93 27.15 9.66-7.78 8.78-18.67 13.12-26.18 2.28-3.96 5.01-5.22 8.13-5.19zm-28.16 25.15c-0.62 9.07 1.13 19.84 8.5 28.5-13.09-8.75-11.85-20.77-8.5-28.5zm-72.91 45.69c-12.29 2.09-24.54 7.24-10.5 10.38 21.07 4.7 45.1 1.75 64.63-5.03-1.64 0.1-3.32 0.18-5.19 0.31-15.6 1.04-33.19-0.85-48.9-5.66h-0.04z"/>
        <path id="path4962" d="m472.91 736.97c-3.12-0.03-5.85 1.23-8.13 5.19-4.34 7.51-3.46 18.4-13.12 26.18 13.77-7.95 9.26-18.48 17.93-27.15 6.17-6.16 13.97 3.53 24.69 0.65-8.08 0-15.42-4.81-21.37-4.87zm-28.16 25.15c-3.35 7.73-4.59 19.75 8.5 28.5-7.37-8.66-9.12-19.43-8.5-28.5z"/>
        <path id="path4941" d="m435.72 673.06c-0.47 0-0.95 0.03-1.41 0.1-2.73 0.39-5.18 1.99-6.75 4.12-2.09 2.84-3.01 6.63-2.53 10.72 1.08 9.17 6.84 16.92 12.66 23.16 5.81 6.24 12.1 11.21 14.19 13.28 3.15 3.12 3.87 5.33 3.87 7.5s-1 4.73-2.72 7.68c-10.95 18.78-15.85 26.81-26.44 32.22-22.34 11.44-39.15 12.53-52.9 20.32-3.45-0.7-6.87-1.39-10.19-2.07-4.74-0.96-7.94-1.34-10.31-1.21-0.34 0.01-0.66 0.05-0.97 0.09-1.23 0.15-2.33 0.43-3.25 1.37-0.11 0.12-0.22 0.24-0.31 0.38-0.01 0.01 0 0.02 0 0.03-0.09 0.14-0.18 0.28-0.25 0.44-0.01 0.01 0 0.02 0 0.03-0.07 0.16-0.17 0.3-0.22 0.47-0.01 0.01 0 0.02 0 0.03-0.26 0.87-0.28 1.85-0.07 2.59 0.09 0.3 0.21 0.59 0.32 0.85 0 0-0.01 0.02 0 0.03 0.1 0.25 0.22 0.47 0.34 0.69 0.01 0 0 0.02 0 0.03 0.77 1.33 1.85 2.08 2.81 2.87 1.3 1.06 2.51 1.85 3.47 2.34 3.41 1.75 7.03 3.31 10.78 4.69-0.06 0.04-0.13 0.09-0.18 0.13-2.81 0.67-5.48 1.47-7.75 2.4-1.65 0.68-3.12 1.41-4.44 2.41-1.33 1-2.99 2.53-3.03 5.25s1.99 4.66 3.68 5.62c1.7 0.97 3.57 1.57 6.1 2.13 28.73 6.34 61.72-0.29 84.12-11.87 6.99-3.62 11.4-7.89 15.72-13.57 4.33-5.68 8.78-12.83 17.06-23.56 7.08-9.17 11.57-13.69 15.26-15.78 3.68-2.09 7.14-2.34 13.84-2.38 18.01-0.1 28.23 3.1 41.69 7.72 13.46 4.63 29.9 10.66 58.59 15.5 2.16 0.37 4.35-0.32 5.91-1.37 1.55-1.06 2.66-2.39 3.56-3.85 1.81-2.9 2.92-6.37 3.53-9.9 0.61-3.54 0.76-7.08-0.03-10.35-0.4-1.63-1.06-3.23-2.35-4.68-1.28-1.45-3.48-2.57-5.65-2.57-29.15 0-53.63-0.69-89.41-6.71-14.5-2.45-29.27-5.52-42.28-13.41-13-7.89-24.51-20.55-32.62-43.38-2.04-5.74-5.49-9.61-10.04-10.4-0.47-0.09-0.93-0.12-1.4-0.13zm-1.28 4.22c2.54 0.12 5.3 2.36 7.15 7.63 16.43 46.7 48.09 54.15 76.72 59.03 35.34 6.01 59.74 6.72 88.38 6.72 7.68 0 3.42 25.26-4.16 23.96-55.64-9.49-62.67-23.26-99.06-23.06-13.37 0.08-17.77 1.22-31.85 19.66-10.38 13.6-14.85 21.58-19.93 27.28-6.92 3.28-22.11 11.68-31.07 12.25-13.37 0.83-28.14-0.45-41.59-3.78-0.23-0.06-0.46-0.13-0.69-0.19-0.66-0.17-1.31-0.35-1.96-0.53-0.88-0.25-1.76-0.49-2.63-0.75h-0.03c-0.63-0.19-1.25-0.37-1.88-0.56-0.04-0.02-0.08-0.02-0.12-0.03-0.09-0.03-0.17-0.07-0.25-0.1-0.64-0.2-1.28-0.41-1.91-0.62-0.11-0.04-0.23-0.09-0.34-0.13-4.15-1.43-8.1-3.06-11.72-4.94-2.37-1.22-13.05-9.08 7.75-5.87 1.73 0.27 3.58 0.54 5.34 0.81 0.41 0.06 0.82 0.13 1.22 0.19 1.24 0.2 2.46 0.4 3.72 0.59 0.01 0.01 0.02 0 0.03 0 0.01 0.01 0.02 0 0.03 0 7.64 1.16 15.48 2.26 23.66 3.07 0.02 0 0.04-0.01 0.06 0 1.31 0.13 2.62 0.29 3.94 0.4 0.02 0 0.04-0.02 0.06-0.03h0.03c8.02 0.68 16.24 1.03 24.57 0.78-7.44-0.03-14.85-0.59-22.16-1.47 6.86-1.97 13.82-4.34 20.75-7.47-7.87 3.19-15.9 5.4-23.84 7.1h-0.04c-8.12-1.07-16.08-2.52-23.81-4.03 12.08-5.69 27.9-7.75 48.63-18.47 11.46-5.93 16.87-14.98 27.62-33.6 3.7-6.4 5.51-12.83-1.81-20.15-5.05-5.06-23.34-18.52-25.09-33.59-0.69-5.95 2.56-10.28 6.28-10.1zm-62.56 130.53c15.71 4.81 33.3 6.7 48.9 5.66 1.89-0.13 3.57-0.21 5.22-0.31-19.53 6.79-43.58 9.73-64.66 5.03-14.06-3.14-1.77-8.3 10.54-10.38z"/>
        <path id="path4997" filter="url(#filter5007)" transform="matrix(.98806 0 0 1.0037 4.2454 -3.0042)" fill="url(#radialGradient6252)" d="m432.47 683.25c-0.31 0.26-0.62 0.57-0.91 1-0.85 1.27-1.41 3.31-1.12 5.78 0.78 6.64 5.44 13.41 10.72 19.06 5.27 5.66 10.93 10.06 13.72 12.82 3.96 3.92 5.68 8.02 5.68 11.93 0 2.29-0.56 4.44-1.4 6.5 1.87-3.24 3.4-6.68 3.4-10.5 0-1.67-0.33-3.38-1-5.09-3.36-3.24-6.54-6.97-9.53-11.22-2.68-2.36-5.81-5.15-8.87-8.44-5.28-5.65-9.94-12.42-10.72-19.06-0.12-1.01-0.1-1.94 0.03-2.78zm39.97 50.13c-2.89 0.65-5.63 2.54-7.63 5.96-0.64 1.11-1.16 2.25-1.62 3.41 2.56-3.98 6.17-5.69 9.75-5.66 3.58 0.04 7.04 1.35 10.59 2.53 1.4 0.47 2.8 0.91 4.22 1.29-4.6-1.75-9.17-3.74-13.56-6.41-0.59-0.36-1.17-0.75-1.75-1.12zm33.03 14.15c-6.75 0.04-11.76 0.37-16.78 3.22s-9.78 7.93-16.88 17.13c-6.84 8.86-10.92 14.77-14.43 19.68-0.1-0.21-0.23-0.42-0.38-0.59-4.01-4.66-6.26-10.03-7.31-15.38-0.32-0.5-0.39-1.08-0.28-1.62-0.51-3.28-0.59-6.53-0.38-9.59 0.05-0.64-0.19-1.24-0.62-1.69-0.83 1.25-1.63 2.46-2.44 3.62 0.71 0.45 1.12 1.23 1.06 2.07-0.58 8.42 1.04 18.28 7.66 26.21 0.11 0.03 0.23 0.06 0.34 0.07-0.04 0.05-0.08 0.13-0.12 0.18 0.03 0.04 0.06 0.09 0.09 0.13 0.15 0.17 0.28 0.38 0.38 0.59 3.51-4.91 7.59-10.82 14.43-19.68 7.1-9.2 11.86-14.28 16.88-17.13s10.03-3.18 16.78-3.22c18.48-0.1 29.76 3.37 43.06 7.94s28.72 10.23 56.38 14.91c0.32 0.05 0.54 0.02 1-0.29 0.45-0.3 1.03-0.94 1.59-1.84 0.55-0.89 1.09-2.02 1.53-3.28-0.39 0.53-0.8 0.91-1.12 1.12-0.46 0.31-0.68 0.34-1 0.29-27.66-4.68-43.08-10.34-56.38-14.91-5.07-1.74-9.85-3.31-14.84-4.59-5.04-0.7-10.25-1.48-15.75-2.41-1.29-0.22-2.6-0.46-3.91-0.69-2.69-0.16-5.52-0.27-8.56-0.25zm-36.69 0.59c-1.94 3.01-2.79 6.27-4.09 9.88-0.19 0.51-0.39 1.01-0.6 1.53 1.13-1.86 1.94-3.72 2.6-5.53 0.74-2.07 1.35-4.02 2.09-5.88zm-11.66 11.04c-1.21 1.94-2.77 3.77-4.9 5.46-0.87 0.67-1.1 1.84-0.63 2.79 2.69-2.52 4.33-5.3 5.53-8.25zm-28.56 26.5c-0.29 0-0.61 0.03-0.9 0.15-7.59 3.04-15.37 5.2-23.1 6.85-2.87-0.38-5.69-0.85-8.5-1.35-3.07 0.96-5.95 1.86-8.65 2.78 5.01 0.91 10 1.89 15.15 2.57 7.73-1.65 15.51-3.81 23.1-6.85 0.95-0.4 2.02-0.09 2.65 0.66 0.38-0.16 0.75-0.3 1.13-0.47 1.16-0.49 1.71-1.82 1.22-2.97-0.37-0.86-1.21-1.37-2.1-1.37zm23.63 8.75c-3.57 1.69-8.73 4.38-14.22 6.81-5.68 2.51-11.66 4.6-15.5 4.84-11.22 0.69-23.49-0.13-35.06-2.4-1-0.2-1.99-0.41-3-0.63-0.3-0.06-0.42-0.08-0.35-0.06-0.21-0.05-0.32-0.07-0.31-0.06-0.27-0.07-0.52-0.1-0.78-0.16-0.38-0.09-0.81-0.22-1.31-0.34-5.4-1.32-10.57-2.98-15.32-4.94-0.46-0.07-0.97-0.15-1.43-0.22-4.79-0.73-7.72-0.77-9.22-0.59 0.23 0.28 0.2 0.29 0.56 0.59 0.86 0.72 1.98 1.39 2.31 1.56 6.19 3.17 13.42 5.72 21.1 7.6 0.5 0.12 0.93 0.25 1.31 0.34 0.26 0.06 0.51 0.09 0.78 0.16-0.01-0.01 0.1 0.01 0.31 0.06-0.07-0.02 0.05 0 0.35 0.06 1.01 0.22 2 0.43 3 0.63 11.57 2.27 23.84 3.09 35.06 2.4 3.84-0.24 9.82-2.33 15.5-4.84 5.49-2.43 10.65-5.12 14.22-6.81 0.88-0.99 1.94-2.57 2.84-3.75-0.29-0.02-0.58-0.13-0.84-0.25zm-25.75 0.03c-3.14 1.36-6.28 2.58-9.41 3.68 3.62 0.25 7.24 0.36 10.88 0.38 0.52 0.02 0.99 0.22 1.37 0.53 0.23 0 0.46 0.01 0.69 0 1.22-0.07 2.17-1.07 2.15-2.28-0.01-1.21-0.99-2.21-2.21-2.25-1.16-0.01-2.32-0.03-3.47-0.06zm-62.28 19.12c-2.77 0.83-5.03 1.71-6.16 2.47-0.08 0.05-0.03 0.05-0.09 0.09 0.63 0.34 1.72 0.89 3.93 1.38 14.31 3.16 30.15 2.66 44.94-0.12-5.89-0.23-11.88-0.84-17.81-1.79-8.45 0.29-16.86-0.3-24.81-2.03z"/>
        <path id="path5015" filter="url(#filter5026)" transform="matrix(1.007 0 0 1.0127 -2.4675 -10.388)" fill="url(#radialGradient6254)" d="m433.91 679.06c-1 0.1-1.98 0.72-2.79 1.94-0.5 0.77-0.91 1.77-1.12 2.94 0.73-0.65 1.54-0.92 2.34-0.88 1.57 0.08 3.85 1.55 5.57 6.44 4.27 12.16 9.63 21.73 15.68 29.34 0.33 0.31 0.64 0.61 0.91 0.88 1.24 1.24 2.22 2.5 3.03 3.75l0.06 0.06c4.47 4.76 9.26 8.59 14.25 11.72 0.37-0.03 0.73-0.07 1.1-0.06 3.45 0.03 6.87 1.36 10.44 2.56 3.2 1.08 6.49 1.96 9.81 2.16-6.38-2.05-12.72-4.59-18.75-8.29-13.88-8.51-26.21-22.46-34.53-46.12-1.72-4.89-4-6.36-5.57-6.44-0.14 0-0.29-0.01-0.43 0zm61.84 61.75c0.34 0.48 0.42 1.08 0.22 1.63s-0.66 0.97-1.22 1.12c-5.95 1.6-11.06-0.32-15.06-1.59-2-0.64-3.76-1.1-5.16-1.09-1.4 0-2.44 0.32-3.69 1.56-2.22 2.22-3.48 4.57-4.46 7.06 0.67-1.04 1.47-2.07 2.46-3.06 1.25-1.24 2.29-1.56 3.69-1.56 1.4-0.01 3.16 0.45 5.16 1.09 4 1.27 9.11 3.19 15.06 1.59 0.56-0.15 1.02-0.57 1.22-1.12s0.12-1.15-0.22-1.63c7.47 2.2 14.97 3.64 22.25 4.88 35.44 6.03 60.02 6.75 88.69 6.75 0.47 0 0.67 0.09 1 0.47 0.33 0.37 0.7 1.1 0.93 2.09 0.48 1.98 0.44 4.91-0.06 7.81-0.26 1.54-0.67 3.06-1.15 4.44 0.17-0.23 0.36-0.47 0.53-0.75 1.16-1.9 2.13-4.79 2.62-7.69 0.5-2.9 0.54-5.83 0.06-7.81-0.23-0.99-0.6-1.72-0.93-2.09-0.33-0.38-0.53-0.47-1-0.47-28.67 0-53.25-0.72-88.69-6.75-7.28-1.24-14.78-2.68-22.25-4.88zm-39.16 1.19c-4.4 7.62-7.9 13.44-11.37 18.41 0.19 0.05 0.37 0.11 0.53 0.21 2.68-4.12 5.51-8.84 8.84-14.62 0.76-1.3 1.44-2.64 2-4zm5.1 2.56c-0.15 0.24-0.3 0.47-0.44 0.72-2.38 4.12-3.23 8.82-4.72 13.31-0.3 0.91-0.64 1.81-1 2.69 1.32-2.13 2.24-4.37 3-6.69 1.1-3.33 1.87-6.78 3.16-10.03zm-0.1 16.75c-1.85 3.03-4.6 5.99-9.06 8.57-0.77 0.38-1.7 0.15-2.22-0.54-0.55 0.56-1.12 1.1-1.78 1.63-0.65 0.6-0.75 1.58-0.25 2.31s1.46 0.99 2.25 0.6c6.43-3.71 9.29-8.21 11.06-12.57zm-19.47 3.41c-4.02 4.99-8.25 8.69-13.87 11.59-17.71 9.16-31.7 12.21-42.72 16.22 2.16 0.4 4.31 0.8 6.47 1.19 9.49-3.01 20.78-6.44 34.25-13.41 5.62-2.9 9.85-6.6 13.87-11.59-1.08 3.5-1.78 7.4-1.03 11.59 0.99 5.52 4.28 11.18 11.16 15.78 0.26 0.18 0.55 0.26 0.84 0.29 0.59-0.73 1.17-1.55 1.79-2.41-0.08-0.18-0.16-0.35-0.29-0.5-0.69-0.82-1.31-1.65-1.9-2.5-5.82-4.39-8.69-9.58-9.6-14.66-0.75-4.19-0.05-8.09 1.03-11.59zm-16.81 27.87c-3.58 1.54-7.17 2.85-10.75 4.07 2.5 0.2 5 0.35 7.5 0.46 1.06-0.43 2.1-0.89 3.16-1.37 0.85-0.41 1.24-1.41 0.87-2.28-0.16-0.38-0.44-0.69-0.78-0.88zm-68.65 1.69c-0.59 0.02-1.07 0.07-1.44 0.13-0.34 0.05-0.28 0.06-0.44 0.12 0.2 0.28 0.46 0.75 1.16 1.35 0.89 0.75 1.98 1.45 2.37 1.65 0.76 0.39 1.53 0.78 2.31 1.16 0.76 0.09 1.49 0.18 2.35 0.31 5.08 0.78 10.38 1.59 15.78 2.38 0.05 0 0.17 0.03 0.37 0.06 5.83 0.83 11.77 1.64 17.94 2.25 0.04 0 0.03-0.01 0.06 0 0.17 0.01 0.23 0.03 0.22 0.03 1.22 0.12 2.47 0.26 3.75 0.37 0.12 0.01 0.23 0.01 0.35 0 7.99 0.67 16.2 1 24.53 0.75 0.98-0.01 1.77-0.82 1.75-1.81-0.02-0.98-0.83-1.77-1.81-1.75-4.26-0.02-8.49-0.26-12.72-0.59-3.28-0.15-6.54-0.33-9.75-0.6-0.12 0.01-0.23 0.01-0.35 0-1.28-0.11-2.53-0.25-3.75-0.37 0.01 0-0.05-0.02-0.22-0.03-0.03-0.01-0.02 0-0.06 0-6.17-0.61-12.11-1.42-17.94-2.25-0.2-0.03-0.32-0.06-0.37-0.06-5.4-0.79-10.7-1.6-15.78-2.38-3.84-0.59-6.56-0.77-8.31-0.72zm15.22 15.34c-5.92 1.04-11.91 2.94-14.16 4.47-0.44 0.31-0.58 0.46-0.69 0.6 0.23 0.17 1.21 0.78 3.22 1.37 2.74-0.94 6.19-1.83 9.63-2.44 7.25 2.19 14.87 3.74 22.5 4.69 6.4-0.49 12.77-1.49 18.9-2.87-13.02-0.09-26.75-2.01-39.4-5.82z"/>
      </g>
      <g id="g5056" transform="matrix(.97406 0 0 .97406 166.44 -226.3)">
        <g id="g5052" transform="translate(-500)" fill-rule="evenodd">
          <path id="path5045" fill="#afe" d="m670.17 556.16c8.62 18.34 56.19 40.06 54.83 12.7-1.26-25.36-13.6-67.09-29.12-88.72-14.06-19.58-35.97 54.19-25.71 76.02z"/>
          <path id="path5047" d="m694.44 476.53c-0.7 0.07-1.42 0.27-2.13 0.59 1.23 0.44 2.42 1.44 3.57 3.04 15.52 21.62 27.86 63.35 29.12 88.72 1.36 27.35-46.22 5.62-54.84-12.72-0.73-1.56-1.27-3.38-1.69-5.41 0.38 3.07 1.04 5.8 2.06 8 8.82 19.03 59.61 41.53 58.88 13.16-0.68-26.31-12.89-69.58-29.07-92-1.83-2.54-3.82-3.57-5.9-3.38z"/>
        </g>
      </g>
      <g id="g5061" transform="matrix(-.94087 -.65594 -.25211 .83267 613.78 -11.01)">
        <g id="g5063" transform="translate(-500)" fill-rule="evenodd">
          <path id="path5065" fill="#afe" d="m670.17 556.16c8.62 18.34 56.19 40.06 54.83 12.7-1.26-25.36-13.6-67.09-29.12-88.72-14.06-19.58-35.97 54.19-25.71 76.02z"/>
          <path id="path5067" d="m694.44 476.53c-0.7 0.07-1.42 0.27-2.13 0.59 1.23 0.44 2.42 1.44 3.57 3.04 15.52 21.62 27.86 63.35 29.12 88.72 1.36 27.35-46.22 5.62-54.84-12.72-0.73-1.56-1.27-3.38-1.69-5.41 0.38 3.07 1.04 5.8 2.06 8 8.82 19.03 59.61 41.53 58.88 13.16-0.68-26.31-12.89-69.58-29.07-92-1.83-2.54-3.82-3.57-5.9-3.38z"/>
        </g>
      </g>
      <g id="g4891" transform="matrix(.97406 0 0 .97406 -242.67 -226.3)" fill-rule="evenodd">
        <path id="path4865" d="m615.72 488.81l-4.1 0.38c5.66 35.16 3.74 58.52-3.56 86.72l3.66 0.21c8.32-28.4 10.49-51.83 4-87.31zm-36.41 3.41l-31.47 2.94c0.49 25.02 1.1 51.18-2.4 77.09l33.81 1.97-29.94-1.97c3.1-25.91 2.56-52.07 2.13-77.09l27.87-2.94z"/>
        <path id="path4863" fill="#cf0" d="m551.45 495.16c0.43 25.03 0.98 51.17-2.12 77.08l58.68 3.89c7.37-28.41 9.29-51.86 3.54-87.33l-60.1 6.36z"/>
        <path id="path4877" filter="url(#filter4881)" transform="matrix(1.0162 0 0 1 -9.4522 0)" fill="url(#linearGradient6256)" d="m553.32 495.16c0.4 25.03 0.92 51.17-1.99 77.08l55.11 3.89c6.92-28.41 8.71-51.86 3.32-87.33l-56.44 6.36z"/>
        <path id="path4870" d="m582.09 511.56c-12.35 0.23-23.36 2.99-31.34 5.32l0.25 5.5c21.89-9.07 42.85-11.77 65.25-2.26l0.5-1.24c-11.8-5.74-23.75-7.52-34.66-7.32zm0 16c-12.35 0.23-23.36 2.99-31.34 5.32l0.25 5.5c21.89-9.07 42.85-11.77 65.25-2.26l0.5-1.24c-11.8-5.74-23.75-7.52-34.66-7.32zm0 14c-12.35 0.23-23.36 2.99-31.34 5.32l0.25 5.5c21.89-9.07 42.85-11.77 65.25-2.26l0.5-1.24c-11.8-5.74-23.75-7.52-34.66-7.32z"/>
        <path id="path4885" filter="url(#filter4881)" transform="matrix(1.0162 0 0 1 -9.4522 0)" fill="url(#radialGradient6258)" d="m553.32 495.16c0.4 25.03 0.92 51.17-1.99 77.08l55.11 3.89c6.92-28.41 8.71-51.86 3.32-87.33l-56.44 6.36z"/>
      </g>
      <g id="g4568" transform="matrix(.97406 0 0 .97406 -47.853 -226.3)">
        <path id="path4503" fill-rule="evenodd" d="m411.82 430.75c-0.36 0-0.69 0.01-1.01 0.03-1.72 0.12-3.06 0.54-3.06 0.54-1.55 0.55-2.52 2.16-2.31 3.84l7.13 59.46c0.22 1.78 1.71 3.11 3.45 3.1 4.74 0 11.65 4.33 18.88 11.05 7.24 6.72 14.83 15.48 22.08 22.99 1.27 1.31 3.04 1.96 4.62 2.05 1.59 0.09 3.04-0.25 4.43-0.81 2.79-1.11 5.4-3.07 7.69-5.36 2.28-2.28 4.22-4.87 5.37-7.71 0.57-1.42 0.97-2.94 0.91-4.59s-0.72-3.5-1.99-4.82c-9.92-10.27-19.51-16.93-26.01-24.94-8.67-10.68-11.18-13.59-19.24-35.69-3.06-8.36-7.12-13.38-11.24-16.14-3.6-2.41-7.15-3-9.7-3zm0.78 4.31c4.29 0.09 11.97 2.45 17.13 16.59 7.99 21.9 11 25.61 19.53 36.12 6.83 8.43 16.29 14.97 25.79 24.81 5 5.18-10.89 21.08-15.89 15.91-14.09-14.59-29.97-34.51-42.72-34.51l-7.03-58.51s1.24-0.45 3.19-0.41z"/>
        <path id="path4499" fill-rule="evenodd" fill="#72c838" d="m409.41 435.45s12.81-4.38 20.32 16.18c7.99 21.91 11 25.62 19.53 36.13 6.83 8.42 16.29 14.97 25.79 24.81 5 5.17-10.89 21.08-15.89 15.9-14.09-14.58-29.97-34.51-42.72-34.51l-7.03-58.51z"/>
        <g id="g4481" transform="translate(-280)">
          <path id="path4370" fill-rule="evenodd" fill="#71c837" d="m769.84 326.5c-3.79-0.04-6.68 1.66-6.68 4.59 0 6.34 13.5 18.46 18.34 36.53 1.8 6.72 2.75 16.03 2.75 22.63 0 6.5-3.72 11.37 1.47 14.56 3.97-4.31 10.76-5.21 22.28 1.44 7.06 4.08 12.82 10.14 26.88 12.75-10.11 0-15.66-2.98-22.35-6.84-11.38-6.58-18.09-9.72-24.15-3.66-7.94 7.94-2.62 21.74-5.5 41.38-4.2 28.58-13.4 42.3-18 99.87 0 0 0.37-8.35 1.06-19.09-0.87-0.94-3.8-5.02-8.69-9.91-3.5-3.5-13.98 9.58-11.5 13.87 4.46 7.73 8.42 10.91 14.25 21 4.19 7.26 10.05 27.03 33.56 21 5.09-1.3-10.86-5.78-14.44-9.62-4.61-4.97-1.38-3.22 0.38-6.62 18.05-34.85 2.63-81.53 9.25-111.26 6.48-29.06 36.14-17.88 55-12.74 53.18 14.47 65.04 12.84 80 2.24 6.92-4.9 8.31-8.42 7.75-11.59-7.13-7.89-32.32 10.99-78-0.59-0.31 2.56-1.1 4.94-2.34 6.94 0.4-3.63 0.06-8-1.22-12.72-2.23-8.17-6.65-15.3-11.38-19.25 4.27 1.38 8.41 4.69 11.35 9.53 16.68-1.59 40.24 0.22 58.09 4.94 9.15 2.41 17.14 7.45 21.22 3.9-7.48-28-76.23-17.78-108.47-21.66-16.99-2.04-28.4-11.65-29.5-30.74-0.7-12.21 0.09-19.23-6.37-31-3.78-6.88-10.16-9.82-15.04-9.88zm97.72 86.88c-4.96-0.01-10.26 0.26-16.03 0.68 1.29 2.96 1.98 6.01 2.09 8.94 15.37 7.01 40.31 4.85 62.88-0.38-18.23-6.48-31.77-9.23-48.94-9.24z"/>
          <path id="path4374" fill-rule="evenodd" d="m770.62 322.91c-0.43 0.02-0.86 0.07-1.28 0.12-2.02 0.26-3.98 0.94-5.59 2.28s-2.75 3.51-2.78 5.78c-0.03 2.86 1.17 5.13 2.59 7.63 1.43 2.5 3.23 5.19 5.16 8.19 3.86 6 8.12 13.23 10.28 21.65 1.59 6.22 2.45 15.44 2.38 21.69-0.04 2.78-1.1 5.51-1.38 8.91-0.14 1.69 0.02 3.74 1.12 5.59 0.44 0.72 1.08 1.3 1.72 1.87-0.02 0.03-0.03 0.04-0.06 0.07 0.39 0.28 0.64 0.68 0.81 1.15-2.82 5.43-3.31 13.34-3.21 19.91 0.26 18.91-7 45.64-10 60.5-2.01 9.94-3.44 27.25-4.35 41.03-1.55-2.23-5.61-9.62-7.03-11.06-1.14-1.15-2.87-1.7-4.28-1.63-1.42 0.07-2.55 0.55-3.6 1.13-2.08 1.15-3.86 2.84-5.46 4.78-1.61 1.94-3.01 4.09-3.91 6.34-0.9 2.26-1.59 4.86-0.06 7.57 4.61 8.15 8.47 11.23 14 21 1.71 3.03 4.33 10.39 9.87 16.18 5.54 5.8 14.6 9.77 27.38 6.5 0.55-0.14 1.15-0.3 1.84-0.75 0.69-0.44 1.63-1.4 1.88-2.75 0.24-1.34-0.28-2.45-0.69-3.06s-0.81-0.92-1.19-1.22c-1.49-1.19-3.13-1.91-5.06-2.81s-4.04-1.84-5.81-2.75c-1.78-0.91-3.25-1.95-3.47-2.19-0.38-0.41-0.32-0.39-0.56-0.68 0.52-0.55 1.07-0.99 1.53-1.85 9.73-18.37 10.54-39.43 10-59.34-0.55-19.92-2.39-38.89 0.87-52.78 1.56-6.66 4.22-10.49 7.47-12.88s7.35-3.44 12.16-3.53c9.61-0.18 21.48 3.73 31.06 6.34 26.6 7.27 43 10.58 55.12 10.66 12.13 0.08 20.01-3.43 27.85-8.94 5.51-3.87 8.47-7.38 9.31-11.25 0.78-3.6-0.56-6.54-1.72-8.81-1.18-8.85-7.39-15.05-15.59-18.72-8.43-3.76-19.12-5.45-30.63-6.31-23.02-1.72-49.54 0.01-65.47-1.91-7.91-0.95-14.15-3.6-18.53-7.97-4.37-4.36-7.06-10.56-7.47-19.43-0.55-11.98 0.23-20.09-6.43-32.5-4.18-7.77-11.26-11.52-17.47-11.75-0.45-0.02-0.88-0.03-1.32 0zm-0.78 3.59c4.88 0.06 11.26 3 15.04 9.88 6.46 11.77 5.67 18.79 6.37 31 1.1 19.09 12.51 28.7 29.5 30.74 33.28 4 105.47-7.01 109 24.5 2.37 4.5 4.23 8.76-6 16-14.96 10.6-26.82 12.23-80-2.24-18.86-5.14-48.52-16.32-55 12.74-6.62 29.73 8.8 76.41-9.25 111.26-1.76 3.4-4.99 1.65-0.38 6.62 3.58 3.84 19.53 8.32 14.44 9.62-23.51 6.03-29.37-13.74-33.56-21-5.83-10.09-9.79-13.27-14.25-21-2.48-4.29 8-17.37 11.5-13.87 4.61 4.61 7.6 8.64 8.69 9.91-0.69 10.74-1.06 19.09-1.06 19.09 4.6-57.57 13.8-71.29 18-99.87 2.88-19.64-2.44-33.44 5.5-41.38 6.06-6.06 12.77-2.92 24.15 3.66 6.69 3.86 12.24 6.84 22.35 6.84-14.06-2.61-19.82-8.67-26.88-12.75-11.52-6.65-18.31-5.75-22.28-1.44-5.19-3.19-1.47-8.06-1.47-14.56 0-6.6-0.95-15.91-2.75-22.63-4.84-18.07-18.34-30.19-18.34-36.53 0-2.93 2.89-4.63 6.68-4.59z"/>
          <path id="path4402" d="m769.84 327.09c-1.69-0.02-3.13 0.35-4.03 0.94-0.9 0.6-1.31 1.29-1.31 2.31 0 1.12 0.7 2.92 2 5.16s3.12 4.94 5.12 8c4.01 6.12 8.68 13.79 11.16 23.06 1.85 6.91 2.81 16.27 2.81 23 0 3.51-0.96 6.47-1.21 8.69-0.13 1.11-0.12 1.97 0.15 2.69 0.19 0.51 0.58 0.99 1.13 1.47 1.01-0.91 2.21-1.61 3.53-2.13 0-0.35 0.01-0.71 0.06-1.12 0.23-2.07 1.09-4.86 1.09-8.13 0-6.27-0.88-14.97-2.56-21.41-2.26-8.63-6.51-15.79-10.16-21.5-1.82-2.85-3.47-5.34-4.65-7.43s-1.81-3.78-1.81-4.81c0-0.96 0.36-1.61 1.18-2.16 0.83-0.55 2.12-0.89 3.66-0.88 2.13 0.03 4.68 0.78 7.09 2.38-3.59-5.7-9.14-8.08-13.25-8.13zm41 69.47c3.4 1.55 7.21 2.56 11.35 3.06 4.37 0.54 9.58 0.73 15.06 0.85 0.06-0.3 0.23-0.59 0.47-0.78-6.25-0.13-12.17-0.34-17.13-0.94-3.46-0.42-6.73-1.13-9.75-2.19zm28.75 3.16c0.62 0.22 1.22 0.52 1.82 0.81 12.24 0.15 25.92-0.09 38.65 0.75 10.02 0.66 19.33 2.06 26.41 4.81 6.53 2.55 11 6.21 12.91 11.5 0.51 0.18 1.04 0.39 1.53 0.53 1.76 0.55 3.31 0.9 4.56 0.91 0.84 0.01 1.48-0.19 2.06-0.47-1.98-5.95-6.96-10.03-14.34-12.84-7.78-2.96-17.99-4.48-29-5.19-14.71-0.95-30.63-0.6-44.6-0.81zm-40.09 0.59c2.72 0.8 5.74 2.12 9.16 4.1 7.28 4.21 12.71 10.07 26.46 12.62 0.74 0.07 1.26 0.7 1.19 1.44 0 0.03 0.01 0.06 0 0.09 0.11-0.16 0.2-0.35 0.22-0.56 0.06-0.68-0.42-1.31-1.09-1.38-12.52-2.37-17.46-7.82-24.1-11.74-4.65-2.76-8.54-4.19-11.84-4.57zm37.84 1.03v0.1c0 0.37 0.16 0.73 0.44 0.97 4.04 3.46 8 9.91 9.97 17.31 1.13 4.27 1.41 8.21 1.06 11.4-0.04 0.57 0.29 1.1 0.81 1.29 0.08 0.02 0.15 0.02 0.22 0.03 0.37-3.41 0.05-7.57-1.18-12.1-2.16-7.93-6.5-14.88-10.94-18.59-0.15-0.12-0.29-0.24-0.38-0.41zm-41.68 4.57c-2.34-0.05-4.27 0.79-6.35 2.87-3.59 3.6-4.22 8.55-4.25 15.38-0.02 6.82 0.59 15.29-0.87 25.28-3.4 23.15-9.97 36.5-14.81 70.62 0.77 0.96 1.42 1.81 1.84 2.32-0.6 9.65-0.94 17.34-0.94 17.34-0.01 0.67 0.48 1.24 1.13 1.28s1.21-0.46 1.28-1.12c3.19-40.86 8.81-57.9 13-75.6 0.15-5.69 0.64-11.08 1.75-16.06 0.56-2.55 1.31-4.8 2.22-6.81 0.53-6.98 0.2-13.05 0.22-18.13 0.02-6.35 0.57-10.99 3.84-14.34 1.57-1.61 3.05-2.42 4.72-2.63-0.09-0.02-0.19-0.04-0.28-0.06-0.89-0.2-1.72-0.33-2.5-0.34zm79.37 8.37c9.78 0.85 18.87 3 29.53 6.63-18.13 3.83-37.18 5.16-49.72 0.34 0.01 0.03 0 0.06 0 0.09 13.72 5.94 35.54 4.56 56.25 0.28-13.02-4.32-23.89-6.66-36.06-7.34zm50.56 11.44c-0.81 0.01-1.73 0.07-2.71 0.19-0.3 0.03-0.64 0.11-0.94 0.15 0.1 1.06-0.03 2.11-0.82 3.44-0.9 1.54-2.68 3.4-5.74 5.62-6.71 4.88-12.43 7.58-22.66 7.5-10.23-0.07-24.96-3-49.13-9.74-8.52-2.38-19.63-6.26-29.59-6.07-3.67 0.07-7.18 0.71-10.34 2.22 2.52-0.72 5.2-1.04 7.93-1.09 10.95-0.21 23.14 3.95 32.5 6.5 26.56 7.23 42.76 10.42 54 10.5 11.25 0.07 17.51-2.81 24.88-8.03 3.37-2.39 5.31-4.41 6.31-6.07 0.89-1.47 1.04-2.64 0.91-3.81-0.63-0.57-1.36-0.96-2.44-1.15-0.63-0.12-1.34-0.17-2.16-0.16zm-155.09 143.97c4.48 4.64 10.89 7.66 21.44 5.34-0.8-0.46-1.57-0.94-2.91-1.56-1.88-0.88-4.06-1.84-6.03-2.85-1.97-1-3.7-1.98-4.84-3.21-1.18-1.28-1.91-2.13-2.35-2.94-0.22-0.41-0.39-0.82-0.4-1.31-0.02-0.5 0.19-1.02 0.43-1.35 0.49-0.66 0.98-0.86 1.38-1.19 0.21-0.17 0.4-0.35 0.59-0.59-0.41-0.37-0.8-0.78-1.19-1.19-4.25-4.51-6.5-10.59-8.53-14.18-0.46-0.82-0.87-1.53-1.31-2.25-0.21 2.26-0.4 4.49-0.59 6.9 2.47 4.35 1.45 15.35 4.31 20.38zm11.31-18.57c-0.11 0.11-0.23 0.23-0.34 0.38-0.22 0.31-0.42 0.79-0.41 1.25 0 0.1 0.05 0.19 0.06 0.28 0.25-0.63 0.46-1.27 0.69-1.91z" fill-rule="evenodd" transform="matrix(1.0154 0 0 1.0028 -14.339 -1.637)" filter="url(#filter4449)" fill="url(#radialGradient6260)"/>
          <path id="path4390" d="m838.56 401.41c4.73 3.95 9.15 11.08 11.38 19.25 1.28 4.72 1.62 9.09 1.22 12.72 1.24-2 2.03-4.38 2.34-6.94 47.16 11.95 72.47-8.56 78.62 1.44l-2.37-8.63c-3.88 4.54-12.19-0.85-21.75-3.37-17.85-4.72-41.41-6.53-58.09-4.94-2.94-4.84-7.08-8.15-11.35-9.53zm29 11.97c17.17 0.01 30.71 2.76 48.94 9.24-22.57 5.23-47.51 7.39-62.88 0.38-0.11-2.93-0.8-5.98-2.09-8.94 5.77-0.42 11.07-0.69 16.03-0.68z"/>
          <path id="path4457" filter="url(#filter4463)" fill-rule="evenodd" fill="url(#radialGradient6262)" d="m778.91 332.93c0.81 0.93 1.56 2 2.22 3.18 6.35 11.43 5.48 17.89 6.19 30.16 0.57 9.83 3.89 17.44 9.38 22.78 0.73 0.72 1.47 1.4 2.28 2.03-4.68-5.26-7.48-12.45-8-21.5-0.71-12.29 0.14-18.76-6.16-30.22-1.59-2.89-3.7-4.99-5.91-6.43zm12.94 65.46c-2.05-0.03-3.86 0.36-5.47 1.07-0.11 0.56-0.19 1.08-0.25 1.56-0.12 1.08-0.08 1.89 0.16 2.53 0.14 0.38 0.41 0.76 0.78 1.13 2.18-1.83 4.98-2.97 8.41-2.91 4.05 0.08 8.87 1.66 14.78 5.06 6.87 3.96 11.98 9.26 23.81 12 0.32-0.27 0.55-0.65 0.59-1.09 0.08-0.85-0.5-1.63-1.34-1.81-13.79-2.53-19.15-8.28-26.56-12.5-5.96-3.4-10.82-4.96-14.91-5.04zm45.28 4.38c0.45 0.45 0.9 0.93 1.35 1.44-0.2-0.44-0.24-0.95-0.03-1.41-0.45-0.01-0.88-0.02-1.32-0.03zm5.69 0.09c1.78 0.85 3.46 2 5.03 3.41-0.98-1.26-2.06-2.41-3.19-3.41-0.6 0-1.24 0.01-1.84 0zm-3.72 2.1c3.1 3.8 5.89 8.98 7.47 14.72 1.25 4.52 1.54 8.67 1.16 12.03-0.11 0.79 0.36 1.55 1.12 1.81s1.61-0.04 2.03-0.72c0.06-0.09 0.1-0.19 0.16-0.28 0.02-2.81-0.39-6.01-1.31-9.41-2.11-7.71-6.34-14.47-10.63-18.15zm20.03 2.4c-3.39 0.05-6.65 0.22-9.72 0.47 0.97 1.04 1.89 2.19 2.72 3.44 16.89-1.46 39.94 0.31 57.72 5 4.74 1.25 9.06 3.12 12.56 4.19 1.76 0.53 3.28 0.86 4.47 0.87 0.65 0.01 1.18-0.09 1.63-0.25-0.79-2.23-2.02-4.18-3.66-5.9 0.44 0.78 0.82 1.6 1.13 2.46-0.46 0.16-0.98 0.26-1.63 0.25-1.2 0-2.73-0.34-4.5-0.87-3.53-1.07-7.91-2.91-12.69-4.16-14.56-3.8-32.63-5.7-48.03-5.5zm-2.9 13.97c0.15 0.81 0.27 1.63 0.34 2.44 13.29 5.64 34.32 4.45 54.5 0.44-2.83-0.92-5.54-1.71-8.22-2.44-17.23 2.92-34.49 3.56-46.62-0.44zm-46.72 5.44c-5.57 0.1-10.9 1.32-15.28 4.53-3.01 2.21-5.53 5.33-7.35 9.5 0 0.01 0.01 0.02 0 0.03-0.09 3.51-0.31 7.25-0.9 11.25-0.83 5.61-1.84 10.62-2.97 15.5 0.01 10.56 0.98 21.97 1.44 33.56 0.77 19.58 0.08 39.57-8.79 56.47-0.32 0.61-0.65 0.94-1.03 1.25s-0.87 0.5-1.43 1.25c-0.29 0.38-0.52 0.99-0.5 1.57 0.01 0.57 0.19 1.03 0.43 1.46 0.48 0.87 1.21 1.73 2.41 3 0.51 0.55 1.16 1.02 1.84 1.47-0.17-0.24-0.34-0.48-0.47-0.72-0.23-0.43-0.42-0.92-0.43-1.5-0.02-0.57 0.22-1.18 0.5-1.56 0.56-0.75 1.03-0.94 1.4-1.25 0.38-0.31 0.72-0.64 1.03-1.25 8.8-16.94 9.49-36.94 8.72-56.56s-3.04-38.78 0.38-54.06c1.68-7.54 4.96-12.72 9.31-15.94s9.64-4.43 15.16-4.53c11.04-0.21 23.28 3.96 32.62 6.5 26.54 7.21 42.73 10.36 53.91 10.44 11.18 0.07 17.35-2.75 24.69-7.94 3.34-2.37 5.22-4.35 6.18-5.94 0.83-1.36 0.98-2.39 0.88-3.44-0.55-0.46-1.19-0.79-2.16-0.97-0.21-0.03-0.45-0.07-0.69-0.09-0.13 0.34-0.3 0.69-0.53 1.06-0.97 1.59-2.87 3.55-6.25 5.91-7.4 5.18-13.6 8.01-24.87 7.94-9.53-0.07-22.77-2.36-42.78-7.41-0.43 0.66-1.23 0.95-1.97 0.69-0.65-0.23-1.08-0.81-1.13-1.47-2.72-0.7-5.52-1.45-8.5-2.25-9.42-2.53-21.74-6.7-32.87-6.5zm-52.38 96.87c-0.03 0.01-0.11 0.03-0.15 0.04 0.89 0.98 1.69 1.91 2.37 2.71 1.21 1.44 1.82 2.28 2.41 2.97-0.66 10.19-1.03 18.38-1.03 18.38-0.01 0.9 0.71 1.67 1.62 1.72s1.69-0.64 1.78-1.53c0.44-5.41 0.93-10.3 1.44-14.97-0.57-0.68-1.18-1.51-2.34-2.91-1.43-1.72-3.36-3.92-5.75-6.31-0.11-0.1-0.11-0.11-0.35-0.1zm13.57 46.35c0.46 0.57 0.95 1.12 1.46 1.65 4.26 4.39 10.31 7.24 20.07 5.41-0.7-0.36-1.04-0.61-1.94-1.03-1.51-0.7-3.2-1.48-4.84-2.28-6.51 0.59-11.19-1.04-14.75-3.75z"/>
        </g>
        <path id="path4496" fill-rule="evenodd" d="m475.28 510.72c-0.77-0.03-1.67 0.07-2.54 0.41-3.18 1.25-6.4 3.89-9.34 6.89s-5.49 6.27-6.65 9.33c-1.27 3.34 0 6.56 2.22 8.05 1.11 0.75 2.42 1.14 3.79 1.04 1.37-0.11 2.85-0.88 3.65-2.21 0.99-1.65 3.68-5.03 6.33-7.88 1.32-1.42 2.66-2.73 3.75-3.68 1.1-0.96 2.25-1.48 1.86-1.38 1.49-0.38 2.64-1.78 2.94-3 0.29-1.22 0.09-2.31-0.33-3.34-0.82-2.04-2.74-4.1-5.68-4.23z"/>
        <path id="path4492" fill-rule="evenodd" fill="#72c838" d="m464.65 533.77c-1.47 2.55-6.98 0.15-5.07-5.07 1.84-5.06 9.56-13.28 14.54-15.32 4.12-1.68 6.88 4.94 4.01 5.71-2.7 0.73-11.08 10.52-13.48 14.68z"/>
        <path id="path4513" filter="url(#filter4521)" fill-rule="evenodd" fill="url(#radialGradient6264)" d="m475.56 513.75c-0.39-0.02-0.76 0.05-1.18 0.22-2.32 0.95-5.51 3.47-8.26 6.37-2.74 2.9-5.1 6.2-5.96 8.57-0.88 2.39-0.05 3.93 1.06 4.71 0.55 0.4 1.19 0.57 1.72 0.54 0.52-0.04 0.89-0.24 1.15-0.69 1.26-2.17 3.97-5.67 6.72-8.75 1.38-1.54 2.74-2.99 3.97-4.1 1.23-1.1 2.24-1.9 3.19-2.15 0.41-0.11 0.56-0.31 0.65-0.72 0.1-0.41 0.05-0.99-0.18-1.59-0.47-1.21-1.58-2.35-2.88-2.41z"/>
        <path id="path4525" filter="url(#filter4521)" fill-rule="evenodd" fill="url(#linearGradient6266)" d="m475.56 513.75c-0.39-0.02-0.76 0.05-1.18 0.22-2.32 0.95-5.51 3.47-8.26 6.37-2.74 2.9-5.1 6.2-5.96 8.57-0.88 2.39-0.05 3.93 1.06 4.71 0.55 0.4 1.19 0.57 1.72 0.54 0.52-0.04 0.89-0.24 1.15-0.69 1.26-2.17 3.97-5.67 6.72-8.75 1.38-1.54 2.74-2.99 3.97-4.1 1.23-1.1 2.24-1.9 3.19-2.15 0.41-0.11 0.56-0.31 0.65-0.72 0.1-0.41 0.05-0.99-0.18-1.59-0.47-1.21-1.58-2.35-2.88-2.41z"/>
        <path id="path4535" filter="url(#filter4550)" fill-rule="evenodd" fill="url(#radialGradient6268)" d="m411.62 436.53c-0.41 0.03-0.35 0.08-0.62 0.13l6.75 56.09c6.72 0.59 13.57 5.48 20.53 11.94 7.41 6.88 14.9 15.53 21.91 22.78 0.36 0.37 0.76 0.53 1.37 0.56 0.61 0.04 1.43-0.13 2.35-0.5 1.84-0.73 4.06-2.28 5.93-4.15 1.88-1.88 3.43-4.1 4.19-5.97 0.38-0.94 0.56-1.77 0.53-2.41-0.02-0.64-0.17-1.06-0.53-1.44-9.39-9.72-18.89-16.26-25.91-24.9-8.52-10.52-11.76-14.57-19.78-36.54-2.73-7.49-6.11-11.4-9.15-13.43-3.05-2.04-5.83-2.28-7.57-2.16z"/>
        <path id="path4556" filter="url(#filter4550)" fill-rule="evenodd" fill="url(#radialGradient6270)" d="m411.62 436.53c-0.41 0.03-0.35 0.08-0.62 0.13l6.75 56.09c6.72 0.59 13.57 5.48 20.53 11.94 7.41 6.88 14.9 15.53 21.91 22.78 0.36 0.37 0.76 0.53 1.37 0.56 0.61 0.04 1.43-0.13 2.35-0.5 1.84-0.73 4.06-2.28 5.93-4.15 1.88-1.88 3.43-4.1 4.19-5.97 0.38-0.94 0.56-1.77 0.53-2.41-0.02-0.64-0.17-1.06-0.53-1.44-9.39-9.72-18.89-16.26-25.91-24.9-8.52-10.52-11.76-14.57-19.78-36.54-2.73-7.49-6.11-11.4-9.15-13.43-3.05-2.04-5.83-2.28-7.57-2.16z"/>
      </g>
      <g id="g4715" transform="matrix(.97406 0 0 .97406 -28.372 -226.3)">
        <g id="g4693" transform="translate(-300)" fill-rule="evenodd">
          <g id="g4670">
            <path id="path4600" d="m687.97 438.31c-2.91 0.01-6.28 0.97-9 2.44-1.36 0.73-2.57 1.61-3.47 2.59-0.9 0.99-1.5 2.12-1.53 3.35-0.25 11.06 0.26 25.2-0.03 38.09-0.19 8.55 6.28 13.92 9.22 17.31 2.38 2.75 7.76 8.96 13.5 12.41 2.86 1.73 5.87 2.79 8.68 2.25 2.82-0.54 5.25-2.78 6.85-7.13 2.75-7.49 3.46-19.61 0.75-32.56-2.72-12.94-8.88-26.69-20.06-37.22-1.2-1.12-2.97-1.53-4.91-1.53zm-0.66 0.78c1.61 0 2.99 0.4 3.88 1.29 19.88 19.88 22.64 52.01 18.22 65.93-5.1 16.04-20.27-2.19-24.57-7.43-2.73-3.35-8.31-8.3-8.31-16.1 0-12.36-0.72-25.86-0.72-36.4 0-3.76 6.68-7.27 11.5-7.29z"/>
            <path id="path4596" fill="#71c837" d="m687.31 439.09c-4.82 0.02-11.5 3.53-11.5 7.29 0 10.54 0.72 24.04 0.72 36.4 0 7.8 5.58 12.75 8.31 16.1 3.82 4.65 16.21 19.54 22.5 11.56-6.88 0.59-15.95-9.26-19.18-12.82-1.78-1.96-4.68-4.47-6.66-7.93 1.76 1.96 3.67 3.52 5 4.84 3.85 3.82 15.33 15.02 22.94 11.72 4.39-13.95 1.6-46.02-18.25-65.87-0.89-0.89-2.27-1.29-3.88-1.29z"/>
            <path id="path4605" d="m681.5 489.69c1.98 3.46 4.88 5.97 6.66 7.93 3.7 4.08 15.08 16.42 22.05 11.83l0.31-3.77c-7.55 5.01-19.99-7.14-24.02-11.15-1.33-1.32-3.24-2.88-5-4.84z"/>
            <path id="path4630" filter="url(#filter4646)" transform="translate(0 1.0607)" fill="url(#radialGradient6272)" d="m687.31 440.09c-2.17 0.01-4.94 0.84-7.06 2.1s-3.44 2.89-3.44 4.19c0 10.49 0.72 24 0.72 36.4 0 7.33 5.21 11.99 8.06 15.47 1.9 2.32 5.94 7.14 10.16 10.34 2.11 1.6 4.28 2.8 6.13 3.1 1.08 0.18 2.01-0.02 2.9-0.47-3.1-0.62-6.22-2.62-9.03-4.88-3.61-2.89-6.69-6.27-8.31-8.06-1.71-1.88-4.7-4.45-6.78-8.09-0.22-0.43-0.09-0.95 0.29-1.24 0.39-0.28 0.92-0.25 1.27 0.08 1.7 1.89 3.58 3.44 4.97 4.81 1.91 1.91 5.71 5.62 9.9 8.41 4.04 2.68 8.31 4.32 11.53 3.19 1.99-6.77 2.36-17.9-0.18-29.72-2.6-12.1-8.18-24.9-17.94-34.66-0.63-0.63-1.75-0.97-3.19-0.97z"/>
            <path id="path4658" filter="url(#filter4666)" transform="translate(0 1.0607)" fill="url(#radialGradient6274)" d="m687.31 440.09c-2.17 0.01-4.94 0.84-7.06 2.1s-3.44 2.89-3.44 4.19c0 10.49 0.72 24 0.72 36.4 0 7.33 5.21 11.99 8.06 15.47 1.9 2.32 5.94 7.14 10.16 10.34 2.11 1.6 4.28 2.8 6.13 3.1 1.08 0.18 2.01-0.02 2.9-0.47-3.1-0.62-6.22-2.62-9.03-4.88-3.61-2.89-6.69-6.27-8.31-8.06-1.71-1.88-4.7-4.45-6.78-8.09-0.22-0.43-0.09-0.95 0.29-1.24 0.39-0.28 0.92-0.25 1.27 0.08 1.7 1.89 3.58 3.44 4.97 4.81 1.91 1.91 5.71 5.62 9.9 8.41 4.04 2.68 8.31 4.32 11.53 3.19 1.99-6.77 2.36-17.9-0.18-29.72-2.6-12.1-8.18-24.9-17.94-34.66-0.63-0.63-1.75-0.97-3.19-0.97z"/>
          </g>
          <g id="g4677" transform="matrix(-1.6317 0 0 1.27 1777.1 -130.7)">
            <path id="path4679" d="m687.97 438.31c-2.91 0.01-6.28 0.97-9 2.44-1.36 0.73-2.57 1.61-3.47 2.59-0.9 0.99-1.5 2.12-1.53 3.35-0.25 11.06 0.26 25.2-0.03 38.09-0.19 8.55 6.28 13.92 9.22 17.31 2.38 2.75 7.76 8.96 13.5 12.41 2.86 1.73 5.87 2.79 8.68 2.25 2.82-0.54 5.25-2.78 6.85-7.13 2.75-7.49 3.46-19.61 0.75-32.56-2.72-12.94-8.88-26.69-20.06-37.22-1.2-1.12-2.97-1.53-4.91-1.53zm-0.66 0.78c1.61 0 2.99 0.4 3.88 1.29 19.88 19.88 22.64 52.01 18.22 65.93-5.1 16.04-20.27-2.19-24.57-7.43-2.73-3.35-8.31-8.3-8.31-16.1 0-12.36-0.72-25.86-0.72-36.4 0-3.76 6.68-7.27 11.5-7.29z"/>
            <path id="path4681" fill="#71c837" d="m687.31 439.09c-4.82 0.02-11.5 3.53-11.5 7.29 0 10.54 0.72 24.04 0.72 36.4 0 7.8 5.58 12.75 8.31 16.1 3.82 4.65 16.21 19.54 22.5 11.56-6.88 0.59-15.95-9.26-19.18-12.82-1.78-1.96-4.68-4.47-6.66-7.93 1.76 1.96 3.67 3.52 5 4.84 3.85 3.82 15.33 15.02 22.94 11.72 4.39-13.95 1.6-46.02-18.25-65.87-0.89-0.89-2.27-1.29-3.88-1.29z"/>
            <path id="path4683" d="m681.5 489.69c1.98 3.46 4.88 5.97 6.66 7.93 3.7 4.08 15.08 16.42 22.05 11.83l0.31-3.77c-7.55 5.01-19.99-7.14-24.02-11.15-1.33-1.32-3.24-2.88-5-4.84z"/>
            <path id="path4685" filter="url(#filter4646)" transform="translate(0 1.0607)" fill="url(#radialGradient6272)" d="m687.31 440.09c-2.17 0.01-4.94 0.84-7.06 2.1s-3.44 2.89-3.44 4.19c0 10.49 0.72 24 0.72 36.4 0 7.33 5.21 11.99 8.06 15.47 1.9 2.32 5.94 7.14 10.16 10.34 2.11 1.6 4.28 2.8 6.13 3.1 1.08 0.18 2.01-0.02 2.9-0.47-3.1-0.62-6.22-2.62-9.03-4.88-3.61-2.89-6.69-6.27-8.31-8.06-1.71-1.88-4.7-4.45-6.78-8.09-0.22-0.43-0.09-0.95 0.29-1.24 0.39-0.28 0.92-0.25 1.27 0.08 1.7 1.89 3.58 3.44 4.97 4.81 1.91 1.91 5.71 5.62 9.9 8.41 4.04 2.68 8.31 4.32 11.53 3.19 1.99-6.77 2.36-17.9-0.18-29.72-2.6-12.1-8.18-24.9-17.94-34.66-0.63-0.63-1.75-0.97-3.19-0.97z"/>
            <path id="path4687" filter="url(#filter4666)" transform="translate(0 1.0607)" fill="url(#radialGradient6274)" d="m687.31 440.09c-2.17 0.01-4.94 0.84-7.06 2.1s-3.44 2.89-3.44 4.19c0 10.49 0.72 24 0.72 36.4 0 7.33 5.21 11.99 8.06 15.47 1.9 2.32 5.94 7.14 10.16 10.34 2.11 1.6 4.28 2.8 6.13 3.1 1.08 0.18 2.01-0.02 2.9-0.47-3.1-0.62-6.22-2.62-9.03-4.88-3.61-2.89-6.69-6.27-8.31-8.06-1.71-1.88-4.7-4.45-6.78-8.09-0.22-0.43-0.09-0.95 0.29-1.24 0.39-0.28 0.92-0.25 1.27 0.08 1.7 1.89 3.58 3.44 4.97 4.81 1.91 1.91 5.71 5.62 9.9 8.41 4.04 2.68 8.31 4.32 11.53 3.19 1.99-6.77 2.36-17.9-0.18-29.72-2.6-12.1-8.18-24.9-17.94-34.66-0.63-0.63-1.75-0.97-3.19-0.97z"/>
          </g>
        </g>
      </g>
      <g id="g4730" transform="matrix(.97406 0 0 .97406 -28.372 -226.3)">
        <path id="path4127" fill-rule="evenodd" fill="#71c837" d="m368.94 294c-46.35 0-83.97 33.41-83.97 74.59 0 32 22.71 59.29 54.59 69.88-2.53-4.69-4.4-9.85-5.37-15.28-0.1-0.53-0.18-1.04-0.25-1.57 9.38 23.56 29.4 38.68 45.78 34.1 3.83-1.07 7.14-3.16 9.87-6-24.52 3.02-48.28-12.77-54.06-52.66l1.59-1.06c7.48 42.04 38.71 56.52 64.29 43.94 40.97-20.16 63.2-73.81 9.34-136.03-12.32-6.31-26.58-9.91-41.81-9.91zm44.47 11.34c1.58 1.58 3.13 3.15 4.59 4.72 0.69-0.22 1.37-0.43 2.06-0.62-2.13-1.46-4.36-2.82-6.65-4.1zm14.06 7.66c-2.06 0.01-4.13 0.24-6.16 0.72 36.8 41.84 33.1 81.64 12.31 108.44 23.02-14.23 35.35-41.01 19.54-76.54-0.19 0.54-0.39 1.07-0.6 1.6 1.71-19.28-8.99-34.28-25.09-34.22zm-1.56 117.78c-0.46 0.44-0.92 0.88-1.38 1.31 0.46-0.43 0.92-0.87 1.38-1.31z"/>
        <path id="path4353" d="m368.94 296.44c-45.18 0-81.53 32.47-81.53 72.15 0 28.95 19.42 53.83 47.43 65.32-1.32-3.3-2.42-6.71-3.06-10.29-0.1-0.56-0.2-1.12-0.28-1.65-0.22-1.25 0.56-2.46 1.79-2.79 1.22-0.32 2.5 0.34 2.93 1.54 4.53 11.39 11.64 20.7 19.44 26.53s16.14 8.13 23.4 6.09c0.8-0.22 1.48-0.65 2.22-0.96-9.88-0.53-19.41-4.07-27.37-11.07-10.26-9.02-17.87-23.53-20.82-43.9-0.12-0.94 0.31-1.86 1.1-2.38l1.59-1.06c0.69-0.45 1.55-0.53 2.3-0.21 0.76 0.32 1.3 1 1.45 1.8 3.64 20.49 12.98 33.94 24.22 40.82 11.24 6.87 24.46 7.32 36.56 1.37 19.87-9.77 35.1-27.6 38.91-50.47 3.79-22.76-3.68-50.79-29.97-81.34-11.89-6.02-25.62-9.5-40.31-9.5zm58.53 19c-0.48 0-0.96 0.12-1.44 0.15 29.08 35.11 30.64 69.27 17.59 95.22 5.41-5.57 9.63-12.07 11.97-19.65 3.57-11.57 3.04-25.48-3.47-41.54-1.24-0.22-2.11-1.36-2-2.62 0.81-9.14-1.33-17.13-5.4-22.72s-9.96-8.87-17.25-8.84z" fill-rule="evenodd" transform="matrix(1 0 0 .98879 0 7.2135)" filter="url(#filter4362)" fill="url(#radialGradient6280)"/>
        <path id="path3896" fill-rule="evenodd" d="m335.53 397.05l1.59-1.06c7.47 42.04 38.7 56.52 64.28 43.94 42.48-20.9 64.83-77.79 3.07-142.93 64.83 57.05 50 113 13.27 140.81-31.25 23.65-74.17 14.76-82.21-40.76z"/>
        <path id="path3903" fill-rule="evenodd" d="m454.34 341.03c-0.3 1.55-0.67 3.09-1.18 4.59 15.82 35.55 3.47 62.35-19.57 76.57-3.28 4.22-6.96 8.15-11 11.69 2.23-0.77 4.43-1.67 6.6-2.69 31.35-14.78 50.77-47.59 25.15-90.16z"/>
        <path id="path3905" d="m428.25 308.25c-0.48 0.01-0.95 0.03-1.44 0.06-1.61 0.1-3.26 0.34-4.93 0.69-1.32 0.28-2.61 0.64-3.88 1.06 1.14 1.22 2.21 2.44 3.28 3.66 0.01 0 0.03-0.01 0.03 0 2.03-0.48 4.1-0.71 6.16-0.72 16.1-0.06 26.8 14.94 25.09 34.22 1.68-4.3 2.55-8.81 2.44-13.38-0.38-15.34-11.88-25.83-26.75-25.59z"/>
        <g id="g3950" transform="matrix(-.99217 -.12487 -.12487 .99217 1051.1 70.176)" clip-path="url(#clipPath4055)">
          <path id="path3916" fill="#fff6d5" d="m550.65 365.27c-0.66 1.99-1.43 4-1.78 6.16-0.75 4.62-1.7 19.47 21.93 28.6l13.54 3.62c3.62-5.67 6.6-12.71 8.47-20.6 0.16-0.68 0.45-1.36 0.47-2.06 0.38-17.24-26.82-41.71-29.31-37.57-3.9 3.03 0.17-11.23-13.32 21.85z"/>
          <g id="g3918" transform="translate(91.639 3.105)">
            <path id="path3920" transform="translate(-25.37 2.2321)" fill="#786721" d="m503.57 359.73a7.5446 11.205 0 1 1 -15.09 0 7.5446 11.205 0 1 1 15.09 0z"/>
            <path id="path3922" transform="matrix(.51631 0 0 .51631 214.69 176.12)" d="m503.57 359.73a7.5446 11.205 0 1 1 -15.09 0 7.5446 11.205 0 1 1 15.09 0z"/>
            <path id="path3924" filter="url(#filter3348)" transform="matrix(.62175 0 0 .51631 163.31 174.22)" fill="url(#linearGradient6282)" d="m503.57 359.73a7.5446 11.205 0 1 1 -15.09 0 7.5446 11.205 0 1 1 15.09 0z"/>
            <path id="path3926" d="m470.3 345.45c-6.03 0-10.93 7.29-10.93 16.25 0 8.97 4.9 16.25 10.93 16.25 6.04 0 10.94-7.28 10.94-16.25 0-8.96-4.9-16.25-10.94-16.25zm0 5.03c4.17 0 7.53 5.04 7.53 11.22 0 6.19-3.36 11.19-7.53 11.19-4.16 0-7.53-5-7.53-11.19 0-6.18 3.37-11.22 7.53-11.22z" clip-path="url(#clipPath3608)" transform="matrix(.92727 0 0 .92727 34.206 26.307)" filter="url(#filter3603)" fill="#28220b"/>
          </g>
          <path id="path3996" d="m578.65 336.68c0.58 0.07 1.15 0.2 1.72 0.35 11.63 3.02 17.23 22.04 13.05 43.18-15.36-16.64-27.5-22.81-38.35-25.39 5.88-11 14.03-18.05 21.82-18.2 0.58-0.01 1.18 0 1.76 0.06z" fill="#aad400"/>
          <path id="path3934" d="m577.06 332.33c-12.03 0.23-27.15 15.21-29.87 36.85-2.43 19.29 11.73 26.9 25.92 32.69-7.24-5.63-14.29-10.86-18.74-16.84-4.69-6.29-6.52-13.43-2.71-22.75 7.11-17.47 18.29-27.97 28.71-25.26 12.15 3.16 17.72 23.78 12.44 46.03-1.87 7.9-4.88 14.93-8.5 20.6h0.03c0.12 0.03 0.23 0.08 0.35 0.12 4.1-6.1 7.49-13.83 9.56-22.56 5.53-23.43-0.51-45.15-13.5-48.47-1.22-0.31-2.44-0.43-3.69-0.41z"/>
          <path id="path3932" fill-rule="evenodd" d="m599.48 387.13c-19.09-20.96-35.7-32.22-63.87-32.16l3.5-2.22c16.45 1.16 33.73 2.45 60.37 34.38z"/>
          <path id="path4015" filter="url(#filter4061)" transform="matrix(1.0207 .0014208 .0014208 1.0096 -12.807 -4.4591)" fill="url(#linearGradient6284)" d="m579.23 337.77c0.53 0.06 1.05 0.17 1.58 0.31 10.64 2.76 15.79 20.05 11.98 39.28-14.08-15.15-25.2-20.77-35.12-23.12 5.36-10 12.83-16.41 19.95-16.53 0.54-0.01 1.08-0.01 1.61 0.06z"/>
        </g>
        <path id="path4067" d="m368.94 289.03c-49.67 0-89.97 35.27-89.97 78.69 0 35.29 26.62 65.17 63.25 75.12-0.95-1.4-1.84-2.86-2.66-4.37-31.88-10.59-54.59-37.88-54.59-69.88 0-41.18 37.62-74.59 83.97-74.59 19.24 0 36.96 5.76 51.12 15.44 0.6-0.16 1.21-0.31 1.82-0.44 1.67-0.35 3.32-0.59 4.93-0.69 0.34-0.02 0.67-0.02 1-0.03-15.78-11.97-36.35-19.25-58.87-19.25z"/>
        <path id="path4315" fill-rule="evenodd" fill="#71c837" d="m439.71 262.44c-4.47-3.02-10.47-3.15-14.33-0.05-1.73 1.4-2.78 3.23-3.13 5.22-46.66 8.27-55.22 42.53-57.72 57.5l29.28-4.54c-3.51-22.11 12.4-43.07 30.18-45.63 0.45 0.64 0.97 1.25 1.57 1.83 4.51 4.39 11.75 5.08 16.15 1.53 4.41-3.54 4.33-9.99-0.18-14.38-0.56-0.55-1.18-1.04-1.82-1.48z"/>
        <path id="path4076" fill-rule="evenodd" fill="#71c837" d="m364.34 245.97c-5.39 0.18-10.32 3.6-11.62 8.37-0.58 2.15-0.36 4.25 0.53 6.07-32.9 34.1-19.7 66.86-12.94 80.43l21.03-20.87c-15.83-15.83-15.26-42.14-2.37-54.66 0.73 0.26 1.52 0.45 2.34 0.57 6.23 0.89 12.49-2.8 13.97-8.26 1.48-5.45-2.36-10.63-8.59-11.53-0.78-0.11-1.58-0.15-2.35-0.12z"/>
        <path id="path4317" d="m441.8 258.87c-4.96-3.39-11.56-3.57-16.24 0.03-1.91 1.47-3.23 3.39-4 5.51-28.42 1.13-45.08 24.54-51.12 38.96l0.72 0.05c6.95-14.43 20.85-30.01 49.66-35.54-0.17 2.46 0.37 5.01 1.61 7.35-11.95 2.46-22.8 13.08-27.13 26.57 5.55-11.66 16.66-20.98 28.53-24.39 0.09 0.12 0.18 0.24 0.28 0.35 4.94 5.98 13.6 7.24 19.35 2.82 5.75-4.43 6.43-12.88 1.48-18.86-0.93-1.12-1.99-2.07-3.14-2.85zm-2.09 3.57c0.64 0.44 1.26 0.93 1.82 1.48 4.51 4.39 4.59 10.84 0.18 14.38-4.36 3.51-11.49 2.88-16.02-1.39-0.04-0.05-0.08-0.09-0.13-0.14-0.28-0.27-0.54-0.55-0.78-0.84-0.25-0.28-0.49-0.59-0.7-0.89-0.03-0.04-0.06-0.06-0.09-0.1-1.64-2.39-2.19-5.11-1.67-7.59 0.07-0.31 0.15-0.63 0.25-0.93 0.1-0.31 0.22-0.61 0.35-0.91 0.14-0.29 0.3-0.58 0.47-0.85 0.51-0.84 1.16-1.6 1.99-2.27 3.86-3.1 9.86-2.97 14.33 0.05z"/>
        <path id="path4099" d="m363.94 241.84c-6.01 0.18-11.46 3.91-13.13 9.57-0.68 2.31-0.62 4.64 0 6.81-27.13 21.38-20.9 59.19-15.9 69.25-5-16.31-6.36-40.73 17.34-66 1.31 2.08 3.25 3.83 5.63 5-8.23 9-10.77 23.98-6.35 37.44-2.37-12.7 1.15-26.77 8.75-36.5 0.15 0.04 0.29 0.08 0.44 0.12 7.51 1.93 15.26-2.13 17.31-9.09 2.06-6.97-2.36-14.19-9.87-16.13-1.41-0.36-2.84-0.51-4.22-0.47zm0.4 4.13c0.77-0.03 1.57 0.01 2.35 0.12 6.23 0.9 10.07 6.08 8.59 11.53-1.47 5.41-7.61 9.08-13.78 8.29-0.06-0.01-0.12-0.03-0.19-0.03-0.38-0.06-0.76-0.14-1.12-0.22-0.37-0.09-0.75-0.2-1.1-0.32-0.04-0.01-0.08-0.01-0.12-0.03-2.73-0.96-4.78-2.85-5.81-5.15-0.14-0.3-0.25-0.6-0.35-0.91s-0.19-0.62-0.25-0.94c-0.06-0.31-0.1-0.64-0.12-0.97-0.08-0.97 0-1.97 0.28-3 1.3-4.77 6.23-8.19 11.62-8.37z"/>
        <path id="path4319" d="m353.81 261.91c-0.48 0.49-0.94 0.98-1.4 1.47-0.23 0.24-0.47 0.47-0.69 0.71-0.76 0.83-1.52 1.62-2.22 2.44-0.62 0.73-1.2 1.47-1.78 2.19-0.61 0.75-1.19 1.53-1.75 2.28-0.53 0.7-1.05 1.39-1.53 2.09-0.03 0.04-0.04 0.09-0.06 0.13-0.37 0.52-0.72 1.04-1.07 1.56-0.19 0.29-0.38 0.59-0.56 0.88-0.24 0.37-0.46 0.75-0.69 1.12-0.34 0.57-0.67 1.15-1 1.72-0.12 0.21-0.29 0.42-0.4 0.62-0.15 0.26-0.27 0.53-0.41 0.79-0.39 0.72-0.77 1.46-1.13 2.18 0 0.01 0.01 0.03 0 0.03-0.18 0.39-0.35 0.74-0.53 1.13-0.22 0.47-0.42 0.97-0.62 1.44-0.12 0.27-0.26 0.54-0.38 0.81-0.23 0.56-0.44 1.13-0.65 1.69-0.18 0.46-0.34 0.91-0.5 1.37-0.26 0.73-0.5 1.47-0.72 2.19-0.16 0.51-0.3 1-0.44 1.5-0.08 0.28-0.14 0.56-0.22 0.84-0.08 0.31-0.17 0.61-0.25 0.91-0.15 0.61-0.31 1.21-0.43 1.81-0.09 0.4-0.15 0.77-0.22 1.16-0.31 1.64-0.51 3.31-0.66 4.91-0.03 0.36-0.07 0.72-0.09 1.09-0.04 0.51-0.08 1-0.1 1.5-0.03 0.79-0.06 1.6-0.06 2.37v0.72c0.01 0.52 0.04 1.03 0.06 1.53 0.01 0.17-0.01 0.34 0 0.5 0.02 0.33 0.04 0.65 0.07 0.97 0.07 1.23 0.19 2.45 0.34 3.63 0.01 0.1 0.02 0.21 0.03 0.31 0.06 0.49 0.14 0.96 0.22 1.44 0.18 1.15 0.39 2.27 0.62 3.37 0.24 1.1 0.53 2.15 0.82 3.19 0.26 0.99 0.51 1.97 0.81 2.91 0.01 0.05 0.05 0.1 0.06 0.15l14.99-22.47c-4.12-13.44-1.38-28.25 6.98-37.03-1.84-1.09-3.35-2.5-4.44-4.15z" fill-rule="evenodd" transform="matrix(.80927 .58744 -.58744 .80927 289.35 -150.64)" filter="url(#filter4272)" fill="url(#radialGradient6286)"/>
        <path id="path3702" filter="url(#filter4140)" transform="matrix(1.0803 .064222 -.21888 1.5689 -96.872 -221.03)" fill="url(#linearGradient6288)" d="m529.27 345.87a28.726 29.433 0 1 1 -57.45 0 28.726 29.433 0 1 1 57.45 0z"/>
        <path id="path4321" d="m364.31 246.83c-2.15 0.07-4.24 0.71-5.99 1.77-0.25 0.15-0.48 0.32-0.72 0.49-1.89 1.35-3.32 3.21-3.91 5.4-0.06 0.23-0.13 0.45-0.17 0.68v0.06c-0.04 0.21-0.07 0.44-0.09 0.65 0 0.02 0.01 0.04 0 0.06-0.01 0.23-0.02 0.43-0.02 0.66v0.06c0 0.18 0.01 0.38 0.02 0.57 0.03 0.29 0.06 0.59 0.12 0.88s0.14 0.58 0.23 0.86 0.19 0.56 0.31 0.83c0.95 2.1 2.82 3.83 5.31 4.71 0.04 0.01 0.08 0.01 0.12 0.03 0.32 0.11 0.66 0.2 1 0.28 0.33 0.08 0.68 0.15 1.02 0.2l0.18 0.03c0.12 0.02 0.24 0.02 0.37 0.03 0.17 0.02 0.34 0.05 0.51 0.06 0.06 0 0.12-0.01 0.17 0 0.65 0.02 1.31-0.01 1.94-0.09 0.7-0.08 1.37-0.21 2.03-0.4l0.12-0.03c0.29-0.09 0.59-0.2 0.88-0.31 0.03-0.01 0.06-0.02 0.09-0.03 0.28-0.11 0.55-0.24 0.82-0.37 0.03-0.01 0.06-0.02 0.09-0.03 0.27-0.14 0.54-0.3 0.8-0.46 0.29-0.17 0.59-0.35 0.86-0.54 0.01-0.01 0.04-0.02 0.05-0.03 0.25-0.18 0.49-0.37 0.72-0.57 0.01-0.01 0.04-0.01 0.05-0.03 0.24-0.2 0.45-0.44 0.66-0.65 0.23-0.24 0.45-0.47 0.66-0.72l0.03-0.03c0.19-0.24 0.37-0.48 0.54-0.74l0.03-0.03c0.17-0.25 0.31-0.53 0.45-0.8 0.01-0.01 0.03-0.01 0.03-0.03 0.3-0.56 0.52-1.15 0.69-1.77 1.35-4.98-2.16-9.71-7.85-10.53-0.72-0.11-1.44-0.14-2.15-0.12z" fill-rule="evenodd" transform="matrix(.80927 .58744 -.58744 .80927 289.35 -150.64)" filter="url(#filter4237)" fill="url(#linearGradient6290)"/>
        <path id="path3223" d="m345.84 353.19c-0.71 0-1.42 0.03-2.15 0.06-0.66 1.99-1.27 4.03-1.78 6.16 15.81 3.13 23.9 19.66 21.84 29.21l13.63 3c3.61-5.66 6.59-12.7 8.46-20.59 0.17-0.68 0.33-1.38 0.47-2.06 0-0.01 0.01-0.03 0-0.03-12.37-10.22-24.35-15.92-40.47-15.75z" fill="#fff6d5"/>
        <g id="g3612" transform="translate(-118,-3.5)">
          <path id="path3246" transform="translate(-25.37 2.2321)" fill="#786721" d="m503.57 359.73a7.5446 11.205 0 1 1 -15.09 0 7.5446 11.205 0 1 1 15.09 0z"/>
          <path id="path3248" transform="matrix(.51631 0 0 .51631 214.69 176.12)" d="m503.57 359.73a7.5446 11.205 0 1 1 -15.09 0 7.5446 11.205 0 1 1 15.09 0z"/>
          <path id="path3250" filter="url(#filter3348)" transform="matrix(.62175 0 0 .51631 163.31 174.22)" fill="url(#linearGradient6282)" d="m503.57 359.73a7.5446 11.205 0 1 1 -15.09 0 7.5446 11.205 0 1 1 15.09 0z"/>
          <path id="path3352" d="m470.3 345.45c-6.03 0-10.93 7.29-10.93 16.25 0 8.97 4.9 16.25 10.93 16.25 6.04 0 10.94-7.28 10.94-16.25 0-8.96-4.9-16.25-10.94-16.25zm0 5.03c4.17 0 7.53 5.04 7.53 11.22 0 6.19-3.36 11.19-7.53 11.19-4.16 0-7.53-5-7.53-11.19 0-6.18 3.37-11.22 7.53-11.22z" clip-path="url(#clipPath3608)" transform="matrix(.92727 0 0 .92727 34.206 26.307)" filter="url(#filter3603)" fill="#28220b"/>
        </g>
        <path id="path3630" filter="url(#filter3654)" fill="url(#linearGradient6294)" d="m344.81 354.69c-0.39 1.23-0.76 2.48-1.09 3.75 7.55 1.96 13.39 6.73 17.06 12.34 3.59 5.48 5.14 11.59 4.53 16.69l11.25 2.47c3.3-5.37 6.1-11.88 7.85-19.25 0.09-0.38 0.16-0.75 0.25-1.13-11.96-9.71-23.37-15.03-38.82-14.87-0.34 0-0.68-0.01-1.03 0z"/>
        <path id="path3219" fill-rule="evenodd" d="m318.57 363.79c30.78-16.09 48.08 11.33 45.18 24.82-5.53-18.29-21.13-29.49-45.18-24.82z"/>
        <path id="path3221" fill-rule="evenodd" d="m392.14 374.06c-17.96-16.5-33.6-24.3-60.18-19.47l3.31-2.67c15.52-1.7 31.81-3.41 56.87 22.14z"/>
        <path id="path3225" d="m370.09 320.31c-12.03 0.23-24.85 15.62-29.87 36.85-0.15 0.63-0.31 1.27-0.44 1.9 0.73 0.09 1.43 0.21 2.13 0.35 5.31-22.15 19.38-37.56 31.5-34.41 12.14 3.16 17.71 23.78 12.43 46.03-1.87 7.9-4.88 14.93-8.5 20.59h0.04c0.12 0.04 0.23 0.08 0.34 0.13 4.11-6.1 7.5-13.83 9.56-22.56 5.54-23.43-0.5-45.15-13.5-48.47-1.22-0.31-2.44-0.43-3.69-0.41z"/>
        <path id="path4323" d="m364.31 246.83c-2.15 0.07-4.24 0.71-5.99 1.77-0.25 0.15-0.48 0.32-0.72 0.49-1.89 1.35-3.32 3.21-3.91 5.4-0.06 0.23-0.13 0.45-0.17 0.68v0.06c-0.04 0.21-0.07 0.44-0.09 0.65 0 0.02 0.01 0.04 0 0.06-0.01 0.23-0.02 0.43-0.02 0.66v0.06c0 0.18 0.01 0.38 0.02 0.57 0.03 0.29 0.06 0.59 0.12 0.88s0.14 0.58 0.23 0.86 0.19 0.56 0.31 0.83c0.95 2.1 2.82 3.83 5.31 4.71 0.04 0.01 0.08 0.01 0.12 0.03 0.32 0.11 0.66 0.2 1 0.28 0.33 0.08 0.68 0.15 1.02 0.2l0.18 0.03c0.12 0.02 0.24 0.02 0.37 0.03 0.17 0.02 0.34 0.05 0.51 0.06 0.06 0 0.12-0.01 0.17 0 0.65 0.02 1.31-0.01 1.94-0.09 0.7-0.08 1.37-0.21 2.03-0.4l0.12-0.03c0.29-0.09 0.59-0.2 0.88-0.31 0.03-0.01 0.06-0.02 0.09-0.03 0.28-0.11 0.55-0.24 0.82-0.37 0.03-0.01 0.06-0.02 0.09-0.03 0.27-0.14 0.54-0.3 0.8-0.46 0.29-0.17 0.59-0.35 0.86-0.54 0.01-0.01 0.04-0.02 0.05-0.03 0.25-0.18 0.49-0.37 0.72-0.57 0.01-0.01 0.04-0.01 0.05-0.03 0.24-0.2 0.45-0.44 0.66-0.65 0.23-0.24 0.45-0.47 0.66-0.72l0.03-0.03c0.19-0.24 0.37-0.48 0.54-0.74l0.03-0.03c0.17-0.25 0.31-0.53 0.45-0.8 0.01-0.01 0.03-0.01 0.03-0.03 0.3-0.56 0.52-1.15 0.69-1.77 1.35-4.98-2.16-9.71-7.85-10.53-0.72-0.11-1.44-0.14-2.15-0.12z" fill-rule="evenodd" transform="matrix(.80927 .58744 -.58744 .80927 289.35 -150.64)" filter="url(#filter4237)" fill="url(#linearGradient6296)"/>
        <path id="path3244" d="m369.94 324.59c-9.61 0.18-19.78 10.87-25.53 26.53 11.73-0.49 24.69 1.84 41.97 17.44 4.31-21.29-1.28-40.52-12.97-43.56-1.14-0.3-2.31-0.43-3.47-0.41z" fill="#aad400"/>
        <path id="path4325" d="m353 259.81c0.08 0.2 0.16 0.4 0.25 0.6-12.08 12.52-17.95 24.86-20.2 36.14-9.57 35.74 31.9 44.04 17.95 9.64-0.01-0.02 0.01-0.04 0-0.07-0.29-0.8-0.57-1.62-0.81-2.43-0.05-0.17-0.11-0.34-0.16-0.5-0.15-0.54-0.27-1.08-0.41-1.63-0.07-0.29-0.12-0.58-0.18-0.87-0.1-0.45-0.2-0.87-0.28-1.31-0.12-0.61-0.23-1.24-0.32-1.85-0.14-0.96-0.26-1.91-0.34-2.87-0.01-0.13-0.02-0.25-0.03-0.38-0.06-0.84-0.11-1.69-0.13-2.53-0.01-0.95 0.05-1.93 0.1-2.87 0.09-1.92 0.31-3.81 0.65-5.66 0.1-0.53 0.2-1.01 0.32-1.53 0.04-0.2 0.07-0.4 0.12-0.6 0.08-0.31 0.17-0.65 0.25-0.97 0.04-0.15 0.08-0.28 0.13-0.43 0.42-1.51 0.94-2.98 1.53-4.41 0.35-0.85 0.68-1.68 1.09-2.5 0.4-0.8 0.85-1.58 1.31-2.34 0.01-0.01 0-0.02 0-0.03 0.94-1.55 2-2.98 3.16-4.35 0.57-0.67 1.15-1.34 1.78-1.97-2.32-1.04-4.26-2.55-5.78-4.28z" fill-rule="evenodd" transform="matrix(.80927 .58744 -.58744 .80927 289.35 -150.64)" filter="url(#filter4309)" fill="url(#radialGradient6298)"/>
        <path id="path3658" filter="url(#filter3684)" fill="url(#linearGradient6300)" d="m369.68 326.09c-8.96 0.17-18.43 9.85-23.79 24.05 10.93-0.45 23 1.66 39.1 15.8 4.03-19.3-1.18-36.72-12.08-39.48-1.06-0.27-2.15-0.39-3.23-0.37z"/>
        <path id="path3688" filter="url(#filter3684)" fill="url(#linearGradient6302)" d="m369.68 326.09c-8.96 0.17-18.43 9.85-23.79 24.05 10.93-0.45 23 1.66 39.1 15.8 4.03-19.3-1.18-36.72-12.08-39.48-1.06-0.27-2.15-0.39-3.23-0.37z"/>
        <path id="path3725" d="m374.28 299.56c-1.7 0.02-3.42 0.19-5.19 0.53-18.81 3.62-33.71 24.67-33.25 46.97 0.01 0.54 0.04 1.07 0.07 1.6 4.66-25.06 21.7-44.12 39.06-43.1 16.98 1 28.26 20.86 26.47 45.32 1.77-5.37 2.68-11.09 2.56-16.91-0.42-20.21-13.3-34.59-29.72-34.41z"/>
        <path id="path3888" d="m341.19 393.34c-9.13 0-16.53 7.26-16.75 16.28 4.53-6.67 12.21-11.06 20.9-11.06 3.4 0 6.64 0.7 9.6 1.91-3.04-4.3-8.07-7.13-13.75-7.13z"/>
        <path id="path3898" d="m333.94 421.62c0.07 0.53 0.15 1.04 0.25 1.57 3.94 21.91 22.31 39.43 41 39.09 1.75-0.03 3.43-0.23 5.06-0.56 7.95-1.63 14.31-6.71 18.19-13.91-2.93 0.9-5.88 1.54-8.82 1.91 0 0-0.02-0.01-0.03 0-2.73 2.84-6.04 4.93-9.87 6-16.38 4.58-36.4-10.54-45.78-34.1z"/>
        <path id="path4144" d="m339.03 396.24l1.49-0.98c6.98 38.69 36.18 52.01 60.08 40.44 38.29-18.55 59.07-67.93 8.73-125.2l-70.3 85.74z" fill-rule="evenodd" transform="matrix(.96003 0 0 .98231 15.553 8.1351)" filter="url(#filter4168)" fill="url(#linearGradient6304)"/>
        <path id="path4174" filter="url(#filter4272)" fill-rule="evenodd" fill="url(#radialGradient6286)" d="m353.81 261.91c-0.48 0.49-0.94 0.98-1.4 1.47-0.23 0.24-0.47 0.47-0.69 0.71-0.76 0.83-1.52 1.62-2.22 2.44-0.62 0.73-1.2 1.47-1.78 2.19-0.61 0.75-1.19 1.53-1.75 2.28-0.53 0.7-1.05 1.39-1.53 2.09-0.03 0.04-0.04 0.09-0.06 0.13-0.37 0.52-0.72 1.04-1.07 1.56-0.19 0.29-0.38 0.59-0.56 0.88-0.24 0.37-0.46 0.75-0.69 1.12-0.34 0.57-0.67 1.15-1 1.72-0.12 0.21-0.29 0.42-0.4 0.62-0.15 0.26-0.27 0.53-0.41 0.79-0.39 0.72-0.77 1.46-1.13 2.18 0 0.01 0.01 0.03 0 0.03-0.18 0.39-0.35 0.74-0.53 1.13-0.22 0.47-0.42 0.97-0.62 1.44-0.12 0.27-0.26 0.54-0.38 0.81-0.23 0.56-0.44 1.13-0.65 1.69-0.18 0.46-0.34 0.91-0.5 1.37-0.26 0.73-0.5 1.47-0.72 2.19-0.16 0.51-0.3 1-0.44 1.5-0.08 0.28-0.14 0.56-0.22 0.84-0.08 0.31-0.17 0.61-0.25 0.91-0.15 0.61-0.31 1.21-0.43 1.81-0.09 0.4-0.15 0.77-0.22 1.16-0.31 1.64-0.51 3.31-0.66 4.91-0.03 0.36-0.07 0.72-0.09 1.09-0.04 0.51-0.08 1-0.1 1.5-0.03 0.79-0.06 1.6-0.06 2.37v0.72c0.01 0.52 0.04 1.03 0.06 1.53 0.01 0.17-0.01 0.34 0 0.5 0.02 0.33 0.04 0.65 0.07 0.97 0.07 1.23 0.19 2.45 0.34 3.63 0.01 0.1 0.02 0.21 0.03 0.31 0.06 0.49 0.14 0.96 0.22 1.44 0.18 1.15 0.39 2.27 0.62 3.37 0.24 1.1 0.53 2.15 0.82 3.19 0.26 0.99 0.51 1.97 0.81 2.91 0.01 0.05 0.05 0.1 0.06 0.15l14.99-22.47c-4.12-13.44-1.38-28.25 6.98-37.03-1.84-1.09-3.35-2.5-4.44-4.15z"/>
        <path id="path4181" filter="url(#filter4237)" fill-rule="evenodd" fill="url(#linearGradient6290)" d="m364.31 246.83c-2.15 0.07-4.24 0.71-5.99 1.77-0.25 0.15-0.48 0.32-0.72 0.49-1.89 1.35-3.32 3.21-3.91 5.4-0.06 0.23-0.13 0.45-0.17 0.68v0.06c-0.04 0.21-0.07 0.44-0.09 0.65 0 0.02 0.01 0.04 0 0.06-0.01 0.23-0.02 0.43-0.02 0.66v0.06c0 0.18 0.01 0.38 0.02 0.57 0.03 0.29 0.06 0.59 0.12 0.88s0.14 0.58 0.23 0.86 0.19 0.56 0.31 0.83c0.95 2.1 2.82 3.83 5.31 4.71 0.04 0.01 0.08 0.01 0.12 0.03 0.32 0.11 0.66 0.2 1 0.28 0.33 0.08 0.68 0.15 1.02 0.2l0.18 0.03c0.12 0.02 0.24 0.02 0.37 0.03 0.17 0.02 0.34 0.05 0.51 0.06 0.06 0 0.12-0.01 0.17 0 0.65 0.02 1.31-0.01 1.94-0.09 0.7-0.08 1.37-0.21 2.03-0.4l0.12-0.03c0.29-0.09 0.59-0.2 0.88-0.31 0.03-0.01 0.06-0.02 0.09-0.03 0.28-0.11 0.55-0.24 0.82-0.37 0.03-0.01 0.06-0.02 0.09-0.03 0.27-0.14 0.54-0.3 0.8-0.46 0.29-0.17 0.59-0.35 0.86-0.54 0.01-0.01 0.04-0.02 0.05-0.03 0.25-0.18 0.49-0.37 0.72-0.57 0.01-0.01 0.04-0.01 0.05-0.03 0.24-0.2 0.45-0.44 0.66-0.65 0.23-0.24 0.45-0.47 0.66-0.72l0.03-0.03c0.19-0.24 0.37-0.48 0.54-0.74l0.03-0.03c0.17-0.25 0.31-0.53 0.45-0.8 0.01-0.01 0.03-0.01 0.03-0.03 0.3-0.56 0.52-1.15 0.69-1.77 1.35-4.98-2.16-9.71-7.85-10.53-0.72-0.11-1.44-0.14-2.15-0.12z"/>
        <path id="path4241" filter="url(#filter4237)" fill-rule="evenodd" fill="url(#linearGradient6296)" d="m364.31 246.83c-2.15 0.07-4.24 0.71-5.99 1.77-0.25 0.15-0.48 0.32-0.72 0.49-1.89 1.35-3.32 3.21-3.91 5.4-0.06 0.23-0.13 0.45-0.17 0.68v0.06c-0.04 0.21-0.07 0.44-0.09 0.65 0 0.02 0.01 0.04 0 0.06-0.01 0.23-0.02 0.43-0.02 0.66v0.06c0 0.18 0.01 0.38 0.02 0.57 0.03 0.29 0.06 0.59 0.12 0.88s0.14 0.58 0.23 0.86 0.19 0.56 0.31 0.83c0.95 2.1 2.82 3.83 5.31 4.71 0.04 0.01 0.08 0.01 0.12 0.03 0.32 0.11 0.66 0.2 1 0.28 0.33 0.08 0.68 0.15 1.02 0.2l0.18 0.03c0.12 0.02 0.24 0.02 0.37 0.03 0.17 0.02 0.34 0.05 0.51 0.06 0.06 0 0.12-0.01 0.17 0 0.65 0.02 1.31-0.01 1.94-0.09 0.7-0.08 1.37-0.21 2.03-0.4l0.12-0.03c0.29-0.09 0.59-0.2 0.88-0.31 0.03-0.01 0.06-0.02 0.09-0.03 0.28-0.11 0.55-0.24 0.82-0.37 0.03-0.01 0.06-0.02 0.09-0.03 0.27-0.14 0.54-0.3 0.8-0.46 0.29-0.17 0.59-0.35 0.86-0.54 0.01-0.01 0.04-0.02 0.05-0.03 0.25-0.18 0.49-0.37 0.72-0.57 0.01-0.01 0.04-0.01 0.05-0.03 0.24-0.2 0.45-0.44 0.66-0.65 0.23-0.24 0.45-0.47 0.66-0.72l0.03-0.03c0.19-0.24 0.37-0.48 0.54-0.74l0.03-0.03c0.17-0.25 0.31-0.53 0.45-0.8 0.01-0.01 0.03-0.01 0.03-0.03 0.3-0.56 0.52-1.15 0.69-1.77 1.35-4.98-2.16-9.71-7.85-10.53-0.72-0.11-1.44-0.14-2.15-0.12z"/>
        <path id="path4199" filter="url(#filter4309)" fill-rule="evenodd" fill="url(#radialGradient6298)" d="m353 259.81c0.08 0.2 0.16 0.4 0.25 0.6-12.08 12.52-17.95 24.86-20.2 36.14-9.57 35.74 31.9 44.04 17.95 9.64-0.01-0.02 0.01-0.04 0-0.07-0.29-0.8-0.57-1.62-0.81-2.43-0.05-0.17-0.11-0.34-0.16-0.5-0.15-0.54-0.27-1.08-0.41-1.63-0.07-0.29-0.12-0.58-0.18-0.87-0.1-0.45-0.2-0.87-0.28-1.31-0.12-0.61-0.23-1.24-0.32-1.85-0.14-0.96-0.26-1.91-0.34-2.87-0.01-0.13-0.02-0.25-0.03-0.38-0.06-0.84-0.11-1.69-0.13-2.53-0.01-0.95 0.05-1.93 0.1-2.87 0.09-1.92 0.31-3.81 0.65-5.66 0.1-0.53 0.2-1.01 0.32-1.53 0.04-0.2 0.07-0.4 0.12-0.6 0.08-0.31 0.17-0.65 0.25-0.97 0.04-0.15 0.08-0.28 0.13-0.43 0.42-1.51 0.94-2.98 1.53-4.41 0.35-0.85 0.68-1.68 1.09-2.5 0.4-0.8 0.85-1.58 1.31-2.34 0.01-0.01 0-0.02 0-0.03 0.94-1.55 2-2.98 3.16-4.35 0.57-0.67 1.15-1.34 1.78-1.97-2.32-1.04-4.26-2.55-5.78-4.28z"/>
      </g>
      <path id="path4904" fill-rule="evenodd" d="m332.84 302.31c-7.81 0.01-16.56 1.09-26.06 3.07-16.63 3.45-24.26 13.64-30.25 30.74-9.72 27.8-22.98 71.45-25.12 102h4.12c2.04-29.73 14.38-72.09 23.44-99.09 5.59-16.65 12.71-26.64 28.25-30 31.55-6.82 54.32-2.21 59.9 18.63 8.67 32.35 3.52 92.16 1.66 110.46h3.91c1.98-18.59 7.56-80.36-1.75-113.68-4.3-15.38-18.12-22.14-38.1-22.13z"/>
      <path id="path4902" fill-rule="evenodd" fill="#aad400" d="m331.56 306.12c-7.3 0.01-15.47 1.02-24.34 2.94-15.54 3.36-22.66 13.32-28.25 29.97-9.06 26.99-21.42 69.36-23.47 99.09h113.31c1.86-18.31 7.01-78.12-1.65-110.46-4.02-14.98-16.94-21.55-35.6-21.54z"/>
      <path id="path4911" filter="url(#filter4919)" fill-rule="evenodd" fill="url(#radialGradient6314)" d="m332.19 307.81c-1.14-0.02-2.28 0-3.47 0.03-6.33 0.2-13.37 1.19-20.94 2.88-7.24 1.61-12.31 4.71-16.37 9.44s-7.08 11.15-9.75 19.37c-8.78 26.93-20.68 69.26-22.66 98.59h106.47c0.68-6.79 1.92-20.78 2.62-37.93 1-24.23 0.71-53.3-4.18-72.13-1.93-7.42-5.96-12.46-11.88-15.75-5.18-2.87-11.89-4.37-19.84-4.5z"/>
      <path id="path4923" filter="url(#filter4919)" fill-rule="evenodd" fill="url(#radialGradient6316)" d="m332.19 307.81c-1.14-0.02-2.28 0-3.47 0.03-6.33 0.2-13.37 1.19-20.94 2.88-7.24 1.61-12.31 4.71-16.37 9.44s-7.08 11.15-9.75 19.37c-8.78 26.93-20.68 69.26-22.66 98.59h106.47c0.68-6.79 1.92-20.78 2.62-37.93 1-24.23 0.71-53.3-4.18-72.13-1.93-7.42-5.96-12.46-11.88-15.75-5.18-2.87-11.89-4.37-19.84-4.5z"/>
      <rect id="rect5937" opacity=".22857" height="19.61" width="568.99" y="418.51" x="15.503" fill="url(#radialGradient6318)"/>
      <rect id="rect6134" opacity=".10204" transform="scale(1,-1)" height="7.4902" width="568.99" y="-445.61" x="15.503" fill="url(#radialGradient6320)"/>
    </g>
  </g>
  <metadata>
    <rdf:RDF>
      <cc:Work>
        <dc:format>image/svg+xml</dc:format>
        <dc:type rdf:resource="http://purl.org/dc/dcmitype/StillImage"/>
        <cc:license rdf:resource="http://creativecommons.org/licenses/publicdomain/"/>
        <dc:publisher>
          <cc:Agent rdf:about="http://openclipart.org/">
            <dc:title>Openclipart</dc:title>
          </cc:Agent>
        </dc:publisher>
        <dc:title>Cricket</dc:title>
        <dc:date>2008-04-02T18:41:05</dc:date>
        <dc:description>animal, animal, bug, bug, cartoon, cartoon, clip art, clipart, contour, contour, cricket, cricket, green, green, image, insect, insect, media, png, public domain, svg, </dc:description>
        <dc:source>http://openclipart.org/detail/16105/cricket-by-jonata</dc:source>
        <dc:creator>
          <cc:Agent>
            <dc:title>jonata</dc:title>
          </cc:Agent>
        </dc:creator>
        <dc:subject>
          <rdf:Bag>
            <rdf:li>animal</rdf:li>
            <rdf:li>bug</rdf:li>
            <rdf:li>cartoon</rdf:li>
            <rdf:li>clip art</rdf:li>
            <rdf:li>clipart</rdf:li>
            <rdf:li>contour</rdf:li>
            <rdf:li>cricket</rdf:li>
            <rdf:li>green</rdf:li>
            <rdf:li>image</rdf:li>
            <rdf:li>insect</rdf:li>
            <rdf:li>media</rdf:li>
            <rdf:li>png</rdf:li>
            <rdf:li>public domain</rdf:li>
            <rdf:li>svg</rdf:li>
          </rdf:Bag>
        </dc:subject>
      </cc:Work>
      <cc:License rdf:about="http://creativecommons.org/licenses/publicdomain/">
        <cc:permits rdf:resource="http://creativecommons.org/ns#Reproduction"/>
        <cc:permits rdf:resource="http://creativecommons.org/ns#Distribution"/>
        <cc:permits rdf:resource="http://creativecommons.org/ns#DerivativeWorks"/>
      </cc:License>
    </rdf:RDF>
  </metadata>
</svg>