<?xml version="1.0" encoding="UTF-8"?>
<svg xmlns:rdf="http://www.w3.org/1999/02/22-rdf-syntax-ns#" xmlns="http://www.w3.org/2000/svg" xmlns:cc="http://creativecommons.org/ns#" xmlns:xlink="http://www.w3.org/1999/xlink" xmlns:dc="http://purl.org/dc/elements/1.1/" xmlns:svg="http://www.w3.org/2000/svg" id="svg2" viewBox="0 0 800 600" version="1.1">
  <defs id="defs4">
    <linearGradient id="linearGradient4038">
      <stop id="stop4040" stop-color="#808080" offset="0"/>
      <stop id="stop4042" stop-color="#808080" stop-opacity="0" offset="1"/>
    </linearGradient>
    <linearGradient id="linearGradient3929">
      <stop id="stop3931" stop-color="#ff0" offset="0"/>
      <stop id="stop3933" stop-color="#ff0" stop-opacity="0" offset="1"/>
    </linearGradient>
    <filter id="filter3891" height="1.4348" width="1.3843" y="-.2174" x="-.19215" color-interpolation-filters="sRGB">
      <feGaussianBlur id="feGaussianBlur3893" stdDeviation="15.731419"/>
    </filter>
    <filter id="filter3921" height="1.5115" width="1.4521" y="-.25577" x="-.22606" color-interpolation-filters="sRGB">
      <feGaussianBlur id="feGaussianBlur3923" stdDeviation="18.507552"/>
    </filter>
    <filter id="filter10846" height="1.311" width="1.1151" y="-.15551" x="-.05754" color-interpolation-filters="sRGB">
      <feGaussianBlur id="feGaussianBlur10848" stdDeviation="7.4356544"/>
    </filter>
    <filter id="filter10896" height="1.3163" width="1.164" y="-.15816" x="-.081994" color-interpolation-filters="sRGB">
      <feGaussianBlur id="feGaussianBlur10898" stdDeviation="3.6920029"/>
    </filter>
    <clipPath id="clipPath10952">
      <rect id="rect10954" opacity=".33" height="590.72" width="788.47" y="460.37" x="7.6058" fill="#ff0"/>
    </clipPath>
    <clipPath id="clipPath10956">
      <rect id="rect10958" opacity=".33" height="843.3" width="730.53" y="-193.98" x="6.0086" fill="#ff0"/>
    </clipPath>
    <clipPath id="clipPath10960">
      <rect id="rect10962" opacity=".33" height="843.3" width="832.52" y="-193.98" x="4.2195" fill="#ff0"/>
    </clipPath>
    <clipPath id="clipPath10972">
      <rect id="rect10974" opacity=".33" height="590.72" width="788.47" y="460.37" x="7.6058" fill="#ff0"/>
    </clipPath>
    <clipPath id="clipPath10976">
      <rect id="rect10978" opacity=".33" height="590.72" width="788.47" y="460.37" x="7.6058" fill="#ff0"/>
    </clipPath>
    <clipPath id="clipPath10980">
      <rect id="rect10982" opacity=".33" height="1733.3" width="1738.1" y="-503.56" x="-1153.8" fill="#ff0"/>
    </clipPath>
    <clipPath id="clipPath10984">
      <rect id="rect10986" opacity=".33" height="1733.3" width="1806.4" y="-161.65" x="-842.98" fill="#ff0"/>
    </clipPath>
    <clipPath id="clipPath10988">
      <rect id="rect10990" opacity=".33" height="843.3" width="1806.4" y="-51.948" x="72.914" fill="#ff0"/>
    </clipPath>
    <clipPath id="clipPath10992">
      <rect id="rect10994" opacity=".33" height="843.3" width="933" y="150.23" x="55.49" fill="#ff0"/>
    </clipPath>
    <clipPath id="clipPath10996">
      <rect id="rect10998" opacity=".33" height="843.3" width="933" y="-193.98" x="2.4568" fill="#ff0"/>
    </clipPath>
    <clipPath id="clipPath11000">
      <rect id="rect11002" opacity=".33" height="590.72" width="788.47" y="8.0119" x="7.6058" fill="#ff0"/>
    </clipPath>
    <clipPath id="clipPath11012">
      <rect id="rect11014" opacity=".33" height="590.72" width="788.47" y="460.37" x="7.6058" fill="#ff0"/>
    </clipPath>
    <clipPath id="clipPath11016">
      <rect id="rect11018" opacity=".33" height="471.33" width="777.08" y="59.772" x="-.10656" fill="#ff0"/>
    </clipPath>
    <clipPath id="clipPath11020">
      <rect id="rect11022" opacity=".33" height="590.72" width="788.47" y="460.37" x="7.6058" fill="#ff0"/>
    </clipPath>
    <clipPath id="clipPath11024">
      <rect id="rect11026" opacity=".33" height="590.72" width="788.47" y="8.0119" x="7.6058" fill="#ff0"/>
    </clipPath>
    <clipPath id="clipPath11028">
      <rect id="rect11030" opacity=".33" height="1243.7" width="1660.1" y="-66.986" x="-884.08" fill="#ff0"/>
    </clipPath>
    <clipPath id="clipPath11032">
      <rect id="rect11034" opacity=".33" height="876.75" width="1170.3" y="3.1021" x="-400.46" fill="#ff0"/>
    </clipPath>
    <clipPath id="clipPath11036">
      <rect id="rect11038" opacity=".33" height="590.72" width="788.47" y="460.37" x="7.6058" fill="#ff0"/>
    </clipPath>
    <clipPath id="clipPath11040">
      <rect id="rect11042" opacity=".33" height="590.72" width="788.47" y="8.0119" x="7.6058" fill="#ff0"/>
    </clipPath>
    <clipPath id="clipPath11044">
      <rect id="rect11046" opacity=".33" height="590.72" width="788.47" y="460.37" x="7.6058" fill="#ff0"/>
    </clipPath>
    <clipPath id="clipPath11048">
      <rect id="rect11050" opacity=".33" height="590.72" width="788.47" y="8.0119" x="7.6058" fill="#ff0"/>
    </clipPath>
    <clipPath id="clipPath11052">
      <rect id="rect11054" opacity=".33" height="590.72" width="788.47" y="8.0119" x="7.6058" fill="#ff0"/>
    </clipPath>
    <linearGradient id="linearGradient12916" y2="266.61" gradientUnits="userSpaceOnUse" x2="400.57" y1="-8.4674" x1="398.04">
      <stop id="stop3795" stop-color="#fff" offset="0"/>
      <stop id="stop3797" stop-color="#fff" stop-opacity="0" offset="1"/>
    </linearGradient>
    <linearGradient id="linearGradient12918" y2="992.78" gradientUnits="userSpaceOnUse" x2="356.21" gradientTransform="matrix(1 0 0 .96926 2.1003 37.333)" y1="1096.7" x1="358.74">
      <stop id="stop3771" stop-color="#008000" offset="0"/>
      <stop id="stop3773" stop-color="#008000" stop-opacity="0" offset="1"/>
    </linearGradient>
    <radialGradient id="radialGradient12920" gradientUnits="userSpaceOnUse" cy="93.144" cx="655.52" gradientTransform="matrix(.99137 1.2032 -1.1384 .93802 111.69 -782.65)" r="124.86">
      <stop id="stop3899" stop-color="#fff" offset="0"/>
      <stop id="stop3901" stop-color="#fff" stop-opacity="0" offset="1"/>
    </radialGradient>
    <radialGradient id="radialGradient12922" xlink:href="#linearGradient3929" gradientUnits="userSpaceOnUse" cy="156.47" cx="266.54" gradientTransform="matrix(.0099398 .61667 -.56122 .0090445 585.88 141.39)" r="402.48"/>
    <linearGradient id="linearGradient12924" y2="1242.4" gradientUnits="userSpaceOnUse" x2="534.23" gradientTransform="translate(32.269 -331.65)" y1="1274.7" x1="-397.98">
      <stop id="stop10914" stop-color="#ff0" offset="0"/>
      <stop id="stop10916" stop-color="#ff0" stop-opacity="0" offset="1"/>
    </linearGradient>
    <radialGradient id="radialGradient12926" gradientUnits="userSpaceOnUse" cy="198.91" cx="736.39" gradientTransform="matrix(.68432 -.70040 .65771 .70387 46.595 481.03)" r="276.97">
      <stop id="stop4218" stop-color="#ff0" offset="0"/>
      <stop id="stop4220" stop-color="#ff0" stop-opacity="0" offset="1"/>
    </radialGradient>
    <linearGradient id="linearGradient12928" y2="227.31" xlink:href="#linearGradient4038" gradientUnits="userSpaceOnUse" x2="172.4" gradientTransform="matrix(.52832 0 0 .52832 561.61 646.13)" y1="305.91" x1="173.67"/>
    <linearGradient id="linearGradient12930" y2="227.31" xlink:href="#linearGradient4038" gradientUnits="userSpaceOnUse" x2="172.4" gradientTransform="translate(-3.8326e-7 452.36)" y1="305.91" x1="173.67"/>
    <linearGradient id="linearGradient12932" y2="227.31" xlink:href="#linearGradient4038" gradientUnits="userSpaceOnUse" x2="172.4" gradientTransform="matrix(-.58492 0 0 .58492 210.55 666.94)" y1="305.91" x1="173.67"/>
    <linearGradient id="linearGradient12934" y2="227.31" xlink:href="#linearGradient4038" gradientUnits="userSpaceOnUse" x2="172.4" gradientTransform="matrix(-.58492 0 0 .58492 611.12 518.63)" y1="305.91" x1="173.67"/>
    <radialGradient id="radialGradient15120" xlink:href="#linearGradient3929" gradientUnits="userSpaceOnUse" cy="156.47" cx="266.54" gradientTransform="matrix(.0099398 .39305 -.56111 .014189 589.87 654.55)" r="402.48"/>
  </defs>
  <g id="g16620">
    <path id="rect2985" stroke-linejoin="round" d="m0 0.40604h801.15v603.4h-801.15z" clip-path="url(#clipPath11052)" transform="translate(0 -1.7927)" stroke="#ccc" stroke-linecap="round" stroke-width="6" fill="#00f"/>
    <path id="rect3777" stroke-linejoin="round" d="m0 0.40604h801.15v603.4h-801.15z" clip-path="url(#clipPath11048)" transform="translate(0 -1.7927)" stroke="#ccc" stroke-linecap="round" stroke-width="6" fill="url(#linearGradient12916)"/>
    <path id="path2989" d="m1.2676 887.32s65.917 16.479 125.5-12.676c59.579-29.156 109.55-62.919 166.06-34.226 82.397 41.832 271.3 54.971 320.71 1.2676 53.527-58.173 100.14 31.691 141.98 10.141 41.832-21.55 48.17-40.564 48.17-40.564l-3.8029 225.64h-801.15z" fill="#008000" transform="translate(0 -454.15)" clip-path="url(#clipPath11044)"/>
    <path id="path2987" d="m-1.2676 433.94s148.31 29.156 207.89 0c59.579-29.156 98.876-69.72 162.26-69.72 63.382 0 106.48 25.353 182.54 46.903 76.058 21.55 134.37 25.353 176.2 3.8029 41.832-21.55 74.791-57.044 74.791-57.044l-2.5353 243.39h-801.15z" fill="#0f0" transform="translate(0 -1.7927)" clip-path="url(#clipPath11040)"/>
    <path id="path2991" d="m0.83266 980.86s148.31 13.541 207.89 0c59.579-13.541 98.876-32.381 162.26-32.381 63.382 0 106.48 11.775 182.54 21.783 76.058 10.009 134.37 11.775 176.2 1.7662 41.832-10.009 74.791-26.493 74.791-26.493l-2.5353 113.04h-801.15z" fill="url(#linearGradient12918)" transform="translate(0 -454.15)" clip-path="url(#clipPath11036)"/>
    <path id="path3801" d="m750.44 96.113c0 47.957-43.984 86.833-98.242 86.833s-98.242-38.877-98.242-86.833c0-47.957 43.984-86.833 98.242-86.833s98.242 38.877 98.242 86.833z" clip-path="url(#clipPath11032)" transform="matrix(.67376 0 0 .67376 277.42 4.1291)" filter="url(#filter3891)" fill="#ff0"/>
    <path id="path3895" d="m750.44 96.113c0 47.957-43.984 86.833-98.242 86.833s-98.242-38.877-98.242-86.833c0-47.957 43.984-86.833 98.242-86.833s98.242 38.877 98.242 86.833z" clip-path="url(#clipPath11028)" transform="matrix(.47496 0 0 .47496 427.51 38.035)" filter="url(#filter3921)" fill="url(#radialGradient12920)"/>
    <path id="path3925" d="m199.02 437.74 79.861-45.635s55.776-27.888 64.65-27.888c8.8735 0 78.594 3.8029 95.073 10.141 16.479 6.3382 124.23 41.832 124.23 41.832s86.2 15.212 95.073 15.212c8.8735 0 50.706-6.3382 59.579-8.8735 8.8735-2.5353 84.932-65.917 84.932-65.917v124.23s-324.52 10.141-415.79 35.494-168.6 39.297-271.28 26.62c-102.66-12.67-117.88-21.54-117.88-21.54v-91.27l2.54 5.07 55.776 7.6058s70.988 7.6058 76.058 6.3382c5.0706-1.2676 45.635-2.5353 51.973-5.0706 6.3382-2.5353 15.212-6.3382 15.212-6.3382z" fill="url(#radialGradient12922)" transform="translate(0 -1.7927)" clip-path="url(#clipPath11024)"/>
    <path id="path3927" d="m199.29 893 79.861-45.635s55.776-27.888 64.65-27.888c8.8735 0 78.594 3.8029 95.073 10.141 16.479 6.3382 124.23 41.832 124.23 41.832s86.2 15.212 95.073 15.212c8.8735 0 50.706-6.3382 59.579-8.8735 8.8735-2.5353 84.932-65.917 84.932-65.917v124.23s-324.52 10.141-415.79 35.494-168.6 39.297-271.28 26.62c-102.66-12.68-117.87-21.55-117.87-21.55v-91.27l2.5353 5.0706 55.776 7.6058s70.988 7.6059 76.058 6.3382c5.0706-1.2676 45.635-2.5352 51.973-5.0705 6.3382-2.5353 15.212-6.3382 15.212-6.3382z" fill="url(#linearGradient12924)" transform="translate(0 -454.15)" clip-path="url(#clipPath11020)"/>
    <path id="path4214" opacity=".44" d="m876.64 181.4c0 99.504-124.01 180.17-276.97 180.17-152.97 0-276.97-80.664-276.97-180.17 0-99.504 124.01-180.17 276.97-180.17 152.97 0 276.97 80.664 276.97 180.17z" clip-path="url(#clipPath11016)" transform="matrix(1.0147 0 0 1.2533 7.714 -68.694)" fill="url(#radialGradient12926)"/>
    <g id="g4194" transform="translate(0 -454.15)" clip-path="url(#clipPath11012)">
      <g id="g4190">
        <path id="path4046" fill="#fff" d="m663.08 724.03c-11.768 0-21.833 5.9998-25.888 14.463-4.4616-1.9572-9.5626-3.0709-14.975-3.0709-17.569 0-31.815 11.694-31.815 26.119 0 3.7025 0.9496 7.2267 2.6416 10.418-5.1212 1.765-8.6678 5.5807-8.6678 10.005 0 6.103 6.7514 11.062 15.074 11.062 4.7763 0 9.0274-1.6346 11.788-4.177 4.6786 2.8891 13.686 4.8374 24.039 4.8374 6.5981 0 12.65-0.78897 17.385-2.1133 5.5862 2.1525 12.697 3.4506 20.456 3.4506 10.084 0 19.088-2.1776 25.046-5.5969 0.005 0.0004 0.011-0.0004 0.0165 0 2.0855 0.15198 4.2376 0.24765 6.4224 0.24765 21.268 0 38.501-7.4942 38.501-16.741 0-6.5942-8.7691-12.294-21.513-15.024 0.91074-1.7841 1.4199-3.7211 1.4199-5.7455 0-8.877-9.5939-16.064-21.43-16.064-4.6048 0-8.8726 1.0851-12.366 2.9388-3.8742-8.7538-14.113-15.008-26.135-15.008z"/>
        <path id="path4048" fill="url(#linearGradient12928)" d="m663.08 724.03c-11.768 0-21.833 5.9998-25.888 14.463-4.4616-1.9572-9.5626-3.0709-14.975-3.0709-17.569 0-31.815 11.694-31.815 26.119 0 3.7025 0.9496 7.2267 2.6416 10.418-5.1212 1.765-8.6678 5.5807-8.6678 10.005 0 6.103 6.7514 11.062 15.074 11.062 4.7763 0 9.0274-1.6346 11.788-4.177 4.6786 2.8891 13.686 4.8374 24.039 4.8374 6.5981 0 12.65-0.78897 17.385-2.1133 5.5862 2.1525 12.697 3.4506 20.456 3.4506 10.084 0 19.088-2.1776 25.046-5.5969 0.005 0.0004 0.011-0.0004 0.0165 0 2.0855 0.15198 4.2376 0.24765 6.4224 0.24765 21.268 0 38.501-7.4942 38.501-16.741 0-6.5942-8.7691-12.294-21.513-15.024 0.91074-1.7841 1.4199-3.7211 1.4199-5.7455 0-8.877-9.5939-16.064-21.43-16.064-4.6048 0-8.8726 1.0851-12.366 2.9388-3.8742-8.7538-14.113-15.008-26.135-15.008z"/>
      </g>
      <g id="g4174">
        <g id="g4058" transform="translate(-1.2676 -48.17)">
          <path id="path4017" d="m192.06 147.44c-22.274 0-41.326 11.356-49 27.375-8.44-3.71-18.1-5.82-28.34-5.82-33.256 0-60.22 22.13-60.22 49.44 0 7.0081 1.7974 13.679 5 19.719-9.6934 3.3409-16.406 10.563-16.406 18.938 0 11.552 12.779 20.938 28.531 20.938 9.0406 0 17.087-3.094 22.312-7.9062 8.8556 5.4685 25.904 9.1562 45.5 9.1562 12.489 0 23.944-1.4934 32.906-4 10.574 4.0742 24.033 6.5312 38.719 6.5312 19.086 0 36.13-4.1217 47.406-10.594 0.0104 0.00076 0.0209-0.00076 0.0312 0 3.9473 0.28767 8.0209 0.46875 12.156 0.46875 40.256 0 72.875-14.185 72.875-31.688 0-12.481-16.598-23.27-40.719-28.438 1.7238-3.377 2.6875-7.0434 2.6875-10.875 0-16.802-18.159-30.406-40.562-30.406-8.7159 0-16.794 2.0539-23.406 5.5625-7.3331-16.569-26.712-28.406-49.469-28.406z" fill="#fff" transform="translate(0 452.36)"/>
          <path id="path4028" fill="url(#linearGradient12930)" d="m192.06 599.8c-22.274 0-41.326 11.356-49 27.375-8.4448-3.7046-18.1-5.8125-28.344-5.8125-33.255 0-60.219 22.134-60.219 49.438 0 7.0081 1.7974 13.679 5 19.719-9.6934 3.3409-16.406 10.563-16.406 18.938 0 11.552 12.779 20.938 28.531 20.938 9.0406 0 17.087-3.094 22.312-7.9062 8.8556 5.4685 25.904 9.1562 45.5 9.1562 12.489 0 23.944-1.4934 32.906-4 10.574 4.0742 24.033 6.5312 38.719 6.5312 19.086 0 36.13-4.1217 47.406-10.594 0.0104 0.00076 0.0209-0.00076 0.0312 0 3.9473 0.28767 8.0209 0.46875 12.156 0.46875 40.256 0 72.875-14.185 72.875-31.688 0-12.481-16.598-23.27-40.719-28.438 1.7238-3.377 2.6875-7.0434 2.6875-10.875 0-16.802-18.159-30.406-40.562-30.406-8.7159 0-16.794 2.0539-23.406 5.5625-7.3331-16.569-26.712-28.406-49.469-28.406z"/>
        </g>
        <path id="path4052" fill="#fff" d="m98.206 753.18c13.029 0 24.173 6.6426 28.661 16.012 4.9396-2.1669 10.587-3.3999 16.579-3.3999 19.451 0 35.223 12.946 35.223 28.917 0 4.0992-1.0513 8.001-2.9246 11.534 5.6699 1.9542 9.5964 6.1786 9.5964 11.077 0 6.7568-7.4747 12.247-16.689 12.247-5.288 0-9.9945-1.8097-13.051-4.6245-5.1799 3.1986-15.152 5.3557-26.614 5.3557-7.305 0-14.005-0.8735-19.248-2.3397-6.1847 2.3831-14.057 3.8203-22.647 3.8203-11.164 0-21.133-2.4108-27.729-6.1965-0.006 0.00044-0.0122-0.00044-0.0183 0-2.3089 0.16826-4.6916 0.27418-7.1105 0.27418-23.546 0-42.626-8.2971-42.626-18.535 0-7.3006 9.7086-13.611 23.817-16.634-1.0083-1.9753-1.572-4.1198-1.572-6.361 0-9.8281 10.622-17.785 23.726-17.785 5.0981 0 9.8232 1.2014 13.691 3.2536 4.2893-9.6916 15.625-16.615 28.935-16.615z"/>
        <path id="path4054" fill="url(#linearGradient12932)" d="m98.206 753.18c13.029 0 24.173 6.6426 28.661 16.012 4.9396-2.1669 10.587-3.3999 16.579-3.3999 19.451 0 35.223 12.946 35.223 28.917 0 4.0992-1.0513 8.001-2.9246 11.534 5.6699 1.9542 9.5964 6.1786 9.5964 11.077 0 6.7568-7.4747 12.247-16.689 12.247-5.288 0-9.9945-1.8097-13.051-4.6245-5.1799 3.1986-15.152 5.3557-26.614 5.3557-7.305 0-14.005-0.8735-19.248-2.3397-6.1847 2.3831-14.057 3.8203-22.647 3.8203-11.164 0-21.133-2.4108-27.729-6.1965-0.006 0.00044-0.0122-0.00044-0.0183 0-2.3089 0.16826-4.6916 0.27418-7.1105 0.27418-23.546 0-42.626-8.2971-42.626-18.535 0-7.3006 9.7086-13.611 23.817-16.634-1.0083-1.9753-1.572-4.1198-1.572-6.361 0-9.8281 10.622-17.785 23.726-17.785 5.0981 0 9.8232 1.2014 13.691 3.2536 4.2893-9.6916 15.625-16.615 28.935-16.615z"/>
        <g id="g4134">
          <path id="path4062" fill="#fff" d="m500.05 606.14c13.029 0 24.173 6.6426 28.661 16.012 4.9396-2.1669 10.587-3.3999 16.579-3.3999 19.451 0 35.223 12.946 35.223 28.917 0 4.0992-1.0513 8.001-2.9246 11.534 5.6699 1.9542 9.5964 6.1786 9.5964 11.077 0 6.7568-7.4747 12.247-16.689 12.247-5.288 0-9.9945-1.8097-13.051-4.6245-5.1799 3.1986-15.152 5.3557-26.614 5.3557-7.305 0-14.005-0.8735-19.248-2.3397-6.1847 2.3831-14.057 3.8203-22.647 3.8203-11.164 0-21.133-2.4108-27.729-6.1965-0.006 0.00044-0.0122-0.00044-0.0183 0-2.3089 0.16826-4.6916 0.27418-7.1105 0.27418-23.546 0-42.626-8.2971-42.626-18.535 0-7.3006 9.7086-13.611 23.817-16.634-1.0083-1.9753-1.572-4.1198-1.572-6.361 0-9.8281 10.622-17.785 23.726-17.785 5.0981 0 9.8232 1.2014 13.691 3.2536 4.2893-9.6916 15.625-16.615 28.935-16.615z"/>
          <path id="path4064" fill="url(#linearGradient12934)" d="m498.78 604.87c13.029 0 24.173 6.6426 28.661 16.012 4.9396-2.1669 10.587-3.3999 16.579-3.3999 19.451 0 35.223 12.946 35.223 28.917 0 4.0992-1.0513 8.001-2.9246 11.534 5.6699 1.9542 9.5964 6.1786 9.5964 11.077 0 6.7568-7.4747 12.247-16.689 12.247-5.288 0-9.9945-1.8097-13.051-4.6245-5.1799 3.1986-15.152 5.3557-26.614 5.3557-7.305 0-14.005-0.8735-19.248-2.3397-6.1847 2.3831-14.057 3.8203-22.647 3.8203-11.164 0-21.133-2.4108-27.729-6.1965-0.006 0.00044-0.0122-0.00044-0.0183 0-2.3089 0.16826-4.6916 0.27418-7.1105 0.27418-23.546 0-42.626-8.2971-42.626-18.535 0-7.3006 9.7086-13.611 23.817-16.634-1.0083-1.9753-1.572-4.1198-1.572-6.361 0-9.8281 10.622-17.785 23.726-17.785 5.0981 0 9.8232 1.2014 13.691 3.2536 4.2893-9.6916 15.625-16.615 28.935-16.615z"/>
        </g>
        <g id="g4138" transform="matrix(.81857 0 0 .72643 30.636 145.08)">
          <path id="path4140" d="m192.06 147.44c-22.274 0-41.326 11.356-49 27.375-8.44-3.71-18.1-5.82-28.34-5.82-33.256 0-60.22 22.13-60.22 49.44 0 7.0081 1.7974 13.679 5 19.719-9.6934 3.3409-16.406 10.563-16.406 18.938 0 11.552 12.779 20.938 28.531 20.938 9.0406 0 17.087-3.094 22.312-7.9062 8.8556 5.4685 25.904 9.1562 45.5 9.1562 12.489 0 23.944-1.4934 32.906-4 10.574 4.0742 24.033 6.5312 38.719 6.5312 19.086 0 36.13-4.1217 47.406-10.594 0.0104 0.00076 0.0209-0.00076 0.0312 0 3.9473 0.28767 8.0209 0.46875 12.156 0.46875 40.256 0 72.875-14.185 72.875-31.688 0-12.481-16.598-23.27-40.719-28.438 1.7238-3.377 2.6875-7.0434 2.6875-10.875 0-16.802-18.159-30.406-40.562-30.406-8.7159 0-16.794 2.0539-23.406 5.5625-7.3331-16.569-26.712-28.406-49.469-28.406z" fill="#fff" transform="translate(0 452.36)"/>
          <path id="path4142" fill="url(#linearGradient12930)" d="m192.06 599.8c-22.274 0-41.326 11.356-49 27.375-8.4448-3.7046-18.1-5.8125-28.344-5.8125-33.255 0-60.219 22.134-60.219 49.438 0 7.0081 1.7974 13.679 5 19.719-9.6934 3.3409-16.406 10.563-16.406 18.938 0 11.552 12.779 20.938 28.531 20.938 9.0406 0 17.087-3.094 22.312-7.9062 8.8556 5.4685 25.904 9.1562 45.5 9.1562 12.489 0 23.944-1.4934 32.906-4 10.574 4.0742 24.033 6.5312 38.719 6.5312 19.086 0 36.13-4.1217 47.406-10.594 0.0104 0.00076 0.0209-0.00076 0.0312 0 3.9473 0.28767 8.0209 0.46875 12.156 0.46875 40.256 0 72.875-14.185 72.875-31.688 0-12.481-16.598-23.27-40.719-28.438 1.7238-3.377 2.6875-7.0434 2.6875-10.875 0-16.802-18.159-30.406-40.562-30.406-8.7159 0-16.794 2.0539-23.406 5.5625-7.3331-16.569-26.712-28.406-49.469-28.406z"/>
        </g>
        <g id="g4146" transform="matrix(.80663 0 0 .71430 102.13 190.56)">
          <path id="path4148" fill="#fff" d="m500.05 606.14c13.029 0 24.173 6.6426 28.661 16.012 4.9396-2.1669 10.587-3.3999 16.579-3.3999 19.451 0 35.223 12.946 35.223 28.917 0 4.0992-1.0513 8.001-2.9246 11.534 5.6699 1.9542 9.5964 6.1786 9.5964 11.077 0 6.7568-7.4747 12.247-16.689 12.247-5.288 0-9.9945-1.8097-13.051-4.6245-5.1799 3.1986-15.152 5.3557-26.614 5.3557-7.305 0-14.005-0.8735-19.248-2.3397-6.1847 2.3831-14.057 3.8203-22.647 3.8203-11.164 0-21.133-2.4108-27.729-6.1965-0.006 0.00044-0.0122-0.00044-0.0183 0-2.3089 0.16826-4.6916 0.27418-7.1105 0.27418-23.546 0-42.626-8.2971-42.626-18.535 0-7.3006 9.7086-13.611 23.817-16.634-1.0083-1.9753-1.572-4.1198-1.572-6.361 0-9.8281 10.622-17.785 23.726-17.785 5.0981 0 9.8232 1.2014 13.691 3.2536 4.2893-9.6916 15.625-16.615 28.935-16.615z"/>
          <path id="path4150" fill="url(#linearGradient12934)" d="m498.78 604.87c13.029 0 24.173 6.6426 28.661 16.012 4.9396-2.1669 10.587-3.3999 16.579-3.3999 19.451 0 35.223 12.946 35.223 28.917 0 4.0992-1.0513 8.001-2.9246 11.534 5.6699 1.9542 9.5964 6.1786 9.5964 11.077 0 6.7568-7.4747 12.247-16.689 12.247-5.288 0-9.9945-1.8097-13.051-4.6245-5.1799 3.1986-15.152 5.3557-26.614 5.3557-7.305 0-14.005-0.8735-19.248-2.3397-6.1847 2.3831-14.057 3.8203-22.647 3.8203-11.164 0-21.133-2.4108-27.729-6.1965-0.006 0.00044-0.0122-0.00044-0.0183 0-2.3089 0.16826-4.6916 0.27418-7.1105 0.27418-23.546 0-42.626-8.2971-42.626-18.535 0-7.3006 9.7086-13.611 23.817-16.634-1.0083-1.9753-1.572-4.1198-1.572-6.361 0-9.8281 10.622-17.785 23.726-17.785 5.0981 0 9.8232 1.2014 13.691 3.2536 4.2893-9.6916 15.625-16.615 28.935-16.615z"/>
        </g>
      </g>
    </g>
    <path id="path10820" opacity=".22" d="m142.52 445.83s38.543 17.927 58.263 6.2745c19.72-11.653 80.672-47.507 80.672-47.507l45.714-33.165s40.336 12.549 44.818 16.134c4.4818 3.5854 40.336 42.129 40.336 46.611 0 4.4818 68.123 32.269 63.641 32.269-4.4818 0-196.3 8.0672-201.68 8.0672-5.3781 0-55.574 11.653-76.19 11.653s-179.27 0.89635-179.27-8.9636c0-9.8599 65.434-11.653 69.02-12.549 3.5854-0.89636 54.678-18.824 54.678-18.824z" clip-path="url(#clipPath11000)" transform="translate(0 -1.7927)" filter="url(#filter10846)" fill="#008000"/>
    <path id="path10850" opacity=".11" d="m142.52 445.83s38.543 17.927 58.263 6.2745c19.72-11.653 80.672-47.507 80.672-47.507l45.714-33.165s40.336 12.549 44.818 16.134c4.4818 3.5854 40.336 42.129 40.336 46.611 0 4.4818 68.123 32.269 63.641 32.269-4.4818 0-196.3 8.0672-201.68 8.0672-5.3781 0-55.574 11.653-76.19 11.653s-179.27 0.89635-179.27-8.9636c0-9.8599 65.434-11.653 69.02-12.549 3.5854-0.89636 54.678-18.824 54.678-18.824z" clip-path="url(#clipPath10996)" transform="matrix(.84509 0 0 .70049 5.5296 142.1)" filter="url(#filter10846)" fill="#008000"/>
    <path id="path10854" opacity=".44" d="m135.1 457.34s-0.70113-35.817 45.535-30.834c21.871 2.3568 60.52-16.796 60.52-16.796 31.362 17.362 55.724 5.1622 81.777 0.10474 7.4449 17.964 53.449 41.629 54.364 36.608 1.1551-6.3363 24.376-24.699 27.608-22.489 15.91 10.88 49.031-21.475 44.549-3.5603-1.295 5.1763-144.33 50.294-149.71 50.294-5.3781 0 10.948-39.141-119.68-7.5416-20.214 4.8899-79.569-15.739-79.569-25.599 0-9.8599 18.765 1.1435 22.35 0.24715 3.5854-0.89636 12.251 19.565 12.251 19.565z" clip-path="url(#clipPath10992)" transform="matrix(.84509 0 0 .70049 -39.288 -99.016)" filter="url(#filter10846)" fill="#4d4d4d"/>
    <path id="path10856" opacity=".44" d="m135.1 457.34s-0.70113-35.817 45.535-30.834c21.871 2.3568 60.52-16.796 60.52-16.796 31.362 17.362 55.724 5.1622 81.777 0.10474 7.4449 17.964 53.449 41.629 54.364 36.608 1.1551-6.3363 24.376-24.699 27.608-22.489 15.91 10.88 49.031-21.475 44.549-3.5603-1.295 5.1763-144.33 50.294-149.71 50.294-5.3781 0 10.948-39.141-119.68-7.5416-20.214 4.8899-79.569-15.739-79.569-25.599 0-9.8599 18.765 1.1435 22.35 0.24715 3.5854-0.89636 12.251 19.565 12.251 19.565z" clip-path="url(#clipPath10988)" transform="matrix(.43648 0 0 .70049 -24.22 42.608)" filter="url(#filter10846)" fill="#4d4d4d"/>
    <path id="path10858" opacity=".44" d="m135.1 457.34s-0.70113-35.817 45.535-30.834c21.871 2.3568 60.52-16.796 60.52-16.796 31.362 17.362 55.724 5.1622 81.777 0.10474 7.4449 17.964 53.449 41.629 54.364 36.608 1.1551-6.3363 24.376-24.699 27.608-22.489 15.91 10.88 49.031-21.475 44.549-3.5603-1.295 5.1763-144.33 50.294-149.71 50.294-5.3781 0 10.948-39.141-119.68-7.5416-20.214 4.8899-79.569-15.739-79.569-25.599 0-9.8599 18.765 1.1435 22.35 0.24715 3.5854-0.89636 12.251 19.565 12.251 19.565z" clip-path="url(#clipPath10984)" transform="matrix(.43648 0 0 .34081 375.56 61.311)" filter="url(#filter10846)" fill="#4d4d4d"/>
    <path id="path10860" opacity=".44" d="m135.1 457.34s-36.268-27.926 9.9681-22.944c21.871 2.3568 96.087-24.686 96.087-24.686 31.362 43.663 55.724 5.1622 81.777 0.10474 7.4449 17.964 53.449 41.629 54.364 36.608 1.1551-6.3363 50.064-58.89 53.296-56.68 15.91 10.88 23.746 12.903 18.862 30.631-7.2229 26.217-128.52 55.555-133.9 55.555-5.3781 0 52.443-39.141-78.182-7.5416-20.214 4.8899-136.87-20.999-136.87-30.859 0-9.8599 18.765 1.1435 22.35 0.24715 3.5854-0.89636 12.251 19.565 12.251 19.565z" clip-path="url(#clipPath10980)" transform="matrix(.45363 0 0 .34081 530.99 177.84)" filter="url(#filter10846)" fill="#4d4d4d"/>
    <path id="path10862" opacity=".33" d="m734.28 856.19s-22.184-5.0706-29.79-11.092c-7.6058-6.0213-34.226-20.916-41.832-20.916-7.6058 0-15.212-1.2676-19.965 0-4.7536 1.2676-5.3875 5.3875-5.3875 8.2397s13.627 16.796 19.648 20.916c6.0213 4.1198 15.846 13.31 13.944 17.43-1.9015 4.1198-0.31691 8.8735-0.31691 8.8735s21.55-0.31691 28.839-2.2184c7.2889-1.9015 24.085-8.2397 25.67-9.5073 1.5846-1.2676 20.282-12.993 20.282-12.993z" clip-path="url(#clipPath10976)" transform="translate(0 -454.15)" filter="url(#filter10896)" fill="#ff0"/>
    <path id="path10900" opacity=".33" d="m274.13 844.79s19.015 1.2676 11.409-4.7536c-7.6058-6.0213-27.254-10.775-34.86-10.775-7.6058 0-15.212-1.2676-19.965 0-4.7536 1.2676 9.8242 16.796 9.8242 19.648 0 2.8522-14.261 10.458-8.2397 14.578 6.0213 4.1198-2.5353 0.63383-4.4367 4.7537-1.9015 4.1198 18.064-4.4368 18.064-4.4368s5.0706-6.0213 12.36-7.9228c7.2889-1.9015 10.775-6.972 12.359-8.2397 1.5846-1.2676-0.63382 0.31691-0.63382 0.31691z" clip-path="url(#clipPath10972)" transform="translate(0 -454.15)" filter="url(#filter10896)" fill="#ff0"/>
    <path id="path10908" opacity=".11" d="m142.52 445.83s38.543 17.927 58.263 6.2745c19.72-11.653 80.672-47.507 80.672-47.507l45.714-33.165s40.336 12.549 44.818 16.134c4.4818 3.5854 40.336 42.129 40.336 46.611 0 4.4818 68.123 32.269 63.641 32.269-4.4818 0-196.3 8.0672-201.68 8.0672-5.3781 0-55.574 11.653-76.19 11.653s-179.27 0.89635-179.27-8.9636c0-9.8599 65.434-11.653 69.02-12.549 3.5854-0.89636 54.678-18.824 54.678-18.824z" clip-path="url(#clipPath10960)" transform="matrix(.94709 0 0 .70049 3.6096 142.1)" filter="url(#filter10846)" fill="#008000"/>
    <path id="path10910" opacity=".11" d="m142.52 445.83s38.543 17.927 58.263 6.2745c19.72-11.653 80.672-47.507 80.672-47.507l45.714-33.165s40.336 12.549 44.818 16.134c4.4818 3.5854 40.336 42.129 40.336 46.611 0 4.4818 68.123 32.269 63.641 32.269-4.4818 0-196.3 8.0672-201.68 8.0672-5.3781 0-55.574 11.653-76.19 11.653s-179.27 0.89635-179.27-8.9636c0-9.8599 65.434-11.653 69.02-12.549 3.5854-0.89636 54.678-18.824 54.678-18.824z" clip-path="url(#clipPath10956)" transform="matrix(1.0793 0 0 .70049 1.1206 142.1)" filter="url(#filter10846)" fill="#008000"/>
    <path id="path3937" d="m203.02 892.1 79.861-45.635s55.776-27.888 64.65-27.888c8.8735 0 78.594 3.8029 95.073 10.141 16.479 6.3382 124.23 41.832 124.23 41.832s86.2 15.212 95.073 15.212c8.8735 0 50.706-6.3382 59.579-8.8735 8.8735-2.5353 84.932-65.917 84.932-65.917v124.23s-324.52 10.141-415.79 35.494-168.6 39.297-271.28 26.62c-102.66-12.67-117.88-21.54-117.88-21.54v-91.27l2.54 5.07 55.776 7.6058s70.988 7.6058 76.058 6.3382c5.0706-1.2676 45.635-2.5353 51.973-5.0706 6.3382-2.5353 15.212-6.3382 15.212-6.3382z" fill="url(#radialGradient15120)" transform="translate(0 -454.15)" clip-path="url(#clipPath10952)"/>
  </g>
  <metadata>
    <rdf:RDF>
      <cc:Work>
        <dc:format>image/svg+xml</dc:format>
        <dc:type rdf:resource="http://purl.org/dc/dcmitype/StillImage"/>
        <cc:license rdf:resource="http://creativecommons.org/licenses/publicdomain/"/>
        <dc:publisher>
          <cc:Agent rdf:about="http://openclipart.org/">
            <dc:title>Openclipart</dc:title>
          </cc:Agent>
        </dc:publisher>
        <dc:title>Landscape_02</dc:title>
        <dc:date>2010-08-02T22:24:43</dc:date>
        <dc:description>Landscape 2</dc:description>
        <dc:source>http://openclipart.org/detail/76423/landscape_02-by-inky2010</dc:source>
        <dc:creator>
          <cc:Agent>
            <dc:title>inky2010</dc:title>
          </cc:Agent>
        </dc:creator>
        <dc:subject>
          <rdf:Bag>
            <rdf:li>Landscape</rdf:li>
            <rdf:li>clip art</rdf:li>
            <rdf:li>clipart</rdf:li>
            <rdf:li>drawing</rdf:li>
            <rdf:li>icon</rdf:li>
            <rdf:li>inkscape</rdf:li>
            <rdf:li>inky2010</rdf:li>
          </rdf:Bag>
        </dc:subject>
      </cc:Work>
      <cc:License rdf:about="http://creativecommons.org/licenses/publicdomain/">
        <cc:permits rdf:resource="http://creativecommons.org/ns#Reproduction"/>
        <cc:permits rdf:resource="http://creativecommons.org/ns#Distribution"/>
        <cc:permits rdf:resource="http://creativecommons.org/ns#DerivativeWorks"/>
      </cc:License>
    </rdf:RDF>
  </metadata>
</svg>