<?xml version="1.0" encoding="UTF-8"?>
<svg xmlns:rdf="http://www.w3.org/1999/02/22-rdf-syntax-ns#" xmlns="http://www.w3.org/2000/svg" xmlns:cc="http://creativecommons.org/ns#" xmlns:xlink="http://www.w3.org/1999/xlink" xmlns:dc="http://purl.org/dc/elements/1.1/" xmlns:svg="http://www.w3.org/2000/svg" id="svg2" viewBox="0 0 744.09 1052.4" version="1.1">
  <title id="title3903">population</title>
  <defs id="defs4">
    <filter id="filter3812">
      <feGaussianBlur id="feGaussianBlur3814" stdDeviation="12.372394"/>
    </filter>
  </defs>
  <g id="layer1" stroke-width="0">
    <path id="path3779" fill="#0084c8" d="m182.64 519.49c-16.874 0-30.558 13.763-30.558 30.741 0 13.206 8.2778 24.464 19.895 28.816v6.0608c-27.704 2.1634-39.816 13.206-41.555 32.851l-6.466 73.033c6.7457 10.808 13.492 5.143 20.237 0l6.4661-65.131c0.29095-2.931 1.3163-5.6699 3.5593-7.9101l-5.2225 83.823c-0.18117 2.9076 1.1207 5.6224 3.0572 7.9125-0.3362 1.8055-0.42098 3.7876-0.52638 5.8645l-4.6292 91.151c-0.49482 9.7452 3.5498 17.617 7.9633 17.617h10.243c4.4135 0 7.8273-7.8584 7.9633-17.617l1.2549-90.052h16.053c0 0.004-0.00006 0.007 0 0.01l1.1214 91.316c0.1198 9.7579 3.5498 17.617 7.9633 17.617h10.243c4.4135 0 8.4431-7.8725 7.9633-17.617l-4.4957-91.316c-0.13558-2.7524-0.32518-5.3317-0.89596-7.5628 1.6441-2.1606 2.7513-4.6612 2.5862-7.3231l-5.2225-84.151c-0.0441-0.70965-0.081-1.4064-0.23311-2.0847 4.0713 2.5304 6.1924 6.2372 6.6292 10.323l6.9634 65.131c8.539 8.0638 14.464 6.2329 19.227 0l-6.9634-73.033c-1.9124-20.058-14.467-31.149-43.389-32.969v-5.4472c12.361-3.9384 21.318-15.572 21.318-29.312 0-16.979-13.676-30.741-30.55-30.741z"/>
    <path id="path3791" filter="url(#filter3812)" transform="matrix(.27477 0 0 .22563 249.72 614.24)" fill="#ccc" d="m216.22 761.93c-17.747 0-31.549 15.745-32.031 35.265l-4.5 182.66h-64.562l-5.0312-180.15c-0.55-19.52-14.291-35.23-32.038-35.23h-41.188c-17.747 0-33.99 15.735-32 35.227l18.594 182.36c0.42409 4.1547 0.77308 8.1183 2.125 11.73-7.7868 4.5814-13.01 10.036-12.281 15.852l21 167.67c-9.019-4.6-13.142-10-14.312-15.9l-26-130.3c-27.125-10.288-54.25-21.62-81.375 0l2.5312 14.166c-6.0852 2.6181-11.28 7.2945-14.438 13.229-9.5622-5.9657-20.306-9.6931-32.969-9.8188l5.625-56.776c1.7462-17.643-12.938-31.892-29-31.892h-37.25c-5.9974 0-11.504 1.9906-16.062 5.3965l13.562-136.82c1.9021-19.22-14.097-34.778-31.594-34.778h-40.594c-17.497 0-31.087 15.532-31.562 34.778l-3.4375 138.66c-4.416-3.1072-9.6692-4.9094-15.375-4.9094h-37.25c-4.6503 0-9.1931 1.2098-13.25 3.3354l-3.75-134.58c-0.53903-19.246-14.097-34.778-31.594-34.778h-40.594c-17.497 0-33.524 15.559-31.562 34.778l18.344 179.77c0.41809 4.0959 0.76087 7.9816 2.0938 11.543-7.6772 4.5169-12.843 9.8926-12.125 15.627l19.5 155.86c-2.7311 0.6568-5.4564 1.5752-8.1875 2.8107-2.6271-2.8078-4.0952-5.8321-4.7188-8.9568l-25.625-128.47c-26.744-10.143-53.506-21.316-80.25 0l25.625 144.06c4.8733 27.384 30.336 46.272 83.594 56.514l9.9375 55.876c-4.9224 6.5988-7.6562 13.715-7.6562 21.174 0 33.487 54.258 60.636 121.16 60.636 11.817 0 23.235-0.8568 34.031-2.4361 2.414 0.1161 4.8299 0.241 7.3125 0.3374v10.98c-42.281 7.8807-72.406 28.256-72.406 52.166 0 30.741 49.806 55.652 111.22 55.652 61.412 0 111.19-24.91 111.19-55.652 0-24.878-32.608-45.935-77.594-53.066v-9.8562c20.766-0.6499 39.18-1.9824 55.469-3.9348l3.5 19.75c6.244 35.085 49.702 54.823 149.16 58.687v10.83c-41.706 7.7737-71.406 27.869-71.406 51.454 0 30.323 49.11 54.902 109.69 54.902 60.578-0.0001 109.69-24.579 109.69-54.902 0-24.54-32.157-45.32-76.531-52.354v-9.7438c103.83-3.25 148.88-23.052 155.75-58.874l8-41.711 4.6875 26.346c5.8507 32.875 46.592 51.357 139.78 54.977v10.156c-39.079 7.2841-66.906 26.132-66.906 48.231 0 28.413 46.019 51.417 102.78 51.417 56.761 0.0001 102.78-23.004 102.78-51.417 0-22.994-30.14-42.465-71.719-49.056v-9.1442c21.028-0.6583 39.484-2.0195 55.562-4.1224 21.002 18.837 61.22 31.555 107.38 31.555v0.037c45.471 0.0002 85.135-12.388 106.38-30.768 19.76 3.4525 43.302 5.7035 71.094 6.7831v11.28c-43.348 8.0798-74.219 28.964-74.219 53.478 0 31.518 51.068 57.076 114.03 57.076 62.963 0 113.97-25.558 113.97-57.076 0-25.506-33.41-47.104-79.531-54.415v-10.118c107.92-3.3781 154.77-23.965 161.91-61.198l1.125-5.8462c39.384-10.007 66.375-30.491 66.375-54.115 0-19.478-18.33-36.802-46.844-47.894l4.4375-23.048c84.96-7.301 123.33-28.291 129.91-62.622l27.625-144.06c-18.881-12.293-42.366-15.904-76.219 0l-27.625 128.47c-1.7317 8.0579-10.14 15.359-26.281 20.349 0.6033-1.3377 0.7629-2.6851 0.9376-4.0849l20.687-165.98c0.6549-5.2499-3.7319-10.204-10.25-14.466 2.263-4.4003 3.0253-9.4868 3.5626-14.915l17.812-180.07c1.9022-19.22-14.065-34.778-31.562-34.778h-40.594c-17.497 0-31.119 15.532-31.594 34.778l-4.4375 180.07c-0.00017 0.01 0 0.023 0 0.037h-63.625l-5-177.6c-0.46-19.63-13.99-35.16-31.48-35.16h-40.594c-17.497 0-33.556 15.559-31.594 34.778l18.375 179.77c0.41809 4.096 0.72962 7.9814 2.0625 11.542-7.6773 4.5169-12.812 9.8927-12.094 15.628l12.562 100.47c-5.3886-3.4659-11.147-6.2681-17.406-8.0948l-14.23-71.2c-8.6492-3.2807-17.288-6.6323-25.938-8.9943l-0.0937-3.7851c-0.51-18.1-13.25-32.7-29.72-32.7h-21.812l10.81-109.08c1.9292-19.494-14.285-35.227-32.031-35.227h-41.188c-17.747 0-31.518 15.707-32 35.227l-4.5312 182.69h-64.531l-5.0625-180.15c-0.54671-19.52-14.253-35.227-32-35.227h-41.188c-17.747 0-34.021 15.735-32.031 35.227l14.719 144.47h-8.4062c-14.846 0-26.378 13.164-26.781 29.494l-1.3125 53.403c-19.781-7.2621-39.563-12.65-59.344-2.9981l-0.34375-12.779 16.219-84.658c-19.151-12.469-42.977-16.131-77.312 0l-4.2812 19.862c-13.563 1.6907-25.202 14.157-23.656 29.306l5.5938 54.827-5.6562 26.308c-1.7564 8.173-10.285 15.587-26.656 20.649 0.61187-1.357 0.76039-2.7775 0.9375-4.1974l21-168.3c0.66427-5.3248-3.7952-10.331-10.406-14.653 2.2954-4.463 3.0489-9.6341 3.5938-15.14l18.08-182.71c1.9292-19.494-14.285-35.265-32.031-35.265h-41.188zm-318.12 317.61 12.031 117.67c-5.4428 1.563-11.198 3.7083-17.344 6.5958l-15.75 73.265c-8.2057-2.9767-16.419-5.5158-24.625-6.4833l4.6875-37.663c9.5382-8.3873 15.121-18.22 17.281-29.494l23.719-123.9zm938.47 57.263 7.125 57.113-0.125 5.9586c-8.2257-4.3247-12.045-9.5343-13.156-15.103l-1.5625-7.795 7.7188-40.174zm-461.94 74.502 3.5312 19.75h-2.9688l-0.5625-19.75zm-378.78 16.527c9.2305 2.8949 19.642 5.385 31.344 7.4953h-31.125l-0.21875-7.4953zm302.28 1.3117 0.375 3.7475c0.35434 3.4756 0.65002 6.7975 1.7812 9.8187-6.5142 3.8326-10.891 8.3631-10.281 13.229l17.562 140.31c-7.545-3.7488-10.99-8.3611-11.969-13.266l-21.75-108.98c-16.279-6.1743-32.565-12.796-48.844-9.3691-11.58-4.6119-24.845-8.2048-39.281-10.493v-10.905c48.278-1.5113 85.165-6.231 112.41-14.091zm-679.34 38.862c1.5681 0.069 3.0934 0.1628 4.6875 0.2247v11.955c-0.73501 0.137-1.4593 0.2685-2.1875 0.4123l-2.5-12.592zm1083.2 74.652 6 48.119c-3.5231-3.6789-7.7406-7.1518-12.594-10.381-0.10635-0.3854-0.2036-0.7726-0.28125-1.1617l-6.9688-34.928c4.7654-0.5017 9.3901-1.0534 13.844-1.6488zm-201.34 0.8994c7.2392 0.8583 14.857 1.5828 22.875 2.211l-5.25 24.434c-8.5771 3.6003-16.154 7.7719-22.5 12.404l4.875-39.05zm-582.47 22.336 5.7188 45.72c-8.0524-4.0008-11.705-8.8936-12.75-14.128l-4.8125-24.172c4.4251-2.2986 8.3868-4.7791 11.844-7.4201zm209.53 7.4951c6.794 0.5829 13.78 0.8994 20.906 0.8994 0.74531 0 1.4766-0.031 2.2188-0.037l-5 23.235c-1.5685 7.2965-9.1967 13.919-23.812 18.438 0.54606-1.2115 0.68558-2.4802 0.84375-3.7476l4.8438-38.787zm787.91 17.501c3.9098 0.7153 7.9137 1.3228 12 1.8364-3.5758 2.1142-7.998 4.0155-13.312 5.6587 0.56766-1.2589 0.71063-2.5426 0.875-3.8599l0.4375-3.6352z"/>
    <path id="path3789" fill="#f60" d="m473.5 485.06c-17.3 0-31.33 14.11-31.33 31.517 0 13.539 8.4868 25.081 20.398 29.544v6.2138c-28.403 2.218-40.821 13.54-42.604 33.681l-6.6292 74.876c6.916 11.081 13.832 5.2728 20.748 0l6.6293-66.775c0.2983-3.0051 1.3495-5.8131 3.6492-8.1098l-5.3544 85.939c-0.18574 2.981 1.149 5.7642 3.1344 8.1122-0.34472 1.851-0.43165 3.8833-0.53973 6.0124l-4.746 93.453c-0.50732 9.9906 3.6394 18.062 8.1643 18.062h10.502c4.5249 0 8.0249-8.0572 8.1643-18.062l1.2865-92.326h16.458c0 0.005-0.00005 0.007 0 0.01l1.1498 93.621c0.12283 10.004 3.6394 18.062 8.1643 18.062h10.502c4.5249 0 8.6562-8.0711 8.1643-18.062l-4.6092-93.621c-0.13898-2.8219-0.33336-5.4663-0.91856-7.7538 1.6856-2.2151 2.8208-4.7788 2.6514-7.5079l-5.3544-86.275c-0.0452-0.72758-0.083-1.442-0.239-2.1374 4.1742 2.5942 6.3488 6.3947 6.7966 10.583l7.1392 66.775c8.7546 8.2674 14.829 6.3903 19.713 0l-7.1393-74.876c-1.9608-20.564-14.832-31.935-44.484-33.801v-5.5847c12.673-4.0379 21.856-15.965 21.856-30.052 0-17.407-14.021-31.517-31.322-31.517z"/>
    <path id="path3785" fill="#9ade00" d="m360.49 493.72c-15.596 0-28.244 12.72-28.244 28.413 0 12.206 7.6509 22.611 18.389 26.634v5.6018c-25.606 1.9995-36.8 12.206-38.408 30.363l-5.9762 67.502c6.2348 9.9894 12.47 4.7536 18.705 0l5.9764-60.198c0.26887-2.7092 1.2166-5.2405 3.2897-7.311l-4.827 77.475c-0.16745 2.6874 1.0359 5.1964 2.8258 7.3132-0.31083 1.6687-0.38919 3.5008-0.48654 5.4202l-4.2787 84.249c-0.45731 9.0063 3.2809 16.283 7.3602 16.283h9.4674c4.0792 0 7.2345-7.2639 7.3602-16.283l1.1599-83.233h14.837c0 0.004-0.00006 0.007 0 0.008l1.0364 84.4c0.11069 9.0189 3.281 16.283 7.3602 16.283h9.4674c4.0792 0 7.8037-7.2759 7.3602-16.283l-4.1552-84.4c-0.12544-2.544-0.30066-4.928-0.82811-6.9902 1.5196-1.9968 2.5429-4.308 2.3903-6.7684l-4.827-77.778c-0.0408-0.65589-0.0748-1.2999-0.21543-1.9269 3.7629 2.3388 5.7233 5.7649 6.1272 9.5409l6.436 60.198c7.8924 7.4533 13.369 5.761 17.771 0l-6.4359-67.502c-1.7677-18.539-13.371-28.79-40.103-30.472v-5.0347c11.425-3.6402 19.703-14.393 19.703-27.092 0-15.693-12.64-28.413-28.237-28.413z"/>
    <path id="path3783" fill="#f90" d="m256.84 479.12c-16.645 0-30.143 13.576-30.143 30.324 0 13.026 8.1654 24.131 19.625 28.425v5.9784c-27.327 2.134-39.274 13.027-40.99 32.405l-6.378 72.04c6.654 10.661 13.308 5.0731 19.962 0l6.3782-64.246c0.28704-2.8913 1.2985-5.5928 3.511-7.8026l-5.1516 82.683c-0.1787 2.8681 1.1055 5.5458 3.0157 7.8049-0.33164 1.7809-0.41528 3.7362-0.5193 5.7846l-4.5662 89.913c-0.48808 9.6118 3.5016 17.378 7.8551 17.378h10.104c4.3535 0 7.721-7.7523 7.8551-17.378l1.2377-88.829h15.835c0 0.004-0.00004 0.007 0 0.01l1.1062 90.075c0.1182 9.6252 3.5016 17.377 7.8551 17.377h10.104c4.3535 0 8.3283-7.7651 7.855-17.377l-4.4346-90.074c-0.1338-2.715-0.3208-5.2593-0.88377-7.4601 1.6217-2.1311 2.7139-4.5977 2.551-7.2235l-5.1516-83.007c-0.0434-0.70001-0.0799-1.3873-0.22993-2.0564 4.016 2.496 6.1081 6.1524 6.5391 10.182l6.8688 64.246c8.4229 7.9544 14.268 6.1483 18.966 0l-6.8686-72.04c-1.8865-19.785-14.27-30.726-42.799-32.521v-5.3732c12.193-3.8849 21.028-15.36 21.028-28.914 0-16.748-13.49-30.324-30.135-30.324z"/>
    <path id="path2985" fill="#ff4141" d="m290.54 596.85c-18.644 0-33.762 15.206-33.762 33.965 0 14.59 9.146 27.029 21.982 31.838v6.6964c-30.609 2.3902-43.991 14.591-45.912 36.296l-7.144 80.691c7.4532 11.941 14.906 5.6823 22.359 0l7.144-71.961c0.32152-3.2385 1.4544-6.2645 3.9327-8.7397l-5.7702 92.613c-0.20016 3.2126 1.2382 6.2119 3.3778 8.7422-0.37146 1.9948-0.46515 4.1849-0.58168 6.4794l-5.1145 100.71c-0.54674 10.766 3.9221 19.464 8.7984 19.464h11.317c4.8763 0 8.6481-8.6834 8.7984-19.464l1.3864-99.496h17.736c0 0.005-0.00004 0.007 0 0.0107l1.2391 100.89c0.1324 10.781 3.9221 19.464 8.7984 19.464h11.317c4.8763 0 9.3284-8.6974 8.7984-19.464l-4.9673-100.89c-0.14972-3.041-0.35918-5.8909-0.98988-8.3559 1.8165-2.3871 3.0399-5.15 2.8574-8.091l-5.7702-92.975c-0.0487-0.78412-0.0895-1.5539-0.2576-2.3033 4.4984 2.7957 6.8417 6.8912 7.3244 11.405l7.6936 71.961c9.4345 8.9094 15.981 6.8865 21.243 0l-7.6936-80.691c-2.113-22.161-15.984-34.416-47.939-36.426v-6.0184c13.657-4.3515 23.553-17.205 23.553-32.386 0-18.759-15.11-33.965-33.754-33.965z"/>
    <path id="path3781" fill="#d76cff" d="m401.24 623c-18.382 0-33.288 14.992-33.288 33.487 0 14.385 9.0173 26.649 21.673 31.39v6.6022c-30.178 2.3566-43.372 14.386-45.267 35.786l-7.0436 79.557c7.3483 11.773 14.697 5.6024 22.045 0l7.0436-70.949c0.31698-3.193 1.4339-6.1765 3.8773-8.6168l-5.689 91.31c-0.19734 3.1674 1.2208 6.1246 3.3303 8.6193-0.36623 1.9668-0.4586 4.126-0.57348 6.3883l-5.0426 99.294c-0.53906 10.615 3.8669 19.191 8.6746 19.191h11.158c4.8077 0 8.5265-8.5612 8.6746-19.191l1.3669-98.097h17.487c0 0.004-0.00005 0.007 0 0.0107l1.2216 99.473c0.13054 10.63 3.8669 19.191 8.6746 19.191h11.158c4.8077 0 9.1973-8.5752 8.6746-19.191l-4.8974-99.473c-0.14763-2.9983-0.35415-5.808-0.97596-8.2384 1.791-2.3535 2.9972-5.0775 2.8172-7.9772l-5.6891-91.668c-0.048-0.77309-0.0881-1.5321-0.25396-2.271 4.4351 2.7564 6.7456 6.7943 7.2214 11.245l7.5854 70.949c9.3018 8.7842 15.756 6.7897 20.944 0l-7.5854-79.556c-2.0832-21.849-15.759-33.932-47.265-35.914v-5.9338c13.465-4.2903 23.222-16.963 23.222-31.931 0-18.495-14.898-33.487-33.279-33.487z"/>
    <path id="path3787" fill="#19aeff" d="m157.87 583.94c-18.382 0-33.288 14.992-33.288 33.487 0 14.385 9.0173 26.649 21.673 31.39v6.6022c-30.178 2.3566-43.372 14.386-45.267 35.786l-7.0436 79.557c7.3483 11.773 14.697 5.6024 22.045 0l7.0436-70.949c0.31698-3.193 1.4339-6.1764 3.8773-8.6168l-5.689 91.31c-0.19735 3.1674 1.2208 6.1246 3.3303 8.6193-0.36624 1.9668-0.4586 4.126-0.57349 6.3883l-5.0426 99.294c-0.53906 10.615 3.8669 19.191 8.6746 19.191h11.158c4.8077 0 8.5265-8.5612 8.6746-19.191l1.3669-98.097h17.487c0 0.004-0.00004 0.007 0 0.0107l1.2216 99.473c0.13054 10.63 3.8669 19.191 8.6746 19.191h11.158c4.8077 0 9.1973-8.5752 8.6746-19.191l-4.8974-99.473c-0.14764-2.9983-0.35416-5.808-0.97597-8.2384 1.791-2.3535 2.9971-5.0775 2.8172-7.9772l-5.6891-91.668c-0.0479-0.7731-0.0882-1.5321-0.25397-2.271 4.4351 2.7564 6.7456 6.7943 7.2214 11.245l7.5854 70.949c9.3018 8.7842 15.756 6.7897 20.944 0l-7.5854-79.556c-2.06-21.83-15.73-33.91-47.24-35.89v-5.9338c13.465-4.2903 23.222-16.963 23.222-31.931 0-18.495-14.898-33.487-33.279-33.487z"/>
    <path id="path3873" fill="#666" d="m506.44 590.74c-18.382 0-33.288 14.992-33.288 33.487 0 14.385 9.0173 26.649 21.673 31.39v6.6022c-30.178 2.3566-43.372 14.386-45.267 35.786l-7.0436 79.557c7.3483 11.773 14.697 5.6023 22.045 0l7.0436-70.949c0.31699-3.193 1.4339-6.1765 3.8774-8.6168l-5.689 91.31c-0.19736 3.1674 1.2208 6.1246 3.3303 8.6193-0.36623 1.9668-0.4586 4.126-0.57348 6.3883l-5.0426 99.294c-0.53904 10.615 3.867 19.191 8.6746 19.191h11.158c4.8077 0 8.5265-8.5612 8.6746-19.191l1.3669-98.097h17.487c0 0.004-0.00005 0.007 0 0.0107l1.2216 99.473c0.13054 10.63 3.8669 19.191 8.6747 19.191h11.158c4.8077 0 9.1973-8.5752 8.6746-19.191l-4.8974-99.473c-0.14763-2.9983-0.35415-5.808-0.97595-8.2384 1.791-2.3535 2.9971-5.0775 2.8172-7.9772l-5.6891-91.668c-0.0479-0.77308-0.0882-1.5321-0.25397-2.271 4.4351 2.7564 6.7456 6.7943 7.2214 11.245l7.5854 70.949c9.3018 8.7842 15.756 6.7897 20.944 0l-7.5854-79.556c-2.06-21.84-15.74-33.92-47.24-35.9v-5.9338c13.465-4.2903 23.222-16.963 23.222-31.931 0-18.495-14.898-33.487-33.279-33.487z"/>
  </g>
  <metadata>
    <rdf:RDF>
      <cc:Work>
        <dc:format>image/svg+xml</dc:format>
        <dc:type rdf:resource="http://purl.org/dc/dcmitype/StillImage"/>
        <cc:license rdf:resource="http://creativecommons.org/licenses/publicdomain/"/>
        <dc:publisher>
          <cc:Agent rdf:about="http://openclipart.org/">
            <dc:title>Openclipart</dc:title>
          </cc:Agent>
        </dc:publisher>
        <dc:title>population</dc:title>
        <dc:date>2010-12-26T13:02:01</dc:date>
        <dc:description>all, association, clip art, clipart, community, get together, group, meeting, people, population, public, social, society, team, </dc:description>
        <dc:source>http://openclipart.org/detail/101989/population-by-netalloy</dc:source>
        <dc:creator>
          <cc:Agent>
            <dc:title>netalloy</dc:title>
          </cc:Agent>
        </dc:creator>
        <dc:subject>
          <rdf:Bag>
            <rdf:li>all</rdf:li>
            <rdf:li>association</rdf:li>
            <rdf:li>clip art</rdf:li>
            <rdf:li>clipart</rdf:li>
            <rdf:li>community</rdf:li>
            <rdf:li>get together</rdf:li>
            <rdf:li>group</rdf:li>
            <rdf:li>meeting</rdf:li>
            <rdf:li>people</rdf:li>
            <rdf:li>population</rdf:li>
            <rdf:li>public</rdf:li>
            <rdf:li>social</rdf:li>
            <rdf:li>society</rdf:li>
            <rdf:li>team</rdf:li>
          </rdf:Bag>
        </dc:subject>
      </cc:Work>
      <cc:License rdf:about="http://creativecommons.org/licenses/publicdomain/">
        <cc:permits rdf:resource="http://creativecommons.org/ns#Reproduction"/>
        <cc:permits rdf:resource="http://creativecommons.org/ns#Distribution"/>
        <cc:permits rdf:resource="http://creativecommons.org/ns#DerivativeWorks"/>
      </cc:License>
    </rdf:RDF>
  </metadata>
</svg>