<?xml version="1.0" encoding="UTF-8" standalone="no"?>
<!-- Created with Inkscape (http://www.inkscape.org/) -->

<svg
   xmlns:dc="http://purl.org/dc/elements/1.1/"
   xmlns:cc="http://creativecommons.org/ns#"
   xmlns:rdf="http://www.w3.org/1999/02/22-rdf-syntax-ns#"
   xmlns:svg="http://www.w3.org/2000/svg"
   xmlns="http://www.w3.org/2000/svg"
   xmlns:sodipodi="http://sodipodi.sourceforge.net/DTD/sodipodi-0.dtd"
   xmlns:inkscape="http://www.inkscape.org/namespaces/inkscape"
   width="96.000008"
   height="96"
   id="svg2"
   version="1.1"
   inkscape:version="0.48.1 r9760"
   sodipodi:docname="favicon2.svg"
   inkscape:export-filename="/home/carol/Escritorio/EMPRESA/gauss_scout/gauss_scout_sistemas_gestión_aumentada.png"
   inkscape:export-xdpi="299.95062"
   inkscape:export-ydpi="299.95062">
  <defs
     id="defs4" />
  <sodipodi:namedview
     id="base"
     pagecolor="#ffffff"
     bordercolor="#666666"
     borderopacity="1.0"
     inkscape:pageopacity="0.0"
     inkscape:pageshadow="2"
     inkscape:zoom="3.3888504"
     inkscape:cx="42.106882"
     inkscape:cy="69.259773"
     inkscape:document-units="px"
     inkscape:current-layer="layer1"
     showgrid="false"
     fit-margin-top="0"
     fit-margin-left="0"
     fit-margin-right="0"
     fit-margin-bottom="0"
     inkscape:window-width="1280"
     inkscape:window-height="725"
     inkscape:window-x="0"
     inkscape:window-y="24"
     inkscape:window-maximized="1"
     inkscape:snap-nodes="false"
     inkscape:object-nodes="true" />
  <metadata
     id="metadata7">
    <rdf:RDF>
      <cc:Work
         rdf:about="">
        <dc:format>image/svg+xml</dc:format>
        <dc:type
           rdf:resource="http://purl.org/dc/dcmitype/StillImage" />
        <dc:title></dc:title>
      </cc:Work>
    </rdf:RDF>
  </metadata>
  <g
     inkscape:label="Capa 1"
     inkscape:groupmode="layer"
     id="layer1"
     transform="translate(-497.22153,-615.67096)">
    <rect
       style="fill:#ffffff;fill-opacity:1;stroke:none"
       id="rect2984"
       width="96"
       height="96"
       x="497.22153"
       y="615.67096" />
    <g
       id="g4229"
       transform="matrix(0.04965787,0,0,-0.04150299,495.58328,709.61002)"
       style="fill:#f25600;fill-opacity:1">
      <path
         id="path4231"
         d="M 1920,384 Q 1920,225 1807.5,112.5 1695,0 1536,0 H 448 Q 263,0 131.5,131.5 0,263 0,448 0,580 71,689.5 142,799 258,853 q -2,28 -2,43 0,212 150,362 150,150 362,150 158,0 286.5,-88 128.5,-88 187.5,-230 70,62 166,62 106,0 181,-75 75,-75 75,-181 0,-75 -41,-138 129,-30 213,-134.5 84,-104.5 84,-239.5 z"
         inkscape:connector-curvature="0"
         style="fill:#f25600;fill-opacity:1" />
    </g>
    <path
       style="font-size:40px;font-style:normal;font-variant:normal;font-weight:500;font-stretch:normal;text-align:start;line-height:125%;letter-spacing:0px;word-spacing:0px;writing-mode:lr-tb;text-anchor:start;fill:#000000;fill-opacity:1;stroke:none;font-family:Ubuntu;-inkscape-font-specification:Ubuntu Medium"
       d="m 545.71078,619.67109 c -5.99934,0 -11.07212,0.89524 -15.16688,2.60937 -3.99956,1.71407 -7.22767,4.04688 -9.70353,7.09417 -2.38075,3.0473 -4.08967,6.65508 -5.13717,10.84512 -0.72606,2.97027 -1.16341,6.20419 -1.38622,9.54047 l -0.16308,0 0,4.48482 0,5.62643 0,2.36473 c 0,5.04708 0.50181,9.74003 1.5493,14.02527 1.0475,4.19007 2.75642,7.79785 5.13717,10.84514 2.47586,3.0473 5.70397,5.46164 9.70353,7.17573 4.09476,1.71411 9.16754,2.52781 15.16688,2.52781 6.38021,0 12.28034,-0.43396 17.61315,-1.38622 5.33267,-0.85705 9.6322,-1.75228 12.96524,-2.60935 l 0,-42.40203 -17.28698,7.17573 0,23.23957 c -1.14277,0.28569 -2.91963,0.54366 -5.30025,0.73389 -2.28553,0.19047 -4.42841,0.24449 -6.5234,0.24449 -5.80887,0 -9.93221,-1.70898 -12.31288,-5.13717 -2.28546,-3.42821 -3.42478,-9.12474 -3.42478,-17.12389 l 0,-2.60936 c 0,-7.99915 1.13932,-13.69569 3.42478,-17.12388 2.38067,-3.42821 6.50401,-5.13717 12.31288,-5.13717 2.09499,0 4.23787,0.13563 6.5234,0.32615 2.38062,0.19022 9.28302,0.36669 10.42578,0.65236 2.31118,-0.49302 0,0 12.16145,-11.98673 -3.33304,-0.85707 -7.63257,-1.67077 -12.96524,-2.52782 -5.33281,-0.95226 -11.23294,-1.46776 -17.61315,-1.46776 z"
       id="path3034-4-1-6-7"
       inkscape:connector-curvature="0"
       sodipodi:nodetypes="ccccccccscccsccccccscsscscccccc" />
  </g>
</svg>
