<?xml version="1.0" encoding="UTF-8"?>
<svg xmlns:rdf="http://www.w3.org/1999/02/22-rdf-syntax-ns#" xmlns="http://www.w3.org/2000/svg" xmlns:cc="http://creativecommons.org/ns#" xmlns:dc="http://purl.org/dc/elements/1.1/" xmlns:svg="http://www.w3.org/2000/svg" id="svg3033" viewBox="0 0 100 140" version="1.1">
  <g id="layer1" transform="translate(0 -912.36)">
    <path id="rect4078" fill="#008000" d="m4.1443 1000.7c4.3513-1.24 12.883 1.551 14.717 8.9152 0.77922-13.998 6.404-18.172 11.468-21.332-6.8186 6.0582-10.315 11.048-9.3819 23.383 3.1302-6.9295 9.4034-9.3909 15.278-5.9876-8.7098-2.6282-13.748 5.8034-14.797 11.179h-2.489c-1.3884-4.8653-1.0685-14.097-14.794-16.158z"/>
    <path id="rect4083" fill="#00d400" d="m36.369 998.04c4.6757 1.6106 9.228 3.1578 14.079 13.543-0.24484-9.7067-2.6229-18.56-7.0575-27.765 2.8534 4.1678 7.2572 9.2735 9.6484 29.128 3.0316-11.651 6.7387-16.548 12.395-18.307-7.9697 5.459-9.5781 12.574-10.159 22.24h-5.9669c-0.60486-8.7853-5.7414-14.509-12.939-18.839z"/>
    <path id="path4086" fill="#00d400" d="m64.125 1001.4c6.0336 0.6211 14.197 8.4484 15.283 15.487h4.7716c0.56252-12.862 2.4987-21.704 8.7712-31.412-5.6829 6.4744-9.6326 15.715-10.321 27.457-1.6911-8.5715-4.262-15.997-11.33-17.565 5.1948 1.7781 7.9172 7.195 8.8139 17.064-4.2964-7.6956-9.4158-11.171-15.988-11.03z"/>
    <path id="path4088" fill="#0a0" d="m47.24 1052.4h2.3704c0.40375-11.765 3.7365-20.792 9.9555-27.12-5.7812 3.8583-9.174 11.551-10.904 21.333-1.1797-7.4643-3.7567-14.975-8.7229-22.566 5.0688 9.9166 7.5026 16.942 7.3007 28.353z"/>
    <path id="path4090" fill="#2d5016" d="m6.3588 1034.9c3.7793 4.5903 7.6794 8.8151 7.8441 17.364h8.4475c0.53555-7.289 3.5971-13.946 15.956-10.526-6.2395-2.7353-14.129-3.3725-17.431 7.7771 0.009-10.929 2.8564-18.474 7.5089-23.868-5.2405 4.959-8.791 12.343-9.9225 23.197-5.1232-20.258-9.5645-23.269-14.347-29.231 5.4606 7.407 11.074 15.738 11.8 29.365-3.5216-8.7645-6.5045-10.948-9.8554-14.079z"/>
    <path id="path4092" fill="#4a0" d="m5.9546 955.02c11.8 9.0509 11.33 25.074 11.33 25.074h5.0953c-0.5091-9.791 2.6124-18.635 10.325-26.281-4.8086 4.204-9.5842 8.5633-12.47 21.856 0.082-22.071-7.1609-27.389-12.403-30.371 8.8121 6.6904 10.834 15.369 10.124 27.957-1.8631-8.6115-5.2563-14.794-12.001-18.236z"/>
    <path id="path4094" fill="#2ca02c" d="m32.303 977.15c5.8352-6.4755 14.633-4.4609 15.42 2.9499h5.6987c0.0967-6.1064-1.6976-12.488 7.7771-17.23-5.7734 1.7857-10.017 5.4723-9.9225 14.548-4.2994-12.081-12.636-9.5099-14.079-1.9443 1.3651-5.7149 8.7594-8.8688 11.733 1.1397-2.8517-2.804-8.763-9.0521-16.627 0.53635z"/>
    <path id="path4096" fill="#00d400" d="m63.076 953.21c5.916 5.7322 9.3229 13.459 9.5872 26.885h2.6818c-0.022-8.214 1.0035-16.937 7.1737-28.158-3.4456 5.6387-6.8206 11.51-8.5145 22.929-3.514-17.26-7.2458-17.53-10.928-21.655z"/>
    <path id="path4098" fill="#4a0" d="m60.894 1025.6c12.487 1.5343 17.772 13.426 17.8 26.549h3.3522c1.5662-5.8915 5.1918-12.407 15.319-12.939-7.5928-1.0223-11.602 0.8458-16.426 9.185-4.072-19.075-12.353-22.567-20.046-22.795z"/>
    <path id="rect4078-8" fill="#008000" d="m17.675 932.17c4.3513-1.24 12.883 1.551 14.717 8.9152 0.77922-13.998 6.404-18.172 11.468-21.331-6.8186 6.0582-10.315 11.048-9.3819 23.383 3.1302-6.9295 9.4034-9.391 15.278-5.9876-8.7098-2.6282-13.748 5.8034-14.797 11.179h-2.489c-1.3884-4.8654-1.0685-14.097-14.794-16.158z"/>
    <path id="rect4083-6" fill="#00d400" d="m21.9 929.49c4.6757 1.6106 9.228 3.1578 14.079 13.543-0.24484-9.7067-2.6229-18.56-7.0575-27.765 2.8534 4.1678 7.2572 9.2735 9.6484 29.128 3.0316-11.651 6.7387-16.548 12.395-18.307-7.9697 5.4591-9.5781 12.574-10.159 22.24h-5.9669c-0.60486-8.7854-5.7414-14.509-12.939-18.839z"/>
    <path id="path4086-2" fill="#00d400" d="m29.656 932.84c6.0336 0.62113 14.197 8.4484 15.283 15.487h4.7716c0.56252-12.863 2.4987-21.704 8.7712-31.412-5.6829 6.4744-9.6326 15.715-10.321 27.457-1.6911-8.5714-4.262-15.997-11.33-17.565 5.1948 1.7781 7.9172 7.195 8.8139 17.064-4.2964-7.6957-9.4158-11.171-15.988-11.03z"/>
    <path id="path4088-4" fill="#0a0" d="m47.913 948.33h2.3704c0.40375-11.765 3.7365-20.792 9.9555-27.12-5.7812 3.8582-9.174 11.551-10.904 21.333-1.1797-7.4643-3.7567-14.975-8.7229-22.566 5.0688 9.9166 7.5026 16.942 7.3007 28.353z"/>
    <path id="path4090-7" fill="#2d5016" d="m29.247 930.97c3.7793 4.5903 7.6794 8.8151 7.8441 17.364h8.4475c0.53555-7.289 3.5971-13.946 15.956-10.526-6.2395-2.7353-14.129-3.3725-17.431 7.7771 0.009-10.929 2.8564-18.475 7.5089-23.868-5.2405 4.9589-8.791 12.343-9.9225 23.197-5.1232-20.258-9.5645-23.269-14.347-29.231 5.4606 7.4069 11.074 15.738 11.8 29.365-3.5216-8.7646-6.5045-10.949-9.8554-14.079z"/>
    <path id="path4092-9" fill="#4a0" d="m42.914 923.26c11.8 9.0509 11.33 25.074 11.33 25.074h5.0953c-0.5091-9.791 2.6124-18.635 10.325-26.281-4.8086 4.204-9.5842 8.5633-12.47 21.856 0.082-22.071-7.1609-27.389-12.403-30.371 8.8121 6.6904 10.834 15.369 10.124 27.957-1.8631-8.6115-5.2563-14.794-12.001-18.236z"/>
    <path id="path4094-3" fill="#2ca02c" d="m33.262 945.38c5.8352-6.4755 14.633-4.4609 15.42 2.9499h5.6987c0.0967-6.1064-1.6976-12.488 7.7771-17.23-5.7734 1.7857-10.017 5.4723-9.9225 14.548-4.2994-12.081-12.636-9.5099-14.079-1.9443 1.3651-5.7149 8.7594-8.8688 11.733 1.1397-2.8517-2.804-8.763-9.0521-16.627 0.53635z"/>
    <path id="path4096-9" fill="#00d400" d="m52.035 921.45c5.916 5.7322 9.3229 13.459 9.5872 26.885h2.6818c-0.022-8.214 1.0035-16.937 7.1737-28.158-3.4456 5.6387-6.8206 11.51-8.5145 22.929-3.514-17.26-7.2458-17.53-10.928-21.655z"/>
    <path id="path4098-2" fill="#4a0" d="m41.358 921.72c12.487 1.5343 17.772 13.426 17.8 26.549h3.3522c1.5662-5.8915 5.1918-12.407 15.319-12.939-7.5928-1.0223-11.602 0.84581-16.426 9.185-4.072-19.075-12.353-22.567-20.046-22.795z"/>
  </g>
  <metadata>
    <rdf:RDF>
      <cc:Work>
        <dc:format>image/svg+xml</dc:format>
        <dc:type rdf:resource="http://purl.org/dc/dcmitype/StillImage"/>
        <cc:license rdf:resource="http://creativecommons.org/licenses/publicdomain/"/>
        <dc:publisher>
          <cc:Agent rdf:about="http://openclipart.org/">
            <dc:title>Openclipart</dc:title>
          </cc:Agent>
        </dc:publisher>
        <dc:title>grass</dc:title>
        <dc:date>2011-10-24T14:21:37</dc:date>
        <dc:description>clip art, clipart, grass, svg, </dc:description>
        <dc:source>http://openclipart.org/detail/164635/grass-by-deemonizer</dc:source>
        <dc:creator>
          <cc:Agent>
            <dc:title>deemonizer</dc:title>
          </cc:Agent>
        </dc:creator>
        <dc:subject>
          <rdf:Bag>
            <rdf:li>clip art</rdf:li>
            <rdf:li>clipart</rdf:li>
            <rdf:li>grass</rdf:li>
            <rdf:li>svg</rdf:li>
          </rdf:Bag>
        </dc:subject>
      </cc:Work>
      <cc:License rdf:about="http://creativecommons.org/licenses/publicdomain/">
        <cc:permits rdf:resource="http://creativecommons.org/ns#Reproduction"/>
        <cc:permits rdf:resource="http://creativecommons.org/ns#Distribution"/>
        <cc:permits rdf:resource="http://creativecommons.org/ns#DerivativeWorks"/>
      </cc:License>
    </rdf:RDF>
  </metadata>
</svg>